<?xml version="1.0" encoding="UTF-8" standalone="no"?>
<!DOCTYPE svg PUBLIC "-//W3C//DTD SVG 1.1//EN" "http://www.w3.org/Graphics/SVG/1.1/DTD/svg11.dtd">
<svg width="100%" height="100%" viewBox="0 0 900 400" version="1.1" xmlns="http://www.w3.org/2000/svg" xmlns:xlink="http://www.w3.org/1999/xlink" xml:space="preserve" xmlns:serif="http://www.serif.com/" style="fill-rule:evenodd;clip-rule:evenodd;stroke-linejoin:round;stroke-miterlimit:2;">
    <g id="Trazado_823" transform="matrix(1.1584,0,0,1.1584,0.0701512,35.4347)">
        <path d="M650.42,0C681.911,-36.459 728.949,-36.569 751.527,-19.864C789.317,8.096 776.857,52.661 759.944,82.276C738.716,119.448 678.066,178.93 650.42,202.45C581.095,261.429 496.291,298.906 405.89,310.84C265.15,329.42 119.929,280.411 19.42,180.06C-5.94,154.74 -6.744,113.66 18.14,87.14C30.044,74.454 46.686,67.249 64.082,67.249C80.478,67.249 96.244,73.65 108,85.08C182.064,157.094 287.06,194 389.53,180.52C496.432,166.457 579.639,81.947 650.42,0Z" style="fill:url(#_Linear1);fill-rule:nonzero;"/>
    </g>
    <defs>
        <linearGradient id="_Linear1" x1="0" y1="0" x2="1" y2="0" gradientUnits="userSpaceOnUse" gradientTransform="matrix(650.42,0,0,650.42,8.67362e-19,157.456)"><stop offset="0" style="stop-color:rgb(253,116,0);stop-opacity:1"/><stop offset="0.25" style="stop-color:rgb(253,151,63);stop-opacity:1"/><stop offset="0.5" style="stop-color:rgb(254,179,115);stop-opacity:1"/><stop offset="0.75" style="stop-color:rgb(254,211,173);stop-opacity:1"/><stop offset="1" style="stop-color:rgb(255,224,199);stop-opacity:1"/></linearGradient>
    </defs>
</svg>
