<?xml version="1.0" encoding="UTF-8" standalone="no"?>
<!DOCTYPE svg PUBLIC "-//W3C//DTD SVG 1.1//EN" "http://www.w3.org/Graphics/SVG/1.1/DTD/svg11.dtd">
<svg width="100%" height="100%" viewBox="0 0 694 750" version="1.1" xmlns="http://www.w3.org/2000/svg" xmlns:xlink="http://www.w3.org/1999/xlink" xml:space="preserve" xmlns:serif="http://www.serif.com/" style="fill-rule:evenodd;clip-rule:evenodd;stroke-linejoin:round;stroke-miterlimit:2;">
    <g transform="matrix(0.999731,0,0,0.999731,52.8624,-42.3617)">
        <path d="M94.829,391.201C49.042,498.213 51.283,611.202 121.132,695.454C139.368,717.45 161.077,736.424 185.289,751.602C265.893,802.13 367.23,805.845 451.366,763.03C482.893,746.986 495.809,708.756 479.217,676.561C462.961,645.02 424.241,632.537 392.536,648.697C348.638,671.075 296.73,669.796 253.624,642.778C188.921,602.225 176.618,537.517 204.511,464.266C222.945,415.855 257.8,348.885 257.797,295.143C257.79,196.638 225.442,137.43 127.406,76.985C110.481,66.55 92.648,57.662 73.959,50.833C31.763,35.419 -34.113,38.34 -49.245,83.256C-66.2,133.591 -19.65,152.881 5.024,161.684C25.444,168.972 43.534,175.638 59.131,185.516C133.342,232.514 134.448,298.6 94.829,391.201ZM608.456,566.228C639.454,583.986 650.204,623.569 632.445,654.567C614.688,685.565 575.105,696.315 544.106,678.557C513.108,660.801 502.358,621.216 520.117,590.218C537.874,559.22 577.457,548.471 608.456,566.228Z" style="fill:rgb(237,236,236);fill-rule:nonzero;"/>
    </g>
</svg>
