<svg xmlns="http://www.w3.org/2000/svg" viewBox="0 0 367.18 320.63"><defs><style>.cls-1{fill:#ffe0c7;}.cls-1,.cls-2,.cls-4{fill-rule:evenodd;}.cls-2{fill:#e0e0e0;}.cls-3{fill:#dadada;}.cls-4{fill:#edeef0;}</style></defs><g id="Capa_2" data-name="Capa 2"><g id="Capa_1-2" data-name="Capa 1"><path class="cls-1" d="M191.59,181.15a82.75,82.75,0,0,1,12.54-18.08l-7-19.17,28.38-18.27,14.56,14.29A82.61,82.61,0,0,1,261.74,136l8.62-18.48,33,7.15.19,20.38a82.79,82.79,0,0,1,18.08,12.55l19.17-7L359.05,179l-14.29,14.56a82.61,82.61,0,0,1,3.93,21.64l18.49,8.62-7.15,33-20.39.19a82.75,82.75,0,0,1-12.54,18.08l7,19.17L305.7,312.51l-14.56-14.29a83,83,0,0,1-21.65,3.93l-8.62,18.48-33-7.15-.19-20.39a82.47,82.47,0,0,1-18.09-12.54l-19.16,7-18.27-28.38,14.29-14.56a82.2,82.2,0,0,1-3.93-21.65l-18.49-8.61,7.15-33,20.39-.19Zm39,28.75a36.21,36.21,0,1,0,43.06-27.72A36.21,36.21,0,0,0,230.55,209.9Z"/><path class="cls-2" d="M138.18,30.89a40.28,40.28,0,0,1,6.09-8.77l-3.39-9.31,13.78-8.87,7.06,6.94A40.3,40.3,0,0,1,172.23,9l4.18-9,16,3.47.09,9.9a39.94,39.94,0,0,1,8.77,6.09l9.31-3.39,8.87,13.77-6.94,7.07a40.14,40.14,0,0,1,1.91,10.51l9,4.18-3.47,16-9.9.09A40,40,0,0,1,204,76.48l3.38,9.3-13.77,8.87-7.07-6.94A39.74,39.74,0,0,1,176,89.62l-4.18,9-16-3.47-.09-9.89a40.34,40.34,0,0,1-8.78-6.09l-9.3,3.39-8.87-13.78,6.94-7.07a39.74,39.74,0,0,1-1.91-10.5l-9-4.18,3.47-16,9.89-.1Zm18.92,14A17.57,17.57,0,1,0,178,31.39,17.56,17.56,0,0,0,157.1,44.85Z"/><path class="cls-3" d="M17.82,138.77a51.22,51.22,0,0,1,7.79-11.24l-4.34-11.92,17.65-11.36,9,8.89a51,51,0,0,1,13.46-2.45L66.78,99.2l20.51,4.45.12,12.67a51.26,51.26,0,0,1,11.24,7.8l11.92-4.34,11.36,17.64L113,146.47a51,51,0,0,1,2.44,13.46l11.5,5.36-4.45,20.51-12.67.12a51.74,51.74,0,0,1-7.8,11.24l4.34,11.91L88.76,220.43l-9.06-8.88A51.43,51.43,0,0,1,66.24,214l-5.35,11.49L40.38,221l-.12-12.68A51.15,51.15,0,0,1,29,200.56L17.1,204.9,5.75,187.26l8.88-9a51.43,51.43,0,0,1-2.44-13.46L.7,159.39l4.44-20.5,12.68-.12ZM42,156.64a22.51,22.51,0,1,0,26.77-17.23A22.51,22.51,0,0,0,42,156.64Z"/><path class="cls-3" d="M42,156.64c-.08,0,0-.51.14-1.45a17.12,17.12,0,0,1,1.3-4,22.33,22.33,0,0,1,10.68-10.93,23.27,23.27,0,0,1,22.43,1.16,23.53,23.53,0,0,1-9.39,43.34,23.28,23.28,0,0,1-20.9-8.22,22.37,22.37,0,0,1-5.2-14.38,16.79,16.79,0,0,1,.47-4.16c.23-.92.39-1.4.47-1.38.23,0-.23,2,0,5.51a22.43,22.43,0,0,0,5.55,13.31,21.48,21.48,0,1,0,7.29-33.66,22.39,22.39,0,0,0-10.56,9.83C42.66,154.73,42.27,156.7,42,156.64Z"/><path class="cls-3" d="M17.82,138.77a23.94,23.94,0,0,1-3.16.21l-9.52.29.37-.3C4.41,144.3,3,151.2,1.29,159.52L1,158.85l11.53,5.27.38.17,0,.43A51.4,51.4,0,0,0,15.37,178l.15.44-.33.35-8.84,9.09.11-1,11.43,17.6L16.78,204l11.91-4.38.55-.2.44.4a50.86,50.86,0,0,0,11,7.61l.55.28v.62c.05,3.93.1,8.26.15,12.68l-.83-1,20.51,4.4-1.24.61c1.67-3.58,3.49-7.51,5.34-11.5l.29-.62.68,0a50.33,50.33,0,0,0,13.16-2.41l.66-.21.5.49,9.06,8.87-1.44-.15,17.63-11.37-.47,1.4c-1.37-3.77-2.86-7.83-4.35-11.92l-.24-.67.48-.53a50.35,50.35,0,0,0,7.61-11v0c2.09-1.29.58-.35,1-.64H113l3.18,0,6.32-.06-1.15.93q2.26-10.38,4.46-20.5l.65,1.32L115,161l-.64-.3,0-.7A50.37,50.37,0,0,0,112,146.83l-.22-.67.49-.49,8.9-9L121,138l-11.32-17.66,1.29.44L99,125.12l-.6.22-.48-.43a49.89,49.89,0,0,0-11-7.67l-.56-.29v-.62c0-4.35,0-8.56-.08-12.67l.78,1-20.49-4.52,1-.5L62.2,111.05l-.22.47-.51,0a51.14,51.14,0,0,0-13.26,2.34l-.46.14-.33-.33-9-8.94.87.09L21.56,116.06l.21-.63,4.2,12,.08.22-.15.17c-6.19,6.81-7.86,11.13-8.08,11a3.62,3.62,0,0,1,.3-.8c.24-.51.61-1.27,1.17-2.27a48.34,48.34,0,0,1,6-8.43l-.08.39c-1.23-3.28-2.7-7.16-4.48-11.87l-.15-.39.37-.24,17.55-11.5.46-.3.41.39,9.11,8.83-.79-.19a52.51,52.51,0,0,1,13.66-2.55l-.74.49c1.69-3.67,3.44-7.47,5.31-11.51l.3-.66.72.15,20.52,4.37.77.16v.8q.07,6.17.16,12.67l-.56-.9a52,52,0,0,1,11.49,7.92l-1.08-.21,11.9-4.37.82-.3.48.74,11.39,17.62.49.76-.64.65-8.87,9.06.28-1.16a52.76,52.76,0,0,1,2.51,13.76l-.67-1,11.49,5.34.86.4-.2.92-4.44,20.51-.2.92h-.95l-6.32.06-3.18,0-1.59,0h-1.58l1-.64h0a53,53,0,0,1-8,11.49l.23-1.21,4.34,11.92.32.89-.79.51L89.39,221.41l-.79.5-.66-.65-9-8.89,1.16.27a53,53,0,0,1-13.76,2.48l1-.65c-1.86,4-3.7,7.9-5.38,11.48l-.37.8-.87-.19-20.49-4.49-.83-.18v-.84c0-4.42-.06-8.75-.08-12.68l.56.9a52.24,52.24,0,0,1-11.44-8l1,.2-11.93,4.29-.71.26-.4-.63L5,187.72l-.36-.57.47-.48,8.93-9-.18.79a51.91,51.91,0,0,1-2.4-13.67l.4.6L.44,159.94,0,159.73l.11-.46C2,151,3.56,144.12,4.77,138.81l.07-.31h.3l9.37.11,2.44.07A3.39,3.39,0,0,1,17.82,138.77Z"/><path class="cls-4" d="M191.59,181.15a82.75,82.75,0,0,1,12.54-18.08l-7-19.17,28.38-18.27,14.56,14.29A82.61,82.61,0,0,1,261.74,136l8.62-18.48,33,7.15.19,20.38a82.79,82.79,0,0,1,18.08,12.55l19.17-7L359.05,179l-14.29,14.56a82.61,82.61,0,0,1,3.93,21.64l18.49,8.62-7.15,33-20.39.19a82.75,82.75,0,0,1-12.54,18.08l7,19.17L305.7,312.51l-14.56-14.29a83,83,0,0,1-21.65,3.93l-8.62,18.48-33-7.15-.19-20.39a82.47,82.47,0,0,1-18.09-12.54l-19.16,7-18.27-28.38,14.29-14.56a82.2,82.2,0,0,1-3.93-21.65l-18.49-8.61,7.15-33,20.39-.19Zm39,28.75a36.21,36.21,0,1,0,43.06-27.72A36.21,36.21,0,0,0,230.55,209.9Z"/></g></g></svg>