<?xml version="1.0" encoding="UTF-8" standalone="no"?>
<!DOCTYPE svg PUBLIC "-//W3C//DTD SVG 1.1//EN" "http://www.w3.org/Graphics/SVG/1.1/DTD/svg11.dtd">
<svg width="100%" height="100%" viewBox="0 0 500 392" version="1.1" xmlns="http://www.w3.org/2000/svg" xmlns:xlink="http://www.w3.org/1999/xlink" xml:space="preserve" xmlns:serif="http://www.serif.com/" style="fill-rule:evenodd;clip-rule:evenodd;stroke-linejoin:round;stroke-miterlimit:2;">
    <g id="_3" transform="matrix(0.935051,0,0,0.935051,0,0.0113263)">
        <g id="Capa_2-2">
            <g id="Capa_1-2">
                <g transform="matrix(1,0,0,1,0,376.92)">
                    <g id="Grupo_184">
                        <ellipse id="Elipse_123" cx="258.95" cy="20.83" rx="258.95" ry="20.83" style="fill:rgb(237,237,237);"/>
                    </g>
                </g>
                <path id="Trazado_1373" d="M141.55,99.74C140.855,99.729 140.29,99.155 140.29,98.46C140.29,98.45 140.29,98.44 140.29,98.43C140.55,84.43 134.5,54.97 114.16,53.31C112.47,53.164 110.768,53.248 109.1,53.56C108.639,58.73 107.585,63.83 105.96,68.76C103.1,77.21 99.15,81.89 95.42,81.32C91.42,80.7 89.35,76.89 90,71.39C90.89,63.82 97,54.29 106.71,51.48C107.85,35.48 103.78,16.77 87.71,8.01C56.47,-9 27.54,19.45 27.25,19.74C27.009,19.982 26.681,20.118 26.34,20.118C25.636,20.118 25.057,19.539 25.057,18.835C25.057,18.496 25.191,18.17 25.43,17.93C31.077,12.616 37.561,8.268 44.62,5.06C59.95,-1.94 75.27,-1.68 88.9,5.75C105.79,14.95 110.27,34.25 109.29,50.92C110.944,50.665 112.623,50.608 114.29,50.75C123.86,51.53 131.66,57.93 136.85,69.27C140.848,78.484 142.868,88.436 142.78,98.48C142.77,99.156 142.226,99.714 141.55,99.74ZM106.44,54.25C98.34,57.07 93.3,65.19 92.53,71.69C92.35,73.21 92.05,78.2 95.8,78.78C97.66,79.07 100.8,75.78 103.51,67.94C104.976,63.495 105.958,58.905 106.44,54.25Z" style="fill:rgb(68,88,98);fill-rule:nonzero;"/>
                <path id="Trazado_1374" d="M342.41,109.45C340.655,109.456 338.958,108.811 337.65,107.64C333.16,103.72 331.76,93.64 334.16,82.46C334.29,81.87 334.42,81.28 334.57,80.69C328.636,75.853 321.226,73.182 313.57,73.12C296.63,73.35 283.48,89.51 281.84,104.46C281.742,104.966 281.295,105.335 280.78,105.335C280.187,105.335 279.7,104.847 279.7,104.255C279.7,104.246 279.7,104.238 279.7,104.23C281.45,88.37 295.47,71.23 313.54,70.98C321.398,71.012 329.025,73.662 335.21,78.51C339.15,65.11 348.86,50.35 365.71,45.26C399.11,35.18 420.41,69.83 420.63,70.18C420.928,70.689 420.762,71.352 420.26,71.66C420.094,71.76 419.903,71.813 419.709,71.813C419.333,71.813 418.983,71.614 418.79,71.29C418.58,70.95 398.11,37.71 366.33,47.29C349.91,52.26 340.59,66.9 337,80C343.87,85.76 348.52,93.29 349.64,99.42C350.51,104.2 349.05,107.65 345.64,108.89C344.604,109.264 343.511,109.453 342.41,109.45ZM336.41,82.22L336.26,82.91C334.05,93.15 335.2,102.65 339.06,106.02C340.667,107.396 342.938,107.713 344.86,106.83C348.08,105.67 347.86,101.91 347.51,99.77C346.51,94.25 342.44,87.53 336.41,82.22Z" style="fill:rgb(68,88,98);fill-rule:nonzero;"/>
                <path id="Trazado_1375" d="M428,82.06C428.27,80.954 428.69,79.891 429.25,78.9L427.52,76.26L431.15,72.51L433.84,74.15C434.83,73.562 435.892,73.105 437,72.79L437.65,69.71L442.87,69.62L443.61,72.68C444.715,72.958 445.777,73.381 446.77,73.94L449.41,72.21L453.16,75.84L451.52,78.53C452.106,79.507 452.563,80.556 452.88,81.65L455.96,82.3L456.05,87.51L452.98,88.26C452.71,89.366 452.29,90.429 451.73,91.42L453.46,94.06L449.83,97.81L447.14,96.17C446.159,96.759 445.103,97.213 444,97.52L443.35,100.61L438.14,100.69L437.39,97.63C436.284,97.36 435.221,96.94 434.23,96.38L431.59,98.11L427.84,94.48L429.48,91.78C428.894,90.807 428.437,89.761 428.12,88.67L425,88L424.92,82.78L427.98,82.04L428,82.06ZM434.87,85.06C435.274,87.396 437.321,89.119 439.691,89.119C442.376,89.119 444.584,86.91 444.584,84.226C444.584,81.541 442.376,79.333 439.691,79.333C437.007,79.333 434.798,81.541 434.798,84.226C434.798,84.485 434.819,84.744 434.86,85L434.87,85.06Z" style="fill:rgb(68,88,98);"/>
                <g id="Rectángulo_3" transform="matrix(1,0,0,1,14.16,107.97)">
                    <path d="M269.9,15.582C269.9,6.982 262.918,0 254.318,0L15.582,0C6.982,0 0,6.982 0,15.582L0,162.898C0,171.498 6.982,178.48 15.582,178.48L254.318,178.48C262.918,178.48 269.9,171.498 269.9,162.898L269.9,15.582Z" style="fill:rgb(202,202,202);"/>
                </g>
                <path id="Trazado_1376" d="M3.61,274.92L296,274.92C296,283.489 288.949,290.54 280.38,290.54L19.23,290.54C10.661,290.54 3.61,283.489 3.61,274.92Z" style="fill:rgb(202,202,202);fill-rule:nonzero;"/>
                <g id="Rectángulo_4" transform="matrix(1,0,0,1,26.65,120.16)">
                    <path d="M244.69,3.497C244.69,1.567 243.123,0 241.193,0L3.497,0C1.567,0 0,1.567 0,3.497L0,141.643C0,143.573 1.567,145.14 3.497,145.14L241.193,145.14C243.123,145.14 244.69,143.573 244.69,141.643L244.69,3.497Z" style="fill:rgb(234,234,234);"/>
                </g>
                <path id="Trazado_1377" d="M271.08,265.52L26.39,265.52L26.65,131.01L271.08,131.01L271.08,265.52Z" style="fill:white;fill-rule:nonzero;"/>
                <path id="Trazado_1378" d="M235.9,250.67L232.34,250.67C232.175,250.67 232.04,250.535 232.04,250.37C232.04,250.367 232.04,250.363 232.04,250.36C232.04,250.201 232.171,250.07 232.33,250.07C232.333,250.07 232.337,250.07 232.34,250.07L235.6,250.07L235.6,246.81C235.597,246.792 235.595,246.774 235.595,246.755C235.595,246.591 235.73,246.455 235.895,246.455C236.06,246.455 236.195,246.591 236.195,246.755C236.195,246.774 236.193,246.792 236.19,246.81L236.19,250.37C236.19,250.531 236.061,250.665 235.9,250.67Z" style="fill:rgb(224,224,224);fill-rule:nonzero;"/>
                <path id="Trazado_1379" d="M225.41,250.67L218.49,250.67C218.329,250.665 218.2,250.531 218.2,250.37C218.2,250.367 218.2,250.363 218.2,250.36C218.2,250.201 218.331,250.07 218.49,250.07L225.41,250.07C225.413,250.07 225.417,250.07 225.42,250.07C225.579,250.07 225.71,250.201 225.71,250.36C225.71,250.363 225.71,250.367 225.71,250.37C225.71,250.535 225.575,250.67 225.41,250.67ZM211.57,250.67L204.65,250.67C204.487,250.665 204.355,250.533 204.35,250.37C204.35,250.205 204.485,250.07 204.65,250.07L211.57,250.07C211.573,250.07 211.577,250.07 211.58,250.07C211.739,250.07 211.87,250.201 211.87,250.36C211.87,250.363 211.87,250.367 211.87,250.37C211.87,250.535 211.735,250.67 211.57,250.67ZM197.73,250.67L190.81,250.67C190.645,250.67 190.51,250.535 190.51,250.37C190.51,250.367 190.51,250.363 190.51,250.36C190.51,250.201 190.641,250.07 190.8,250.07C190.803,250.07 190.807,250.07 190.81,250.07L197.73,250.07C197.889,250.07 198.02,250.201 198.02,250.36C198.02,250.363 198.02,250.367 198.02,250.37C198.02,250.531 197.891,250.665 197.73,250.67ZM183.88,250.67L177,250.67C176.839,250.665 176.71,250.531 176.71,250.37C176.71,250.367 176.71,250.363 176.71,250.36C176.71,250.201 176.841,250.07 177,250.07L183.92,250.07C183.923,250.07 183.927,250.07 183.93,250.07C184.089,250.07 184.22,250.201 184.22,250.36L184.22,250.373C184.22,250.537 184.085,250.673 183.92,250.673C183.907,250.673 183.893,250.672 183.88,250.67Z" style="fill:rgb(224,224,224);fill-rule:nonzero;"/>
                <path id="Trazado_1380" d="M170,250.67L166.44,250.67C166.277,250.665 166.145,250.533 166.14,250.37L166.14,246.81C166.14,246.645 166.275,246.51 166.44,246.51C166.605,246.51 166.74,246.645 166.74,246.81L166.74,250.07L170,250.07C170.165,250.07 170.3,250.205 170.3,250.37C170.295,250.533 170.163,250.665 170,250.67Z" style="fill:rgb(224,224,224);fill-rule:nonzero;"/>
                <path id="Trazado_1381" d="M166.48,239.68C166.319,239.68 166.185,239.551 166.18,239.39L166.18,232C166.18,231.835 166.315,231.7 166.48,231.7C166.645,231.7 166.78,231.835 166.78,232L166.78,239.42C166.76,239.569 166.631,239.681 166.48,239.68ZM166.48,224.84C166.319,224.84 166.185,224.711 166.18,224.55L166.18,217.13C166.18,216.965 166.315,216.83 166.48,216.83C166.645,216.83 166.78,216.965 166.78,217.13L166.78,224.55C166.775,224.711 166.641,224.84 166.48,224.84ZM166.48,210C166.319,210 166.185,209.871 166.18,209.71L166.18,202.29C166.18,202.125 166.315,201.99 166.48,201.99C166.645,201.99 166.78,202.125 166.78,202.29L166.78,209.71C166.775,209.871 166.641,210 166.48,210Z" style="fill:rgb(224,224,224);fill-rule:nonzero;"/>
                <path id="Trazado_1382" d="M166.48,195.16C166.319,195.16 166.185,195.031 166.18,194.87L166.18,191.31C166.18,191.145 166.315,191.01 166.48,191.01L170,191.01C170.018,191.007 170.036,191.005 170.055,191.005C170.219,191.005 170.355,191.14 170.355,191.305C170.355,191.47 170.219,191.605 170.055,191.605C170.036,191.605 170.018,191.603 170,191.6L166.74,191.6L166.74,194.87C166.736,195.017 166.626,195.14 166.48,195.16Z" style="fill:rgb(224,224,224);fill-rule:nonzero;"/>
                <path id="Trazado_1383" d="M225.42,191.6L218.49,191.6C218.348,191.574 218.245,191.449 218.245,191.305C218.245,191.161 218.348,191.036 218.49,191.01L225.42,191.01C225.562,191.036 225.665,191.161 225.665,191.305C225.665,191.449 225.562,191.574 225.42,191.6ZM211.57,191.6L204.65,191.6C204.632,191.603 204.614,191.605 204.595,191.605C204.431,191.605 204.295,191.47 204.295,191.305C204.295,191.14 204.431,191.005 204.595,191.005C204.614,191.005 204.632,191.007 204.65,191.01L211.57,191.01C211.588,191.007 211.606,191.005 211.625,191.005C211.789,191.005 211.925,191.14 211.925,191.305C211.925,191.47 211.789,191.605 211.625,191.605C211.606,191.605 211.588,191.603 211.57,191.6ZM197.73,191.6L190.81,191.6C190.792,191.603 190.774,191.605 190.755,191.605C190.591,191.605 190.455,191.47 190.455,191.305C190.455,191.14 190.591,191.005 190.755,191.005C190.774,191.005 190.792,191.007 190.81,191.01L197.73,191.01C197.872,191.036 197.975,191.161 197.975,191.305C197.975,191.449 197.872,191.574 197.73,191.6ZM183.92,191.6L177,191.6C176.858,191.574 176.755,191.449 176.755,191.305C176.755,191.161 176.858,191.036 177,191.01L183.92,191.01C183.938,191.007 183.956,191.005 183.975,191.005C184.139,191.005 184.275,191.14 184.275,191.305C184.275,191.47 184.139,191.605 183.975,191.605C183.956,191.605 183.938,191.603 183.92,191.6Z" style="fill:rgb(224,224,224);fill-rule:nonzero;"/>
                <path id="Trazado_1384" d="M235.9,195.16C235.897,195.16 235.893,195.16 235.89,195.16C235.731,195.16 235.6,195.029 235.6,194.87L235.6,191.6L232.34,191.6C232.322,191.603 232.304,191.605 232.285,191.605C232.121,191.605 231.985,191.47 231.985,191.305C231.985,191.14 232.121,191.005 232.285,191.005C232.304,191.005 232.322,191.007 232.34,191.01L235.9,191.01C236.059,191.01 236.19,191.141 236.19,191.3C236.19,191.303 236.19,191.307 236.19,191.31L236.19,194.87C236.19,195.029 236.059,195.16 235.9,195.16Z" style="fill:rgb(224,224,224);fill-rule:nonzero;"/>
                <path id="Trazado_1385" d="M235.9,239.68C235.897,239.68 235.893,239.68 235.89,239.68C235.731,239.68 235.6,239.549 235.6,239.39L235.6,232C235.597,231.982 235.595,231.964 235.595,231.945C235.595,231.781 235.73,231.645 235.895,231.645C236.06,231.645 236.195,231.781 236.195,231.945C236.195,231.964 236.193,231.982 236.19,232L236.19,239.42C236.175,239.568 236.048,239.681 235.9,239.68ZM235.9,224.84C235.897,224.84 235.893,224.84 235.89,224.84C235.731,224.84 235.6,224.709 235.6,224.55L235.6,217.13C235.597,217.112 235.595,217.094 235.595,217.075C235.595,216.911 235.73,216.775 235.895,216.775C236.06,216.775 236.195,216.911 236.195,217.075C236.195,217.094 236.193,217.112 236.19,217.13L236.19,224.55C236.19,224.709 236.059,224.84 235.9,224.84ZM235.9,210C235.897,210 235.893,210 235.89,210C235.731,210 235.6,209.869 235.6,209.71L235.6,202.29C235.597,202.272 235.595,202.254 235.595,202.235C235.595,202.071 235.73,201.935 235.895,201.935C236.06,201.935 236.195,202.071 236.195,202.235C236.195,202.254 236.193,202.272 236.19,202.29L236.19,209.71C236.19,209.869 236.059,210 235.9,210Z" style="fill:rgb(224,224,224);fill-rule:nonzero;"/>
                <g id="Rectángulo_5" transform="matrix(1,0,0,1,162.29,152.06)">
                    <path d="M58.31,2.331C58.31,1.045 57.265,0 55.979,0L2.331,0C1.045,0 0,1.045 0,2.331L0,44.489C0,45.775 1.045,46.82 2.331,46.82L55.979,46.82C57.265,46.82 58.31,45.775 58.31,44.489L58.31,2.331Z" style="fill:rgb(216,217,221);"/>
                </g>
                <g id="Rectángulo_6" transform="matrix(0.00418878,-0.999991,0.999991,0.00418878,164.938,195.667)">
                    <rect x="0" y="0" width="39.94" height="53.14" style="fill:rgb(237,238,240);"/>
                </g>
                <path id="Trazado_1386" d="M164.94,195.66L183.61,170.91L195.04,186.5L202.87,178.22L218.08,195.89L164.94,195.66Z" style="fill:white;fill-rule:nonzero;"/>
                <path id="Trazado_1387" d="M200,167.94C199.994,170.235 198.105,172.12 195.81,172.12C193.511,172.12 191.62,170.229 191.62,167.93C191.62,165.631 193.511,163.74 195.81,163.74C195.817,163.74 195.823,163.74 195.83,163.74C198.125,163.751 200.006,165.645 200,167.94Z" style="fill:white;fill-rule:nonzero;"/>
                <path id="Trazado_1388" d="M148.35,252.4L64.62,252.4C61.328,252.4 58.62,249.692 58.62,246.4L58.62,204.4C58.62,201.108 61.328,198.4 64.62,198.4L148.35,198.4C151.642,198.4 154.35,201.108 154.35,204.4L154.35,246.4C154.35,249.692 151.642,252.4 148.35,252.4ZM64.62,200.14C62.292,200.14 60.375,202.052 60.37,204.38L60.37,246.38C60.375,248.708 62.292,250.62 64.62,250.62L148.35,250.62C150.676,250.62 152.59,248.706 152.59,246.38L152.59,204.38C152.59,202.054 150.676,200.14 148.35,200.14L64.62,200.14Z" style="fill:rgb(216,217,221);fill-rule:nonzero;"/>
                <g id="Rectángulo_7" transform="matrix(1,0,0,1,69.51,208.08)">
                    <rect x="0" y="0" width="13.96" height="2.63" style="fill:rgb(216,217,221);"/>
                </g>
                <g id="Rectángulo_8" transform="matrix(1,0,0,1,69.51,240.35)">
                    <rect x="0" y="0" width="13.96" height="2.63" style="fill:rgb(216,217,221);"/>
                </g>
                <g id="Rectángulo_9" transform="matrix(1,0,0,1,69.51,214.61)">
                    <rect x="0" y="0" width="24.04" height="2.63" style="fill:rgb(224,224,224);"/>
                </g>
                <g id="Rectángulo_10" transform="matrix(1,0,0,1,97.81,214.61)">
                    <rect x="0" y="0" width="10.63" height="2.63" style="fill:rgb(216,217,221);"/>
                </g>
                <g id="Rectángulo_11" transform="matrix(1,0,0,1,112.17,214.61)">
                    <rect x="0" y="0" width="18.5" height="2.63" style="fill:rgb(224,224,224);"/>
                </g>
                <g id="Rectángulo_12" transform="matrix(-1,-7.65714e-16,7.65714e-16,-1,140.09,223.47)">
                    <rect x="0" y="0" width="24.04" height="2.63" style="fill:rgb(224,224,224);"/>
                </g>
                <g id="Rectángulo_13" transform="matrix(-1,-7.65714e-16,7.65714e-16,-1,111.8,223.47)">
                    <rect x="0" y="0" width="10.63" height="2.63" style="fill:rgb(224,224,224);"/>
                </g>
                <g id="Rectángulo_14" transform="matrix(-1,-7.65714e-16,7.65714e-16,-1,97.43,223.47)">
                    <rect x="0" y="0" width="18.5" height="2.63" style="fill:rgb(216,217,221);"/>
                </g>
                <g id="Rectángulo_15" transform="matrix(1,0,0,1,69.51,227.23)">
                    <rect x="0" y="0" width="24.04" height="2.63" style="fill:rgb(224,224,224);"/>
                </g>
                <g id="Rectángulo_16" transform="matrix(1,0,0,1,92.35,233.75)">
                    <rect x="0" y="0" width="6.99" height="2.63" style="fill:rgb(216,217,221);"/>
                </g>
                <g id="Rectángulo_17" transform="matrix(1,0,0,1,112.17,227.23)">
                    <rect x="0" y="0" width="18.5" height="2.63" style="fill:rgb(224,224,224);"/>
                </g>
                <g id="Rectángulo_18" transform="matrix(1,0,0,1,69.01,233.75)">
                    <rect x="0" y="0" width="18.5" height="2.63" style="fill:rgb(224,224,224);"/>
                </g>
                <g id="Rectángulo_19" transform="matrix(1,0,0,1,212.71,221.47)">
                    <path d="M38.88,5.144C38.88,2.305 36.575,0 33.736,0L5.144,0C2.305,0 0,2.305 0,5.144L0,32.616C0,35.455 2.305,37.76 5.144,37.76L33.736,37.76C36.575,37.76 38.88,35.455 38.88,32.616L38.88,5.144Z" style="fill:rgb(216,217,221);"/>
                </g>
                <g id="Rectángulo_20" transform="matrix(1,0,0,1,42.47,138.71)">
                    <path d="M98.24,5.486C98.24,2.458 95.782,0 92.754,0L5.486,0C2.458,0 0,2.458 0,5.486L0,42.444C0,45.472 2.458,47.93 5.486,47.93L92.754,47.93C95.782,47.93 98.24,45.472 98.24,42.444L98.24,5.486Z" style="fill:rgb(237,238,240);"/>
                </g>
                <path id="Trazado_1389" d="M66.31,161.13L66.31,167.45L81.21,173.84L81.33,167.79L73.01,164.08L81.33,160.52L81.33,154.66L66.31,161.13Z" style="fill:rgb(216,217,221);fill-rule:nonzero;"/>
                <path id="Trazado_1390" d="M116.87,167.88L116.87,161.56L101.84,155.17L101.72,161.22L110.11,164.93L101.72,168.49L101.72,174.35L116.87,167.88Z" style="fill:rgb(216,217,221);fill-rule:nonzero;"/>
                <path id="Trazado_1391" d="M92.46,149.44C92.46,149.6 83.71,179.11 83.96,179.06C84.21,179.01 90.47,179.06 90.47,179.06L99.1,149.44L92.46,149.44Z" style="fill:rgb(216,217,221);fill-rule:nonzero;"/>
                <path id="Trazado_1392" d="M52.69,145.07C52.693,145.113 52.694,145.157 52.694,145.2C52.694,146.336 51.76,147.27 50.624,147.27C49.489,147.27 48.554,146.336 48.554,145.2C48.554,144.066 49.486,143.132 50.62,143.13C50.644,143.129 50.667,143.129 50.691,143.129C51.766,143.129 52.658,143.995 52.69,145.07Z" style="fill:rgb(216,217,221);fill-rule:nonzero;"/>
                <path id="Trazado_1393" d="M58.37,145.07C58.373,145.113 58.374,145.157 58.374,145.2C58.374,146.336 57.44,147.27 56.304,147.27C55.169,147.27 54.234,146.336 54.234,145.2C54.234,144.066 55.166,143.132 56.3,143.13C56.324,143.129 56.347,143.129 56.371,143.129C57.446,143.129 58.338,143.995 58.37,145.07Z" style="fill:rgb(216,217,221);fill-rule:nonzero;"/>
                <path id="Trazado_1394" d="M64.06,145.07C64.063,145.113 64.064,145.157 64.064,145.2C64.064,146.336 63.13,147.27 61.994,147.27C60.859,147.27 59.924,146.336 59.924,145.2C59.924,144.064 60.859,143.13 61.994,143.13C61.996,143.13 61.998,143.13 62,143.13C62.02,143.129 62.041,143.129 62.061,143.129C63.136,143.129 64.028,143.996 64.06,145.07Z" style="fill:rgb(216,217,221);fill-rule:nonzero;"/>
                <g id="Rectángulo_21" transform="matrix(1,0,0,1,223.65,149.87)">
                    <rect x="0" y="0" width="279.87" height="198.11" style="fill:rgb(224,224,224);"/>
                </g>
                <g id="Rectángulo_22" transform="matrix(1,0,0,1,182.79,129.39)">
                    <rect x="0" y="0" width="305.95" height="75.91" style="fill:rgb(247,247,248);"/>
                </g>
                <path id="Trazado_1395" d="M279.68,149.87C279.68,151.768 278.118,153.33 276.22,153.33C274.322,153.33 272.76,151.768 272.76,149.87C272.76,147.972 274.322,146.41 276.22,146.41C278.118,146.41 279.68,147.972 279.68,149.87Z" style="fill:rgb(224,224,224);fill-rule:nonzero;"/>
                <path id="Trazado_1396" d="M294.93,149.87C294.93,151.768 293.368,153.33 291.47,153.33C289.572,153.33 288.01,151.768 288.01,149.87C288.01,147.972 289.572,146.41 291.47,146.41C293.368,146.41 294.93,147.972 294.93,149.87Z" style="fill:rgb(224,224,224);fill-rule:nonzero;"/>
                <path id="Trazado_1397" d="M310.18,149.87C310.18,151.768 308.618,153.33 306.72,153.33C304.822,153.33 303.26,151.768 303.26,149.87C303.26,147.972 304.822,146.41 306.72,146.41C308.618,146.41 310.18,147.972 310.18,149.87Z" style="fill:rgb(224,224,224);fill-rule:nonzero;"/>
                <path id="Trazado_1398" d="M325.43,149.87C325.43,151.768 323.868,153.33 321.97,153.33C320.072,153.33 318.51,151.768 318.51,149.87C318.51,147.972 320.072,146.41 321.97,146.41C323.868,146.41 325.43,147.972 325.43,149.87Z" style="fill:rgb(224,224,224);fill-rule:nonzero;"/>
                <path id="Trazado_1399" d="M443.6,149.87C443.6,151.768 442.038,153.33 440.14,153.33C438.242,153.33 436.68,151.768 436.68,149.87C436.68,147.972 438.242,146.41 440.14,146.41C442.038,146.41 443.6,147.972 443.6,149.87Z" style="fill:rgb(224,224,224);fill-rule:nonzero;"/>
                <path id="Trazado_1400" d="M459.15,149.87C459.15,151.768 457.588,153.33 455.69,153.33C453.792,153.33 452.23,151.768 452.23,149.87C452.23,147.972 453.792,146.41 455.69,146.41C457.588,146.41 459.15,147.972 459.15,149.87Z" style="fill:rgb(224,224,224);fill-rule:nonzero;"/>
                <path id="Trazado_1401" d="M340.67,149.87C340.665,151.759 339.109,153.31 337.22,153.31C335.327,153.31 333.77,151.753 333.77,149.86C333.77,147.967 335.327,146.41 337.22,146.41C338.136,146.41 339.016,146.775 339.663,147.424C340.309,148.074 340.672,148.954 340.67,149.87Z" style="fill:rgb(224,224,224);fill-rule:nonzero;"/>
                <path id="Trazado_1402" d="M415.56,149.87C415.555,151.759 413.999,153.31 412.11,153.31C410.217,153.31 408.66,151.753 408.66,149.86C408.66,147.967 410.217,146.41 412.11,146.41C413.026,146.41 413.906,146.775 414.553,147.424C415.199,148.074 415.562,148.954 415.56,149.87Z" style="fill:rgb(224,224,224);fill-rule:nonzero;"/>
                <path id="Trazado_1403" d="M355.92,149.87C355.915,151.759 354.359,153.31 352.47,153.31C350.577,153.31 349.02,151.753 349.02,149.86C349.02,147.967 350.577,146.41 352.47,146.41C353.386,146.41 354.266,146.775 354.913,147.424C355.559,148.074 355.922,148.954 355.92,149.87Z" style="fill:rgb(245,245,245);fill-rule:nonzero;"/>
                <path id="Trazado_1404" d="M371.17,149.87C371.165,151.759 369.609,153.31 367.72,153.31C365.827,153.31 364.27,151.753 364.27,149.86C364.27,147.967 365.827,146.41 367.72,146.41C368.636,146.41 369.516,146.775 370.163,147.424C370.809,148.074 371.172,148.954 371.17,149.87Z" style="fill:rgb(245,245,245);fill-rule:nonzero;"/>
                <path id="Trazado_1405" d="M402.11,149.87C402.105,151.759 400.549,153.31 398.66,153.31C396.767,153.31 395.21,151.753 395.21,149.86C395.21,147.967 396.767,146.41 398.66,146.41C399.576,146.41 400.456,146.775 401.103,147.424C401.749,148.074 402.112,148.954 402.11,149.87Z" style="fill:rgb(245,245,245);fill-rule:nonzero;"/>
                <path id="Trazado_1406" d="M471.8,149.87C471.8,151.768 470.238,153.33 468.34,153.33C466.442,153.33 464.88,151.768 464.88,149.87C464.88,147.972 466.442,146.41 468.34,146.41C470.238,146.41 471.8,147.972 471.8,149.87Z" style="fill:rgb(245,245,245);fill-rule:nonzero;"/>
                <path id="Trazado_1407" d="M386.42,149.87C386.415,151.759 384.859,153.31 382.97,153.31C381.077,153.31 379.52,151.753 379.52,149.86C379.52,147.967 381.077,146.41 382.97,146.41C383.886,146.41 384.766,146.775 385.413,147.424C386.059,148.074 386.422,148.954 386.42,149.87Z" style="fill:rgb(253,116,0);fill-rule:nonzero;"/>
                <path id="Trazado_1408" d="M430.09,149.87C430.09,151.768 428.528,153.33 426.63,153.33C424.732,153.33 423.17,151.768 423.17,149.87C423.17,147.972 424.732,146.41 426.63,146.41C428.528,146.41 430.09,147.972 430.09,149.87Z" style="fill:rgb(253,116,0);fill-rule:nonzero;"/>
                <path id="Trazado_1409" d="M464.89,166.52C464.903,164.642 466.452,163.104 468.33,163.104C470.217,163.104 471.77,164.657 471.77,166.544C471.77,168.431 470.217,169.984 468.33,169.984C467.414,169.984 466.535,169.618 465.89,168.969C465.246,168.318 464.886,167.436 464.89,166.52Z" style="fill:rgb(224,224,224);fill-rule:nonzero;"/>
                <g id="Elipse_124" transform="matrix(1,0,0,1,449.63,163.06)">
                    <circle cx="3.46" cy="3.46" r="3.46" style="fill:rgb(224,224,224);"/>
                </g>
                <path id="Trazado_1410" d="M434.39,166.52C434.395,164.631 435.951,163.08 437.84,163.08C439.733,163.08 441.29,164.637 441.29,166.53C441.29,168.423 439.733,169.98 437.84,169.98C436.924,169.98 436.044,169.615 435.397,168.966C434.751,168.316 434.388,167.436 434.39,166.52Z" style="fill:rgb(224,224,224);fill-rule:nonzero;"/>
                <path id="Trazado_1411" d="M419.14,166.52C419.145,164.631 420.701,163.08 422.59,163.08C424.483,163.08 426.04,164.637 426.04,166.53C426.04,168.423 424.483,169.98 422.59,169.98C421.674,169.98 420.794,169.615 420.147,168.966C419.501,168.316 419.138,167.436 419.14,166.52Z" style="fill:rgb(224,224,224);fill-rule:nonzero;"/>
                <path id="Trazado_1412" d="M301,166.52C301.005,164.631 302.561,163.08 304.45,163.08C306.343,163.08 307.9,164.637 307.9,166.53C307.9,168.423 306.343,169.98 304.45,169.98C303.534,169.98 302.654,169.615 302.007,168.966C301.361,168.316 300.998,167.436 301,166.52Z" style="fill:rgb(224,224,224);fill-rule:nonzero;"/>
                <path id="Trazado_1413" d="M285.42,166.52C285.433,164.642 286.982,163.104 288.86,163.104C290.747,163.104 292.3,164.657 292.3,166.544C292.3,168.431 290.747,169.984 288.86,169.984C287.944,169.984 287.065,169.618 286.42,168.969C285.776,168.318 285.416,167.436 285.42,166.52Z" style="fill:rgb(224,224,224);fill-rule:nonzero;"/>
                <g id="Elipse_125" transform="matrix(1,0,0,1,403.88,163.06)">
                    <circle cx="3.46" cy="3.46" r="3.46" style="fill:rgb(224,224,224);"/>
                </g>
                <g id="Elipse_126" transform="matrix(1,0,0,1,328.99,163.06)">
                    <circle cx="3.46" cy="3.46" r="3.46" style="fill:rgb(224,224,224);"/>
                </g>
                <path id="Trazado_1414" d="M388.64,166.52C388.658,164.64 390.21,163.103 392.09,163.103C393.982,163.103 395.54,164.66 395.54,166.553C395.54,168.445 393.982,170.003 392.09,170.003C391.17,170.003 390.288,169.635 389.64,168.982C388.993,168.327 388.632,167.441 388.64,166.52Z" style="fill:rgb(245,245,245);fill-rule:nonzero;"/>
                <path id="Trazado_1415" d="M373.39,166.52C373.396,164.632 374.952,163.081 376.84,163.081C378.733,163.081 380.29,164.638 380.29,166.531C380.29,168.424 378.733,169.981 376.84,169.981C375.925,169.981 375.047,169.617 374.4,168.97C373.752,168.32 373.388,167.438 373.39,166.52Z" style="fill:rgb(245,245,245);fill-rule:nonzero;"/>
                <path id="Trazado_1416" d="M342.45,166.52C342.456,164.632 344.012,163.081 345.9,163.081C347.793,163.081 349.35,164.638 349.35,166.531C349.35,168.424 347.793,169.981 345.9,169.981C344.985,169.981 344.107,169.617 343.46,168.97C342.812,168.32 342.448,167.438 342.45,166.52Z" style="fill:rgb(245,245,245);fill-rule:nonzero;"/>
                <path id="Trazado_1417" d="M272.77,166.52C272.783,164.642 274.332,163.104 276.21,163.104C278.097,163.104 279.65,164.657 279.65,166.544C279.65,168.431 278.097,169.984 276.21,169.984C275.294,169.984 274.415,169.618 273.77,168.969C273.126,168.318 272.766,167.436 272.77,166.52Z" style="fill:rgb(245,245,245);fill-rule:nonzero;"/>
                <path id="Trazado_1418" d="M358.14,166.52C358.158,164.64 359.71,163.103 361.59,163.103C363.482,163.103 365.04,164.66 365.04,166.553C365.04,168.445 363.482,170.003 361.59,170.003C360.67,170.003 359.788,169.635 359.14,168.982C358.493,168.327 358.132,167.441 358.14,166.52Z" style="fill:rgb(253,116,0);fill-rule:nonzero;"/>
                <path id="Trazado_1419" d="M314.48,166.52C314.485,164.631 316.041,163.08 317.93,163.08C319.823,163.08 321.38,164.637 321.38,166.53C321.38,168.423 319.823,169.98 317.93,169.98C317.014,169.98 316.134,169.615 315.487,168.966C314.841,168.316 314.478,167.436 314.48,166.52Z" style="fill:rgb(253,116,0);fill-rule:nonzero;"/>
                <path id="Trazado_1420" d="M279.68,181.34C279.674,183.228 278.118,184.779 276.23,184.779C274.337,184.779 272.78,183.222 272.78,181.329C272.78,179.436 274.337,177.879 276.23,177.879C277.145,177.879 278.023,178.243 278.67,178.89C279.318,179.54 279.682,180.422 279.68,181.34Z" style="fill:rgb(224,224,224);fill-rule:nonzero;"/>
                <path id="Trazado_1421" d="M294.93,181.34C294.924,183.228 293.368,184.779 291.48,184.779C289.587,184.779 288.03,183.222 288.03,181.329C288.03,179.436 289.587,177.879 291.48,177.879C292.395,177.879 293.273,178.243 293.92,178.89C294.568,179.54 294.932,180.422 294.93,181.34Z" style="fill:rgb(224,224,224);fill-rule:nonzero;"/>
                <path id="Trazado_1422" d="M310.18,181.34C310.174,183.228 308.618,184.779 306.73,184.779C304.837,184.779 303.28,183.222 303.28,181.329C303.28,179.436 304.837,177.879 306.73,177.879C307.645,177.879 308.523,178.243 309.17,178.89C309.818,179.54 310.182,180.422 310.18,181.34Z" style="fill:rgb(224,224,224);fill-rule:nonzero;"/>
                <path id="Trazado_1423" d="M325.43,181.34C325.424,183.228 323.868,184.779 321.98,184.779C320.087,184.779 318.53,183.222 318.53,181.329C318.53,179.436 320.087,177.879 321.98,177.879C322.895,177.879 323.773,178.243 324.42,178.89C325.068,179.54 325.432,180.422 325.43,181.34Z" style="fill:rgb(224,224,224);fill-rule:nonzero;"/>
                <path id="Trazado_1424" d="M443.6,181.34C443.594,183.228 442.038,184.779 440.15,184.779C438.257,184.779 436.7,183.222 436.7,181.329C436.7,179.436 438.257,177.879 440.15,177.879C441.065,177.879 441.943,178.243 442.59,178.89C443.238,179.54 443.602,180.422 443.6,181.34Z" style="fill:rgb(224,224,224);fill-rule:nonzero;"/>
                <path id="Trazado_1425" d="M459.15,181.34C459.144,183.228 457.588,184.779 455.7,184.779C453.807,184.779 452.25,183.222 452.25,181.329C452.25,179.436 453.807,177.879 455.7,177.879C456.615,177.879 457.493,178.243 458.14,178.89C458.788,179.54 459.152,180.422 459.15,181.34Z" style="fill:rgb(224,224,224);fill-rule:nonzero;"/>
                <path id="Trazado_1426" d="M340.67,181.34C340.657,183.218 339.108,184.756 337.23,184.756C335.343,184.756 333.79,183.203 333.79,181.316C333.79,179.429 335.343,177.876 337.23,177.876C338.146,177.876 339.025,178.242 339.67,178.891C340.314,179.542 340.674,180.424 340.67,181.34Z" style="fill:rgb(224,224,224);fill-rule:nonzero;"/>
                <path id="Trazado_1427" d="M415.56,181.34C415.547,183.218 413.998,184.756 412.12,184.756C410.233,184.756 408.68,183.203 408.68,181.316C408.68,179.429 410.233,177.876 412.12,177.876C413.036,177.876 413.915,178.242 414.56,178.891C415.204,179.542 415.564,180.424 415.56,181.34Z" style="fill:rgb(224,224,224);fill-rule:nonzero;"/>
                <path id="Trazado_1428" d="M355.92,181.34C355.907,183.218 354.358,184.756 352.48,184.756C350.593,184.756 349.04,183.203 349.04,181.316C349.04,179.429 350.593,177.876 352.48,177.876C353.396,177.876 354.275,178.242 354.92,178.891C355.564,179.542 355.924,180.424 355.92,181.34Z" style="fill:rgb(245,245,245);fill-rule:nonzero;"/>
                <path id="Trazado_1429" d="M371.17,181.34C371.157,183.218 369.608,184.756 367.73,184.756C365.843,184.756 364.29,183.203 364.29,181.316C364.29,179.429 365.843,177.876 367.73,177.876C368.646,177.876 369.525,178.242 370.17,178.891C370.814,179.542 371.174,180.424 371.17,181.34Z" style="fill:rgb(245,245,245);fill-rule:nonzero;"/>
                <path id="Trazado_1430" d="M402.11,181.34C402.097,183.218 400.548,184.756 398.67,184.756C396.783,184.756 395.23,183.203 395.23,181.316C395.23,179.429 396.783,177.876 398.67,177.876C399.586,177.876 400.465,178.242 401.11,178.891C401.754,179.542 402.114,180.424 402.11,181.34Z" style="fill:rgb(245,245,245);fill-rule:nonzero;"/>
                <path id="Trazado_1431" d="M471.8,181.34C471.794,183.228 470.238,184.779 468.35,184.779C466.457,184.779 464.9,183.222 464.9,181.329C464.9,179.436 466.457,177.879 468.35,177.879C469.265,177.879 470.143,178.243 470.79,178.89C471.438,179.54 471.802,180.422 471.8,181.34Z" style="fill:rgb(245,245,245);fill-rule:nonzero;"/>
                <path id="Trazado_1432" d="M386.42,181.34C386.407,183.218 384.858,184.756 382.98,184.756C381.093,184.756 379.54,183.203 379.54,181.316C379.54,179.429 381.093,177.876 382.98,177.876C383.896,177.876 384.775,178.242 385.42,178.891C386.064,179.542 386.424,180.424 386.42,181.34Z" style="fill:rgb(253,116,0);fill-rule:nonzero;"/>
                <path id="Trazado_1433" d="M430.09,181.34C430.084,183.228 428.528,184.779 426.64,184.779C424.747,184.779 423.19,183.222 423.19,181.329C423.19,179.436 424.747,177.879 426.64,177.879C427.555,177.879 428.433,178.243 429.08,178.89C429.728,179.54 430.092,180.422 430.09,181.34Z" style="fill:rgb(253,116,0);fill-rule:nonzero;"/>
                <g id="Rectángulo_23" transform="matrix(1,0,0,1,196.37,145.02)">
                    <rect x="0" y="0" width="60.24" height="9.27" style="fill:rgb(224,224,224);"/>
                </g>
                <g id="Rectángulo_24" transform="matrix(1,0,0,1,196.37,160.97)">
                    <rect x="0" y="0" width="60.24" height="9.27" style="fill:rgb(224,224,224);"/>
                </g>
                <g id="Rectángulo_25" transform="matrix(1,0,0,1,196.37,177.46)">
                    <rect x="0" y="0" width="60.24" height="9.27" style="fill:rgb(224,224,224);"/>
                </g>
                <g id="Rectángulo_26" transform="matrix(1,0,0,1,182.79,223.06)">
                    <rect x="0" y="0" width="305.95" height="75.91" style="fill:rgb(247,247,248);"/>
                </g>
                <g id="Rectángulo_27" transform="matrix(1,0,0,1,196.37,238.69)">
                    <rect x="0" y="0" width="60.24" height="9.27" style="fill:rgb(224,224,224);"/>
                </g>
                <g id="Rectángulo_28" transform="matrix(1,0,0,1,196.37,254.64)">
                    <rect x="0" y="0" width="60.24" height="9.27" style="fill:rgb(224,224,224);"/>
                </g>
                <g id="Rectángulo_29" transform="matrix(1,0,0,1,196.37,271.13)">
                    <rect x="0" y="0" width="60.24" height="9.27" style="fill:rgb(224,224,224);"/>
                </g>
                <path id="Trazado_1434" d="M278.57,243.54C278.57,245.438 277.008,247 275.11,247C273.212,247 271.65,245.438 271.65,243.54C271.65,241.642 273.212,240.08 275.11,240.08C277.008,240.08 278.57,241.642 278.57,243.54Z" style="fill:rgb(224,224,224);fill-rule:nonzero;"/>
                <path id="Trazado_1435" d="M293.82,243.54C293.82,245.438 292.258,247 290.36,247C288.462,247 286.9,245.438 286.9,243.54C286.9,241.642 288.462,240.08 290.36,240.08C292.258,240.08 293.82,241.642 293.82,243.54Z" style="fill:rgb(224,224,224);fill-rule:nonzero;"/>
                <path id="Trazado_1436" d="M309.07,243.54C309.07,245.438 307.508,247 305.61,247C303.712,247 302.15,245.438 302.15,243.54C302.15,241.642 303.712,240.08 305.61,240.08C307.508,240.08 309.07,241.642 309.07,243.54Z" style="fill:rgb(224,224,224);fill-rule:nonzero;"/>
                <path id="Trazado_1437" d="M324.32,243.54C324.32,245.438 322.758,247 320.86,247C318.962,247 317.4,245.438 317.4,243.54C317.4,241.642 318.962,240.08 320.86,240.08C322.758,240.08 324.32,241.642 324.32,243.54Z" style="fill:rgb(224,224,224);fill-rule:nonzero;"/>
                <path id="Trazado_1438" d="M442.49,243.54C442.49,245.438 440.928,247 439.03,247C437.132,247 435.57,245.438 435.57,243.54C435.57,241.642 437.132,240.08 439.03,240.08C440.928,240.08 442.49,241.642 442.49,243.54Z" style="fill:rgb(224,224,224);fill-rule:nonzero;"/>
                <path id="Trazado_1439" d="M458,243.54C458,245.438 456.438,247 454.54,247C452.642,247 451.08,245.438 451.08,243.54C451.08,241.642 452.642,240.08 454.54,240.08C456.438,240.08 458,241.642 458,243.54Z" style="fill:rgb(224,224,224);fill-rule:nonzero;"/>
                <path id="Trazado_1440" d="M339.57,243.54C339.57,245.438 338.008,247 336.11,247C334.212,247 332.65,245.438 332.65,243.54C332.65,241.642 334.212,240.08 336.11,240.08C338.008,240.08 339.57,241.642 339.57,243.54Z" style="fill:rgb(224,224,224);fill-rule:nonzero;"/>
                <path id="Trazado_1441" d="M414.46,243.54C414.46,245.438 412.898,247 411,247C409.102,247 407.54,245.438 407.54,243.54C407.54,241.642 409.102,240.08 411,240.08C412.898,240.08 414.46,241.642 414.46,243.54Z" style="fill:rgb(224,224,224);fill-rule:nonzero;"/>
                <path id="Trazado_1442" d="M354.82,243.54C354.82,245.438 353.258,247 351.36,247C349.462,247 347.9,245.438 347.9,243.54C347.9,241.642 349.462,240.08 351.36,240.08C353.258,240.08 354.82,241.642 354.82,243.54Z" style="fill:rgb(245,245,245);fill-rule:nonzero;"/>
                <path id="Trazado_1443" d="M370.07,243.54C370.07,245.438 368.508,247 366.61,247C364.712,247 363.15,245.438 363.15,243.54C363.15,241.642 364.712,240.08 366.61,240.08C368.508,240.08 370.07,241.642 370.07,243.54Z" style="fill:rgb(245,245,245);fill-rule:nonzero;"/>
                <path id="Trazado_1444" d="M401,243.54C400.995,245.429 399.439,246.98 397.55,246.98C395.657,246.98 394.1,245.423 394.1,243.53C394.1,241.637 395.657,240.08 397.55,240.08C398.466,240.08 399.346,240.445 399.993,241.094C400.639,241.744 401.002,242.624 401,243.54Z" style="fill:rgb(245,245,245);fill-rule:nonzero;"/>
                <path id="Trazado_1445" d="M470.69,243.54C470.69,245.438 469.128,247 467.23,247C465.332,247 463.77,245.438 463.77,243.54C463.77,241.642 465.332,240.08 467.23,240.08C469.128,240.08 470.69,241.642 470.69,243.54Z" style="fill:rgb(245,245,245);fill-rule:nonzero;"/>
                <path id="Trazado_1446" d="M385.31,243.54C385.305,245.429 383.749,246.98 381.86,246.98C379.967,246.98 378.41,245.423 378.41,243.53C378.41,241.637 379.967,240.08 381.86,240.08C382.776,240.08 383.656,240.445 384.303,241.094C384.949,241.744 385.312,242.624 385.31,243.54Z" style="fill:rgb(253,116,0);fill-rule:nonzero;"/>
                <path id="Trazado_1447" d="M429,243.54C429,245.438 427.438,247 425.54,247C423.642,247 422.08,245.438 422.08,243.54C422.08,241.642 423.642,240.08 425.54,240.08C427.438,240.08 429,241.642 429,243.54Z" style="fill:rgb(253,116,0);fill-rule:nonzero;"/>
                <path id="Trazado_1448" d="M463.78,260.19C463.78,258.292 465.342,256.73 467.24,256.73C469.138,256.73 470.7,258.292 470.7,260.19C470.7,262.088 469.138,263.65 467.24,263.65C467.237,263.65 467.233,263.65 467.23,263.65C465.336,263.645 463.78,262.084 463.78,260.19Z" style="fill:rgb(224,224,224);fill-rule:nonzero;"/>
                <path id="Trazado_1449" d="M448.53,260.19C448.53,258.292 450.092,256.73 451.99,256.73C453.888,256.73 455.45,258.292 455.45,260.19C455.45,262.088 453.888,263.65 451.99,263.65C450.092,263.65 448.53,262.088 448.53,260.19Z" style="fill:rgb(224,224,224);fill-rule:nonzero;"/>
                <path id="Trazado_1450" d="M433.28,260.19C433.28,258.292 434.842,256.73 436.74,256.73C438.638,256.73 440.2,258.292 440.2,260.19C440.2,262.088 438.638,263.65 436.74,263.65C434.842,263.65 433.28,262.088 433.28,260.19Z" style="fill:rgb(224,224,224);fill-rule:nonzero;"/>
                <path id="Trazado_1451" d="M418,260.19C418,258.292 419.562,256.73 421.46,256.73C423.358,256.73 424.92,258.292 424.92,260.19C424.92,262.088 423.358,263.65 421.46,263.65C419.562,263.65 418,262.088 418,260.19Z" style="fill:rgb(224,224,224);fill-rule:nonzero;"/>
                <path id="Trazado_1452" d="M299.86,260.19C299.86,258.292 301.422,256.73 303.32,256.73C305.218,256.73 306.78,258.292 306.78,260.19C306.78,262.088 305.218,263.65 303.32,263.65C301.422,263.65 299.86,262.088 299.86,260.19Z" style="fill:rgb(224,224,224);fill-rule:nonzero;"/>
                <path id="Trazado_1453" d="M284.31,260.19C284.31,258.292 285.872,256.73 287.77,256.73C289.668,256.73 291.23,258.292 291.23,260.19C291.23,262.088 289.668,263.65 287.77,263.65C287.767,263.65 287.763,263.65 287.76,263.65C285.866,263.645 284.31,262.084 284.31,260.19Z" style="fill:rgb(224,224,224);fill-rule:nonzero;"/>
                <path id="Trazado_1454" d="M402.78,260.19C402.78,258.292 404.342,256.73 406.24,256.73C408.138,256.73 409.7,258.292 409.7,260.19C409.7,262.088 408.138,263.65 406.24,263.65C404.342,263.65 402.78,262.088 402.78,260.19Z" style="fill:rgb(224,224,224);fill-rule:nonzero;"/>
                <path id="Trazado_1455" d="M327.89,260.19C327.89,258.292 329.452,256.73 331.35,256.73C333.248,256.73 334.81,258.292 334.81,260.19C334.81,262.088 333.248,263.65 331.35,263.65C329.452,263.65 327.89,262.088 327.89,260.19Z" style="fill:rgb(224,224,224);fill-rule:nonzero;"/>
                <path id="Trazado_1456" d="M387.53,260.19C387.53,258.292 389.092,256.73 390.99,256.73C392.888,256.73 394.45,258.292 394.45,260.19C394.45,262.088 392.888,263.65 390.99,263.65C389.092,263.65 387.53,262.088 387.53,260.19Z" style="fill:rgb(245,245,245);fill-rule:nonzero;"/>
                <path id="Trazado_1457" d="M372.28,260.19C372.28,258.292 373.842,256.73 375.74,256.73C377.638,256.73 379.2,258.292 379.2,260.19C379.2,262.088 377.638,263.65 375.74,263.65C373.842,263.65 372.28,262.088 372.28,260.19Z" style="fill:rgb(245,245,245);fill-rule:nonzero;"/>
                <path id="Trazado_1458" d="M341.34,260.19C341.34,258.292 342.902,256.73 344.8,256.73C346.698,256.73 348.26,258.292 348.26,260.19C348.26,262.088 346.698,263.65 344.8,263.65C342.902,263.65 341.34,262.088 341.34,260.19Z" style="fill:rgb(245,245,245);fill-rule:nonzero;"/>
                <path id="Trazado_1459" d="M271.66,260.19C271.665,258.301 273.221,256.75 275.11,256.75C277.003,256.75 278.56,258.307 278.56,260.2C278.56,262.093 277.003,263.65 275.11,263.65C274.194,263.65 273.314,263.285 272.667,262.636C272.021,261.986 271.658,261.106 271.66,260.19Z" style="fill:rgb(245,245,245);fill-rule:nonzero;"/>
                <path id="Trazado_1460" d="M357,260.19C357,258.292 358.562,256.73 360.46,256.73C362.358,256.73 363.92,258.292 363.92,260.19C363.92,262.088 362.358,263.65 360.46,263.65C358.562,263.65 357,262.088 357,260.19Z" style="fill:rgb(253,116,0);fill-rule:nonzero;"/>
                <path id="Trazado_1461" d="M313.37,260.19C313.37,258.292 314.932,256.73 316.83,256.73C318.728,256.73 320.29,258.292 320.29,260.19C320.29,262.088 318.728,263.65 316.83,263.65C314.932,263.65 313.37,262.088 313.37,260.19Z" style="fill:rgb(253,116,0);fill-rule:nonzero;"/>
                <path id="Trazado_1462" d="M278.57,275C278.564,276.888 277.008,278.439 275.12,278.439C273.227,278.439 271.67,276.882 271.67,274.989C271.67,273.096 273.227,271.539 275.12,271.539C276.035,271.539 276.913,271.903 277.56,272.55C278.208,273.2 278.572,274.082 278.57,275Z" style="fill:rgb(224,224,224);fill-rule:nonzero;"/>
                <path id="Trazado_1463" d="M293.82,275C293.814,276.888 292.258,278.439 290.37,278.439C288.477,278.439 286.92,276.882 286.92,274.989C286.92,273.096 288.477,271.539 290.37,271.539C291.285,271.539 292.163,271.903 292.81,272.55C293.458,273.2 293.822,274.082 293.82,275Z" style="fill:rgb(224,224,224);fill-rule:nonzero;"/>
                <path id="Trazado_1464" d="M309.07,275C309.064,276.888 307.508,278.439 305.62,278.439C303.727,278.439 302.17,276.882 302.17,274.989C302.17,273.096 303.727,271.539 305.62,271.539C306.535,271.539 307.413,271.903 308.06,272.55C308.708,273.2 309.072,274.082 309.07,275Z" style="fill:rgb(224,224,224);fill-rule:nonzero;"/>
                <path id="Trazado_1465" d="M324.32,275C324.314,276.888 322.758,278.439 320.87,278.439C318.977,278.439 317.42,276.882 317.42,274.989C317.42,273.096 318.977,271.539 320.87,271.539C321.785,271.539 322.663,271.903 323.31,272.55C323.958,273.2 324.322,274.082 324.32,275Z" style="fill:rgb(224,224,224);fill-rule:nonzero;"/>
                <path id="Trazado_1466" d="M442.49,275C442.484,276.888 440.928,278.439 439.04,278.439C437.147,278.439 435.59,276.882 435.59,274.989C435.59,273.096 437.147,271.539 439.04,271.539C439.955,271.539 440.833,271.903 441.48,272.55C442.128,273.2 442.492,274.082 442.49,275Z" style="fill:rgb(224,224,224);fill-rule:nonzero;"/>
                <path id="Trazado_1467" d="M458,275C457.994,276.888 456.438,278.439 454.55,278.439C452.657,278.439 451.1,276.882 451.1,274.989C451.1,273.096 452.657,271.539 454.55,271.539C455.465,271.539 456.343,271.903 456.99,272.55C457.638,273.2 458.002,274.082 458,275Z" style="fill:rgb(224,224,224);fill-rule:nonzero;"/>
                <path id="Trazado_1468" d="M339.57,275C339.564,276.888 338.008,278.439 336.12,278.439C334.227,278.439 332.67,276.882 332.67,274.989C332.67,273.096 334.227,271.539 336.12,271.539C337.035,271.539 337.913,271.903 338.56,272.55C339.208,273.2 339.572,274.082 339.57,275Z" style="fill:rgb(224,224,224);fill-rule:nonzero;"/>
                <path id="Trazado_1469" d="M414.46,275C414.454,276.888 412.898,278.439 411.01,278.439C409.117,278.439 407.56,276.882 407.56,274.989C407.56,273.096 409.117,271.539 411.01,271.539C411.925,271.539 412.803,271.903 413.45,272.55C414.098,273.2 414.462,274.082 414.46,275Z" style="fill:rgb(224,224,224);fill-rule:nonzero;"/>
                <path id="Trazado_1470" d="M354.82,275C354.814,276.888 353.258,278.439 351.37,278.439C349.477,278.439 347.92,276.882 347.92,274.989C347.92,273.096 349.477,271.539 351.37,271.539C352.285,271.539 353.163,271.903 353.81,272.55C354.458,273.2 354.822,274.082 354.82,275Z" style="fill:rgb(245,245,245);fill-rule:nonzero;"/>
                <path id="Trazado_1471" d="M370.07,275C370.064,276.888 368.508,278.439 366.62,278.439C364.727,278.439 363.17,276.882 363.17,274.989C363.17,273.096 364.727,271.539 366.62,271.539C367.535,271.539 368.413,271.903 369.06,272.55C369.708,273.2 370.072,274.082 370.07,275Z" style="fill:rgb(245,245,245);fill-rule:nonzero;"/>
                <path id="Trazado_1472" d="M401,275C400.987,276.878 399.438,278.416 397.56,278.416C395.673,278.416 394.12,276.863 394.12,274.976C394.12,273.089 395.673,271.536 397.56,271.536C398.476,271.536 399.355,271.902 400,272.551C400.644,273.202 401.004,274.084 401,275Z" style="fill:rgb(245,245,245);fill-rule:nonzero;"/>
                <path id="Trazado_1473" d="M470.69,275C470.684,276.888 469.128,278.439 467.24,278.439C465.347,278.439 463.79,276.882 463.79,274.989C463.79,273.096 465.347,271.539 467.24,271.539C468.155,271.539 469.033,271.903 469.68,272.55C470.328,273.2 470.692,274.082 470.69,275Z" style="fill:rgb(245,245,245);fill-rule:nonzero;"/>
                <path id="Trazado_1474" d="M385.31,275C385.297,276.878 383.748,278.416 381.87,278.416C379.983,278.416 378.43,276.863 378.43,274.976C378.43,273.089 379.983,271.536 381.87,271.536C382.786,271.536 383.665,271.902 384.31,272.551C384.954,273.202 385.314,274.084 385.31,275Z" style="fill:rgb(253,116,0);fill-rule:nonzero;"/>
                <path id="Trazado_1475" d="M429,275C428.994,276.888 427.438,278.439 425.55,278.439C423.657,278.439 422.1,276.882 422.1,274.989C422.1,273.096 423.657,271.539 425.55,271.539C426.465,271.539 427.343,271.903 427.99,272.55C428.638,273.2 429.002,274.082 429,275Z" style="fill:rgb(253,116,0);fill-rule:nonzero;"/>
                <path id="Trazado_1476" d="M534.73,204.58L488.73,204.7L488.73,128.79L534.73,128.67L534.73,204.58Z" style="fill:rgb(224,224,224);fill-rule:nonzero;"/>
                <path id="Trazado_1477" d="M534.73,298.84L488.73,298.96L488.73,223.06L534.73,222.93L534.73,298.84Z" style="fill:rgb(224,224,224);fill-rule:nonzero;"/>
                <path id="Trazado_1478" d="M531.89,393.81L485.9,393.93L485.9,318.03L531.89,317.9L531.89,393.81Z" style="fill:rgb(224,224,224);fill-rule:nonzero;"/>
                <g id="Rectángulo_30" transform="matrix(1,0,0,1,182.17,318.03)">
                    <rect x="0" y="0" width="305.95" height="75.91" style="fill:rgb(247,247,248);"/>
                </g>
                <g id="Rectángulo_31" transform="matrix(1,0,0,1,195.75,333.66)">
                    <rect x="0" y="0" width="60.24" height="9.27" style="fill:rgb(224,224,224);"/>
                </g>
                <g id="Rectángulo_32" transform="matrix(1,0,0,1,195.75,349.61)">
                    <rect x="0" y="0" width="60.24" height="9.27" style="fill:rgb(224,224,224);"/>
                </g>
                <path id="Trazado_1479" d="M279.82,339.26C279.82,339.263 279.82,339.267 279.82,339.27C279.82,341.168 278.258,342.73 276.36,342.73C274.462,342.73 272.9,341.168 272.9,339.27C272.9,337.372 274.462,335.81 276.36,335.81C278.254,335.81 279.815,337.366 279.82,339.26Z" style="fill:rgb(224,224,224);fill-rule:nonzero;"/>
                <path id="Trazado_1480" d="M295.06,339.26C295.06,339.263 295.06,339.267 295.06,339.27C295.06,341.168 293.498,342.73 291.6,342.73C289.702,342.73 288.14,341.168 288.14,339.27C288.14,337.372 289.702,335.81 291.6,335.81C291.603,335.81 291.607,335.81 291.61,335.81C293.501,335.815 295.055,337.369 295.06,339.26Z" style="fill:rgb(224,224,224);fill-rule:nonzero;"/>
                <path id="Trazado_1481" d="M310.31,339.26C310.31,339.263 310.31,339.267 310.31,339.27C310.31,341.168 308.748,342.73 306.85,342.73C304.952,342.73 303.39,341.168 303.39,339.27C303.39,337.372 304.952,335.81 306.85,335.81C306.853,335.81 306.857,335.81 306.86,335.81C308.751,335.815 310.305,337.369 310.31,339.26Z" style="fill:rgb(224,224,224);fill-rule:nonzero;"/>
                <path id="Trazado_1482" d="M325.56,339.26C325.56,339.263 325.56,339.267 325.56,339.27C325.56,341.168 323.998,342.73 322.1,342.73C320.202,342.73 318.64,341.168 318.64,339.27C318.64,337.372 320.202,335.81 322.1,335.81C322.103,335.81 322.107,335.81 322.11,335.81C324.001,335.815 325.555,337.369 325.56,339.26Z" style="fill:rgb(224,224,224);fill-rule:nonzero;"/>
                <path id="Trazado_1483" d="M443.73,339.26C443.73,339.263 443.73,339.267 443.73,339.27C443.73,341.168 442.168,342.73 440.27,342.73C438.372,342.73 436.81,341.168 436.81,339.27C436.81,337.372 438.372,335.81 440.27,335.81C440.273,335.81 440.277,335.81 440.28,335.81C442.171,335.815 443.725,337.369 443.73,339.26Z" style="fill:rgb(224,224,224);fill-rule:nonzero;"/>
                <path id="Trazado_1484" d="M459.29,339.26C459.29,339.263 459.29,339.267 459.29,339.27C459.29,341.168 457.728,342.73 455.83,342.73C453.932,342.73 452.37,341.168 452.37,339.27C452.37,337.372 453.932,335.81 455.83,335.81C457.724,335.81 459.285,337.366 459.29,339.26Z" style="fill:rgb(224,224,224);fill-rule:nonzero;"/>
                <path id="Trazado_1485" d="M340.81,339.26C340.81,339.263 340.81,339.267 340.81,339.27C340.81,341.168 339.248,342.73 337.35,342.73C335.452,342.73 333.89,341.168 333.89,339.27C333.89,337.372 335.452,335.81 337.35,335.81C337.353,335.81 337.357,335.81 337.36,335.81C339.251,335.815 340.805,337.369 340.81,339.26Z" style="fill:rgb(224,224,224);fill-rule:nonzero;"/>
                <path id="Trazado_1486" d="M415.7,339.26C415.7,339.263 415.7,339.267 415.7,339.27C415.7,341.168 414.138,342.73 412.24,342.73C410.342,342.73 408.78,341.168 408.78,339.27C408.78,337.372 410.342,335.81 412.24,335.81C412.243,335.81 412.247,335.81 412.25,335.81C414.141,335.815 415.695,337.369 415.7,339.26Z" style="fill:rgb(224,224,224);fill-rule:nonzero;"/>
                <path id="Trazado_1487" d="M356.06,339.26C356.06,339.263 356.06,339.267 356.06,339.27C356.06,341.168 354.498,342.73 352.6,342.73C350.702,342.73 349.14,341.168 349.14,339.27C349.14,337.372 350.702,335.81 352.6,335.81C352.603,335.81 352.607,335.81 352.61,335.81C354.501,335.815 356.055,337.369 356.06,339.26Z" style="fill:rgb(245,245,245);fill-rule:nonzero;"/>
                <path id="Trazado_1488" d="M371.31,339.26C371.31,339.263 371.31,339.267 371.31,339.27C371.31,341.168 369.748,342.73 367.85,342.73C365.952,342.73 364.39,341.168 364.39,339.27C364.39,337.372 365.952,335.81 367.85,335.81C367.853,335.81 367.857,335.81 367.86,335.81C369.751,335.815 371.305,337.369 371.31,339.26Z" style="fill:rgb(245,245,245);fill-rule:nonzero;"/>
                <path id="Trazado_1489" d="M402.25,339.26C402.25,339.263 402.25,339.267 402.25,339.27C402.25,341.168 400.688,342.73 398.79,342.73C396.892,342.73 395.33,341.168 395.33,339.27C395.33,337.372 396.892,335.81 398.79,335.81C398.793,335.81 398.797,335.81 398.8,335.81C400.691,335.815 402.245,337.369 402.25,339.26Z" style="fill:rgb(245,245,245);fill-rule:nonzero;"/>
                <path id="Trazado_1490" d="M471.94,339.26C471.94,339.263 471.94,339.267 471.94,339.27C471.94,341.168 470.378,342.73 468.48,342.73C466.582,342.73 465.02,341.168 465.02,339.27C465.02,337.372 466.582,335.81 468.48,335.81C470.374,335.81 471.935,337.366 471.94,339.26Z" style="fill:rgb(245,245,245);fill-rule:nonzero;"/>
                <path id="Trazado_1491" d="M386.56,339.26C386.56,339.263 386.56,339.267 386.56,339.27C386.56,341.168 384.998,342.73 383.1,342.73C381.202,342.73 379.64,341.168 379.64,339.27C379.64,337.372 381.202,335.81 383.1,335.81C383.103,335.81 383.107,335.81 383.11,335.81C385.001,335.815 386.555,337.369 386.56,339.26Z" style="fill:rgb(253,116,0);fill-rule:nonzero;"/>
                <path id="Trazado_1492" d="M430.22,339.26C430.22,339.263 430.22,339.267 430.22,339.27C430.22,341.168 428.658,342.73 426.76,342.73C424.862,342.73 423.3,341.168 423.3,339.27C423.3,337.372 424.862,335.81 426.76,335.81C426.763,335.81 426.767,335.81 426.77,335.81C428.661,335.815 430.215,337.369 430.22,339.26Z" style="fill:rgb(253,116,0);fill-rule:nonzero;"/>
                <path id="Trazado_1493" d="M465,355.92C465,355.917 465,355.913 465,355.91C465,354.012 466.562,352.45 468.46,352.45C470.358,352.45 471.92,354.012 471.92,355.91C471.92,357.808 470.358,359.37 468.46,359.37C468.457,359.37 468.453,359.37 468.45,359.37C466.559,359.365 465.005,357.811 465,355.92Z" style="fill:rgb(224,224,224);fill-rule:nonzero;"/>
                <path id="Trazado_1494" d="M449.78,355.92C449.78,355.917 449.78,355.913 449.78,355.91C449.78,354.012 451.342,352.45 453.24,352.45C455.138,352.45 456.7,354.012 456.7,355.91C456.7,357.808 455.138,359.37 453.24,359.37C453.237,359.37 453.233,359.37 453.23,359.37C451.339,359.365 449.785,357.811 449.78,355.92Z" style="fill:rgb(224,224,224);fill-rule:nonzero;"/>
                <path id="Trazado_1495" d="M434.53,355.92C434.53,355.917 434.53,355.913 434.53,355.91C434.53,354.012 436.092,352.45 437.99,352.45C439.888,352.45 441.45,354.012 441.45,355.91C441.45,357.808 439.888,359.37 437.99,359.37C437.987,359.37 437.983,359.37 437.98,359.37C436.089,359.365 434.535,357.811 434.53,355.92Z" style="fill:rgb(224,224,224);fill-rule:nonzero;"/>
                <path id="Trazado_1496" d="M419.28,355.92C419.28,355.917 419.28,355.913 419.28,355.91C419.28,354.012 420.842,352.45 422.74,352.45C424.638,352.45 426.2,354.012 426.2,355.91C426.2,357.808 424.638,359.37 422.74,359.37C422.737,359.37 422.733,359.37 422.73,359.37C420.839,359.365 419.285,357.811 419.28,355.92Z" style="fill:rgb(224,224,224);fill-rule:nonzero;"/>
                <path id="Trazado_1497" d="M301.11,355.92C301.11,355.917 301.11,355.913 301.11,355.91C301.11,354.012 302.672,352.45 304.57,352.45C306.468,352.45 308.03,354.012 308.03,355.91C308.03,357.808 306.468,359.37 304.57,359.37C304.567,359.37 304.563,359.37 304.56,359.37C302.669,359.365 301.115,357.811 301.11,355.92Z" style="fill:rgb(224,224,224);fill-rule:nonzero;"/>
                <path id="Trazado_1498" d="M285.56,355.92C285.56,355.917 285.56,355.913 285.56,355.91C285.56,354.012 287.122,352.45 289.02,352.45C290.918,352.45 292.48,354.012 292.48,355.91C292.48,357.808 290.918,359.37 289.02,359.37C289.017,359.37 289.013,359.37 289.01,359.37C287.119,359.365 285.565,357.811 285.56,355.92Z" style="fill:rgb(224,224,224);fill-rule:nonzero;"/>
                <path id="Trazado_1499" d="M404,355.92C404,355.917 404,355.913 404,355.91C404,354.012 405.562,352.45 407.46,352.45C409.358,352.45 410.92,354.012 410.92,355.91C410.92,357.808 409.358,359.37 407.46,359.37C407.457,359.37 407.453,359.37 407.45,359.37C405.559,359.365 404.005,357.811 404,355.92Z" style="fill:rgb(224,224,224);fill-rule:nonzero;"/>
                <path id="Trazado_1500" d="M329.14,355.92C329.14,355.917 329.14,355.913 329.14,355.91C329.14,354.012 330.702,352.45 332.6,352.45C334.498,352.45 336.06,354.012 336.06,355.91C336.06,357.808 334.498,359.37 332.6,359.37C332.597,359.37 332.593,359.37 332.59,359.37C330.699,359.365 329.145,357.811 329.14,355.92Z" style="fill:rgb(224,224,224);fill-rule:nonzero;"/>
                <path id="Trazado_1501" d="M388.78,355.92C388.78,355.917 388.78,355.913 388.78,355.91C388.78,354.012 390.342,352.45 392.24,352.45C394.138,352.45 395.7,354.012 395.7,355.91C395.7,357.808 394.138,359.37 392.24,359.37C392.237,359.37 392.233,359.37 392.23,359.37C390.339,359.365 388.785,357.811 388.78,355.92Z" style="fill:rgb(245,245,245);fill-rule:nonzero;"/>
                <path id="Trazado_1502" d="M373.53,355.92C373.53,355.917 373.53,355.913 373.53,355.91C373.53,354.012 375.092,352.45 376.99,352.45C378.888,352.45 380.45,354.012 380.45,355.91C380.45,357.808 378.888,359.37 376.99,359.37C376.987,359.37 376.983,359.37 376.98,359.37C375.089,359.365 373.535,357.811 373.53,355.92Z" style="fill:rgb(245,245,245);fill-rule:nonzero;"/>
                <path id="Trazado_1503" d="M342.59,355.92C342.59,355.917 342.59,355.913 342.59,355.91C342.59,354.012 344.152,352.45 346.05,352.45C347.948,352.45 349.51,354.012 349.51,355.91C349.51,357.808 347.948,359.37 346.05,359.37C344.156,359.37 342.595,357.814 342.59,355.92Z" style="fill:rgb(245,245,245);fill-rule:nonzero;"/>
                <path id="Trazado_1504" d="M272.9,355.92C272.9,355.917 272.9,355.913 272.9,355.91C272.9,354.012 274.462,352.45 276.36,352.45C278.258,352.45 279.82,354.012 279.82,355.91C279.82,357.808 278.258,359.37 276.36,359.37C274.466,359.37 272.905,357.814 272.9,355.92Z" style="fill:rgb(245,245,245);fill-rule:nonzero;"/>
                <path id="Trazado_1505" d="M358.28,355.92C358.28,355.917 358.28,355.913 358.28,355.91C358.28,354.012 359.842,352.45 361.74,352.45C363.638,352.45 365.2,354.012 365.2,355.91C365.2,357.808 363.638,359.37 361.74,359.37C359.846,359.37 358.285,357.814 358.28,355.92Z" style="fill:rgb(253,116,0);fill-rule:nonzero;"/>
                <path id="Trazado_1506" d="M314.62,355.92C314.62,355.917 314.62,355.913 314.62,355.91C314.62,354.012 316.182,352.45 318.08,352.45C319.978,352.45 321.54,354.012 321.54,355.91C321.54,357.808 319.978,359.37 318.08,359.37C318.077,359.37 318.073,359.37 318.07,359.37C316.179,359.365 314.625,357.811 314.62,355.92Z" style="fill:rgb(253,116,0);fill-rule:nonzero;"/>
                <path id="Trazado_1507" d="M279.82,370.73C279.82,370.733 279.82,370.737 279.82,370.74C279.82,372.638 278.258,374.2 276.36,374.2C274.462,374.2 272.9,372.638 272.9,370.74C272.9,368.842 274.462,367.28 276.36,367.28C278.254,367.28 279.815,368.836 279.82,370.73Z" style="fill:rgb(224,224,224);fill-rule:nonzero;"/>
                <path id="Trazado_1508" d="M295.06,370.73C295.06,370.733 295.06,370.737 295.06,370.74C295.06,372.638 293.498,374.2 291.6,374.2C289.702,374.2 288.14,372.638 288.14,370.74C288.14,368.842 289.702,367.28 291.6,367.28C291.603,367.28 291.607,367.28 291.61,367.28C293.501,367.285 295.055,368.839 295.06,370.73Z" style="fill:rgb(224,224,224);fill-rule:nonzero;"/>
                <path id="Trazado_1509" d="M310.31,370.73C310.31,370.733 310.31,370.737 310.31,370.74C310.31,372.638 308.748,374.2 306.85,374.2C304.952,374.2 303.39,372.638 303.39,370.74C303.39,368.842 304.952,367.28 306.85,367.28C306.853,367.28 306.857,367.28 306.86,367.28C308.751,367.285 310.305,368.839 310.31,370.73Z" style="fill:rgb(224,224,224);fill-rule:nonzero;"/>
                <path id="Trazado_1510" d="M325.56,370.73C325.56,370.733 325.56,370.737 325.56,370.74C325.56,372.638 323.998,374.2 322.1,374.2C320.202,374.2 318.64,372.638 318.64,370.74C318.64,368.842 320.202,367.28 322.1,367.28C322.103,367.28 322.107,367.28 322.11,367.28C324.001,367.285 325.555,368.839 325.56,370.73Z" style="fill:rgb(224,224,224);fill-rule:nonzero;"/>
                <path id="Trazado_1511" d="M443.73,370.73C443.73,370.733 443.73,370.737 443.73,370.74C443.73,372.638 442.168,374.2 440.27,374.2C438.372,374.2 436.81,372.638 436.81,370.74C436.81,368.842 438.372,367.28 440.27,367.28C440.273,367.28 440.277,367.28 440.28,367.28C442.171,367.285 443.725,368.839 443.73,370.73Z" style="fill:rgb(224,224,224);fill-rule:nonzero;"/>
                <path id="Trazado_1512" d="M459.29,370.73C459.29,370.733 459.29,370.737 459.29,370.74C459.29,372.638 457.728,374.2 455.83,374.2C453.932,374.2 452.37,372.638 452.37,370.74C452.37,368.842 453.932,367.28 455.83,367.28C457.724,367.28 459.285,368.836 459.29,370.73Z" style="fill:rgb(224,224,224);fill-rule:nonzero;"/>
                <path id="Trazado_1513" d="M340.81,370.73C340.81,370.733 340.81,370.737 340.81,370.74C340.81,372.638 339.248,374.2 337.35,374.2C335.452,374.2 333.89,372.638 333.89,370.74C333.89,368.842 335.452,367.28 337.35,367.28C337.353,367.28 337.357,367.28 337.36,367.28C339.251,367.285 340.805,368.839 340.81,370.73Z" style="fill:rgb(224,224,224);fill-rule:nonzero;"/>
                <path id="Trazado_1514" d="M415.7,370.73C415.7,370.733 415.7,370.737 415.7,370.74C415.7,372.638 414.138,374.2 412.24,374.2C410.342,374.2 408.78,372.638 408.78,370.74C408.78,368.842 410.342,367.28 412.24,367.28C412.243,367.28 412.247,367.28 412.25,367.28C414.141,367.285 415.695,368.839 415.7,370.73Z" style="fill:rgb(224,224,224);fill-rule:nonzero;"/>
                <path id="Trazado_1515" d="M356.06,370.73C356.06,370.733 356.06,370.737 356.06,370.74C356.06,372.638 354.498,374.2 352.6,374.2C350.702,374.2 349.14,372.638 349.14,370.74C349.14,368.842 350.702,367.28 352.6,367.28C352.603,367.28 352.607,367.28 352.61,367.28C354.501,367.285 356.055,368.839 356.06,370.73Z" style="fill:rgb(245,245,245);fill-rule:nonzero;"/>
                <path id="Trazado_1516" d="M371.31,370.73C371.31,370.733 371.31,370.737 371.31,370.74C371.31,372.638 369.748,374.2 367.85,374.2C365.952,374.2 364.39,372.638 364.39,370.74C364.39,368.842 365.952,367.28 367.85,367.28C367.853,367.28 367.857,367.28 367.86,367.28C369.751,367.285 371.305,368.839 371.31,370.73Z" style="fill:rgb(245,245,245);fill-rule:nonzero;"/>
                <path id="Trazado_1517" d="M402.25,370.73C402.25,370.733 402.25,370.737 402.25,370.74C402.25,372.638 400.688,374.2 398.79,374.2C396.892,374.2 395.33,372.638 395.33,370.74C395.33,368.842 396.892,367.28 398.79,367.28C398.793,367.28 398.797,367.28 398.8,367.28C400.691,367.285 402.245,368.839 402.25,370.73Z" style="fill:rgb(245,245,245);fill-rule:nonzero;"/>
                <path id="Trazado_1518" d="M471.94,370.73C471.94,370.733 471.94,370.737 471.94,370.74C471.94,372.638 470.378,374.2 468.48,374.2C466.582,374.2 465.02,372.638 465.02,370.74C465.02,368.842 466.582,367.28 468.48,367.28C470.374,367.28 471.935,368.836 471.94,370.73Z" style="fill:rgb(245,245,245);fill-rule:nonzero;"/>
                <path id="Trazado_1519" d="M386.56,370.73C386.56,370.733 386.56,370.737 386.56,370.74C386.56,372.638 384.998,374.2 383.1,374.2C381.202,374.2 379.64,372.638 379.64,370.74C379.64,368.842 381.202,367.28 383.1,367.28C383.103,367.28 383.107,367.28 383.11,367.28C385.001,367.285 386.555,368.839 386.56,370.73Z" style="fill:rgb(253,116,0);fill-rule:nonzero;"/>
                <path id="Trazado_1520" d="M430.22,370.73C430.22,370.733 430.22,370.737 430.22,370.74C430.22,372.638 428.658,374.2 426.76,374.2C424.862,374.2 423.3,372.638 423.3,370.74C423.3,368.842 424.862,367.28 426.76,367.28C426.763,367.28 426.767,367.28 426.77,367.28C428.661,367.285 430.215,368.839 430.22,370.73Z" style="fill:rgb(253,116,0);fill-rule:nonzero;"/>
            </g>
        </g>
    </g>
</svg>
