<?xml version="1.0" encoding="UTF-8" standalone="no"?>
<!DOCTYPE svg PUBLIC "-//W3C//DTD SVG 1.1//EN" "http://www.w3.org/Graphics/SVG/1.1/DTD/svg11.dtd">
<svg width="100%" height="100%" viewBox="0 0 300 289" version="1.1" xmlns="http://www.w3.org/2000/svg" xmlns:xlink="http://www.w3.org/1999/xlink" xml:space="preserve" xmlns:serif="http://www.serif.com/" style="fill-rule:evenodd;clip-rule:evenodd;stroke-linejoin:round;stroke-miterlimit:2;">
    <g id="Capa_2-3" transform="matrix(0.728587,0,0,0.728587,-89.322,-192.173)">
        <g id="Capa_1-3">
            <path id="Trazado_1522" d="M509.94,473.45C480.893,530.43 443.683,584.097 398.31,634.45C375.841,659.375 339.306,666.433 309.17,651.67C248,621.7 193,584.47 145.57,538.48C123.542,517.154 116.593,484.439 128.05,456C156.15,386.36 193.81,327 245.2,282.36C267.086,263.228 298.174,258.403 324.83,270C390.83,298.973 448.007,337.723 496.36,386.25C519.214,409.258 524.715,444.582 509.94,473.45Z" style="fill:rgb(49,69,79);fill-rule:nonzero;"/>
            <g id="Rectángulo_33" transform="matrix(0.960342,0.278823,-0.278823,0.960342,271.122,340.356)">
                <rect x="0" y="0" width="12.58" height="13.88" style="fill:rgb(234,176,118);fill-opacity:0.4;"/>
            </g>
            <g id="Rectángulo_34" transform="matrix(0.960342,0.278823,-0.278823,0.960342,275.569,341.633)">
                <rect x="0" y="0" width="12.58" height="13.88" style="fill:rgb(241,209,172);"/>
            </g>
            <g id="Rectángulo_35" transform="matrix(0.960342,0.278823,-0.278823,0.960342,291.897,346.388)">
                <rect x="0" y="0" width="12.58" height="13.88" style="fill:rgb(234,176,118);fill-opacity:0.4;"/>
            </g>
            <g id="Rectángulo_36" transform="matrix(0.960342,0.278823,-0.278823,0.960342,296.334,347.665)">
                <rect x="0" y="0" width="12.58" height="13.88" style="fill:rgb(241,209,172);"/>
            </g>
            <g id="Rectángulo_37" transform="matrix(0.960342,0.278823,-0.278823,0.960342,312.806,352.457)">
                <rect x="0" y="0" width="12.58" height="13.88" style="fill:rgb(234,176,118);fill-opacity:0.4;"/>
            </g>
            <g id="Rectángulo_38" transform="matrix(0.960001,0.279997,-0.279997,0.960001,316.707,353.982)">
                <rect x="0" y="0" width="12.58" height="13.88" style="fill:rgb(241,209,172);"/>
            </g>
            <g id="Rectángulo_39" transform="matrix(0.960342,0.278823,-0.278823,0.960342,333.571,358.489)">
                <rect x="0" y="0" width="12.58" height="13.88" style="fill:rgb(234,176,118);fill-opacity:0.4;"/>
            </g>
            <g id="Rectángulo_40" transform="matrix(0.960001,0.279997,-0.279997,0.960001,337.465,360.046)">
                <rect x="0" y="0" width="12.58" height="13.88" style="fill:rgb(241,209,172);"/>
            </g>
            <g id="Rectángulo_41" transform="matrix(0.960001,0.279997,-0.279997,0.960001,353.615,364.754)">
                <rect x="0" y="0" width="12.58" height="13.88" style="fill:rgb(234,176,118);fill-opacity:0.4;"/>
            </g>
            <g id="Rectángulo_42" transform="matrix(0.960342,0.278823,-0.278823,0.960342,358.604,365.74)">
                <rect x="0" y="0" width="12.58" height="13.88" style="fill:rgb(241,209,172);"/>
            </g>
            <g id="Rectángulo_43" transform="matrix(0.960342,0.278823,-0.278823,0.960342,374.932,370.495)">
                <rect x="0" y="0" width="12.58" height="13.88" style="fill:rgb(234,176,118);fill-opacity:0.4;"/>
            </g>
            <g id="Rectángulo_44" transform="matrix(0.960342,0.278823,-0.278823,0.960342,379.376,371.781)">
                <rect x="0" y="0" width="12.58" height="13.88" style="fill:rgb(241,209,172);"/>
            </g>
            <g id="Rectángulo_45" transform="matrix(0.960342,0.278823,-0.278823,0.960342,221.207,512.279)">
                <rect x="0" y="0" width="12.58" height="13.88" style="fill:rgb(234,176,118);fill-opacity:0.4;"/>
            </g>
            <g id="Rectángulo_46" transform="matrix(0.960342,0.278823,-0.278823,0.960342,225.652,513.565)">
                <rect x="0" y="0" width="12.58" height="13.88" style="fill:rgb(241,209,172);"/>
            </g>
            <g id="Rectángulo_47" transform="matrix(0.960342,0.278823,-0.278823,0.960342,241.982,518.311)">
                <rect x="0" y="0" width="12.58" height="13.88" style="fill:rgb(234,176,118);fill-opacity:0.4;"/>
            </g>
            <g id="Rectángulo_48" transform="matrix(0.960001,0.279997,-0.279997,0.960001,245.719,519.708)">
                <rect x="0" y="0" width="12.58" height="13.88" style="fill:rgb(241,209,172);"/>
            </g>
            <g id="Rectángulo_49" transform="matrix(0.960342,0.278823,-0.278823,0.960342,262.891,524.38)">
                <rect x="0" y="0" width="12.58" height="13.88" style="fill:rgb(234,176,118);fill-opacity:0.4;"/>
            </g>
            <g id="Rectángulo_50" transform="matrix(0.960342,0.278823,-0.278823,0.960342,267.315,525.664)">
                <rect x="0" y="0" width="12.58" height="13.88" style="fill:rgb(241,209,172);"/>
            </g>
            <g id="Rectángulo_51" transform="matrix(0.960342,0.278823,-0.278823,0.960342,283.666,530.402)">
                <rect x="0" y="0" width="12.58" height="13.88" style="fill:rgb(234,176,118);fill-opacity:0.4;"/>
            </g>
            <g id="Rectángulo_52" transform="matrix(0.960342,0.278823,-0.278823,0.960342,288.09,531.696)">
                <rect x="0" y="0" width="12.58" height="13.88" style="fill:rgb(241,209,172);"/>
            </g>
            <g id="Rectángulo_53" transform="matrix(0.960342,0.278823,-0.278823,0.960342,304.252,536.386)">
                <rect x="0" y="0" width="12.58" height="13.88" style="fill:rgb(234,176,118);fill-opacity:0.4;"/>
            </g>
            <g id="Rectángulo_54" transform="matrix(0.960342,0.278823,-0.278823,0.960342,308.676,537.67)">
                <rect x="0" y="0" width="12.58" height="13.88" style="fill:rgb(241,209,172);"/>
            </g>
            <g id="Rectángulo_55" transform="matrix(0.960001,0.279997,-0.279997,0.960001,324.265,542.614)">
                <rect x="0" y="0" width="12.58" height="13.88" style="fill:rgb(234,176,118);fill-opacity:0.4;"/>
            </g>
            <g id="Rectángulo_56" transform="matrix(0.960001,0.279997,-0.279997,0.960001,328.697,543.902)">
                <rect x="0" y="0" width="12.58" height="13.88" style="fill:rgb(241,209,172);"/>
            </g>
            <g id="Rectángulo_57" transform="matrix(0.960342,0.278823,-0.278823,0.960342,399.85,417.881)">
                <rect x="0" y="0" width="12.58" height="13.88" style="fill:rgb(241,209,172);"/>
            </g>
            <g id="Rectángulo_58" transform="matrix(0.960342,0.278823,-0.278823,0.960342,394.15,437.522)">
                <rect x="0" y="0" width="12.58" height="13.88" style="fill:rgb(241,209,172);"/>
            </g>
            <g id="Rectángulo_59" transform="matrix(0.960342,0.278823,-0.278823,0.960342,388.528,456.878)">
                <rect x="0" y="0" width="12.58" height="13.88" style="fill:rgb(241,209,172);"/>
            </g>
            <g id="Rectángulo_60" transform="matrix(0.960342,0.278823,-0.278823,0.960342,382.757,476.741)">
                <rect x="0" y="0" width="12.58" height="13.88" style="fill:rgb(241,209,172);"/>
            </g>
            <g id="Rectángulo_61" transform="matrix(0.960342,0.278823,-0.278823,0.960342,377.06,496.373)">
                <rect x="0" y="0" width="12.58" height="13.88" style="fill:rgb(241,209,172);"/>
            </g>
            <g id="Rectángulo_62" transform="matrix(0.960342,0.278823,-0.278823,0.960342,371.445,515.739)">
                <rect x="0" y="0" width="12.58" height="13.88" style="fill:rgb(241,209,172);"/>
            </g>
            <path id="Trazado_1523" d="M385.87,388.13L385.78,388.13L383.13,387.35L380.39,386.56L375.49,385.14L371.05,383.85L366.81,382.61L362.36,381.33L360.27,380.72L354.71,379.11L350.29,377.84L346.21,376.67L341.77,375.38L334.14,373.17L329.69,371.87L325.43,370.64L321,369.3L315.88,367.82L313.36,367.09L308.93,365.8L304.53,364.53L300.1,363.26L296.1,362.12L292.45,361L288,359.71L283.74,358.47L279.32,357.19L271.69,355L267.24,353.7L256.24,350.5C256.083,350.449 255.922,350.409 255.76,350.38L240.66,346C236.959,344.943 233.04,347.098 231.95,350.79L227.03,367.79L223.16,381L221.33,387.31L217.46,400.63L215.71,406.63L211.84,420L209.93,426.54L206.06,439.85L204.24,446.17L200.36,459.49L198.61,465.49L194.74,478.8L193.01,484.8L189.82,495.8C189.632,496.441 189.536,497.105 189.536,497.773C189.536,500.884 191.61,503.639 194.6,504.5L204.93,507.5L210,509L210.14,509.05L215.51,510.61L221.16,512.25L225.61,513.54L226.69,513.85L234.12,516.01L236.66,516.76L237.66,517.05L241.92,518.28L246.35,519.57L254,521.8L254.06,521.8L258.49,523.09L262.89,524.37L267.31,525.66L274.96,527.87L279.39,529.16L283.65,530.39L288.09,531.68L295.73,533.91L300.17,535.19L304.24,536.37L308.67,537.66L316.32,539.89L320.75,541.17L325.01,542.41L329.45,543.7L337.09,545.91L340.03,546.76L340.22,546.81C343.807,547.559 347.412,545.397 348.44,541.88L351.22,532.28L387.78,406.39L390.57,396.78C391.597,393.123 389.497,389.258 385.87,388.13Z" style="fill:rgb(35,45,50);fill-rule:nonzero;"/>
            <g id="Rectángulo_63" transform="matrix(0.960342,0.278823,-0.278823,0.960342,249.459,348.513)">
                <path d="M165.15,6.231C165.15,2.792 162.358,0 158.919,0L6.231,0C2.792,0 0,2.792 0,6.231L0,158.919C0,162.358 2.792,165.15 6.231,165.15L158.919,165.15C162.358,165.15 165.15,162.358 165.15,158.919L165.15,6.231Z" style="fill:rgb(69,90,100);"/>
            </g>
            <g id="Rectángulo_64" transform="matrix(0.960342,0.278823,-0.278823,0.960342,258.855,368.784)">
                <path d="M131.46,6.41C131.46,2.872 128.588,0 125.05,0L6.41,0C2.872,0 0,2.872 0,6.41L0,125.05C0,128.588 2.872,131.46 6.41,131.46L125.05,131.46C128.588,131.46 131.46,128.588 131.46,125.05L131.46,6.41Z" style="fill:rgb(234,176,118);fill-opacity:0.4;"/>
            </g>
            <g id="Rectángulo_65" transform="matrix(0.960342,0.278823,-0.278823,0.960342,266.985,371.148)">
                <path d="M131.46,6.41C131.46,2.872 128.588,0 125.05,0L6.41,0C2.872,0 0,2.872 0,6.41L0,125.05C0,128.588 2.872,131.46 6.41,131.46L125.05,131.46C128.588,131.46 131.46,128.588 131.46,125.05L131.46,6.41Z" style="fill:rgb(241,209,172);"/>
            </g>
            <path id="Trazado_1524" d="M289.93,422.48C293.744,423.664 296.927,426.332 298.76,429.88L293.12,433.42C291.85,431.34 290.51,429.87 288.12,429.17C283.35,427.78 278.42,430.85 276.42,437.72C274.42,444.72 276.5,449.8 281.48,451.25C283.991,451.99 286.706,451.564 288.87,450.09L291.76,456C288.145,458.441 283.618,459.132 279.44,457.88C270.58,455.3 265.09,447.17 268.44,435.68C271.7,424.35 281.12,419.92 289.93,422.48Z" style="fill:white;fill-rule:nonzero;"/>
            <path id="Trazado_1525" d="M305.49,427.68L318,431.3C325.45,433.47 330.59,437.92 328.18,446.2C325.85,454.2 318.67,456.02 311.43,453.91L306.71,452.54L303.35,464.14L295.58,461.88L305.49,427.68ZM312.73,447.68C316.97,448.91 319.57,447.62 320.6,444.05C321.63,440.48 319.82,438.53 315.73,437.34L311.48,436.11L308.48,446.45L312.73,447.68Z" style="fill:white;fill-rule:nonzero;"/>
            <path id="Trazado_1526" d="M337.09,436.85L344.8,439.09L339.24,458.24C337.29,464.95 338.72,467.87 342.55,468.98C346.38,470.09 349.3,468.44 351.25,461.73L356.81,442.58L364.26,444.74L358.93,463.1C355.59,474.59 349.48,478.22 340.61,475.65C331.74,473.08 328.42,466.7 331.75,455.21L337.09,436.85Z" style="fill:white;fill-rule:nonzero;"/>
            <g id="Rectángulo_66" transform="matrix(0.960342,0.278823,-0.278823,0.960342,221.002,365.956)">
                <rect x="0" y="0" width="12.58" height="13.88" style="fill:rgb(234,176,118);fill-opacity:0.4;"/>
            </g>
            <g id="Rectángulo_67" transform="matrix(0.960342,0.278823,-0.278823,0.960342,225.437,367.25)">
                <rect x="0" y="0" width="12.58" height="13.88" style="fill:rgb(241,209,172);"/>
            </g>
            <g id="Rectángulo_68" transform="matrix(0.960342,0.278823,-0.278823,0.960342,215.293,385.595)">
                <rect x="0" y="0" width="12.58" height="13.88" style="fill:rgb(234,176,118);fill-opacity:0.4;"/>
            </g>
            <g id="Rectángulo_69" transform="matrix(0.960342,0.278823,-0.278823,0.960342,219.737,386.882)">
                <rect x="0" y="0" width="12.58" height="13.88" style="fill:rgb(241,209,172);"/>
            </g>
            <g id="Rectángulo_70" transform="matrix(0.960001,0.279997,-0.279997,0.960001,209.13,405.057)">
                <rect x="0" y="0" width="12.58" height="13.88" style="fill:rgb(234,176,118);fill-opacity:0.4;"/>
            </g>
            <g id="Rectángulo_71" transform="matrix(0.960342,0.278823,-0.278823,0.960342,214.115,406.237)">
                <rect x="0" y="0" width="12.58" height="13.88" style="fill:rgb(241,209,172);"/>
            </g>
            <g id="Rectángulo_72" transform="matrix(0.960342,0.278823,-0.278823,0.960342,203.919,424.816)">
                <rect x="0" y="0" width="12.58" height="13.88" style="fill:rgb(234,176,118);fill-opacity:0.4;"/>
            </g>
            <g id="Rectángulo_73" transform="matrix(0.960342,0.278823,-0.278823,0.960342,208.343,426.111)">
                <rect x="0" y="0" width="12.58" height="13.88" style="fill:rgb(241,209,172);"/>
            </g>
            <g id="Rectángulo_74" transform="matrix(0.960342,0.278823,-0.278823,0.960342,198.212,444.446)">
                <rect x="0" y="0" width="12.58" height="13.88" style="fill:rgb(234,176,118);fill-opacity:0.4;"/>
            </g>
            <g id="Rectángulo_75" transform="matrix(0.960342,0.278823,-0.278823,0.960342,202.646,445.733)">
                <rect x="0" y="0" width="12.58" height="13.88" style="fill:rgb(241,209,172);"/>
            </g>
            <g id="Rectángulo_76" transform="matrix(0.960342,0.278823,-0.278823,0.960342,192.587,463.811)">
                <rect x="0" y="0" width="12.58" height="13.88" style="fill:rgb(234,176,118);fill-opacity:0.4;"/>
            </g>
            <g id="Rectángulo_77" transform="matrix(0.960342,0.278823,-0.278823,0.960342,197.031,465.098)">
                <rect x="0" y="0" width="12.58" height="13.88" style="fill:rgb(241,209,172);"/>
            </g>
            <g id="Grupo_185">
                <g id="Rectángulo_78" transform="matrix(0.960342,0.278823,-0.278823,0.960342,268.629,330.937)">
                    <rect x="0" y="0" width="13.65" height="15.06" style="fill:rgb(234,176,118);fill-opacity:0.4;"/>
                </g>
                <g id="Rectángulo_79" transform="matrix(0.960342,0.278823,-0.278823,0.960342,273.447,332.335)">
                    <rect x="0" y="0" width="13.65" height="15.06" style="fill:rgb(241,209,172);"/>
                </g>
                <g id="Rectángulo_80" transform="matrix(0.960342,0.278823,-0.278823,0.960342,291.178,337.485)">
                    <rect x="0" y="0" width="13.66" height="15.06" style="fill:rgb(234,176,118);fill-opacity:0.4;"/>
                </g>
                <g id="Rectángulo_81" transform="matrix(0.960342,0.278823,-0.278823,0.960342,295.99,338.88)">
                    <rect x="0" y="0" width="13.65" height="15.06" style="fill:rgb(241,209,172);"/>
                </g>
                <g id="Rectángulo_82" transform="matrix(0.960342,0.278823,-0.278823,0.960342,313.871,344.08)">
                    <rect x="0" y="0" width="13.65" height="15.06" style="fill:rgb(234,176,118);fill-opacity:0.4;"/>
                </g>
                <g id="Rectángulo_83" transform="matrix(0.960342,0.278823,-0.278823,0.960342,318.683,345.466)">
                    <rect x="0" y="0" width="13.66" height="15.06" style="fill:rgb(241,209,172);"/>
                </g>
                <g id="Rectángulo_84" transform="matrix(0.960342,0.278823,-0.278823,0.960342,336.414,350.615)">
                    <rect x="0" y="0" width="13.65" height="15.06" style="fill:rgb(234,176,118);fill-opacity:0.4;"/>
                </g>
                <g id="Rectángulo_85" transform="matrix(0.960342,0.278823,-0.278823,0.960342,341.232,352.013)">
                    <rect x="0" y="0" width="13.65" height="15.06" style="fill:rgb(241,209,172);"/>
                </g>
                <g id="Rectángulo_86" transform="matrix(0.960342,0.278823,-0.278823,0.960342,358.777,357.112)">
                    <rect x="0" y="0" width="13.65" height="15.06" style="fill:rgb(234,176,118);fill-opacity:0.4;"/>
                </g>
                <g id="Rectángulo_87" transform="matrix(0.960342,0.278823,-0.278823,0.960342,363.586,358.507)">
                    <rect x="0" y="0" width="13.65" height="15.06" style="fill:rgb(241,209,172);"/>
                </g>
                <g id="Rectángulo_88" transform="matrix(0.960342,0.278823,-0.278823,0.960342,381.317,363.657)">
                    <rect x="0" y="0" width="13.65" height="15.06" style="fill:rgb(234,176,118);fill-opacity:0.4;"/>
                </g>
                <g id="Rectángulo_89" transform="matrix(0.960342,0.278823,-0.278823,0.960342,386.136,365.055)">
                    <rect x="0" y="0" width="13.65" height="15.06" style="fill:rgb(241,209,172);"/>
                </g>
                <g id="Rectángulo_90" transform="matrix(0.960342,0.278823,-0.278823,0.960342,214.445,517.556)">
                    <rect x="0" y="0" width="13.65" height="15.06" style="fill:rgb(234,176,118);fill-opacity:0.4;"/>
                </g>
                <g id="Rectángulo_91" transform="matrix(0.960342,0.278823,-0.278823,0.960342,219.263,518.965)">
                    <rect x="0" y="0" width="13.65" height="15.06" style="fill:rgb(241,209,172);"/>
                </g>
                <g id="Rectángulo_92" transform="matrix(0.960001,0.279997,-0.279997,0.960001,236.294,524.212)">
                    <rect x="0" y="0" width="13.66" height="15.06" style="fill:rgb(234,176,118);fill-opacity:0.4;"/>
                </g>
                <g id="Rectángulo_93" transform="matrix(0.960342,0.278823,-0.278823,0.960342,241.803,525.51)">
                    <rect x="0" y="0" width="13.65" height="15.06" style="fill:rgb(241,209,172);"/>
                </g>
                <g id="Rectángulo_94" transform="matrix(0.960342,0.278823,-0.278823,0.960342,259.687,530.699)">
                    <rect x="0" y="0" width="13.65" height="15.06" style="fill:rgb(234,176,118);fill-opacity:0.4;"/>
                </g>
                <g id="Rectángulo_95" transform="matrix(0.960342,0.278823,-0.278823,0.960342,264.496,532.095)">
                    <rect x="0" y="0" width="13.66" height="15.06" style="fill:rgb(241,209,172);"/>
                </g>
                <g id="Rectángulo_96" transform="matrix(0.960342,0.278823,-0.278823,0.960342,282.236,537.247)">
                    <rect x="0" y="0" width="13.65" height="15.06" style="fill:rgb(234,176,118);fill-opacity:0.4;"/>
                </g>
                <g id="Rectángulo_97" transform="matrix(0.960001,0.279997,-0.279997,0.960001,286.314,538.795)">
                    <rect x="0" y="0" width="13.65" height="15.06" style="fill:rgb(241,209,172);"/>
                </g>
                <g id="Rectángulo_98" transform="matrix(0.960342,0.278823,-0.278823,0.960342,304.59,543.741)">
                    <rect x="0" y="0" width="13.65" height="15.06" style="fill:rgb(234,176,118);fill-opacity:0.4;"/>
                </g>
                <g id="Rectángulo_99" transform="matrix(0.960342,0.278823,-0.278823,0.960342,309.402,545.127)">
                    <rect x="0" y="0" width="13.65" height="15.06" style="fill:rgb(241,209,172);"/>
                </g>
                <g id="Rectángulo_100" transform="matrix(0.960342,0.278823,-0.278823,0.960342,327.133,550.276)">
                    <rect x="0" y="0" width="13.65" height="15.06" style="fill:rgb(234,176,118);fill-opacity:0.4;"/>
                </g>
                <g id="Rectángulo_101" transform="matrix(0.960342,0.278823,-0.278823,0.960342,331.951,551.674)">
                    <rect x="0" y="0" width="13.65" height="15.06" style="fill:rgb(241,209,172);"/>
                </g>
                <g id="Rectángulo_102" transform="matrix(0.960342,0.278823,-0.278823,0.960342,408.352,415.096)">
                    <rect x="0" y="0" width="13.65" height="15.06" style="fill:rgb(241,209,172);"/>
                </g>
                <g id="Rectángulo_103" transform="matrix(0.960342,0.278823,-0.278823,0.960342,402.163,436.414)">
                    <rect x="0" y="0" width="13.65" height="15.06" style="fill:rgb(241,209,172);"/>
                </g>
                <g id="Rectángulo_104" transform="matrix(0.960342,0.278823,-0.278823,0.960342,396.067,457.43)">
                    <rect x="0" y="0" width="13.65" height="15.06" style="fill:rgb(241,209,172);"/>
                </g>
                <g id="Rectángulo_105" transform="matrix(0.960342,0.278823,-0.278823,0.960342,389.804,478.99)">
                    <rect x="0" y="0" width="13.65" height="15.06" style="fill:rgb(241,209,172);"/>
                </g>
                <g id="Rectángulo_106" transform="matrix(0.960342,0.278823,-0.278823,0.960342,383.615,500.308)">
                    <rect x="0" y="0" width="13.65" height="15.06" style="fill:rgb(241,209,172);"/>
                </g>
                <g id="Rectángulo_107" transform="matrix(0.960342,0.278823,-0.278823,0.960342,377.519,521.314)">
                    <rect x="0" y="0" width="13.65" height="15.06" style="fill:rgb(241,209,172);"/>
                </g>
                <path id="Trazado_1527" d="M196.78,512.44L185.57,509.18C181.56,508.004 179.218,503.747 180.37,499.73L183.84,487.8L190.84,490.66C189.35,499.53 191.82,507.89 196.78,512.44Z" style="fill:rgb(196,185,159);fill-rule:nonzero;"/>
                <path id="Trazado_1528" d="M398.28,392.21L395.28,402.65L355.57,539.3L352.57,549.72C351.455,553.537 347.543,555.884 343.65,555.07L343.44,555.02L340.25,554.09L331.96,551.69L327.14,550.29L322.49,549L317.68,547.6L309.38,545.18L304.57,543.79L300.15,542.51L295.33,541.12L287,538.65L282.17,537.25L277.55,535.91L272.75,534.51L264.44,532.11L259.64,530.71L254.86,529.32L250.05,527.92L249.99,527.92L241.75,525.54L236.94,524.14L232.32,522.81L231.23,522.49L228.48,521.68L220.41,519.33L219.23,518.99L214.41,517.6L208.27,515.82L202.43,514.12L202.28,514.07L196.77,512.47C191.77,507.92 189.34,499.56 190.84,490.69L183.84,487.83L185.72,481.36L189.92,466.91L191.82,460.37L196.02,445.92L198.02,439.06L202.22,424.6L204.29,417.51L208.49,403.06L210.39,396.52L214.59,382.07L216.59,375.21L220.79,360.76L226.14,342.33C227.325,338.327 231.576,335.993 235.59,337.14L251.94,341.9C252.116,341.934 252.289,341.977 252.46,342.03L264.46,345.51L269.28,346.92L277.58,349.33L282.39,350.72L287,352L291.81,353.39L295.81,354.55L300.14,355.79L304.95,357.17L309.72,358.54L314.53,359.94L317.27,360.73L322.83,362.34L327.64,363.72L332.26,365.04L337,366.5L345.28,368.9L350.11,370.29L354.53,371.57L359.34,372.95L365.34,374.7L367.61,375.36L372.43,376.75L377.04,378.1L381.86,379.49L387.17,381.04L390.17,381.9L393.04,382.74L393.14,382.74C397.126,383.956 399.433,388.205 398.28,392.21Z" style="fill:rgb(108,108,108);fill-rule:nonzero;"/>
                <g id="Rectángulo_108" transform="matrix(0.960001,0.279997,-0.279997,0.960001,244.62,339.927)">
                    <path d="M179.27,6.231C179.27,2.792 176.478,0 173.039,0L6.231,0C2.792,0 0,2.792 0,6.231L0,173.039C0,176.478 2.792,179.27 6.231,179.27L173.039,179.27C176.478,179.27 179.27,176.478 179.27,173.039L179.27,6.231Z" style="fill:rgb(69,90,100);"/>
                </g>
                <g id="Rectángulo_109" transform="matrix(0.960342,0.278823,-0.278823,0.960342,255.319,361.802)">
                    <path d="M142.69,6.41C142.69,2.872 139.818,0 136.28,0L6.41,0C2.872,0 0,2.872 0,6.41L0,136.28C0,139.818 2.872,142.69 6.41,142.69L136.28,142.69C139.818,142.69 142.69,139.818 142.69,136.28L142.69,6.41Z" style="fill:rgb(234,176,118);fill-opacity:0.4;"/>
                </g>
                <g id="Rectángulo_110" transform="matrix(0.960342,0.278823,-0.278823,0.960342,264.136,364.36)">
                    <path d="M142.69,6.41C142.69,2.872 139.818,0 136.28,0L6.41,0C2.872,0 0,2.872 0,6.41L0,136.28C0,139.818 2.872,142.69 6.41,142.69L136.28,142.69C139.818,142.69 142.69,139.818 142.69,136.28L142.69,6.41Z" style="fill:rgb(241,209,172);"/>
                </g>
                <path id="Trazado_1529" d="M289,420.08C293.133,421.362 296.587,424.244 298.59,428.08L292.51,432C291.13,429.74 289.68,428.15 287.06,427.39C281.87,425.88 276.52,429.21 274.36,436.67C272.14,444.3 274.44,449.78 279.85,451.35C282.567,452.157 285.509,451.698 287.85,450.1L290.99,456.51C287.061,459.147 282.148,459.882 277.62,458.51C267.99,455.72 262.04,446.89 265.62,434.42C269.25,422.12 279.48,417.31 289,420.08Z" style="fill:white;fill-rule:nonzero;"/>
                <path id="Trazado_1530" d="M305.94,425.73L319.49,429.67C327.58,432.01 333.15,436.84 330.54,445.84C328.01,454.55 320.22,456.49 312.36,454.21L307.24,452.72L303.58,465.31L295.16,462.86L305.94,425.73ZM313.79,447.4C318.4,448.74 321.22,447.33 322.34,443.46C323.46,439.59 321.49,437.46 317.04,436.18L312.43,434.84L309.17,446.06L313.79,447.4Z" style="fill:white;fill-rule:nonzero;"/>
                <path id="Trazado_1531" d="M340.23,435.69L348.6,438.12L342.6,458.9C340.48,466.19 342.03,469.36 346.19,470.57C350.35,471.78 353.52,469.98 355.64,462.69L361.64,441.91L369.73,444.25L363.94,464.18C360.32,476.66 353.68,480.59 344.06,477.8C334.44,475.01 330.82,468.09 334.44,455.62L340.23,435.69Z" style="fill:white;fill-rule:nonzero;"/>
                <g id="Rectángulo_111" transform="matrix(0.960342,0.278823,-0.278823,0.960342,214.226,358.744)">
                    <rect x="0" y="0" width="13.65" height="15.06" style="fill:rgb(234,176,118);fill-opacity:0.4;"/>
                </g>
                <g id="Rectángulo_112" transform="matrix(0.960342,0.278823,-0.278823,0.960342,219.037,360.13)">
                    <rect x="0" y="0" width="13.65" height="15.06" style="fill:rgb(241,209,172);"/>
                </g>
                <g id="Rectángulo_113" transform="matrix(0.960342,0.278823,-0.278823,0.960342,208.029,380.053)">
                    <rect x="0" y="0" width="13.65" height="15.06" style="fill:rgb(234,176,118);fill-opacity:0.4;"/>
                </g>
                <g id="Rectángulo_114" transform="matrix(0.960342,0.278823,-0.278823,0.960342,212.838,381.448)">
                    <rect x="0" y="0" width="13.65" height="15.06" style="fill:rgb(241,209,172);"/>
                </g>
                <g id="Rectángulo_115" transform="matrix(0.960342,0.278823,-0.278823,0.960342,201.933,401.059)">
                    <rect x="0" y="0" width="13.65" height="15.06" style="fill:rgb(234,176,118);fill-opacity:0.4;"/>
                </g>
                <g id="Rectángulo_116" transform="matrix(0.960342,0.278823,-0.278823,0.960342,206.742,402.464)">
                    <rect x="0" y="0" width="13.65" height="15.06" style="fill:rgb(241,209,172);"/>
                </g>
                <g id="Rectángulo_117" transform="matrix(0.960342,0.278823,-0.278823,0.960342,195.67,422.618)">
                    <rect x="0" y="0" width="13.65" height="15.06" style="fill:rgb(234,176,118);fill-opacity:0.4;"/>
                </g>
                <g id="Rectángulo_118" transform="matrix(0.960342,0.278823,-0.278823,0.960342,200.479,424.024)">
                    <rect x="0" y="0" width="13.65" height="15.06" style="fill:rgb(241,209,172);"/>
                </g>
                <g id="Rectángulo_119" transform="matrix(0.960342,0.278823,-0.278823,0.960342,189.481,443.947)">
                    <rect x="0" y="0" width="13.65" height="15.06" style="fill:rgb(234,176,118);fill-opacity:0.4;"/>
                </g>
                <g id="Rectángulo_120" transform="matrix(0.960342,0.278823,-0.278823,0.960342,194.29,445.342)">
                    <rect x="0" y="0" width="13.65" height="15.06" style="fill:rgb(241,209,172);"/>
                </g>
                <g id="Rectángulo_121" transform="matrix(0.960342,0.278823,-0.278823,0.960342,183.385,464.953)">
                    <rect x="0" y="0" width="13.65" height="15.06" style="fill:rgb(234,176,118);fill-opacity:0.4;"/>
                </g>
                <g id="Rectángulo_122" transform="matrix(0.960342,0.278823,-0.278823,0.960342,188.194,466.348)">
                    <rect x="0" y="0" width="13.65" height="15.06" style="fill:rgb(241,209,172);"/>
                </g>
            </g>
            <path id="Trazado_1532" d="M530.37,628.51C530.19,628.36 529.99,628.22 529.79,628.08L526.65,625.88L520,621.25L467.85,584.83L450.31,572.55L410.85,545L406.36,541.87L400.73,549.18L404.02,551.92L437.08,579.44L455.27,594.55L517.09,646C518.899,647.506 521.18,648.332 523.534,648.332C526.543,648.332 529.398,646.983 531.31,644.66L531.97,643.86C532.687,642.986 533.26,642.004 533.67,640.95C535.402,636.54 534.06,631.482 530.37,628.51Z" style="fill:rgb(202,202,202);fill-rule:nonzero;"/>
            <g id="Elipse_128" transform="matrix(0.258903,-0.965903,0.965903,0.258903,268.617,543.307)">
                <ellipse cx="68.871" cy="70.136" rx="68.871" ry="70.136" style="fill:white;fill-opacity:0.45;"/>
            </g>
            <path id="Trazado_1533" d="M276.44,475.15C265.58,515.87 290.39,557.84 331.86,568.91C373.33,579.98 415.75,555.91 426.61,515.21C437.47,474.51 412.66,432.51 371.2,421.45C329.74,410.39 287.3,434.43 276.44,475.15ZM287.44,478.09C296.71,443.35 332.9,422.84 368.28,432.28C403.66,441.72 424.82,477.53 415.55,512.28C406.28,547.03 370.09,567.52 334.72,558.09C299.35,548.66 278.2,512.83 287.47,478.09L287.44,478.09Z" style="fill:rgb(202,202,202);fill-rule:nonzero;"/>
            <path id="Trazado_1534" d="M418.52,522.62C418.397,522.572 418.316,522.453 418.316,522.322C418.316,522.28 418.324,522.239 418.34,522.2C419.02,520.54 419.65,518.82 420.2,517.1C420.23,516.969 420.348,516.875 420.483,516.875C420.523,516.875 420.563,516.884 420.6,516.9C420.767,516.952 420.862,517.133 420.81,517.3C420.25,519.04 419.62,520.77 418.94,522.45C418.894,522.57 418.779,522.649 418.651,522.649C418.605,522.649 418.561,522.639 418.52,522.62ZM423.52,501.87C423.37,501.828 423.269,501.685 423.28,501.53C423.692,496.612 423.578,491.664 422.94,486.77C419.16,457.96 398.3,434.43 369.78,426.83C356.572,423.277 342.626,423.52 329.55,427.53C329.525,427.536 329.499,427.539 329.473,427.539C329.297,427.539 329.153,427.395 329.153,427.219C329.153,427.087 329.236,426.967 329.36,426.92C342.553,422.872 356.624,422.626 369.95,426.21C398.71,433.88 419.76,457.62 423.57,486.69C424.221,491.63 424.339,496.625 423.92,501.59C423.904,501.762 423.752,501.892 423.58,501.88L423.52,501.87Z" style="fill:white;fill-rule:nonzero;"/>
            <path id="Trazado_1535" d="M522.35,645.14C522.218,645.103 522.122,644.987 522.11,644.85C522.11,644.843 522.109,644.836 522.109,644.829C522.109,644.661 522.242,644.52 522.41,644.51C526.71,644.2 529.41,642.51 530.3,639.51C531.211,636.41 530.041,633.052 527.4,631.19L512.69,620.41C512.607,620.349 512.558,620.253 512.558,620.15C512.558,619.973 512.703,619.828 512.88,619.828C512.948,619.828 513.015,619.85 513.07,619.89L527.78,630.67C530.625,632.694 531.888,636.316 530.92,639.67C529.92,642.92 527.05,644.74 522.46,645.07L522.35,645.14Z" style="fill:white;fill-rule:nonzero;"/>
        </g>
    </g>
</svg>
