<?xml version="1.0" encoding="UTF-8" standalone="no"?>
<!DOCTYPE svg PUBLIC "-//W3C//DTD SVG 1.1//EN" "http://www.w3.org/Graphics/SVG/1.1/DTD/svg11.dtd">
<svg width="100%" height="100%" viewBox="0 0 1000 477" version="1.1" xmlns="http://www.w3.org/2000/svg" xmlns:xlink="http://www.w3.org/1999/xlink" xml:space="preserve" xmlns:serif="http://www.serif.com/" style="fill-rule:evenodd;clip-rule:evenodd;stroke-linejoin:round;stroke-miterlimit:2;">
    <g id="Trazado_953" transform="matrix(0.351018,0,0,0.398806,188.726,0.940139)">
        <path d="M1920,0C2153.2,0.488 2354.7,330.836 2303.05,585.401C2249.27,850.52 2072.58,989.569 1920,1027.5C1778.12,1062.77 1624.66,1051.2 1490.19,993.59C1381.11,946.85 1289.76,872.377 1167.43,845.8C1030.64,816.08 892.624,870.97 763.54,925.11C583.875,1000.46 363.183,1187.98 4.192,1192.67C-313.371,1196.81 -530.327,887.242 -537.424,595.155C-546.729,212.215 -269.398,3.5 0,0C371.898,-4.831 1497.98,-0.883 1920,0Z" style="fill:rgb(237,236,236);fill-rule:nonzero;"/>
    </g>
</svg>
