<?xml version="1.0" encoding="UTF-8" standalone="no"?>
<!DOCTYPE svg PUBLIC "-//W3C//DTD SVG 1.1//EN" "http://www.w3.org/Graphics/SVG/1.1/DTD/svg11.dtd">
<svg width="100%" height="100%" viewBox="0 0 434 796" version="1.1" xmlns="http://www.w3.org/2000/svg" xmlns:xlink="http://www.w3.org/1999/xlink" xml:space="preserve" xmlns:serif="http://www.serif.com/" style="fill-rule:evenodd;clip-rule:evenodd;stroke-linejoin:round;stroke-miterlimit:2;">
    <g transform="matrix(-1.11861,0,0,1.11861,475.474,30.1791)">
        <g id="Trazado_727">
            <path d="M125.616,292.461C69.413,380.031 54.669,479.977 103.783,564.593C116.605,586.684 132.937,606.625 152.037,623.589C215.623,680.064 304.415,698.335 384.928,673.038C415.098,663.559 432.142,631.765 422.278,600.926C412.614,570.713 380.324,553.977 349.981,563.533C307.967,576.766 262.393,567.957 228.387,537.758C177.344,492.431 176.073,433.561 211.504,373.108C234.92,333.155 275.559,279.27 283.509,231.889C298.08,145.043 278.322,88.056 200.835,20.258C187.458,8.554 173.051,-1.921 157.584,-10.707C122.664,-30.541 64.153,-37.714 44.166,-0.354C21.769,41.514 59.955,65.409 80.405,76.822C97.33,86.269 112.292,94.823 124.581,105.839C183.053,158.256 174.249,216.684 125.616,292.461Z" style="fill:rgb(237,236,236);fill-rule:nonzero;"/>
        </g>
    </g>
</svg>
