<?xml version="1.0" encoding="UTF-8" standalone="no"?>
<!DOCTYPE svg PUBLIC "-//W3C//DTD SVG 1.1//EN" "http://www.w3.org/Graphics/SVG/1.1/DTD/svg11.dtd">
<svg width="100%" height="100%" viewBox="0 0 200 166" version="1.1" xmlns="http://www.w3.org/2000/svg" xmlns:xlink="http://www.w3.org/1999/xlink" xml:space="preserve" xmlns:serif="http://www.serif.com/" style="fill-rule:evenodd;clip-rule:evenodd;stroke-linejoin:round;stroke-miterlimit:2;">
    <g transform="matrix(0.939071,0,0,0.939071,-64.9756,-64.962)">
        <path d="M281.19,166.43L281.04,165.69C276.62,146.69 259.52,132.53 240.65,131.36C239.968,97.039 211.547,69.179 177.22,69.18L175.37,69.18C175.086,69.179 174.802,69.199 174.52,69.24C150.268,70.289 128.653,85.157 119,107.43C117.123,111.756 115.744,116.282 114.89,120.92C107.846,121.505 101.005,123.578 94.82,127C79.039,135.641 69.191,152.259 69.191,170.251C69.191,186.348 77.073,201.464 90.27,210.68C98.642,216.597 108.638,219.789 118.89,219.82C124.561,219.814 130.185,218.798 135.5,216.82C136.58,216.43 137.65,215.99 138.69,215.53C143.787,217.935 149.354,219.185 154.99,219.19C163.922,219.242 172.585,216.102 179.41,210.34C179.83,210.47 180.25,210.62 180.66,210.71C182.599,211.172 184.588,211.387 186.58,211.35C186.777,211.36 186.973,211.36 187.17,211.35L188.129,211.35C194.602,211.35 199.929,216.677 199.929,223.15C199.929,224.514 199.692,225.867 199.23,227.15C198.081,230.358 195.538,232.879 192.32,234C189.996,234.851 188.441,237.075 188.441,239.55C188.441,242.781 191.09,245.443 194.32,245.46C195.003,245.46 195.68,245.338 196.32,245.1C205.509,241.682 211.64,232.86 211.64,223.056C211.64,210.153 201.022,199.536 188.12,199.536C187.973,199.536 187.826,199.537 187.68,199.54L187.57,199.54C187.07,199.54 186.57,199.54 186.06,199.62C185.137,199.632 184.216,199.524 183.32,199.3C182.402,199.067 181.513,198.731 180.67,198.3C177.406,196.675 175.126,193.562 174.56,189.96C173.862,186.367 174.918,182.65 177.4,179.96C178.413,178.868 178.976,177.432 178.976,175.942C178.976,172.7 176.308,170.032 173.066,170.032C171.496,170.032 169.988,170.658 168.88,171.77C163.795,177.201 161.606,184.752 163,192.06C163.775,196.372 165.727,200.387 168.64,203.66C164.526,206.145 159.806,207.449 155,207.43C147.989,207.528 141.244,204.7 136.4,199.63L136.24,199.45L133.11,195.45C130.735,191.703 129.358,187.41 129.11,182.98C129.068,182.294 129.068,181.606 129.11,180.92C129.391,168.245 138.979,157.564 151.55,155.92C152.283,155.824 152.994,155.6 153.65,155.26C155.52,154.218 156.683,152.238 156.683,150.097C156.683,146.855 154.015,144.187 150.773,144.187C150.464,144.187 150.155,144.212 149.85,144.26C131.665,146.723 117.808,162.156 117.31,180.5C117.241,181.576 117.241,182.654 117.31,183.73C117.681,190.273 119.749,196.608 123.31,202.11C123.41,202.25 123.51,202.4 123.61,202.53L126.98,206.85L127.14,207.05C124.37,207.7 121.535,208.036 118.69,208.05L118.07,208.05C110.531,207.852 103.219,205.415 97.07,201.05C87.019,194.044 81.014,182.539 81.014,170.286C81.014,156.593 88.514,143.947 100.53,137.38C106.289,134.181 112.783,132.537 119.37,132.61C119.603,132.625 119.837,132.625 120.07,132.61C126.71,132.841 133.168,134.847 138.77,138.42C139.716,139.018 140.811,139.335 141.93,139.335C145.175,139.335 147.845,136.665 147.845,133.42C147.845,131.393 146.803,129.503 145.09,128.42C139.535,124.892 133.33,122.511 126.84,121.42C127.536,118.24 128.541,115.135 129.84,112.15C137.749,93.825 155.602,81.658 175.55,81L177.264,81C205.56,81 228.844,104.284 228.844,132.58C228.844,133.992 228.786,135.403 228.67,136.81C228.655,136.98 228.648,137.15 228.648,137.32C228.648,140.557 231.311,143.22 234.548,143.22L235.12,143.22C235.29,143.23 235.46,143.23 235.63,143.22C251.06,141.91 265.94,152.93 269.51,168.28L269.64,168.93C271.687,178.488 269.237,188.474 263,196C257.097,203.283 248.215,207.529 238.84,207.55L238.22,207.55C235.05,207.651 232.498,210.286 232.498,213.457C232.498,216.591 234.99,219.207 238.12,219.36L238.85,219.36C251.758,219.346 263.994,213.511 272.13,203.49C280.663,193.184 284.006,179.51 281.19,166.43Z" style="fill:rgb(98,97,97);fill-opacity:0.5;fill-rule:nonzero;"/>
    </g>
</svg>
