<?xml version="1.0" encoding="UTF-8" standalone="no"?>
<!DOCTYPE svg PUBLIC "-//W3C//DTD SVG 1.1//EN" "http://www.w3.org/Graphics/SVG/1.1/DTD/svg11.dtd">
<svg width="100%" height="100%" viewBox="0 0 250 453" version="1.1" xmlns="http://www.w3.org/2000/svg" xmlns:xlink="http://www.w3.org/1999/xlink" xml:space="preserve" xmlns:serif="http://www.serif.com/" style="fill-rule:evenodd;clip-rule:evenodd;stroke-linejoin:round;stroke-miterlimit:2;">
    <g id="Trazado_658" transform="matrix(1.03987,0,0,1.03987,-40.2808,-82.1191)">
        <path d="M163.283,456.627C176.153,470.362 175.017,492.222 161.769,504.808C147.709,518.164 125.214,517.786 111.533,504.105C57.033,449.605 30.773,371.574 40.857,295.104C44.419,268.091 52.47,242.619 63.52,218.333C81.935,177.861 138.467,114.694 197.212,91.424C206.194,87.866 225.712,81.802 235.512,79.759C254.453,75.809 273.293,87.011 278.16,106.316C282.762,124.567 271.189,143.462 253.397,147.673C231.766,152.793 208.189,160.595 189.797,174.718C147.939,206.861 118.219,251.275 111.263,303.918C103.284,364.296 123.731,414.416 163.283,456.627Z" style="fill:rgb(237,236,236);fill-rule:nonzero;"/>
    </g>
</svg>
