<?xml version="1.0" encoding="UTF-8" standalone="no"?>
<!DOCTYPE svg PUBLIC "-//W3C//DTD SVG 1.1//EN" "http://www.w3.org/Graphics/SVG/1.1/DTD/svg11.dtd">
<svg width="100%" height="100%" viewBox="0 0 1920 1300" version="1.1" xmlns="http://www.w3.org/2000/svg" xmlns:xlink="http://www.w3.org/1999/xlink" xml:space="preserve" xmlns:serif="http://www.serif.com/" style="fill-rule:evenodd;clip-rule:evenodd;stroke-linejoin:round;stroke-miterlimit:2;">
    <g id="Trazado_629" transform="matrix(1,0,0,1,427.5,166)">
        <path d="M1492.5,734.315C1499.1,1106.7 1160.1,1150.8 994,1125.4C827.9,1100 662.7,996.7 614.3,835.8C578.3,716 608.5,575.9 539.3,471.7C491,399 405,361.9 322,335C239,308.1 114.13,265.741 46.408,173.539C-35.422,62.131 -60.462,-164.124 148.964,-166C372.084,-167.998 861.172,-161.984 1235.65,-166C1395.41,-167.713 1416.31,117.449 1383.88,234.974C1319.31,469.043 1489.7,576.474 1492.5,734.315Z" style="fill:rgb(237,236,236);fill-rule:nonzero;"/>
    </g>
</svg>
