<?xml version="1.0" encoding="UTF-8" standalone="no"?>
<!DOCTYPE svg PUBLIC "-//W3C//DTD SVG 1.1//EN" "http://www.w3.org/Graphics/SVG/1.1/DTD/svg11.dtd">
<svg width="100%" height="100%" viewBox="0 0 944 600" version="1.1" xmlns="http://www.w3.org/2000/svg" xmlns:xlink="http://www.w3.org/1999/xlink" xml:space="preserve" xmlns:serif="http://www.serif.com/" style="fill-rule:evenodd;clip-rule:evenodd;stroke-linejoin:round;stroke-miterlimit:2;">
    <g id="Trazado_727" transform="matrix(1.01822,0,0,1.01822,-46.7205,-10.9432)">
        <path d="M341.072,316.585C355.313,438.868 416.772,541.385 525.172,581.985C553.472,592.585 583.372,598.585 613.572,599.785C714.111,603.78 809.066,553.913 863.772,470.385C884.272,439.085 876.026,397.209 843.872,376.385C812.372,355.985 770.272,364.885 749.672,396.385C721.149,440.001 672.838,466.117 619.072,463.985C538.372,460.785 493.06,407.866 480.148,325.976C471.614,271.855 468.393,192.069 440.135,142.748C388.341,52.349 327.524,15.017 205.772,11.085C184.754,10.407 163.715,11.626 142.972,15.185C96.144,23.221 37.221,60.537 46.949,109.715C57.85,164.823 110.714,158.052 137.988,153.161C160.56,149.113 180.666,145.72 200.172,146.585C292.988,150.702 328.749,210.772 341.072,316.585ZM904.474,207.181C942.259,207.181 972.935,237.857 972.935,275.641C972.935,313.426 942.259,344.102 904.474,344.102C866.69,344.102 836.013,313.426 836.013,275.641C836.013,237.857 866.69,207.181 904.474,207.181Z" style="fill:rgb(237,236,236);fill-rule:nonzero;"/>
    </g>
</svg>
