<?xml version="1.0" encoding="UTF-8" standalone="no"?>
<!DOCTYPE svg PUBLIC "-//W3C//DTD SVG 1.1//EN" "http://www.w3.org/Graphics/SVG/1.1/DTD/svg11.dtd">
<svg width="100%" height="100%" viewBox="0 0 411 500" version="1.1" xmlns="http://www.w3.org/2000/svg" xmlns:xlink="http://www.w3.org/1999/xlink" xml:space="preserve" xmlns:serif="http://www.serif.com/" style="fill-rule:evenodd;clip-rule:evenodd;stroke-linejoin:round;stroke-miterlimit:2;">
    <g id="Trazado_630" transform="matrix(1.06894,0,0,1.06894,-78.0731,45.384)">
        <path d="M73.659,346.004C75.776,331.481 85.057,315.937 98.119,306.526C116.991,292.928 142.884,297.942 181.038,302.553C231.271,308.624 278.938,293.253 309.538,252.153C353.638,195.153 341.638,109.553 283.838,66.853C257.038,46.753 251.638,8.653 271.738,-18.147C291.838,-44.947 329.838,-50.447 356.738,-30.347C356.838,-30.247 356.938,-30.147 357.038,-30.047C380.538,-12.647 400.738,8.953 416.538,33.553C472.638,120.553 472.338,239.853 406.238,325.353C351.738,398.053 273.491,428.943 181.038,424.953C129.362,422.723 99.483,411.013 85.416,393.662C74.684,380.426 71.542,360.527 73.659,346.004Z" style="fill:url(#_Linear1);fill-rule:nonzero;"/>
    </g>
    <defs>
        <linearGradient id="_Linear1" x1="0" y1="0" x2="1" y2="0" gradientUnits="userSpaceOnUse" gradientTransform="matrix(158.417,-225.825,225.825,158.417,241.583,390.552)"><stop offset="0" style="stop-color:rgb(253,116,0);stop-opacity:1"/><stop offset="0.25" style="stop-color:rgb(253,151,63);stop-opacity:1"/><stop offset="0.5" style="stop-color:rgb(254,179,115);stop-opacity:1"/><stop offset="0.75" style="stop-color:rgb(254,211,173);stop-opacity:1"/><stop offset="1" style="stop-color:rgb(255,224,199);stop-opacity:1"/></linearGradient>
    </defs>
</svg>
