<svg xmlns="http://www.w3.org/2000/svg" id="canvas" viewBox="558.955 285.148 1856.778 559.643"><path d="M 611.88,316.91 C 610.37 319.69, 612.24 323.47, 612.20 331.02 C 612.16 338.57, 612.07 343.49, 611.66 354.66 C 611.26 365.84, 611.04 373.22, 610.19 386.91 C 609.34 400.60, 608.76 408.20, 607.43 423.13 C 606.09 438.07, 605.19 446.20, 603.49 461.58 C 601.79 476.96, 599.12 492.26, 598.91 500.04 C 598.71 507.82, 600.82 508.08, 602.48 500.47 C 604.14 492.87, 605.41 477.39, 607.20 462.00 C 608.99 446.61, 609.88 438.47, 611.42 423.52 C 612.95 408.57, 613.69 400.97, 614.87 387.26 C 616.05 373.54, 616.54 366.16, 617.30 354.96 C 618.06 343.75, 618.17 338.82, 618.66 331.25 C 619.15 323.68, 621.10 319.99, 619.74 317.12 C 618.39 314.26, 613.38 314.13, 611.88 316.91" style="stroke: black; fill: black;"/><path d="M 567.91,329.42 C 570.32 329.42, 570.89 327.30, 574.04 324.35 C 577.18 321.39, 578.37 318.75, 583.62 314.64 C 588.88 310.52, 592.25 307.47, 600.31 303.75 C 608.38 300.03, 613.45 298.18, 623.94 296.02 C 634.42 293.86, 640.63 293.04, 652.73 292.96 C 664.83 292.88, 671.58 293.25, 684.44 295.63 C 697.31 298.02, 704.38 299.77, 717.06 304.90 C 729.73 310.03, 736.33 313.42, 747.82 321.28 C 759.30 329.15, 764.92 333.95, 774.48 344.21 C 784.03 354.48, 788.58 360.44, 795.59 372.61 C 802.61 384.78, 805.58 391.67, 809.55 405.07 C 813.52 418.47, 814.71 425.75, 815.44 439.60 C 816.17 453.44, 815.73 460.76, 813.19 474.30 C 810.65 487.84, 808.49 494.79, 802.75 507.31 C 797.01 519.82, 793.09 526.07, 784.49 536.89 C 775.89 547.72, 770.49 552.85, 759.74 561.42 C 748.99 569.99, 742.93 573.71, 730.74 579.75 C 718.55 585.78, 711.60 588.17, 698.82 591.58 C 686.04 594.99, 679.13 595.94, 666.84 596.80 C 654.55 597.65, 648.25 597.26, 637.37 595.86 C 626.48 594.46, 621.08 593.00, 612.41 589.81 C 603.74 586.63, 599.93 583.80, 594.02 579.94 C 588.12 576.08, 586.27 573.58, 582.88 570.51 C 579.49 567.44, 579.12 565.08, 577.07 564.59 C 575.02 564.10, 572.51 565.77, 572.63 568.06 C 572.75 570.35, 574.09 572.50, 577.67 576.02 C 581.25 579.54, 583.94 581.87, 590.53 585.65 C 597.13 589.43, 601.39 591.96, 610.65 594.93 C 619.91 597.91, 625.51 599.30, 636.81 600.53 C 648.12 601.76, 654.55 602.10, 667.16 601.09 C 679.77 600.09, 686.81 599.08, 699.88 595.52 C 712.94 591.96, 720.04 589.49, 732.50 583.28 C 744.96 577.07, 751.17 573.26, 762.17 564.46 C 773.18 555.67, 778.71 550.42, 787.53 539.31 C 796.35 528.20, 800.38 521.77, 806.27 508.92 C 812.16 496.06, 814.38 488.91, 816.98 475.01 C 819.58 461.11, 820.03 453.60, 819.28 439.40 C 818.53 425.19, 817.30 417.72, 813.23 403.98 C 809.15 390.24, 806.10 383.18, 798.91 370.70 C 791.73 358.22, 787.08 352.12, 777.30 341.59 C 767.53 331.06, 761.79 326.14, 750.05 318.04 C 738.30 309.95, 731.56 306.46, 718.60 301.12 C 705.64 295.79, 698.43 293.96, 685.26 291.37 C 672.09 288.78, 665.21 288.33, 652.74 288.17 C 640.28 288.01, 633.94 288.71, 622.92 290.55 C 611.90 292.39, 606.51 293.99, 597.64 297.36 C 588.77 300.73, 584.76 303.51, 578.57 307.40 C 572.37 311.30, 569.97 313.44, 566.65 316.82 C 563.33 320.21, 561.73 321.81, 561.98 324.33 C 562.23 326.85, 565.50 329.42, 567.91 329.42" style="stroke: black; fill: black;"/><path d="M 932.57,491.29 C 931.19 493.25, 932.41 494.91, 932.92 500.37 C 933.43 505.83, 934.21 509.21, 935.12 518.60 C 936.04 527.98, 936.75 534.03, 937.49 547.28 C 938.23 560.53, 938.65 568.62, 938.82 584.85 C 938.98 601.08, 938.94 610.55, 938.30 628.44 C 937.65 646.33, 937.18 656.22, 935.60 674.29 C 934.02 692.37, 932.94 701.85, 930.41 718.82 C 927.88 735.78, 926.37 744.35, 922.96 759.11 C 919.55 773.86, 917.57 780.98, 913.36 792.60 C 909.15 804.22, 906.66 809.46, 901.90 817.21 C 897.15 824.95, 894.44 827.78, 889.57 831.32 C 884.70 834.86, 882.55 835.24, 877.55 834.92 C 872.55 834.60, 870.05 833.62, 864.59 829.73 C 859.13 825.85, 855.87 822.80, 850.23 815.51 C 844.59 808.23, 841.34 803.32, 836.38 793.31 C 831.42 783.30, 829.06 776.40, 825.41 765.45 C 821.77 754.49, 820.31 747.79, 818.16 738.53 C 816.02 729.28, 816.42 722.85, 814.70 719.16 C 812.97 715.48, 809.87 715.98, 809.55 720.09 C 809.23 724.20, 810.96 730.29, 813.10 739.70 C 815.25 749.11, 816.63 755.92, 820.28 767.13 C 823.94 778.35, 826.38 785.32, 831.37 795.75 C 836.36 806.18, 839.39 811.36, 845.24 819.28 C 851.08 827.21, 854.19 830.89, 860.60 835.39 C 867.00 839.89, 870.76 841.63, 877.27 841.78 C 883.79 841.93, 887.40 840.56, 893.17 836.15 C 898.95 831.73, 901.35 828.15, 906.15 819.71 C 910.95 811.27, 913.13 805.90, 917.17 793.94 C 921.22 781.97, 923.09 774.81, 926.38 759.88 C 929.66 744.95, 931.13 736.35, 933.61 719.29 C 936.09 702.23, 937.17 692.71, 938.78 674.57 C 940.39 656.43, 940.89 646.52, 941.68 628.57 C 942.47 610.63, 942.57 601.14, 942.72 584.85 C 942.87 568.56, 942.63 560.44, 942.43 547.11 C 942.23 533.78, 941.96 527.67, 941.71 518.19 C 941.47 508.71, 941.59 505.22, 941.21 499.70 C 940.83 494.18, 941.54 492.27, 939.81 490.59 C 938.08 488.91, 933.95 489.34, 932.57 491.29" style="stroke: black; fill: black;"/><path d="M 936.20,312.18 C 934.21 314.35, 933.03 316.24, 933.47 316.89 C 933.90 317.54, 935.80 317.03, 938.38 315.44 C 940.95 313.84, 944.30 311.17, 946.34 308.93 C 948.39 306.69, 949.20 304.81, 948.61 304.23 C 948.02 303.65, 945.86 304.44, 943.38 306.03 C 940.90 307.62, 938.18 310.01, 936.20 312.18" style="stroke: black; fill: black;"/><path d="M 1151.89,469.37 C 1151.96 466.69, 1150.26 464.95, 1146.95 462.28 C 1143.64 459.62, 1140.86 458.04, 1135.33 456.05 C 1129.80 454.05, 1126.20 452.80, 1119.30 452.29 C 1112.41 451.79, 1108.56 451.92, 1100.83 453.51 C 1093.10 455.11, 1088.84 456.36, 1080.66 460.28 C 1072.47 464.20, 1067.94 466.82, 1059.92 473.11 C 1051.90 479.41, 1047.56 483.44, 1040.55 491.75 C 1033.54 500.06, 1029.96 505.16, 1024.87 514.67 C 1019.78 524.18, 1017.65 529.72, 1015.10 539.30 C 1012.55 548.88, 1011.93 554.09, 1012.12 562.58 C 1012.31 571.06, 1013.00 575.41, 1016.05 581.74 C 1019.10 588.06, 1021.71 591.20, 1027.39 594.21 C 1033.07 597.23, 1037.10 597.74, 1044.44 596.81 C 1051.79 595.88, 1055.92 594.06, 1064.12 589.57 C 1072.33 585.08, 1076.85 581.58, 1085.46 574.36 C 1094.07 567.14, 1098.70 562.41, 1107.15 553.47 C 1115.61 544.52, 1120.04 538.92, 1127.73 529.64 C 1135.42 520.37, 1139.36 515.13, 1145.60 507.09 C 1151.85 499.06, 1155.06 494.59, 1158.97 489.46 C 1162.89 484.34, 1164.64 482.91, 1165.18 481.47 C 1165.72 480.04, 1162.62 479.18, 1161.68 482.30 C 1160.75 485.43, 1161.33 489.21, 1160.52 497.11 C 1159.71 505.00, 1158.82 511.18, 1157.62 521.77 C 1156.43 532.35, 1155.55 539.22, 1154.52 550.03 C 1153.50 560.85, 1153.09 566.79, 1152.52 575.85 C 1151.95 584.91, 1151.95 589.09, 1151.67 595.33 C 1151.38 601.57, 1150.36 603.66, 1151.09 607.05 C 1151.81 610.44, 1153.72 611.20, 1155.29 612.28 C 1156.87 613.36, 1158.06 612.89, 1158.97 612.44 C 1159.88 611.99, 1159.51 610.70, 1159.85 610.04 C 1160.19 609.39, 1160.28 610.11, 1160.69 609.17 C 1161.10 608.22, 1162.17 608.12, 1161.89 605.31 C 1161.62 602.50, 1159.94 600.95, 1159.31 595.11 C 1158.69 589.28, 1158.52 585.02, 1158.75 576.13 C 1158.99 567.23, 1159.34 561.32, 1160.49 550.63 C 1161.63 539.94, 1162.86 533.18, 1164.46 522.68 C 1166.07 512.17, 1167.33 506.26, 1168.51 498.10 C 1169.69 489.94, 1171.66 486.39, 1170.37 481.90 C 1169.08 477.41, 1165.45 474.97, 1162.06 475.65 C 1158.67 476.33, 1157.59 479.65, 1153.41 485.28 C 1149.23 490.91, 1147.08 495.55, 1141.18 503.79 C 1135.28 512.03, 1131.44 517.26, 1123.91 526.49 C 1116.37 535.73, 1111.90 541.28, 1103.50 549.98 C 1095.10 558.69, 1090.39 563.25, 1081.91 570.02 C 1073.42 576.78, 1068.75 579.91, 1061.08 583.82 C 1053.41 587.72, 1049.57 588.81, 1043.54 589.55 C 1037.50 590.29, 1035.13 589.70, 1030.91 587.51 C 1026.68 585.33, 1024.91 583.66, 1022.41 578.62 C 1019.91 573.59, 1018.77 569.94, 1018.40 562.36 C 1018.04 554.78, 1018.35 549.75, 1020.60 540.72 C 1022.85 531.69, 1024.83 526.30, 1029.66 517.22 C 1034.49 508.14, 1037.98 503.21, 1044.76 495.33 C 1051.53 487.45, 1055.81 483.62, 1063.54 477.82 C 1071.27 472.02, 1075.69 469.66, 1083.42 466.32 C 1091.14 462.98, 1095.21 462.06, 1102.15 461.12 C 1109.09 460.19, 1112.40 460.56, 1118.13 461.64 C 1123.87 462.72, 1126.52 464.29, 1130.82 466.52 C 1135.12 468.76, 1136.47 470.98, 1139.63 472.81 C 1142.78 474.64, 1144.14 476.38, 1146.60 475.69 C 1149.05 475.00, 1151.82 472.05, 1151.89 469.37" style="stroke: black; fill: black;"/><path d="M 1279.48,299.15 C 1277.90 300.87, 1278.92 302.42, 1278.75 307.79 C 1278.59 313.17, 1279.06 316.69, 1278.65 326.03 C 1278.25 335.37, 1277.94 341.61, 1276.74 354.49 C 1275.53 367.37, 1274.52 375.21, 1272.62 390.44 C 1270.73 405.67, 1269.45 414.49, 1267.24 430.63 C 1265.03 446.78, 1263.63 455.47, 1261.57 471.16 C 1259.51 486.85, 1258.37 494.97, 1256.92 509.10 C 1255.48 523.24, 1254.85 530.22, 1254.34 541.83 C 1253.83 553.45, 1253.85 558.73, 1254.36 567.19 C 1254.88 575.65, 1255.32 580.92, 1256.91 584.12 C 1258.50 587.33, 1261.85 586.67, 1262.30 583.21 C 1262.76 579.75, 1259.89 575.08, 1259.18 566.83 C 1258.47 558.59, 1258.45 553.46, 1258.77 541.99 C 1259.08 530.52, 1259.47 523.54, 1260.74 509.47 C 1262.02 495.40, 1263.12 487.29, 1265.15 471.63 C 1267.18 455.96, 1268.59 447.27, 1270.90 431.15 C 1273.21 415.02, 1274.54 406.21, 1276.73 390.99 C 1278.91 375.78, 1280.11 367.96, 1281.84 355.07 C 1283.58 342.18, 1284.33 335.95, 1285.40 326.56 C 1286.47 317.16, 1286.95 313.58, 1287.19 308.11 C 1287.44 302.64, 1288.15 301.00, 1286.61 299.21 C 1285.06 297.42, 1281.05 297.44, 1279.48 299.15" style="stroke: black; fill: black;"/><path d="M 1373.72,455.07 C 1371.93 456.70, 1372.67 458.64, 1372.33 463.44 C 1372.00 468.25, 1372.39 471.59, 1372.02 479.10 C 1371.65 486.61, 1371.43 491.64, 1370.48 500.97 C 1369.54 510.30, 1368.83 515.92, 1367.30 525.74 C 1365.78 535.56, 1364.55 541.08, 1362.87 550.06 C 1361.18 559.04, 1360.20 563.62, 1358.87 570.63 C 1357.55 577.64, 1355.82 580.58, 1356.24 585.10 C 1356.66 589.62, 1358.10 592.03, 1360.96 593.24 C 1363.83 594.45, 1367.27 594.28, 1370.55 591.15 C 1373.84 588.03, 1374.02 584.47, 1377.40 577.63 C 1380.77 570.80, 1382.67 566.09, 1387.43 556.97 C 1392.19 547.86, 1395.15 542.09, 1401.19 532.06 C 1407.23 522.03, 1410.86 516.25, 1417.62 506.81 C 1424.38 497.36, 1428.26 492.44, 1435.01 484.84 C 1441.76 477.23, 1445.30 473.73, 1451.37 468.78 C 1457.43 463.83, 1460.60 462.16, 1465.32 460.08 C 1470.04 458.01, 1471.92 458.08, 1474.97 458.39 C 1478.02 458.70, 1478.42 459.05, 1480.57 461.65 C 1482.73 464.24, 1484.04 466.11, 1485.74 471.36 C 1487.45 476.61, 1488.40 480.42, 1489.10 487.89 C 1489.81 495.36, 1489.68 500.17, 1489.26 508.70 C 1488.84 517.23, 1488.13 522.45, 1486.99 530.53 C 1485.85 538.62, 1484.72 542.84, 1483.55 549.14 C 1482.37 555.44, 1480.05 558.09, 1481.12 562.03 C 1482.19 565.97, 1485.47 568.55, 1488.89 568.82 C 1492.31 569.10, 1494.32 567.46, 1498.23 563.41 C 1502.14 559.36, 1503.50 555.65, 1508.43 548.57 C 1513.36 541.48, 1516.38 536.63, 1522.88 528.00 C 1529.38 519.36, 1533.37 514.08, 1540.94 505.40 C 1548.51 496.71, 1552.86 491.88, 1560.72 484.57 C 1568.57 477.27, 1572.92 473.74, 1580.21 468.87 C 1587.50 464.01, 1591.17 462.27, 1597.16 460.25 C 1603.15 458.24, 1605.82 458.19, 1610.16 458.79 C 1614.49 459.39, 1615.79 460.07, 1618.86 463.24 C 1621.93 466.41, 1623.32 468.67, 1625.51 474.65 C 1627.70 480.63, 1628.68 484.83, 1629.81 493.14 C 1630.95 501.45, 1631.06 506.67, 1631.18 516.21 C 1631.29 525.75, 1630.85 531.38, 1630.39 540.85 C 1629.93 550.33, 1629.34 555.60, 1628.89 563.58 C 1628.43 571.56, 1628.12 575.31, 1628.10 580.75 C 1628.09 586.19, 1627.52 588.77, 1628.83 590.78 C 1630.14 592.79, 1633.34 592.76, 1634.66 590.79 C 1635.97 588.81, 1635.17 586.29, 1635.40 580.92 C 1635.64 575.54, 1635.56 571.85, 1635.82 563.89 C 1636.08 555.93, 1636.34 550.66, 1636.69 541.12 C 1637.05 531.58, 1637.57 525.95, 1637.61 516.18 C 1637.65 506.42, 1637.81 501.14, 1636.89 492.30 C 1635.98 483.45, 1635.45 478.97, 1633.01 471.97 C 1630.58 464.98, 1629.09 461.50, 1624.71 457.32 C 1620.33 453.13, 1617.08 451.73, 1611.11 451.06 C 1605.15 450.38, 1601.71 451.32, 1594.88 453.93 C 1588.05 456.55, 1584.50 458.77, 1576.94 464.12 C 1569.38 469.48, 1565.10 473.16, 1557.10 480.70 C 1549.09 488.24, 1544.72 493.14, 1536.90 501.82 C 1529.08 510.50, 1524.97 515.75, 1517.99 524.12 C 1511.02 532.49, 1507.49 537.13, 1502.02 543.66 C 1496.55 550.19, 1493.56 553.03, 1490.65 556.77 C 1487.73 560.51, 1487.28 561.35, 1487.44 562.36 C 1487.61 563.37, 1490.52 564.21, 1491.46 561.80 C 1492.39 559.40, 1491.53 556.42, 1492.10 550.35 C 1492.67 544.27, 1493.40 539.69, 1494.29 531.44 C 1495.18 523.20, 1495.97 517.94, 1496.54 509.12 C 1497.12 500.30, 1497.57 495.41, 1497.16 487.32 C 1496.76 479.23, 1496.42 475.11, 1494.53 468.66 C 1492.64 462.21, 1491.49 458.92, 1487.72 455.07 C 1483.96 451.22, 1480.83 449.76, 1475.69 449.41 C 1470.56 449.06, 1467.72 450.38, 1462.05 453.33 C 1456.39 456.27, 1453.59 458.53, 1447.37 464.13 C 1441.16 469.73, 1437.77 473.40, 1430.99 481.34 C 1424.21 489.28, 1420.36 494.26, 1413.47 503.83 C 1406.58 513.40, 1402.92 519.21, 1396.54 529.18 C 1390.17 539.15, 1386.96 544.85, 1381.59 553.67 C 1376.22 562.50, 1373.67 567.10, 1369.71 573.32 C 1365.75 579.53, 1363.12 581.59, 1361.81 584.75 C 1360.50 587.91, 1362.34 589.00, 1363.15 589.12 C 1363.95 589.24, 1365.20 588.84, 1365.83 585.35 C 1366.46 581.87, 1365.63 578.53, 1366.29 571.69 C 1366.96 564.85, 1367.70 560.14, 1369.15 551.15 C 1370.59 542.16, 1371.83 536.60, 1373.50 526.74 C 1375.17 516.88, 1376.10 511.23, 1377.51 501.85 C 1378.91 492.47, 1379.56 487.42, 1380.51 479.84 C 1381.45 472.26, 1382.09 468.87, 1382.24 463.95 C 1382.40 459.03, 1383.00 457.04, 1381.30 455.26 C 1379.59 453.48, 1375.51 453.43, 1373.72 455.07" style="stroke: black; fill: black;"/><path d="M 1730.40,550.19 C 1731.93 552.22, 1734.11 552.51, 1738.60 552.58 C 1743.09 552.65, 1746.28 551.99, 1752.84 550.53 C 1759.40 549.07, 1763.74 548.05, 1771.40 545.26 C 1779.07 542.46, 1783.33 540.58, 1791.17 536.55 C 1799.01 532.52, 1803.24 529.95, 1810.59 525.10 C 1817.95 520.26, 1821.75 517.50, 1827.96 512.32 C 1834.17 507.14, 1837.01 504.45, 1841.65 499.21 C 1846.28 493.97, 1848.46 491.45, 1851.14 486.12 C 1853.81 480.79, 1855.20 477.86, 1855.02 472.57 C 1854.85 467.27, 1853.71 463.79, 1850.26 459.66 C 1846.81 455.53, 1843.74 453.83, 1837.79 451.92 C 1831.84 450.02, 1828.21 449.84, 1820.50 450.14 C 1812.79 450.44, 1808.19 450.98, 1799.23 453.42 C 1790.26 455.87, 1785.08 457.73, 1775.66 462.37 C 1766.24 467.01, 1761.12 470.09, 1752.13 476.62 C 1743.14 483.15, 1738.20 487.01, 1730.70 495.01 C 1723.20 503.01, 1719.57 507.71, 1714.62 516.60 C 1709.67 525.50, 1707.62 530.39, 1705.95 539.48 C 1704.29 548.57, 1704.18 553.54, 1706.31 562.06 C 1708.44 570.58, 1710.72 575.04, 1716.61 582.10 C 1722.50 589.16, 1726.69 592.49, 1735.76 597.36 C 1744.82 602.22, 1750.42 604.04, 1761.94 606.44 C 1773.45 608.83, 1780.17 609.30, 1793.35 609.34 C 1806.53 609.38, 1815.10 608.30, 1827.84 606.63 C 1840.59 604.96, 1847.33 603.20, 1857.07 601.00 C 1866.81 598.79, 1872.91 597.62, 1876.54 595.61 C 1880.18 593.59, 1879.33 590.76, 1875.23 590.92 C 1871.12 591.07, 1865.62 594.18, 1856.02 596.38 C 1846.42 598.57, 1839.75 600.22, 1827.22 601.87 C 1814.69 603.53, 1806.21 604.71, 1793.37 604.65 C 1780.52 604.59, 1773.97 604.00, 1762.98 601.57 C 1751.98 599.15, 1746.76 597.18, 1738.39 592.53 C 1730.01 587.89, 1726.38 584.74, 1721.11 578.36 C 1715.83 571.98, 1713.93 568.20, 1712.01 560.63 C 1710.10 553.05, 1710.07 548.77, 1711.53 540.49 C 1713.00 532.21, 1714.75 527.60, 1719.36 519.22 C 1723.96 510.85, 1727.37 506.27, 1734.55 498.62 C 1741.73 490.98, 1746.55 487.19, 1755.28 481.01 C 1764.00 474.82, 1769.08 471.88, 1778.20 467.68 C 1787.31 463.49, 1792.39 461.91, 1800.86 460.03 C 1809.34 458.15, 1813.79 458.10, 1820.56 458.30 C 1827.32 458.50, 1830.33 459.42, 1834.67 461.04 C 1839.01 462.66, 1840.22 464.02, 1842.27 466.40 C 1844.33 468.79, 1844.79 469.79, 1844.96 472.97 C 1845.12 476.16, 1844.95 478.08, 1843.11 482.34 C 1841.27 486.59, 1839.69 489.31, 1835.76 494.25 C 1831.82 499.19, 1829.20 501.97, 1823.43 507.02 C 1817.66 512.06, 1813.98 514.84, 1806.90 519.48 C 1799.82 524.12, 1795.65 526.62, 1788.04 530.22 C 1780.44 533.82, 1776.24 535.36, 1768.86 537.47 C 1761.48 539.58, 1757.27 540.04, 1751.15 540.78 C 1745.03 541.52, 1742.28 540.85, 1738.25 541.18 C 1734.21 541.51, 1732.54 540.63, 1730.97 542.44 C 1729.40 544.24, 1728.88 548.16, 1730.40 550.19" style="stroke: black; fill: black;"/><path d="M 2027.86,484.37 C 2028.44 481.62, 2027.61 479.06, 2025.00 476.61 C 2022.40 474.16, 2019.72 473.55, 2014.83 472.12 C 2009.95 470.70, 2006.79 469.60, 2000.57 469.47 C 1994.36 469.33, 1990.90 469.72, 1983.75 471.44 C 1976.60 473.17, 1972.56 474.44, 1964.82 478.10 C 1957.08 481.77, 1952.66 484.15, 1945.04 489.76 C 1937.42 495.38, 1933.25 498.84, 1926.71 506.18 C 1920.16 513.52, 1916.79 518.00, 1912.30 526.46 C 1907.80 534.91, 1905.85 539.79, 1904.23 548.45 C 1902.60 557.12, 1902.46 561.86, 1904.18 569.79 C 1905.90 577.72, 1907.76 581.99, 1912.84 588.11 C 1917.92 594.23, 1921.77 597.01, 1929.59 600.39 C 1937.42 603.77, 1942.45 604.72, 1951.96 605.01 C 1961.47 605.30, 1966.93 604.51, 1977.14 601.83 C 1987.36 599.14, 1993.08 596.84, 2003.05 591.57 C 2013.02 586.30, 2018.23 582.73, 2027.00 575.48 C 2035.77 568.24, 2040.09 563.75, 2046.90 555.34 C 2053.72 546.92, 2056.80 542.09, 2061.06 533.41 C 2065.32 524.72, 2066.91 520.07, 2068.20 511.92 C 2069.48 503.76, 2069.37 499.52, 2067.49 492.65 C 2065.61 485.78, 2063.45 482.40, 2058.80 477.56 C 2054.14 472.73, 2050.70 470.92, 2044.21 468.48 C 2037.73 466.04, 2033.72 465.69, 2026.38 465.38 C 2019.04 465.06, 2014.73 465.59, 2007.51 466.91 C 2000.29 468.22, 1996.08 469.94, 1990.28 471.93 C 1984.48 473.93, 1981.93 474.74, 1978.52 476.88 C 1975.10 479.03, 1973.66 480.55, 1973.20 482.68 C 1972.73 484.80, 1974.23 486.89, 1976.19 487.52 C 1978.15 488.15, 1979.53 487.13, 1983.01 485.81 C 1986.50 484.48, 1988.36 482.98, 1993.60 480.88 C 1998.84 478.77, 2002.71 476.74, 2009.21 475.28 C 2015.70 473.82, 2019.64 473.41, 2026.09 473.58 C 2032.54 473.75, 2035.99 474.24, 2041.43 476.13 C 2046.87 478.03, 2049.43 479.37, 2053.28 483.06 C 2057.13 486.76, 2058.94 489.04, 2060.68 494.63 C 2062.42 500.22, 2062.92 503.75, 2061.98 511.02 C 2061.04 518.29, 2059.82 522.77, 2055.99 530.98 C 2052.16 539.19, 2049.28 543.96, 2042.83 552.07 C 2036.38 560.18, 2032.19 564.58, 2023.75 571.54 C 2015.30 578.51, 2010.21 581.94, 2000.61 586.91 C 1991.01 591.87, 1985.43 593.97, 1975.75 596.37 C 1966.06 598.77, 1960.90 599.29, 1952.19 598.90 C 1943.48 598.50, 1939.05 597.40, 1932.20 594.39 C 1925.36 591.38, 1922.30 589.05, 1917.96 583.85 C 1913.63 578.65, 1912.06 575.25, 1910.54 568.39 C 1909.01 561.54, 1908.94 557.40, 1910.35 549.58 C 1911.77 541.76, 1913.45 537.16, 1917.63 529.29 C 1921.80 521.42, 1924.99 517.10, 1931.23 510.25 C 1937.46 503.40, 1941.51 500.13, 1948.82 495.03 C 1956.13 489.93, 1960.46 487.78, 1967.78 484.75 C 1975.09 481.73, 1979.06 480.81, 1985.40 479.90 C 1991.75 479.00, 1994.63 479.25, 1999.50 480.22 C 2004.38 481.19, 2006.49 482.89, 2009.78 484.74 C 2013.06 486.59, 2013.47 488.33, 2015.92 489.46 C 2018.38 490.59, 2019.68 491.39, 2022.07 490.38 C 2024.45 489.36, 2027.27 487.12, 2027.86 484.37" style="stroke: black; fill: black;"/><path d="M 2149.00,458.48 C 2146.93 459.68, 2147.04 461.46, 2146.01 465.96 C 2144.98 470.45, 2144.85 473.70, 2143.85 480.95 C 2142.86 488.21, 2142.29 493.02, 2141.03 502.24 C 2139.76 511.46, 2138.79 517.09, 2137.54 527.06 C 2136.29 537.03, 2135.45 542.59, 2134.77 552.08 C 2134.08 561.57, 2133.83 566.49, 2134.12 574.49 C 2134.41 582.49, 2134.47 586.10, 2136.22 592.08 C 2137.97 598.07, 2139.05 601.07, 2142.88 604.43 C 2146.71 607.79, 2150.06 609.06, 2155.38 608.87 C 2160.71 608.68, 2163.61 607.02, 2169.50 603.48 C 2175.39 599.94, 2178.50 597.08, 2184.84 591.17 C 2191.18 585.26, 2194.68 581.34, 2201.21 573.93 C 2207.73 566.51, 2211.21 561.81, 2217.45 554.10 C 2223.69 546.38, 2227.06 541.92, 2232.40 535.35 C 2237.74 528.78, 2240.73 525.08, 2244.15 521.27 C 2247.56 517.45, 2248.53 516.82, 2249.48 516.27 C 2250.44 515.72, 2248.44 515.59, 2248.91 518.51 C 2249.39 521.42, 2250.61 524.50, 2251.87 530.85 C 2253.14 537.20, 2253.63 542.07, 2255.25 550.25 C 2256.86 558.44, 2257.72 563.69, 2259.94 571.77 C 2262.16 579.86, 2263.14 584.09, 2266.33 590.67 C 2269.53 597.26, 2271.17 600.50, 2275.93 604.69 C 2280.68 608.89, 2283.88 610.76, 2290.11 611.64 C 2296.34 612.51, 2300.00 611.80, 2307.08 609.07 C 2314.16 606.34, 2317.94 603.88, 2325.52 598.00 C 2333.10 592.11, 2337.35 588.12, 2344.98 579.66 C 2352.61 571.19, 2356.60 565.75, 2363.67 555.67 C 2370.73 545.60, 2374.25 539.65, 2380.28 529.29 C 2386.31 518.92, 2389.13 513.25, 2393.82 503.85 C 2398.52 494.45, 2400.44 489.75, 2403.75 482.28 C 2407.05 474.81, 2408.60 471.48, 2410.36 466.50 C 2412.12 461.51, 2413.15 459.52, 2412.57 457.36 C 2411.98 455.19, 2409.16 454.32, 2407.42 455.66 C 2405.68 457.01, 2405.73 459.24, 2403.85 464.08 C 2401.96 468.92, 2400.95 472.38, 2398.00 479.88 C 2395.05 487.38, 2393.50 492.18, 2389.11 501.57 C 2384.72 510.96, 2381.96 516.59, 2376.05 526.84 C 2370.15 537.08, 2366.62 542.97, 2359.59 552.78 C 2352.56 562.60, 2348.49 567.89, 2340.91 575.90 C 2333.32 583.91, 2328.94 587.59, 2321.65 592.82 C 2314.36 598.05, 2310.55 599.89, 2304.47 602.04 C 2298.39 604.19, 2295.90 604.26, 2291.25 603.59 C 2286.61 602.93, 2284.86 601.95, 2281.25 598.71 C 2277.63 595.46, 2275.97 593.13, 2273.18 587.35 C 2270.38 581.58, 2269.19 577.56, 2267.27 569.85 C 2265.34 562.14, 2264.76 556.96, 2263.55 548.82 C 2262.34 540.68, 2262.34 536.02, 2261.23 529.17 C 2260.13 522.32, 2260.65 518.78, 2258.03 514.55 C 2255.41 510.32, 2252.10 507.77, 2248.12 508.03 C 2244.15 508.29, 2242.35 511.22, 2238.15 515.86 C 2233.94 520.50, 2232.20 524.35, 2227.09 531.22 C 2221.99 538.10, 2218.78 542.55, 2212.63 550.22 C 2206.49 557.89, 2202.93 562.50, 2196.37 569.56 C 2189.81 576.62, 2186.10 580.28, 2179.84 585.52 C 2173.58 590.76, 2170.07 593.03, 2165.06 595.75 C 2160.05 598.48, 2158.00 598.81, 2154.79 599.14 C 2151.58 599.47, 2151.20 599.29, 2149.01 597.40 C 2146.83 595.50, 2145.48 594.32, 2143.86 589.66 C 2142.23 585.00, 2141.48 581.54, 2140.90 574.11 C 2140.31 566.67, 2140.36 561.74, 2140.94 552.50 C 2141.51 543.26, 2142.33 537.73, 2143.77 527.91 C 2145.21 518.09, 2146.40 512.49, 2148.15 503.41 C 2149.91 494.34, 2150.91 489.62, 2152.53 482.53 C 2154.14 475.45, 2155.47 472.51, 2156.24 467.99 C 2157.00 463.47, 2157.79 461.84, 2156.34 459.94 C 2154.89 458.04, 2151.07 457.27, 2149.00 458.48" style="stroke: black; fill: black;"/></svg>