<svg xmlns="http://www.w3.org/2000/svg" viewBox="0 0 140.92 160"><defs><style>.cls-1{fill:#fed3ad;}.cls-2{fill:#fd973f;}.cls-3{fill:#f2f7fd;}</style></defs><g id="Capa_2" data-name="Capa 2"><g id="Capa_2-2" data-name="Capa 2"><path class="cls-1" d="M58.09,63.4A17.43,17.43,0,1,0,75.52,80.83,17.45,17.45,0,0,0,58.09,63.4Zm0,29.41a12,12,0,1,1,12-12A12,12,0,0,1,58.09,92.81Z"/><path class="cls-1" d="M58.09,48.07A32.76,32.76,0,1,0,90.84,80.83,32.79,32.79,0,0,0,58.09,48.07Zm0,60.07A27.31,27.31,0,1,1,85.4,80.83,27.34,27.34,0,0,1,58.09,108.14Z"/><path class="cls-1" d="M58.09,37a45.12,45.12,0,1,0,45.12,45.12A45.17,45.17,0,0,0,58.09,37Zm0,85.35A40.23,40.23,0,1,1,98.31,82.12,40.28,40.28,0,0,1,58.09,122.35Z"/><path class="cls-2" d="M58.09,24a58.09,58.09,0,1,0,58.08,58.09A58.09,58.09,0,0,0,58.09,24Zm0,111.67a53.58,53.58,0,1,1,53.57-53.58A53.64,53.64,0,0,1,58.09,135.7Z"/><path class="cls-2" d="M58.09,135.7a53.58,53.58,0,1,1,53.57-53.58A53.64,53.64,0,0,1,58.09,135.7Z"/><path class="cls-1" d="M58.09,28.55a53.58,53.58,0,1,0,53.57,53.57A53.63,53.63,0,0,0,58.09,28.55Zm0,98.69a45.12,45.12,0,1,1,45.12-45.12A45.17,45.17,0,0,1,58.09,127.24Z"/><path class="cls-2" d="M58.09,37a45.12,45.12,0,1,0,45.12,45.12A45.17,45.17,0,0,0,58.09,37Zm0,85.35A40.23,40.23,0,1,1,98.31,82.12,40.28,40.28,0,0,1,58.09,122.35Z"/><path class="cls-3" d="M58.09,41.9A40.23,40.23,0,1,0,98.31,82.12,40.27,40.27,0,0,0,58.09,41.9Zm0,71.68A32.76,32.76,0,1,1,90.84,80.83,32.79,32.79,0,0,1,58.09,113.58Z"/><path class="cls-2" d="M58.09,48.07A32.76,32.76,0,1,0,90.84,80.83,32.79,32.79,0,0,0,58.09,48.07Zm0,60.07A27.31,27.31,0,1,1,85.4,80.83,27.34,27.34,0,0,1,58.09,108.14Z"/><path class="cls-1" d="M58.09,53.52A27.31,27.31,0,1,0,85.4,80.83,27.34,27.34,0,0,0,58.09,53.52Zm0,44.74A17.43,17.43,0,1,1,75.52,80.83,17.45,17.45,0,0,1,58.09,98.26Z"/><path class="cls-2" d="M58.09,63.4A17.43,17.43,0,1,0,75.52,80.83,17.45,17.45,0,0,0,58.09,63.4Zm0,29.41a12,12,0,1,1,12-12A12,12,0,0,1,58.09,92.81Z"/><path class="cls-3" d="M70.07,80.83a12,12,0,1,1-12-12A12,12,0,0,1,70.07,80.83Z"/><path class="cls-2" d="M89.79,160a7.69,7.69,0,0,1-7.2-5.21c-1-2.65-1.91-5.34-2.81-7.95-.34-1-.67-1.91-1-2.86-.4-1.15-.8-2.29-1.2-3.46l-1.76-5.09,14-6.78,1.55,4.45L93,137.85c1.41,4,2.87,8.19,4.25,12.31a7.14,7.14,0,0,1-.44,5.56,7.93,7.93,0,0,1-7,4.28Z"/><path class="cls-1" d="M81,137.57c.59,1.71,1.16,3.37,1.74,5,1.26,3.58,2.48,7.18,3.79,10.75a3.43,3.43,0,0,0,4.35,2.29,3.37,3.37,0,0,0,2.4-4.16c-1.89-5.67-3.9-11.3-5.89-17Z"/><path class="cls-2" d="M26.44,160H26a7.7,7.7,0,0,1-6.88-10.09c1.48-4.35,3-8.6,4.53-13.1l2.84-8.16,14.1,6.63L38,142.51c-1.4,4-2.85,8.22-4.32,12.33A7.64,7.64,0,0,1,26.44,160Z"/><path class="cls-1" d="M28.9,134.47c-2,5.68-3.92,11.22-5.82,16.78a3.78,3.78,0,0,0-.07,1.83,3.49,3.49,0,0,0,6.72.35c1.84-5.14,3.61-10.31,5.41-15.47a1.53,1.53,0,0,0,0-.47Z"/><path class="cls-2" d="M65.66,85.33a6.66,6.66,0,0,1-5.7,2,7.14,7.14,0,0,1-4.33-12.15c1.56-1.58,13.75-13.74,16.12-16.11L85.51,44.83l6.37-6.38,3.61-3.27c0-.58.1-1,.1-1.44,0-4.29,0-8.57-.06-12.86a3.89,3.89,0,0,1,1.24-3.05q8.36-8.28,16.63-16.62c.86-.86,1.71-1.55,3-1S118,1.83,118,3.12c0,4.28,0,8.57.14,12.85a5,5,0,0,0,1,2.46c2.57,3.69,6,5.12,10.58,4.53,2.73-.36,5.54,0,8.31-.05a2.61,2.61,0,0,1,2.73,1.42c.54,1.22,0,2.19-.87,3.08-5.63,5.6-11.21,11.25-16.9,16.8A4.59,4.59,0,0,1,120,45.36c-4.18.11-8.36,0-12.54,0h-1.9S67.07,83.94,65.66,85.33Z"/><path class="cls-3" d="M115.71,21.81c-.49.46-.87.81-1.23,1.18L59.85,77.6c-1.75,1.75-2,3.11-.94,4.29s2.56,1,4.41-.84q27.32-27.3,54.62-54.62c.39-.39.76-.8,1.16-1.23Z"/><path class="cls-3" d="M132.61,28l-.15-.4c-2.86,0-5.71,0-8.56,0a2,2,0,0,0-1.14.68Q117,34,111.35,39.7a7.71,7.71,0,0,0-.7,1c3,0,5.8,0,8.55,0a1.81,1.81,0,0,0,1.1-.46C124.41,36.17,128.51,32.07,132.61,28Z"/><path class="cls-3" d="M100.27,30.35a5.59,5.59,0,0,0,.58-.41c2.77-2.76,5.36-5.76,8.37-8.24,3.32-2.73,4.88-5.86,4.11-10.13a18.16,18.16,0,0,1,0-3.13c-4.48,4-8.54,8.06-12.57,12.14a1.48,1.48,0,0,0-.44.94C100.25,24.38,100.27,27.23,100.27,30.35Z"/></g></g></svg>