<svg xmlns="http://www.w3.org/2000/svg" viewBox="0 0 160.29 160"><defs><style>.cls-1{fill:#fd973f;}.cls-2{fill:#fed3ad;}.cls-3{fill:#f2f7fd;}</style></defs><g id="Capa_2" data-name="Capa 2"><g id="Capa_2-2" data-name="Capa 2"><rect class="cls-1" x="48.29" y="155.19" width="63.71" height="4.81" rx="2.41"/><polygon class="cls-1" points="92.61 137.14 67.67 137.14 63.81 160 96.48 160 92.61 137.14"/><polygon class="cls-2" points="69.7 155.09 71.9 142.05 88.38 142.05 90.58 155.09 69.7 155.09"/><rect class="cls-1" y="35.7" width="160.29" height="101.44" rx="10.04"/><path class="cls-2" d="M4.71,45.56a5,5,0,0,1,5-5H150.57a5,5,0,0,1,5,5v67.77H4.71Z"/><path class="cls-2" d="M155.59,125.73c0,4.53-2.06,6.6-6.58,6.61-4.22,0-8.45,0-12.68,0H11.76a14.53,14.53,0,0,1-2.64-.18,5,5,0,0,1-4.3-4.37c-.21-3.2-.05-6.43-.05-9.65H155.59Z"/><path class="cls-1" d="M111.17,99.18h29.55c.52,0,1.05,0,1.56,0a2.32,2.32,0,0,1,.42,4.48,7.92,7.92,0,0,1-2,.18H81.42a7.7,7.7,0,0,1-1.86-.14,2.1,2.1,0,0,1-1.64-2.48,2,2,0,0,1,2-2c.52,0,1,0,1.56,0Z"/><path class="cls-1" d="M111,88.77H140.9c.72,0,1.63-.09,2.1.3a2.93,2.93,0,0,1,1.17,2.13,3.71,3.71,0,0,1-1.52,2.06c-.42.31-1.21.19-1.83.19H81.24c-2.39,0-3.32-.66-3.33-2.33a2.07,2.07,0,0,1,2-2.33c.52,0,1,0,1.57,0Z"/><path class="cls-1" d="M29.69,27.16c0,2.8,0,5.6,0,8.55V40.4c0,2.49,0,4.82,0,7.16,0,4.36,2.3,6.64,6.67,6.64H50.93v6.72H49.07q-12.91,0-25.83,0c-5.26,0-7.91,2.63-7.91,7.85V94c0,4.9,2.73,7.65,7.66,7.67,4.54,0,9.07,0,13.61,0h1.89c0,1.84,0,3.54,0,5.25a2.48,2.48,0,0,0,1.46,2.67,2.45,2.45,0,0,0,2.93-.82c2.1-2.12,4.17-4.24,6.33-6.29a3.22,3.22,0,0,1,1.89-.78c2.56-.08,5.12,0,7.67,0,4.8,0,7.58-2.83,7.59-7.6q0-10.87,0-21.75V70.5H77.79v6.17c0,4.9.09,5,5,5h57.9c3.05,0,3.64-.6,3.64-3.66q0-11.65,0-23.32c0-2.53-.72-3.26-3.24-3.26H102.16v-11a40.22,40.22,0,0,0-.41-5.56c-1.14-3.57-3.37-5.12-7.1-5.13H72.11V27.87c0-3.6.06-7.2,0-10.8a4.18,4.18,0,0,0-1-2.64C66.7,9.9,62.22,5.45,57.71,1a3.51,3.51,0,0,0-2.18-1Q45.43,0,35.34.05a5.63,5.63,0,0,0-5.58,5.14c-.16,3.43-.09,6.88-.05,10.32Z"/><path class="cls-3" d="M34.35,14.94c0-2.77,0-5.53,0-8.3,0-1.4.53-2,1.94-1.95,5.38,0,10.75,0,16.13,0a9.6,9.6,0,0,1,1,.1v6.94c0,4.73,2.27,7,7,7h6.81v11c-3.11,0-6.08,0-9.05,0-4.32,0-7.16,2.84-7.19,7.13,0,3.71,0,7.41,0,11.11v1.55c-4.32,0-8.39,0-12.46,0-4.63,0-4.19.5-4.19-4.19,0-5.63,0-11.26,0-16.9a13,13,0,0,0,0-1.4Z"/><path class="cls-3" d="M59.55,14a2,2,0,0,1-1.33-1.3,29.6,29.6,0,0,1-.06-4.1L63.7,14A30.1,30.1,0,0,1,59.55,14Z"/><path class="cls-2" d="M61.65,72q0,10.88,0,21.74c0,2.56-.65,3.2-3.25,3.21-2.82,0-5.64,0-8.45,0a4,4,0,0,0-3.31,1.37c-1,1.12-2.1,2.14-3.36,3.41C43,97,43,96.94,38.57,96.94c-5.11,0-10.22,0-15.33,0-2.61,0-3.21-.62-3.21-3.24q0-12.51,0-25c0-2.45.59-3.06,3-3.07q13.46,0,26.91,0a1.69,1.69,0,0,1,1.83,1,6.74,6.74,0,0,0,6.36,3.78h3.49Z"/><path class="cls-3" d="M58.64,65.7c-2.19,0-2.92-.71-2.92-2.88q0-12.74,0-25.49c0-2.29.64-2.92,3-2.92H94.39c2.28,0,3,.68,3,3q0,12.66,0,25.34c0,2.25-.73,3-3,3Z"/><path class="cls-3" d="M139.51,76.85H82.6V70.4H94.31c5,0,7.72-2.78,7.73-7.77V56.19h37.47Z"/><path class="cls-1" d="M85.06,47.8q-6.94-3.88-14-7.64c-2.08-1.12-3.77-.08-3.8,2.27,0,2.51,0,5,0,7.51s0,5.11,0,7.66S69,61.05,71,59.93q7-3.76,14-7.64C87.15,51.1,87.18,49,85.06,47.8ZM72.07,54V46l7.32,4Z"/><path class="cls-1" d="M52.45,83.59q-11.64,0-23.3,0c-1.81,0-2.83.92-2.78,2.43s1,2.25,2.78,2.26c3.86,0,7.72,0,11.57,0s7.82,0,11.73,0c1.81,0,2.91-.91,2.91-2.34S54.27,83.6,52.45,83.59Z"/><path class="cls-1" d="M29,79.45c4,0,7.91,0,11.87,0s7.92,0,11.87,0a2.27,2.27,0,0,0,2.53-2.37,2.24,2.24,0,0,0-2.56-2.3c-7.91,0-15.83,0-23.74,0a2.26,2.26,0,0,0-2.57,2C26.12,78.27,27.2,79.43,29,79.45Z"/></g></g></svg>