<svg xmlns="http://www.w3.org/2000/svg" viewBox="0 0 154.47 160"><defs><style>.cls-1{fill:#909090;}.cls-2{fill:#edecec;}.cls-3{fill:#f2f7fd;}</style></defs><g id="Capa_2" data-name="Capa 2"><g id="Capa_1-2" data-name="Capa 1"><path class="cls-1" d="M106.19,37.29q19.57,0,39.15,0c5.87,0,9.1,3.2,9.11,9q0,52.33,0,104.68c0,4.63-2.19,7.5-6.43,9H6.42c-.61-.26-1.23-.5-1.82-.8-3.3-1.66-4.6-4.46-4.6-8q0-52.48,0-105c0-5.67,3.27-8.89,9-8.89q19.72,0,39.46,0Z"/><path class="cls-2" d="M47.32,64q-20,0-39.92,0h-2c0,.7-.08,1.25-.08,1.81q0,42.41,0,84.83c0,3.28.76,4,4,4H145.07c3.28,0,4-.76,4-4V64h-1.9q-19.73,0-39.45,0Z"/><path class="cls-3" d="M46.14,58.67H5.35c0-4.13,0-8,0-11.92,0-3.44.69-4.13,4.11-4.13H145.3c3,0,3.8.83,3.81,3.81,0,3.55,0,7.09,0,10.63,0,.49-.07,1-.11,1.61H46.14Z"/><path class="cls-1" d="M78.16,0c3.41,4.3,7.19,8.36,10.17,12.94,10.94,16.83,14.47,35.4,12.16,55.22a3.3,3.3,0,0,0,.61,2.11Q108.51,80.6,116,90.85a4,4,0,0,1,.56,4.47c-1.6,3.72-3,7.52-4.53,11.29-1.19,3-2.63,3.43-5.25,1.66q-6.21-4.17-12.41-8.37l-1.57-1.05c-.67,1.72-1.33,3.29-1.88,4.9-.63,1.84-1.52,3.26-4.15,2.72.87,1.77,1.58,3.24,2.3,4.7.34.7.72,1.38,1,2.09.94,2.14-.13,3.92-2.45,4-1.56.06-3.12,0-4.68,0H67.58c-3.36,0-4.42-1.72-3-4.7q1.35-2.73,2.68-5.46a3.29,3.29,0,0,0,.08-.53c-2.79.44-3.46-1.58-4.17-3.6-.48-1.36-1-2.69-1.6-4.18-4.47,3-8.85,5.82-13,8.86-3.54,2.56-5.14,2-6.61-2.1-1.26-3.52-2.69-7-4.16-10.43A3.82,3.82,0,0,1,38.32,91q7.53-10.24,14.93-20.6a4,4,0,0,0,.66-2.53c-2.72-24.34,3.54-46,19.4-64.72.93-1.1,2-2.09,3-3.13Z"/><path class="cls-3" d="M77.23,6.74c-12.58,15-18.87,32-18.64,51.4.18,14.73,4.17,28.65,9.36,42.28a1.79,1.79,0,0,0,1.35.84c5.25,0,10.5,0,15.75,0a1.4,1.4,0,0,0,1.58-1.08c3.86-10.35,7.09-20.86,8.49-31.87,1.92-15.17.18-29.79-6.33-43.72A80.36,80.36,0,0,0,77.23,6.74Z"/><path class="cls-2" d="M55.15,76.92c-4,5.46-7.87,10.83-11.75,16.23a1.38,1.38,0,0,0-.16,1.12c1,2.74,2.15,5.46,3.29,8.32l13.18-8.91Z"/><path class="cls-2" d="M94.75,93.68l13.18,8.91c1.08-2.71,2-5.24,3.1-7.71a2,2,0,0,0-.3-2.25c-3.6-4.9-7.16-9.84-10.74-14.75-.23-.31-.5-.59-.72-.84C97.77,82.57,96.28,88,94.75,93.68Z"/><path class="cls-2" d="M71,111.84H83.48c-.79-1.59-1.44-3-2.24-4.43a1.82,1.82,0,0,0-1.29-.75c-1.81-.09-3.63-.09-5.43,0a1.79,1.79,0,0,0-1.3.75C72.42,108.78,71.77,110.24,71,111.84Z"/><path class="cls-1" d="M74.58,134.54c0-1.25-.07-2.5,0-3.74a2.6,2.6,0,0,1,2.6-2.74,2.53,2.53,0,0,1,2.66,2.66c.09,2.6.09,5.21,0,7.81a2.55,2.55,0,0,1-2.58,2.74c-1.54,0-2.58-1-2.68-2.82-.08-1.3,0-2.6,0-3.91Z"/><path class="cls-1" d="M69.19,129.46c0,1.3.06,2.6,0,3.9a2.53,2.53,0,0,1-2.42,2.58A2.46,2.46,0,0,1,64,133.57,84.67,84.67,0,0,1,64,125a2.37,2.37,0,0,1,2.67-2.26,2.57,2.57,0,0,1,2.49,2.51c0,.15,0,.31,0,.47v3.75Z"/><path class="cls-1" d="M85.27,129.32c0-1.36-.07-2.71,0-4.06a2.5,2.5,0,0,1,2.46-2.53A2.37,2.37,0,0,1,90.42,125a84.54,84.54,0,0,1,0,8.72,2.41,2.41,0,0,1-2.7,2.24,2.52,2.52,0,0,1-2.43-2.56C85.2,132,85.26,130.67,85.27,129.32Z"/><path class="cls-1" d="M13.19,53.25a2.57,2.57,0,0,1-2.45-2.83,2.49,2.49,0,0,1,2.73-2.34A2.55,2.55,0,0,1,16,50.71,2.65,2.65,0,0,1,13.19,53.25Z"/><path class="cls-1" d="M26.62,50.6A2.69,2.69,0,0,1,24,53.26a2.6,2.6,0,0,1-2.58-2.57,2.48,2.48,0,0,1,2.48-2.61A2.57,2.57,0,0,1,26.62,50.6Z"/><path class="cls-1" d="M37.27,50.68A2.63,2.63,0,0,1,32,50.61a2.54,2.54,0,0,1,2.73-2.54A2.57,2.57,0,0,1,37.27,50.68Z"/><path class="cls-1" d="M77.27,61.27A13.3,13.3,0,1,1,90.54,47.92,13.42,13.42,0,0,1,77.27,61.27ZM77.2,56a8,8,0,1,0-8-8A8,8,0,0,0,77.2,56Z"/></g></g></svg>