<svg xmlns="http://www.w3.org/2000/svg" viewBox="0 0 163.15 160"><defs><style>.cls-1{fill:#fd973f;}.cls-2{fill:#fed3ad;}.cls-3{fill:#f2f7fd;}</style></defs><g id="Capa_2" data-name="Capa 2"><g id="Capa_2-2" data-name="Capa 2"><path class="cls-1" d="M121.19,117.46q0-15.36,0-30.72c0-7.2-4.45-11.63-11.59-11.65-4.83,0-9.66,0-14.49,0-6.6,0-11.23,4.63-11.24,11.23q0,31.2,0,62.41c0,6.55,4.75,11.18,11.31,11.2,4.67,0,9.35-.19,14,0,6.56.33,12.25-4.5,12.06-12.11C121,137.74,121.19,127.6,121.19,117.46Z"/><path class="cls-2" d="M116.41,117.53q0,15.28,0,30.58c0,4.74-2.3,7-7,7H95.23c-4,0-6.58-2.52-6.59-6.55q0-31.14,0-62.27c0-4,2.51-6.44,6.49-6.46q7.4,0,14.81,0c4,0,6.45,2.4,6.46,6.44C116.43,96.72,116.41,107.12,116.41,117.53Z"/><path class="cls-1" d="M79.3,107.48a11.32,11.32,0,0,0-.16-1.87,10.38,10.38,0,0,0-2.22-5.12c0-.06-.09-.12-.15-.18h0a10.55,10.55,0,0,0-5-3.27L71.57,97l-.07,0a12.3,12.3,0,0,0-3.2-.46q-3,0-6,0c-3.11,0-6.22,0-9.33,0a11.24,11.24,0,0,0-7,2.38,4.32,4.32,0,0,0-.55.43A10.93,10.93,0,0,0,42,107.86c0,2.84,0,5.69,0,8.54q0,8.94,0,17.88c0,4.89,0,9.78,0,14.67a12.51,12.51,0,0,0,.16,1.87,10.61,10.61,0,0,0,2.22,5.12l.15.18h0a10.59,10.59,0,0,0,5,3.27l.19.06.06,0a12.81,12.81,0,0,0,3.2.46c2,0,4,0,6,0,3.11,0,6.22,0,9.33,0a11.27,11.27,0,0,0,7-2.38,6.77,6.77,0,0,0,.54-.43,10.93,10.93,0,0,0,3.53-8.55c0-2.84,0-5.69,0-8.53q0-8.94,0-17.89C79.34,117.26,79.36,112.37,79.3,107.48Z"/><path class="cls-2" d="M74.52,148.57c0,4.05-2.55,6.58-6.56,6.59H53.31a5.74,5.74,0,0,1-.6,0c-3.7-.26-5.93-2.65-5.94-6.5q0-20.38,0-40.77c0-4,2.55-6.58,6.56-6.59H68c.21,0,.41,0,.62,0,3.68.27,5.9,2.66,5.91,6.5Q74.55,128.19,74.52,148.57Z"/><path class="cls-1" d="M37.31,121.39a10.71,10.71,0,0,0-10.93-10.84q-7.65,0-15.28,0A10.77,10.77,0,0,0,0,121.6q0,13.6,0,27.22a10.84,10.84,0,0,0,11.21,11.12H26c6.66,0,11.26-4.63,11.29-11.33,0-4.46,0-8.91,0-13.37C37.32,130.62,37.36,126,37.31,121.39Z"/><path class="cls-2" d="M32.54,148.71c0,3.95-2.52,6.43-6.48,6.45H11.25c-3.92,0-6.44-2.55-6.45-6.51q0-13.44,0-26.9c0-4,2.52-6.42,6.5-6.43H26.11c4,0,6.42,2.48,6.43,6.48,0,4.51,0,9,0,13.53S32.56,144.25,32.54,148.71Z"/><path class="cls-1" d="M158.16,8.46l-2.87-1Q144.57,4,133.85.45a7.06,7.06,0,0,0-7.76,1.84A7.06,7.06,0,0,0,124.47,10c.28.84.55,1.7.85,2.62l-1.4.54L101.06,21,89.18,25Q47.48,39.18,5.83,53.46C1,55.1-1,59.23.61,64.08c.83,2.51,1.7,5,2.56,7.52,1.7,5,5.92,7.07,10.85,5.39l103.5-35.34,15.88-5.42a22.67,22.67,0,0,0,.89,2.47,13.39,13.39,0,0,0,1.85,3.11,7.28,7.28,0,0,0,11.41-1.15q6.38-9.24,12.59-18.59c1.11-1.66,2-3.45,3-5.18V14C162.29,11.44,160.87,9.37,158.16,8.46Z"/><path class="cls-3" d="M157.76,17.05c-4.69,7-9.4,14-14.22,20.93A3.14,3.14,0,0,1,141,39.11a3.64,3.64,0,0,1-2.09-1.8,20.6,20.6,0,0,1-1.29-3.58c-1-3-1.81-3.4-4.83-2.36l-47.7,16.3L13.05,72.26c-3.18,1.08-4.45.46-5.54-2.71-.71-2.06-1.4-4.12-2.1-6.17-1.17-3.46-.66-4.53,2.81-5.71l71-24.24,23.36-8q13-4.43,26-8.89c2-.69,2.51-1.75,1.84-3.82a33.3,33.3,0,0,1-1.41-4.38,3.49,3.49,0,0,1,.56-2.7,3.17,3.17,0,0,1,2.69-.61c8,2.53,16,5.18,24,7.84C158.37,13.57,159,15.26,157.76,17.05Z"/><path class="cls-1" d="M151.63,50.29q-7.17,0-14.33,0a14.24,14.24,0,0,0-2.85.22c-5.28,1.14-8.6,5.42-8.61,11.08q0,32.65,0,65.31V139.4c0,3.29,0,6.58,0,9.87a10.76,10.76,0,0,0,10.68,10.65c5.31.07,10.62.1,15.93,0a10.38,10.38,0,0,0,9.4-5.8,26.17,26.17,0,0,0,1.29-3.4V59.27a1.51,1.51,0,0,1-.25-.39C161.25,53.17,157.53,50.32,151.63,50.29Z"/><path class="cls-2" d="M152,155.15q-7.49,0-15,0a6,6,0,0,1-6.4-6.39c0-3.13,0-6.26,0-9.39V126.45q0-32.42,0-64.83c0-4.1,2.41-6.52,6.52-6.55,4.94,0,9.88,0,14.82,0,3.89,0,6.4,2.51,6.4,6.36q0,43.65,0,87.29A6,6,0,0,1,152,155.15Z"/></g></g></svg>