<?xml version="1.0" encoding="UTF-8" standalone="no"?>
<!DOCTYPE svg PUBLIC "-//W3C//DTD SVG 1.1//EN" "http://www.w3.org/Graphics/SVG/1.1/DTD/svg11.dtd">
<svg width="100%" height="100%" viewBox="0 0 255 296" version="1.1" xmlns="http://www.w3.org/2000/svg" xmlns:xlink="http://www.w3.org/1999/xlink" xml:space="preserve" xmlns:serif="http://www.serif.com/" style="fill-rule:evenodd;clip-rule:evenodd;stroke-linejoin:round;stroke-miterlimit:2;">
    <g transform="matrix(0.889917,0.456122,-0.456122,0.889917,85.1991,-21.7976)">
        <g transform="matrix(0.84999,-0.526798,0.526798,0.84999,-119.235,66.858)">
            <g id="Trazado_1076" transform="matrix(-1,0,0,-1,98.1499,440.08)">
                <path d="M76.6,245.9L75.2,255.5L75.2,255.7L75,255.7C70.1,255 65.2,254 60.4,252.6C59.9,252.5 59.5,252.3 59,252.1L58.4,251.9C57,251.4 55.6,250.9 54.1,250.3C52.2,249.5 50.3,248.6 48.4,247.6C47.4,247 46.4,246.5 45.4,245.9C44.9,245.6 44.4,245.3 44,245C43.9,244.9 43.7,244.8 43.6,244.7C40.7,242.8 38,240.7 35.4,238.4C34.5,237.6 33.7,236.7 32.9,235.9C32.5,235.5 32.2,235.1 31.9,234.6C28.3,230 27.5,223.8 29.7,218.3C29.9,217.8 36.794,218.979 36.694,219.179C35.494,220.879 39.166,227.019 39.4,227.4C40.2,228.7 41.2,229.8 42.3,230.7C43,231.4 43.8,232 44.5,232.6C45.4,233.4 46.4,234.1 47.3,234.8C47.7,235.1 48.1,235.4 48.5,235.6L48.9,235.9C52.8,238.5 57.1,240.6 61.5,242.1L61.6,242.1C62.1,242.3 62.5,242.4 63,242.5C66.6,243.6 70.4,244.5 74.1,245.1L75,245.3L76.3,245.5L76.6,245.9Z" style="fill:rgb(203,187,160);fill-rule:nonzero;"/>
            </g>
            <g id="Trazado_1079" transform="matrix(-1,0,0,-1,98.1499,440.08)">
                <path d="M63.2,242.6L61.9,242C59.7,245.3 58.7,249.1 59,253.1L60.5,253.7C59.9,249.8 60.9,245.8 63.2,242.6Z" style="fill:rgb(73,80,91);fill-rule:nonzero;"/>
            </g>
            <g id="Trazado_1080" transform="matrix(-1,0,0,-1,98.1499,440.08)">
                <path d="M48.7,235.7C48.3,235.5 47.9,235.2 47.5,235C45.1,238.2 43.8,242.1 44,246.1L44.7,246.5L45.5,246.9C45.1,242.8 46.2,238.8 48.7,235.7Z" style="fill:rgb(73,80,91);fill-rule:nonzero;"/>
            </g>
            <g id="Trazado_1081" transform="matrix(-1,0,0,-1,98.1499,440.08)">
                <path d="M39.577,227.517C39.277,227.117 39.077,226.717 38.777,226.317C35.277,228.417 32.9,231.5 31.6,235.4C31.9,235.9 32.3,236.3 32.7,236.7C33.7,232.8 36.077,229.617 39.577,227.517Z" style="fill:rgb(73,80,91);fill-rule:nonzero;"/>
            </g>
        </g>
        <g id="Trazado_1033" transform="matrix(0.989571,-0.144044,0.144044,0.989571,-29.1661,20.0426)">
            <path d="M232.1,206.7L241.2,210.7C238.9,216 236.5,221.4 233.1,226.4C229,232.4 224,236.7 218.7,238.9C211.3,241.9 203.5,240.8 197.6,239.5C185.7,236.9 171.2,230.6 159.8,223L165.3,214.7C175.6,221.6 189.2,227.5 199.8,229.8C204.6,230.9 210.2,231.7 215,229.7C219.5,227.9 222.9,223.9 224.9,220.9C227.8,216.6 230,211.5 232.1,206.7Z" style="fill:rgb(203,187,160);fill-rule:nonzero;"/>
        </g>
        <g id="Trazado_1034" transform="matrix(0.989571,-0.144044,0.144044,0.989571,-29.1661,20.0426)">
            <path d="M178.4,221.2L179.7,221.8C178.8,225.6 176.6,229 173.5,231.4L172.1,230.7C175.3,228.5 177.5,225.1 178.4,221.2Z" style="fill:rgb(73,80,91);fill-rule:nonzero;"/>
        </g>
        <g id="Trazado_1035" transform="matrix(0.989571,-0.144044,0.144044,0.989571,-29.1661,20.0426)">
            <path d="M193.2,227.2C193.7,227.4 194.1,227.5 194.6,227.6C193.9,231.5 191.8,235.1 188.8,237.7C188.6,237.6 188.3,237.5 188.1,237.5L187.2,237.2C190.4,234.8 192.5,231.2 193.2,227.2Z" style="fill:rgb(73,80,91);fill-rule:nonzero;"/>
        </g>
        <g id="Trazado_1036" transform="matrix(0.989571,-0.144044,0.144044,0.989571,-29.1661,20.0426)">
            <path d="M207.1,230.1L208.5,230.1C208.6,234.1 207.3,238.1 204.8,241.3C204.2,241.3 203.7,241.2 203.1,241.1C205.8,238 207.2,234.1 207.1,230.1Z" style="fill:rgb(73,80,91);fill-rule:nonzero;"/>
        </g>
        <g id="Trazado_1037" transform="matrix(0.989571,-0.144044,0.144044,0.989571,-29.1661,20.0426)">
            <path d="M217.8,227.3C218.2,227 218.6,226.7 218.9,226.4C220.8,230.4 221.1,234.9 219.8,239.1C219.5,239.2 219.2,239.4 218.9,239.5L218,239.8C219.7,235.8 219.6,231.2 217.8,227.3Z" style="fill:rgb(73,80,91);fill-rule:nonzero;"/>
        </g>
        <g id="Trazado_1038" transform="matrix(0.989571,-0.144044,0.144044,0.989571,-29.1661,20.0426)">
            <path d="M225.9,217.8C226.1,217.4 226.4,217 226.6,216.6C230.1,219.2 232.5,223 233.3,227.3C232.9,227.9 232.5,228.4 232.1,228.9C231.7,224.4 229.5,220.4 225.9,217.8Z" style="fill:rgb(73,80,91);fill-rule:nonzero;"/>
        </g>
        <g id="Trazado_1039" transform="matrix(0.989571,-0.144044,0.144044,0.989571,-29.1661,20.0426)">
            <path d="M228.1,215.3C229.5,212.5 230.8,209.6 232,206.8L241.1,210.8C240.1,213.1 239.1,215.5 237.9,217.9C235.8,218 233.6,217.8 231.6,217.1C230.4,216.6 229.2,216 228.1,215.3Z" style="fill:rgb(176,162,139);fill-rule:nonzero;"/>
        </g>
        <g id="Trazado_1040" transform="matrix(0.989571,-0.144044,0.144044,0.989571,-29.1661,20.0426)">
            <path d="M259.7,194C259.5,195.8 259.1,197.5 258.6,199.3C258.4,200.1 258.1,200.8 257.8,201.6C256.4,205 254.4,208.1 251.7,210.6C250.8,211.5 249.8,212.3 248.7,213.1C246.9,214.4 244.9,215.4 242.8,216C242.3,216.2 241.8,216.3 241.3,216.4C238.3,217.1 235.1,217 232.1,216C222.6,213 217.3,200.1 219.2,188.6L224.9,190.9C224.9,190.9 223.84,204.623 234.9,206.6C247.137,208.787 249.884,196.268 249.884,196.268C251.928,196.059 259.7,194 259.7,194Z" style="fill:rgb(203,187,160);fill-rule:nonzero;"/>
        </g>
        <g id="Grupo_139">
            <ellipse id="Elipse_103" cx="108.5" cy="332.2" rx="86.6" ry="9.8" style="fill:rgb(237,237,237);"/>
        </g>
        <path id="Trazado_1041" d="M172.8,269.2C171.8,279.8 170,290.2 167.3,300.4C166.3,304.1 163.4,307 159.7,308C158.5,308.3 157.4,308.6 156.2,308.9C125.1,316.3 93.3,315.4 60.9,308.3L58.7,307.8C54.9,307 51.9,304.1 50.8,300.5C47.8,290.3 45.6,279.8 44.4,269.2C43.5,261.1 43.2,252.9 43.5,244.8C43.6,240.9 43.9,237 44.3,233C44.9,226.9 45.9,220.9 47.2,215L50.1,203.2C50.5,201.7 51,200.1 51.5,198.6C51.8,197.7 52.1,196.9 52.3,196C90.6,200.7 128.5,201.3 165.7,196.6C165.9,197.4 166.2,198.2 166.4,199.1C167,201.3 167.6,203.5 168.1,205.7C173.3,226.4 174.8,247.9 172.8,269.2Z" style="fill:rgb(254,199,153);fill-rule:nonzero;"/>
        <path id="Trazado_1042" d="M138,257.6L138,257.4C136.7,252.1 132.2,248.2 126.7,247.8C126.5,238.1 118.6,230.4 109,230.4L108.3,230.4C100.1,230.8 93.1,236.7 91.6,244.9C89.6,245.1 87.7,245.7 86,246.6C79.3,250.3 76.9,258.7 80.6,265.4C83,269.8 87.7,272.5 92.7,272.5C94.3,272.5 95.9,272.2 97.3,271.7L98.2,271.3C99.6,272 101.2,272.3 102.8,272.3C105.3,272.3 107.7,271.4 109.6,269.8L110,269.9C110.5,270 111.1,270.1 111.7,270.1L112.1,270.1C113.9,270.1 115.4,271.6 115.4,273.4C115.4,273.8 115.3,274.2 115.2,274.5C114.9,275.4 114.2,276.1 113.3,276.4C112.4,276.7 112,277.6 112.3,278.5C112.5,279.2 113.2,279.6 113.9,279.6C114.1,279.6 114.3,279.6 114.5,279.5C116.3,278.9 117.8,277.4 118.4,275.6C119.6,272.1 117.8,268.3 114.3,267.1C113.6,266.8 112.8,266.7 112,266.7L111.6,266.7C111.3,266.7 111.1,266.7 110.8,266.6C110.5,266.5 110.3,266.4 110.1,266.3C109.2,265.9 108.5,265 108.4,264C108.2,263 108.5,261.9 109.2,261.2C109.8,260.6 109.8,259.5 109.2,258.9C108.5,258.3 107.5,258.3 106.9,258.9C105.5,260.4 104.9,262.5 105.2,264.6C105.4,265.8 106,266.9 106.8,267.8C105.7,268.5 104.3,268.9 103,268.9C101,268.9 99.2,268.1 97.8,266.7L96.9,265.6C96.2,264.6 95.9,263.4 95.8,262.1L95.8,261.5C95.9,257.9 98.5,255 102.1,254.5C102.3,254.5 102.5,254.4 102.7,254.3C103.5,253.9 103.8,252.9 103.4,252.1C103.1,251.5 102.4,251.1 101.7,251.2C96.6,251.9 92.7,256.2 92.6,261.3L92.6,262.2C92.7,264 93.2,265.8 94.2,267.3C94.2,267.3 94.2,267.4 94.3,267.4L95.2,268.6C94.4,268.8 93.6,268.9 92.8,268.9L92.6,268.9C86.8,268.9 82.1,264.1 82.2,258.3C82.2,254.5 84.3,251 87.7,249.1C89.3,248.2 91.1,247.8 93,247.8C94.9,247.9 96.7,248.4 98.2,249.4C99,249.9 100,249.6 100.5,248.8C100.9,248 100.7,247.1 100,246.6C98.4,245.6 96.7,244.9 94.9,244.6C96.3,238.2 101.9,233.5 108.5,233.3L109,233.3C116.9,233.3 123.4,239.7 123.4,247.6L123.4,248.8C123.4,249.3 123.5,249.7 123.8,250.1C124.1,250.4 124.6,250.6 125,250.6L125.3,250.6C129.7,250.3 133.7,253.3 134.8,257.6L134.8,257.8C135.4,260.5 134.7,263.3 132.9,265.4C131.2,267.4 128.8,268.6 126.1,268.6L125.9,268.6C125,268.6 124.2,269.3 124.2,270.3C124.2,271.2 124.9,272 125.9,272L126.1,272C129.7,272 133.1,270.4 135.4,267.6C137.9,265.1 138.8,261.3 138,257.6Z" style="fill:rgb(253,151,63);fill-rule:nonzero;"/>
        <path id="Trazado_1043" d="M166.6,199L165.3,199.2C128.1,203.9 90.2,203.4 51.9,198.6L51.7,198.6C52,197.7 52.3,196.9 52.5,196C90.9,200.7 128.7,201.2 165.9,196.6L166.6,199Z" style="fill:rgb(255,180,115);fill-rule:nonzero;"/>
        <path id="Trazado_1044" d="M56,296.7C54.7,296.8 53.5,295.9 53.2,294.6C51.1,284.9 49.6,275.2 48.9,265.3C47.7,248.4 48.6,231.4 51.7,214.8C52.1,212.5 52.6,210.2 53.2,207.6C53.6,206.1 55.1,205.3 56.5,205.6C57.9,205.8 58.9,207.1 58.7,208.5L58.7,208.6C58.2,211.1 57.7,213.3 57.3,215.6C54.3,231.9 53.4,248.4 54.6,264.9C55.3,274.5 56.7,284.1 58.7,293.5C59,294.9 58,296.3 56.6,296.5L56.5,296.5C56.3,296.7 56.1,296.7 56,296.7Z" style="fill:rgb(254,210,173);fill-rule:nonzero;"/>
        <path id="Rectángulo_294" d="M5.2,109.5L11.7,109.5C14.6,109.5 16.9,111.8 16.9,114.7L16.9,130.6C16.9,133.5 14.6,135.8 11.7,135.8L5.2,135.8C2.3,135.8 0,133.5 0,130.6L0,114.7C0,111.8 2.3,109.5 5.2,109.5Z" style="fill:rgb(253,151,63);fill-rule:nonzero;"/>
        <path id="Rectángulo_295" d="M205.6,109.5L212.1,109.5C215,109.5 217.3,111.8 217.3,114.7L217.3,130.6C217.3,133.5 215,135.8 212.1,135.8L205.6,135.8C202.7,135.8 200.4,133.5 200.4,130.6L200.4,114.7C200.4,111.8 202.7,109.5 205.6,109.5Z" style="fill:rgb(253,151,63);fill-rule:nonzero;"/>
        <path id="Trazado_1045" d="M179.9,74.8L175,74.2C175.4,70.5 179,56.7 180.8,51.8C179.9,49.1 179.4,46.2 179.4,43.3C179.4,38.4 182.8,28.2 184.8,22.5L189.5,24.1C186.3,33.1 184.4,40.2 184.4,43.3C184.4,44.1 184.4,44.8 184.5,45.5C186,43.7 188,42.4 190.2,41.6C193.3,40.6 196.5,40.6 199.6,41.5C202.8,42.3 205.6,44 207.8,46.5C210.2,49.2 211.1,52.9 210.2,56.5C208.6,62 202.6,64.7 197.4,64.5C192.4,64.2 187.7,61.9 184.4,58.1L184.2,57.8C182.4,63.7 180.3,72.3 179.9,74.8ZM186.1,51.9C186.6,53 187.3,54 188.1,54.9C190.5,57.7 193.9,59.3 197.6,59.5C200.8,59.7 204.6,58.1 205.5,55.1C205.9,53.2 205.4,51.2 204,49.7C202.5,48.1 200.5,46.9 198.3,46.4C196.2,45.8 194,45.8 191.8,46.4C189.3,47.5 187.3,49.4 186.1,51.9Z" style="fill:rgb(143,162,179);fill-rule:nonzero;"/>
        <circle id="Elipse_104" cx="187.9" cy="21.3" r="12.3" style="fill:rgb(254,199,153);"/>
        <g id="Elipse_105" transform="matrix(0.3556,-0.9346,0.9346,0.3556,102.565,188.487)">
            <ellipse cx="188" cy="19.9" rx="10.8" ry="11.1" style="fill:rgb(254,210,173);"/>
        </g>
        <path id="Trazado_1046" d="M195.4,20.7C193.7,25.2 188.7,27.4 184.3,25.8C180,24.2 177.7,19.4 179.1,15C180.3,12.2 182.7,10 185.6,9.1C190.3,8.1 194.9,11.2 195.8,15.9C196.1,17.5 195.9,19.2 195.4,20.7Z" style="fill:rgb(255,224,199);fill-rule:nonzero;"/>
        <path id="Trazado_1047" d="M41.1,74.8C40.8,72.3 38.7,63.7 37,57.8L36.8,58.1C33.5,61.9 28.8,64.2 23.8,64.5C18.6,64.7 12.5,62.1 11,56.5C10.1,53 11,49.3 13.4,46.5C15.6,44.1 18.4,42.3 21.6,41.6C24.7,40.7 28,40.7 31,41.7C33.2,42.5 35.1,43.8 36.7,45.6C36.8,44.9 36.8,44.1 36.8,43.4C36.8,40.4 34.9,33.2 31.7,24.2L36.4,22.5C38.4,28.2 41.7,38.4 41.8,43.3C41.8,46.2 41.4,49.1 40.4,51.8C42.1,56.7 45.7,70.5 46.2,74.2L41.1,74.8ZM26.3,45.9C25.1,45.9 23.9,46.1 22.8,46.4C20.6,46.9 18.6,48.1 17.1,49.7C15.8,51.2 15.3,53.2 15.7,55.1C16.6,58.1 20.4,59.6 23.6,59.5C27.3,59.3 30.7,57.7 33.1,54.9C33.9,54 34.5,53 35,51.9C33.9,49.4 31.8,47.4 29.3,46.4C28.3,46.1 27.3,45.9 26.3,45.9Z" style="fill:rgb(143,162,179);fill-rule:nonzero;"/>
        <circle id="Elipse_106" cx="33.2" cy="21.3" r="12.3" style="fill:rgb(254,199,153);"/>
        <g id="Elipse_107" transform="matrix(0.9346,-0.3556,0.3556,0.9346,-4.8946,13.0714)">
            <ellipse cx="33.1" cy="19.9" rx="11.1" ry="10.8" style="fill:rgb(254,210,173);"/>
        </g>
        <path id="Trazado_1048" d="M25.7,20.7C27.4,25.2 32.4,27.4 36.8,25.8C41.1,24.2 43.4,19.4 42,15C40.8,12.2 38.4,10 35.5,9.1C30.8,8.1 26.3,11.2 25.3,15.8C25,17.5 25.1,19.2 25.7,20.7Z" style="fill:rgb(255,224,199);fill-rule:nonzero;"/>
        <path id="Trazado_1049" d="M190.3,65.7C134.4,58.3 80.4,58.3 28.2,65.7C23.8,66.3 20,69.2 18.3,73.3C8.5,96.9 4.9,120.6 7.7,144.6L7.7,144.7C7.8,145.1 7.8,145.6 7.9,146C8.8,152.7 10.1,159.2 11.9,165.7C12.1,166.6 12.4,167.4 12.6,168.3C12.7,168.8 12.9,169.3 13.1,169.8C14.6,174.8 16.4,179.7 18.4,184.7C20.1,188.8 23.8,191.6 28.1,192.3C36.2,193.7 44.4,194.9 52.5,195.9C90.9,200.6 128.7,201.1 165.9,196.5C174.2,195.4 182.5,194.1 190.7,192.6C195.2,191.8 198.8,188.7 200.4,184.4C202.6,178.3 204.5,172 206,165.7C207.7,158.8 208.8,151.7 209.6,144.7C212,121.1 209,97.5 200.7,73.9C199,69.5 195,66.3 190.3,65.7Z" style="fill:rgb(254,199,153);fill-rule:nonzero;"/>
        <path id="Trazado_1050" d="M167,200.4C166.6,200.5 166.3,200.5 165.9,200.5C128.7,205.2 90.8,204.7 52.5,199.9L51.3,199.7C51.7,198.4 52.1,197.1 52.5,195.8C90.9,200.5 128.7,201 165.9,196.4C166.3,197.8 166.6,199.1 167,200.4Z" style="fill:rgb(255,180,115);fill-rule:nonzero;"/>
        <path id="Trazado_1051" d="M18,166.1C16.7,166.1 15.6,165.2 15.3,164C13.7,155 12.8,145.9 12.5,136.7C12.2,121 14,105.4 18,90.2C18.5,88.1 19.1,86 19.8,83.7C20.3,82.3 21.8,81.6 23.2,82C24.5,82.2 25.5,83.4 25.3,84.7L25.3,84.9C24.6,87.2 24,89.3 23.5,91.3C19.6,106.1 17.8,121.4 18.2,136.7C18.4,145.6 19.3,154.6 20.9,163.4C21,164.7 20.1,165.9 18.7,166.1L18,166.1Z" style="fill:rgb(254,210,173);fill-rule:nonzero;"/>
        <path id="Trazado_1052" d="M16.2,168.9C20,169.7 23.9,170.5 27.6,171.2C28.4,171.3 29.1,170.8 29.3,170.1C30.1,165.7 31.2,159.5 31.8,156C31.9,155.2 31.4,154.5 30.7,154.4C24.9,153.3 19.2,152.2 13.6,150.9C12.8,150.7 12.1,151.2 11.9,152L11.9,152.5C12.7,157.7 13.8,162.9 15.2,168C15.2,168.4 15.6,168.8 16.2,168.9Z" style="fill:rgb(255,180,115);fill-rule:nonzero;"/>
        <path id="Trazado_1053" d="M34.3,172.3C42.5,173.7 50.8,174.9 59,175.8C59.8,175.9 60.5,175.3 60.6,174.6C61.1,169.9 61.6,165.1 62.1,160.4C62.2,159.6 61.6,159 60.9,158.9C53.1,158 45.2,156.9 37.3,155.6C36.5,155.5 35.8,156 35.7,156.7C34.9,161.4 34.1,166.1 33.2,170.8C33,171.5 33.5,172.2 34.3,172.3Z" style="fill:rgb(255,180,115);fill-rule:nonzero;"/>
        <path id="Trazado_1054" d="M65.6,176.5C73.9,177.3 82.2,177.9 90.4,178.3C91.2,178.3 91.8,177.7 91.9,177L92.4,162.7C92.4,161.9 91.8,161.3 91.1,161.2C83.2,160.9 75.3,160.3 67.4,159.5C66.6,159.4 65.9,160 65.9,160.8C65.4,165.5 64.9,170.3 64.4,175C64.3,175.8 64.8,176.5 65.6,176.5Z" style="fill:rgb(255,180,115);fill-rule:nonzero;"/>
        <path id="Trazado_1055" d="M96.3,162.7L95.8,177C95.8,177.8 96.4,178.4 97.2,178.5C105.4,178.7 113.8,178.7 122,178.5C122.8,178.5 123.4,177.8 123.4,177C123.2,172.2 123.1,167.5 122.9,162.7C122.9,161.9 122.2,161.3 121.4,161.3C113.5,161.5 105.6,161.5 97.7,161.3C97,161.4 96.3,161.9 96.3,162.7Z" style="fill:rgb(255,180,115);fill-rule:nonzero;"/>
        <path id="Trazado_1056" d="M126.8,162.6L127.3,176.9C127.3,177.7 128,178.3 128.8,178.3C137.1,177.9 145.4,177.4 153.6,176.6C154.4,176.5 155,175.8 154.9,175L153.4,160.8C153.3,160 152.6,159.5 151.9,159.5C144.1,160.3 136.2,160.8 128.2,161.2C127.4,161.2 126.7,161.8 126.8,162.6Z" style="fill:rgb(255,180,115);fill-rule:nonzero;"/>
        <path id="Trazado_1057" d="M183.4,155.2C175.1,156.6 166.7,157.8 158.5,158.7C157.7,158.8 157.2,159.5 157.3,160.2L158.8,174.4C158.9,175.2 159.6,175.8 160.4,175.7C168.6,174.8 176.8,173.6 185.1,172.2C185.9,172.1 186.4,171.3 186.3,170.6C185.4,165.7 184.2,158.7 183.6,155.4L183.4,155.2Z" style="fill:rgb(255,180,115);fill-rule:nonzero;"/>
        <path id="Trazado_1058" d="M205.4,167.5C206.1,164.1 207.5,156.6 208.2,152C208.3,151.2 207.8,150.5 207,150.4L206.5,150.4C201.2,151.6 194.9,153.1 188.6,154.2C187.8,154.3 187.3,155.1 187.5,155.8L190,169.9C190.1,170.7 190.9,171.2 191.7,171.1C196,170.3 200.2,169.5 204.4,168.6C204.8,168.5 205.2,168.1 205.4,167.5Z" style="fill:rgb(255,180,115);fill-rule:nonzero;"/>
        <circle id="Elipse_108" cx="76.6" cy="110.5" r="17.1" style="fill:rgb(255,180,115);"/>
        <circle id="Elipse_109" cx="75.7" cy="109.5" r="17.1" style="fill:rgb(225,224,223);"/>
        <circle id="Elipse_110" cx="71.2" cy="106.4" r="11.7" style="fill:rgb(237,236,236);"/>
        <circle id="Elipse_111" cx="141.3" cy="110.5" r="17.1" style="fill:rgb(255,180,115);"/>
        <circle id="Elipse_112" cx="140.4" cy="109.5" r="17.1" style="fill:rgb(225,224,223);"/>
        <circle id="Elipse_113" cx="135.9" cy="106.4" r="11.7" style="fill:rgb(237,236,236);"/>
        <path id="Trazado_1059" d="M26.3,78.1C30.9,78.1 30.9,71 26.3,71C21.7,71 21.8,78.1 26.3,78.1Z" style="fill:rgb(254,210,173);fill-rule:nonzero;"/>
        <path id="Trazado_1060" d="M14.8,167.4C18.6,168.2 22.5,169 26.2,169.7C27,169.8 27.7,169.3 27.9,168.6L30.4,154.5C30.5,153.7 30,153 29.3,152.9C23.5,151.8 17.8,150.7 12.2,149.4C11.4,149.2 10.7,149.7 10.5,150.5L10.5,151C11.3,156.2 12.4,161.4 13.7,166.5C13.8,166.9 14.2,167.3 14.8,167.4Z" style="fill:rgb(255,224,199);fill-rule:nonzero;"/>
        <path id="Trazado_1061" d="M32.8,170.9C41,172.3 49.3,173.5 57.5,174.4C58.3,174.5 59,173.9 59.1,173.1C59.6,168.4 60.1,163.6 60.6,158.9C60.7,158.1 60.1,157.4 59.4,157.4C51.6,156.5 43.7,155.4 35.8,154.1C35,154 34.3,154.5 34.1,155.3C33.3,160 32.4,164.7 31.6,169.4C31.5,170.1 32,170.8 32.8,170.9Z" style="fill:rgb(255,224,199);fill-rule:nonzero;"/>
        <path id="Trazado_1062" d="M64.2,175.1C72.5,175.9 80.8,176.5 89,176.8C89.8,176.8 90.4,176.2 90.5,175.5L91,161.2C91,160.4 90.4,159.8 89.6,159.7C81.7,159.4 73.8,158.8 65.9,158C65.1,157.9 64.4,158.5 64.4,159.3C63.9,164 63.4,168.8 62.9,173.5C62.9,174.4 63.4,175.1 64.2,175.1Z" style="fill:rgb(255,224,199);fill-rule:nonzero;"/>
        <path id="Trazado_1063" d="M94.9,161.3L94.4,175.6C94.4,176.4 95,177 95.8,177.1C104.1,177.3 112.4,177.3 120.6,177.1C121.4,177.1 122,176.4 122,175.7C121.8,170.9 121.7,166.2 121.5,161.4C121.5,160.6 120.8,160 120.1,160C112.2,160.2 104.3,160.2 96.4,160C95.5,160 94.9,160.6 94.9,161.3Z" style="fill:rgb(255,224,199);fill-rule:nonzero;"/>
        <path id="Trazado_1064" d="M125.3,161.2C125.5,166 125.6,170.7 125.8,175.5C125.8,176.3 126.5,176.9 127.3,176.9C135.6,176.5 143.9,176 152.1,175.2C152.9,175.1 153.4,174.4 153.4,173.6L151.9,159.4C151.8,158.6 151.1,158.1 150.4,158.1C142.6,158.9 134.7,159.4 126.7,159.8C125.9,159.8 125.3,160.4 125.3,161.2Z" style="fill:rgb(255,224,199);fill-rule:nonzero;"/>
        <path id="Trazado_1065" d="M181.9,153.8C173.6,155.2 165.2,156.4 157,157.4C156.2,157.5 155.7,158.2 155.8,158.9L157.3,173.1C157.4,173.9 158.1,174.5 158.9,174.4C167.1,173.5 175.3,172.3 183.6,170.9C184.4,170.8 184.9,170.1 184.8,169.3C184,164.4 182.7,157.4 182.2,154.1L181.9,153.8Z" style="fill:rgb(255,224,199);fill-rule:nonzero;"/>
        <path id="Trazado_1066" d="M204,166.1C204.7,162.7 206.1,155.2 206.8,150.6C206.9,149.8 206.4,149.1 205.6,149L205,149C199.7,150.2 193.4,151.6 187.1,152.8C186.3,152.9 185.8,153.7 186,154.4C186.6,157.9 187.7,164.1 188.5,168.5C188.6,169.3 189.4,169.8 190.2,169.7C194.5,168.9 198.7,168 202.9,167.2C203.4,167 203.8,166.6 204,166.1Z" style="fill:rgb(255,224,199);fill-rule:nonzero;"/>
        <path id="Trazado_1067" d="M26.4,188.3C25.5,188.3 24.6,187.9 24.1,187.1C21.3,183.2 19.6,178.9 17.9,174.7C17.1,173.3 17.6,171.6 18.9,170.8C20.3,170 22,170.5 22.8,171.8C22.8,171.9 22.9,172 22.9,172C23,172.1 23,172.3 23.1,172.4C24.7,176.3 26.3,180.3 28.7,183.7C29.6,185 29.3,186.8 28,187.7C27.6,188.1 27,188.3 26.4,188.3Z" style="fill:rgb(254,210,173);fill-rule:nonzero;"/>
        <path id="Trazado_1099" d="M156.2,308.9L156.2,316.6C156.2,318.5 154.9,320.2 153,320.5C151.2,320.8 149.5,321.1 147.7,321.4L146.5,321.6C144.1,322 141.8,322.3 139.4,322.5C133.5,323.2 127.6,323.7 121.6,324C121.2,324 120.8,324 120.4,324.1C112.2,324.5 103.9,324.5 95.6,324.1C95.2,324.1 94.8,324.1 94.4,324C88.8,323.7 83.1,323.2 77.5,322.5C74.9,322.2 72.3,321.8 69.7,321.4L68.5,321.2C67,321 65.5,320.7 64,320.5C62.1,320.1 60.8,318.4 60.8,316.5L60.8,308.3C93.2,315.5 125,316.3 156.2,308.9Z" style="fill:rgb(203,187,160);fill-rule:nonzero;"/>
    </g>
</svg>
