<?xml version="1.0" encoding="UTF-8" standalone="no"?>
<!DOCTYPE svg PUBLIC "-//W3C//DTD SVG 1.1//EN" "http://www.w3.org/Graphics/SVG/1.1/DTD/svg11.dtd">
<svg width="100%" height="100%" viewBox="0 0 236 200" version="1.1" xmlns="http://www.w3.org/2000/svg" xmlns:xlink="http://www.w3.org/1999/xlink" xml:space="preserve" xmlns:serif="http://www.serif.com/" style="fill-rule:evenodd;clip-rule:evenodd;stroke-linejoin:round;stroke-miterlimit:2;">
    <g id="Capa_1-2" transform="matrix(1.33779,0,0,1.33779,-22.5844,-39.1973)">
        <path d="M137.2,165.8L72.5,165.8C72.493,165.8 72.487,165.8 72.48,165.8C71.065,165.8 69.9,164.635 69.9,163.22C69.9,163.213 69.9,163.207 69.9,163.2C69.9,163.193 69.9,163.187 69.9,163.18C69.9,161.765 71.065,160.6 72.48,160.6C72.487,160.6 72.493,160.6 72.5,160.6L137.2,160.6C137.207,160.6 137.213,160.6 137.22,160.6C138.635,160.6 139.8,161.765 139.8,163.18C139.8,163.187 139.8,163.193 139.8,163.2C139.8,163.207 139.8,163.213 139.8,163.22C139.8,164.635 138.635,165.8 137.22,165.8C137.213,165.8 137.207,165.8 137.2,165.8Z" style="fill:rgb(253,151,63);fill-rule:nonzero;"/>
        <path d="M118.6,140.7L91.2,140.7L86.9,165.8L122.8,165.8L118.6,140.7Z" style="fill:rgb(253,151,63);fill-rule:nonzero;"/>
        <path d="M93.4,160.4L95.8,146.1L113.9,146.1L116.3,160.4L93.4,160.4Z" style="fill:rgb(254,211,173);fill-rule:nonzero;"/>
        <path d="M181.9,29.3L27.9,29.3C21.866,29.3 16.9,34.266 16.9,40.3L16.9,129.6C16.9,135.634 21.866,140.6 27.9,140.6L181.9,140.6C187.934,140.6 192.9,135.634 192.9,129.6L192.9,40.3C192.846,34.286 187.914,29.354 181.9,29.3Z" style="fill:rgb(253,151,63);fill-rule:nonzero;"/>
        <path d="M22,40.1C22.027,37.093 24.493,34.627 27.5,34.6L182.2,34.6C185.207,34.627 187.673,37.093 187.7,40.1L187.7,114.5L22,114.5L22,40.1Z" style="fill:rgb(254,211,173);fill-rule:nonzero;"/>
        <path d="M187.7,128.2C187.7,133.2 185.4,135.4 180.5,135.5L29.8,135.5C28.829,135.537 27.857,135.469 26.9,135.3C24.403,135.018 22.43,133.003 22.2,130.5C22,127 22.1,123.4 22.1,119.9L187.7,119.9L187.7,128.2Z" style="fill:rgb(254,211,173);fill-rule:nonzero;"/>
        <path d="M87.2,54.7C87.982,55.076 88.783,55.41 89.6,55.7C89.87,55.766 90.155,55.731 90.4,55.6C90.891,55.159 91.359,54.691 91.8,54.2C92.117,53.842 92.572,53.637 93.05,53.637C93.528,53.637 93.983,53.842 94.3,54.2L99.1,59C99.48,59.303 99.701,59.764 99.701,60.25C99.701,60.736 99.48,61.197 99.1,61.5C97.3,62.8 97.5,64.2 98.4,65.8C98.5,65.9 98.5,66 98.6,66.2L101,66.2C101.06,66.193 101.12,66.19 101.18,66.19C102.074,66.19 102.81,66.926 102.81,67.82C102.81,67.88 102.807,67.94 102.8,68L102.8,74.7C102.8,75.9 102.1,76.5 100.9,76.6L98.6,76.6C98.5,76.8 98.5,76.9 98.4,77C97.4,78.6 97.3,79.9 99.1,81.2C100,81.8 99.9,82.9 99.1,83.8C97.6,85.4 96,86.9 94.4,88.5C94.081,88.924 93.58,89.173 93.05,89.173C92.52,89.173 92.019,88.924 91.7,88.5C90.6,87 89.4,86.7 87.8,87.8C87.575,87.918 87.341,88.018 87.1,88.1L87.1,90.3C87.111,90.378 87.116,90.457 87.116,90.536C87.116,91.507 86.317,92.306 85.346,92.306C85.297,92.306 85.248,92.304 85.2,92.3L78.6,92.3C77.4,92.3 76.8,91.6 76.7,90.4L76.7,90.3C76.6,87.9 76.6,87.9 74.3,87.1C74.1,87 73.8,87.2 73.6,87.2C73.494,87.209 73.409,87.294 73.4,87.4C70.9,89.8 70.9,89.8 68.4,87.3C67.2,86.1 66.1,85 65,83.8C64.574,83.461 64.325,82.945 64.325,82.4C64.325,81.855 64.574,81.339 65,81L65.1,80.9C66.8,79.1 66.8,79.1 65.6,76.9C65.393,76.671 65.107,76.528 64.8,76.5C60.9,76.7 61.2,75.5 61.3,72.9L61.3,68.1C61.3,66.7 61.9,66.1 63.3,66.1L65.5,66.1C65.8,65.3 66.2,64.5 66.5,63.7C66.58,63.417 66.504,63.112 66.3,62.9C65.892,62.442 65.458,62.008 65,61.6C64.619,61.255 64.401,60.764 64.401,60.25C64.401,59.736 64.619,59.245 65,58.9C66.5,57.3 68.1,55.8 69.7,54.2C70.01,53.797 70.491,53.56 71,53.56C71.509,53.56 71.99,53.797 72.3,54.2C73.5,55.9 74.9,55.9 76.5,54.9C76.6,54.8 76.8,54.8 76.9,54.7L76.9,52.3C76.893,52.24 76.89,52.18 76.89,52.12C76.89,51.226 77.626,50.49 78.52,50.49C78.58,50.49 78.64,50.493 78.7,50.5L85.4,50.5C85.441,50.497 85.483,50.495 85.525,50.495C86.446,50.495 87.205,51.254 87.205,52.175C87.205,52.217 87.203,52.259 87.2,52.3C87.25,53.099 87.25,53.901 87.2,54.7ZM83.8,88.7L83.8,86.8C83.746,85.915 84.339,85.11 85.2,84.9C86.6,84.4 88,83.8 89.4,83.2C90.135,82.733 91.109,82.86 91.7,83.5L92.9,85L95.6,82.3C95.143,81.999 94.709,81.664 94.3,81.3C93.3,80.3 93.3,79.8 93.9,78.5C94.502,77.311 95.004,76.073 95.4,74.8C95.568,73.76 96.558,73.039 97.6,73.2L99.3,73.2L99.3,69.7L97.4,69.7C96.515,69.754 95.71,69.161 95.5,68.3C95,66.9 94.4,65.5 93.8,64.1C93.333,63.365 93.46,62.391 94.1,61.8L95.6,60.6C94.6,59.6 93.9,58.8 92.9,57.9C92.622,58.343 92.286,58.747 91.9,59.1C90.9,60.1 90.4,60.1 89.1,59.5C87.911,58.898 86.673,58.396 85.4,58C84.36,57.832 83.639,56.842 83.8,55.8L83.8,54.1L80.3,54.1L80.3,55.6C80.3,57.1 80,57.5 78.6,57.9C77.2,58.3 76.1,58.9 74.8,59.5C74.042,60.016 73.008,59.887 72.4,59.2C71.976,58.755 71.575,58.288 71.2,57.8L68.5,60.5C68.957,60.801 69.391,61.136 69.8,61.5C70.8,62.5 70.8,63 70.2,64.3C69.598,65.489 69.096,66.727 68.7,68C68.532,69.04 67.542,69.761 66.5,69.6L64.8,69.6L64.8,73.1L66.7,73.1C67.585,73.046 68.39,73.639 68.6,74.5C69.1,75.9 69.7,77.3 70.3,78.7C70.767,79.435 70.64,80.409 70,81C69.476,81.404 68.975,81.838 68.5,82.3L71.2,85C71.608,84.51 72.042,84.043 72.5,83.6C73.091,82.96 74.065,82.833 74.8,83.3C76.2,83.9 77.6,84.5 79,85C79.844,85.237 80.424,86.024 80.4,86.9L80.4,88.8C81.5,88.7 82.5,88.7 83.8,88.7Z" style="fill:rgb(253,151,63);fill-rule:nonzero;"/>
        <path d="M83.8,109.6L83.8,114.7L80.4,114.7C80.4,112.3 80.3,110 80.4,107.6C80.445,106.761 81.148,106.096 81.988,106.096C82.025,106.096 82.063,106.097 82.1,106.1L84.6,106.1C84.7,105.9 84.7,105.8 84.8,105.7C85.8,104.1 85.9,102.7 84.1,101.4C83.698,101.111 83.459,100.645 83.459,100.15C83.459,99.655 83.698,99.189 84.1,98.9L88.9,94.1C89.203,93.72 89.664,93.499 90.15,93.499C90.636,93.499 91.097,93.72 91.4,94.1C92.7,95.9 94.1,95.7 95.7,94.8C95.8,94.7 95.9,94.7 96.1,94.6L96.1,92.1C96.099,92.076 96.098,92.052 96.098,92.028C96.098,91.134 96.834,90.398 97.728,90.398C97.752,90.398 97.776,90.399 97.8,90.4L104.7,90.4L104.7,93.8L99.6,93.8L99.6,95.8C99.654,96.685 99.061,97.49 98.2,97.7C96.8,98.2 95.4,98.8 94,99.4C93.265,99.867 92.291,99.74 91.7,99.1C91.292,98.61 90.858,98.143 90.4,97.7C89.5,98.6 88.7,99.4 87.8,100.4L89.3,101.6C89.94,102.191 90.067,103.165 89.6,103.9C89,105.3 88.4,106.7 87.9,108.1C87.663,108.944 86.876,109.524 86,109.5C85.269,109.579 84.535,109.612 83.8,109.6Z" style="fill:rgb(253,151,63);fill-rule:nonzero;"/>
        <path d="M92.5,111.3C92.2,106.8 96.4,102.6 101,102.7L101,106.1C98.195,106.221 95.921,108.495 95.8,111.3L92.5,111.3Z" style="fill:rgb(253,151,63);fill-rule:nonzero;"/>
        <path d="M90.7,71.4C90.645,76.134 86.735,79.999 82.001,79.999C77.228,79.999 73.301,76.072 73.301,71.299C73.301,66.527 77.228,62.599 82.001,62.599C82.034,62.599 82.067,62.6 82.1,62.6C86.843,62.729 90.68,66.655 90.7,71.4ZM82,76.6C84.861,76.573 87.2,74.212 87.2,71.35C87.2,71.333 87.2,71.317 87.2,71.3C87.178,68.495 84.865,66.2 82.06,66.2C82.04,66.2 82.02,66.2 82,66.2C79.154,66.216 76.816,68.554 76.8,71.4C76.848,74.234 79.166,76.552 82,76.6Z" style="fill:rgb(253,151,63);fill-rule:nonzero;"/>
        <path d="M104.3,148C104.3,119.9 104.4,91.9 104.2,63.8C104.196,63.692 104.194,63.585 104.194,63.477C104.194,58.88 107.977,55.097 112.574,55.097C112.649,55.097 112.725,55.098 112.8,55.1C130.8,55.2 148.8,55.1 166.9,55.2C172.2,55.2 175.4,58.3 175.4,63.6L175.4,170.4C175.4,175.6 172.2,178.8 167,178.8L112.7,178.8C107.5,178.8 104.3,175.6 104.3,170.4L104.3,148Z" style="fill:rgb(253,151,63);fill-rule:nonzero;"/>
        <path d="M109.6,160L170.1,160L170.1,155.8L170.2,85.2L170.2,75.4L109.6,75.4L109.6,160Z" style="fill:rgb(242,247,253);fill-rule:nonzero;"/>
        <path d="M170.1,71.6C170.1,69.2 170.2,66.9 170.1,64.6C170.022,63.962 169.742,63.366 169.3,62.9C168.402,61.943 167.105,61.461 165.8,61.6L113.2,61.6C111.409,61.608 109.874,62.93 109.6,64.7C109.4,67 109.6,69.3 109.6,71.7C129.8,71.6 149.9,71.6 170.1,71.6Z" style="fill:rgb(242,247,253);fill-rule:nonzero;"/>
        <path d="M132,166.1L147.8,166.1C149.3,166.1 150,166.7 150,167.9C150,169.1 149.2,169.7 147.8,169.8L132,169.8C130.5,169.8 129.6,169.1 129.7,167.9C129.8,166.7 130.5,166.1 132,166.1Z" style="fill:rgb(242,247,253);fill-rule:nonzero;"/>
        <path d="M149,68.4L140.1,68.4C140.05,68.404 140,68.406 139.949,68.406C138.951,68.406 138.124,67.598 138.1,66.6C138.153,65.541 139.04,64.699 140.1,64.7L149,64.7C149.066,64.693 149.133,64.689 149.2,64.689C150.242,64.689 151.1,65.547 151.1,66.589C151.1,66.593 151.1,66.596 151.1,66.6C151.1,67.7 150.4,68.3 149,68.4Z" style="fill:rgb(253,151,63);fill-rule:nonzero;"/>
        <path d="M139.9,89.6C139.867,89.6 139.833,89.6 139.8,89.6C125.043,89.6 112.9,101.743 112.9,116.5C112.9,131.257 125.043,143.4 139.8,143.4C154.557,143.4 166.7,131.257 166.7,116.5C166.706,101.779 154.621,89.649 139.9,89.6ZM139.9,138.5C127.823,138.472 117.901,128.527 117.901,116.45C117.901,104.354 127.854,94.4 139.951,94.4C151.99,94.4 161.918,104.261 162,116.3C161.968,128.429 152.028,138.413 139.9,138.5Z" style="fill:rgb(253,151,63);fill-rule:nonzero;"/>
        <path d="M158.5,107.2C156.3,104.9 154,102.6 151.7,100.4C150.3,99 149,99 147.6,100.4C143.8,104.2 140,108 136.2,111.7C135.8,112.1 135.4,112.5 134.8,113C133.8,112 133,111 132,110.1C130.6,108.7 129.4,108.7 128,110.1C125.7,112.3 123.4,114.6 121.2,116.9C119.8,118.3 119.8,119.5 121.2,120.9C125.1,124.8 129,128.8 133,132.7C133.461,133.312 134.184,133.673 134.95,133.673C135.716,133.673 136.439,133.312 136.9,132.7L158.5,111.1C159.112,110.639 159.473,109.916 159.473,109.15C159.473,108.384 159.112,107.661 158.5,107.2ZM134.8,127.2L126.5,118.9C127.7,117.8 128.9,116.6 130.5,115.1C131.1,115.8 131.8,116.8 132.6,117.6C134.4,119.5 135.5,119.5 137.3,117.7L148.4,106.6C148.777,106.209 149.178,105.841 149.6,105.5C150.8,106.8 151.9,108.1 152.9,109.2C147,115 140.9,121.1 134.8,127.2Z" style="fill:rgb(253,151,63);fill-rule:nonzero;"/>
    </g>
</svg>
