<?xml version="1.0" encoding="UTF-8" standalone="no"?>
<!DOCTYPE svg PUBLIC "-//W3C//DTD SVG 1.1//EN" "http://www.w3.org/Graphics/SVG/1.1/DTD/svg11.dtd">
<svg width="100%" height="100%" viewBox="0 0 155 200" version="1.1" xmlns="http://www.w3.org/2000/svg" xmlns:xlink="http://www.w3.org/1999/xlink" xml:space="preserve" xmlns:serif="http://www.serif.com/" style="fill-rule:evenodd;clip-rule:evenodd;stroke-linejoin:round;stroke-miterlimit:2;">
    <g id="Capa_1-2" transform="matrix(1.33862,0,0,1.33862,-81.2439,-42.9616)">
        <path d="M60.8,144.4C60.8,110.5 60.9,76.5 60.7,42.6C60.695,42.469 60.692,42.337 60.692,42.206C60.692,36.659 65.256,32.096 70.802,32.096C70.902,32.096 71.001,32.097 71.1,32.1C92.9,32.2 114.7,32.233 136.5,32.2C142.9,32.2 146.7,36 146.7,42.4L146.7,171.4C146.7,177.7 142.9,181.5 136.6,181.5L70.9,181.5C64.6,181.5 60.8,177.7 60.8,171.4L60.8,144.4Z" style="fill:rgb(144,144,144);fill-rule:nonzero;"/>
        <path d="M67.1,158.9L140.3,158.9L140.3,153.8L140.4,68.4L140.4,56.5L67.1,56.5L67.1,158.9Z" style="fill:rgb(237,236,236);fill-rule:nonzero;"/>
        <path d="M140.3,52C140.3,49.1 140.4,46.3 140.3,43.5C140.199,42.711 139.849,41.975 139.3,41.4C138.2,40 136.7,39.8 135,39.8L71.5,39.8C69.312,39.767 67.436,41.424 67.2,43.6C67,46.4 67.2,49.2 67.2,52L140.3,52Z" style="fill:rgb(237,236,236);fill-rule:nonzero;"/>
        <path d="M94.2,166.3L113.3,166.3C115.1,166.3 116,167.1 116,168.5C116,169.9 115,170.7 113.3,170.7L94.2,170.7C92.4,170.7 91.3,169.8 91.4,168.4C91.5,167 92.4,166.3 94.2,166.3Z" style="fill:rgb(237,236,236);fill-rule:nonzero;"/>
        <path d="M114.6,48.1L103.9,48.1C103.814,48.11 103.727,48.115 103.64,48.115C102.42,48.115 101.414,47.119 101.4,45.9C101.401,44.688 102.398,43.692 103.61,43.692C103.673,43.692 103.737,43.695 103.8,43.7L114.6,43.7C114.68,43.691 114.76,43.687 114.841,43.687C116.08,43.687 117.101,44.707 117.101,45.947C117.101,45.965 117.1,45.982 117.1,46C117.1,47.3 116.2,48.1 114.6,48.1Z" style="fill:rgb(144,144,144);fill-rule:nonzero;"/>
        <path d="M141.4,154.4C141.2,154.3 141.2,154.2 141.1,154.2C137.6,154 137.4,153.9 136.9,150.3C136.9,150 136.8,149.8 136.8,149.5C137,146.6 135.1,145.7 132.8,145.1C132.36,145.046 131.919,145.193 131.6,145.5C130.4,146.4 129.3,147.3 128.1,148.2C127.652,148.665 127.032,148.929 126.386,148.929C125.648,148.929 124.95,148.585 124.5,148C122.4,146 120.4,143.9 118.3,141.8C117.73,141.361 117.396,140.681 117.396,139.962C117.396,139.384 117.611,138.827 118,138.4C118.476,137.627 119.011,136.891 119.6,136.2C120.876,135.058 121.132,133.137 120.2,131.7C119.814,130.503 118.654,129.716 117.4,129.8C116.3,129.8 115.3,129.6 114.2,129.5C112.5,129.3 111.8,128.5 111.8,126.9L111.8,118C111.793,117.93 111.79,117.859 111.79,117.789C111.79,116.563 112.775,115.543 114,115.5C114.658,115.351 115.327,115.251 116,115.2C118.5,115.2 120.2,114.3 120.6,111.6C120.705,110.951 120.6,110.285 120.3,109.7C119.523,108.558 118.689,107.457 117.8,106.4C116.7,105 116.7,104 118,102.7C120,100.7 122,98.6 124.1,96.6C125.3,95.4 126.2,95.3 127.6,96.3C128.8,97.1 129.9,98 131.1,98.7C131.696,98.968 132.362,99.038 133,98.9C135.6,98.4 136.4,96.6 136.3,94.2L136.3,94C136.7,90.2 137,89.9 140.8,89.9L147.6,89.9C149.7,89.9 150.3,90.5 150.7,92.6C150.848,93.157 150.949,93.726 151,94.3C150.9,96.9 152.2,98.3 154.7,98.8C155.241,98.889 155.797,98.819 156.3,98.6C157.5,97.8 158.6,96.7 159.8,95.8C160.221,95.358 160.805,95.107 161.415,95.107C162.117,95.107 162.779,95.438 163.2,96L169.5,102.3C170.479,103.128 170.614,104.609 169.8,105.6C169.358,106.339 168.856,107.042 168.3,107.7C166.834,108.905 166.569,111.077 167.7,112.6C168.3,113.6 168.7,114.2 169.9,114.2C171.243,114.274 172.58,114.441 173.9,114.7C175.125,114.743 176.11,115.763 176.11,116.989C176.11,117.059 176.107,117.13 176.1,117.2L176.1,126.3C176.167,127.494 175.287,128.55 174.1,128.7C172.6,129 171.2,129.3 169.7,129.5C168.7,129.6 168.4,130.1 168,130.9C166.7,133 167.3,134.5 168.8,136.3C171.8,139.8 171.7,139.9 168.4,143.2C166.9,144.7 165.5,146.2 164,147.7C162.7,149 161.8,149 160.3,148C159.692,147.623 159.123,147.188 158.6,146.7C157.309,145.102 154.961,144.792 153.3,146C152.5,146.5 151.9,146.9 151.9,147.9C151.8,149.1 151.6,150.2 151.5,151.4C151.3,153.6 150.6,154.3 148.4,154.3L146.4,154.3" style="fill:rgb(144,144,144);fill-rule:nonzero;"/>
        <path d="M161.3,143C162.7,141.7 164,140.6 165.3,139.4C164.3,138.1 163.3,136.8 162.3,135.6C161.564,134.772 161.443,133.557 162,132.6C162.785,130.936 163.486,129.234 164.1,127.5C164.387,126.278 165.447,125.381 166.7,125.3C168.2,125.1 169.7,124.8 171.2,124.5L171.2,119.2C169.5,119 168,118.8 166.4,118.6C165.242,118.555 164.253,117.731 164,116.6C163.422,114.917 162.72,113.279 161.9,111.7C161.261,110.671 161.342,109.344 162.1,108.4C163,107.1 163.9,105.8 164.8,104.6L161,100.8C159.8,101.8 158.5,102.8 157.3,103.8C156.434,104.539 155.192,104.659 154.2,104.1C152.595,103.288 150.922,102.619 149.2,102.1C147.962,101.841 147.051,100.764 147,99.5C146.8,98.2 146.6,97 146.3,95.7C146.2,95.4 145.8,94.9 145.5,94.9C144,94.8 142.5,94.9 140.9,94.9C140.7,96.6 140.5,98.2 140.3,99.8C140.255,100.958 139.431,101.947 138.3,102.2C136.624,102.797 134.988,103.498 133.4,104.3C132.371,104.939 131.044,104.858 130.1,104.1L126.2,101.4L122.4,105.2C123.3,106.4 124.2,107.6 125.2,108.7C126.183,109.692 126.311,111.263 125.5,112.4C124.723,113.835 124.087,115.342 123.6,116.9C123.308,118.249 122.173,119.262 120.8,119.4C119.3,119.6 117.8,119.9 116.3,120.2C116.3,121.7 116.4,123 116.3,124.4C116.3,125.4 116.7,125.6 117.6,125.7L121,126C122.26,126.032 123.359,126.887 123.7,128.1C124.238,129.751 124.907,131.356 125.7,132.9C126.39,134.021 126.31,135.462 125.5,136.5C124.6,137.7 123.7,139 122.9,140.1C124.2,141.5 125.4,142.7 126.6,144C127.8,143 129.1,142.1 130.3,141.1C131.146,140.316 132.42,140.193 133.4,140.8C135.064,141.585 136.766,142.286 138.5,142.9C139.634,143.176 140.477,144.14 140.6,145.3C140.8,146.9 141.2,148.5 141.4,150L146.8,150C147,148.4 147.2,147 147.3,145.5C147.318,144.17 148.289,143.03 149.6,142.8C151.241,142.237 152.845,141.569 154.4,140.8C155.429,140.161 156.756,140.242 157.7,141C158.989,141.493 160.201,142.166 161.3,143Z" style="fill:rgb(242,247,253);fill-rule:nonzero;"/>
        <path d="M143.9,109.8C150.582,109.827 156.073,115.318 156.1,122C156.042,128.743 150.542,134.287 143.8,134.4C137.031,134.356 131.489,128.769 131.5,122C131.516,115.302 137.032,109.799 143.73,109.799C143.787,109.799 143.843,109.799 143.9,109.8ZM146.1,129.2C149.53,128.262 151.791,124.934 151.4,121.4C151.051,117.458 147.708,114.398 143.75,114.398C139.792,114.398 136.449,117.458 136.1,121.4C135.8,125 138.2,128.5 141.4,129.1L141.4,120.4C141.421,119.131 142.471,118.099 143.74,118.099C143.76,118.099 143.78,118.099 143.8,118.1C145.007,118.191 145.963,119.19 146,120.4L146,122.2C146.1,124.7 146.1,126.9 146.1,129.2Z" style="fill:rgb(144,144,144);fill-rule:nonzero;"/>
        <path d="M110.3,60.9C109,60.3 107.9,61.1 107.3,62.7C104.9,68.7 102.5,74.7 100.2,80.7C98.2,85.8 96.1,91 94.1,96.1C93.4,97.8 94.2,99.4 95.9,99.6C97.066,99.728 98.152,98.946 98.4,97.8C102.8,86.7 107.2,75.5 111.6,64.4C111.822,63.851 111.989,63.282 112.1,62.7C111.5,62.1 111,61.2 110.3,60.9Z" style="fill:rgb(144,144,144);fill-rule:nonzero;"/>
        <path d="M131,78.5C130.3,77.7 129.6,77 128.9,76.3C126.4,73.8 124,71.3 121.5,68.9C120.1,67.5 117.8,68 117.5,69.8C117.461,70.749 117.782,71.678 118.4,72.4C120.9,75 123.5,77.4 126.5,80.3C123.5,83.1 120.8,85.7 118.2,88.3C117.722,88.736 117.449,89.353 117.449,90C117.449,91.262 118.488,92.301 119.75,92.301C120.323,92.301 120.876,92.086 121.3,91.7C124.6,88.5 127.8,85.2 131.1,81.9C131.916,80.905 131.873,79.445 131,78.5Z" style="fill:rgb(144,144,144);fill-rule:nonzero;"/>
        <path d="M89.4,68.7C88.3,67.6 87,67.9 85.4,69.5L77.9,77C74.9,80 74.9,80.2 77.9,83.3C80.6,86 83.2,88.7 85.9,91.4C86.338,91.939 86.997,92.252 87.692,92.252C88.292,92.252 88.869,92.018 89.3,91.6C89.724,91.156 89.962,90.564 89.962,89.949C89.962,89.286 89.685,88.652 89.2,88.2C88.959,87.909 88.691,87.641 88.4,87.4L80.9,80.2C83.6,77.6 86.1,75.2 88.5,72.8C90.3,71.2 90.5,69.8 89.4,68.7Z" style="fill:rgb(144,144,144);fill-rule:nonzero;"/>
    </g>
</svg>
