<?xml version="1.0" encoding="UTF-8" standalone="no"?>
<!DOCTYPE svg PUBLIC "-//W3C//DTD SVG 1.1//EN" "http://www.w3.org/Graphics/SVG/1.1/DTD/svg11.dtd">
<svg width="100%" height="100%" viewBox="0 0 116 200" version="1.1" xmlns="http://www.w3.org/2000/svg" xmlns:xlink="http://www.w3.org/1999/xlink" xml:space="preserve" xmlns:serif="http://www.serif.com/" style="fill-rule:evenodd;clip-rule:evenodd;stroke-linejoin:round;stroke-miterlimit:2;">
    <g id="Capa_1-2" transform="matrix(1.33825,0,0,1.33825,-82.8275,-32.6179)">
        <path d="M62,136.7C62,102.8 62.1,68.8 61.9,34.9C61.895,34.769 61.892,34.637 61.892,34.506C61.892,28.959 66.456,24.396 72.002,24.396C72.102,24.396 72.201,24.397 72.3,24.4C94.1,24.5 115.9,24.533 137.7,24.5C144.1,24.5 147.9,28.3 147.9,34.7L147.9,163.7C147.9,170 144.1,173.8 137.8,173.8L72.1,173.8C65.8,173.8 62,170 62,163.7L62,136.7Z" style="fill:rgb(144,144,144);fill-rule:nonzero;"/>
        <path d="M68.3,151.2L141.5,151.2L141.5,146.1L141.6,60.7L141.6,48.8L68.3,48.8L68.3,151.2Z" style="fill:rgb(237,236,236);fill-rule:nonzero;"/>
        <path d="M141.5,44.3C141.5,41.4 141.6,38.6 141.5,35.8C141.399,35.011 141.049,34.275 140.5,33.7C139.4,32.3 137.9,32.1 136.2,32.1L72.7,32.1C70.512,32.067 68.636,33.724 68.4,35.9C68.2,38.7 68.4,41.5 68.4,44.3L141.5,44.3Z" style="fill:rgb(237,236,236);fill-rule:nonzero;"/>
        <path d="M95.4,158.6L114.5,158.6C116.3,158.6 117.2,159.4 117.2,160.8C117.2,162.2 116.2,163 114.5,163L95.4,163C93.6,163 92.5,162.1 92.6,160.7C92.7,159.3 93.6,158.6 95.4,158.6Z" style="fill:rgb(237,236,236);fill-rule:nonzero;"/>
        <path d="M115.8,40.5L105.1,40.5C105.014,40.51 104.927,40.515 104.84,40.515C103.62,40.515 102.614,39.519 102.6,38.3C102.601,37.088 103.598,36.092 104.81,36.092C104.873,36.092 104.937,36.095 105,36.1L115.8,36.1C115.88,36.091 115.96,36.087 116.041,36.087C117.28,36.087 118.301,37.107 118.301,38.347C118.301,38.365 118.3,38.382 118.3,38.4C118.3,39.7 117.4,40.5 115.8,40.5Z" style="fill:rgb(144,144,144);fill-rule:nonzero;"/>
        <path d="M84.2,87.8L84.2,84.1C84.2,80.26 87.36,77.1 91.2,77.1L94.9,77.1C98.74,77.1 101.9,80.26 101.9,84.1L101.9,87.8C101.9,91.64 98.74,94.8 94.9,94.8L91.2,94.8C87.36,94.8 84.2,91.64 84.2,87.8Z" style="fill:rgb(144,144,144);fill-rule:nonzero;"/>
        <path d="M95.7,91.5L90.3,91.5C88.709,91.5 87.4,90.191 87.4,88.6L87.4,83.2C87.4,81.609 88.709,80.3 90.3,80.3L95.7,80.3C97.291,80.3 98.6,81.609 98.6,83.2L98.6,88.6C98.6,90.191 97.291,91.5 95.7,91.5Z" style="fill:rgb(242,247,253);fill-rule:nonzero;"/>
        <path d="M84.2,112.1L84.2,108.4C84.2,104.56 87.36,101.4 91.2,101.4L94.9,101.4C98.74,101.4 101.9,104.56 101.9,108.4L101.9,112.1C101.9,115.94 98.74,119.1 94.9,119.1L91.2,119.1C87.36,119.1 84.2,115.94 84.2,112.1Z" style="fill:rgb(144,144,144);fill-rule:nonzero;"/>
        <path d="M95.7,115.8L90.3,115.8C88.709,115.8 87.4,114.491 87.4,112.9L87.4,107.5C87.4,105.909 88.709,104.6 90.3,104.6L95.7,104.6C97.291,104.6 98.6,105.909 98.6,107.5L98.6,112.9C98.6,114.491 97.291,115.8 95.7,115.8Z" style="fill:rgb(242,247,253);fill-rule:nonzero;"/>
        <path d="M108.5,87.8L108.5,84.1C108.5,80.26 111.66,77.1 115.5,77.1L119.2,77.1C123.04,77.1 126.2,80.26 126.2,84.1L126.2,87.8C126.2,91.64 123.04,94.8 119.2,94.8L115.5,94.8C111.66,94.8 108.5,91.64 108.5,87.8Z" style="fill:rgb(144,144,144);fill-rule:nonzero;"/>
        <path d="M120.1,91.5L114.7,91.5C113.109,91.5 111.8,90.191 111.8,88.6L111.8,83.2C111.8,81.609 113.109,80.3 114.7,80.3L120.1,80.3C121.691,80.3 123,81.609 123,83.2L123,88.6C123,90.191 121.691,91.5 120.1,91.5Z" style="fill:rgb(242,247,253);fill-rule:nonzero;"/>
        <path d="M124.5,108.5L119.1,108.5L119.1,103.1C119.1,102.167 118.333,101.4 117.4,101.4C116.467,101.4 115.7,102.167 115.7,103.1L115.7,108.5L110.3,108.5C109.367,108.5 108.6,109.267 108.6,110.2C108.6,111.133 109.367,111.9 110.3,111.9L115.7,111.9L115.7,117.3C115.7,118.233 116.467,119 117.4,119C118.333,119 119.1,118.233 119.1,117.3L119.1,111.9L124.5,111.9C124.503,111.9 124.507,111.9 124.51,111.9C125.437,111.9 126.2,111.137 126.2,110.21C126.2,110.207 126.2,110.203 126.2,110.2C126.201,110.176 126.202,110.152 126.202,110.128C126.202,109.234 125.466,108.498 124.572,108.498C124.548,108.498 124.524,108.499 124.5,108.5Z" style="fill:rgb(144,144,144);fill-rule:nonzero;"/>
    </g>
</svg>
