<?xml version="1.0" encoding="UTF-8" standalone="no"?>
<!DOCTYPE svg PUBLIC "-//W3C//DTD SVG 1.1//EN" "http://www.w3.org/Graphics/SVG/1.1/DTD/svg11.dtd">
<svg width="100%" height="100%" viewBox="0 0 224 200" version="1.1" xmlns="http://www.w3.org/2000/svg" xmlns:xlink="http://www.w3.org/1999/xlink" xml:space="preserve" xmlns:serif="http://www.serif.com/" style="fill-rule:evenodd;clip-rule:evenodd;stroke-linejoin:round;stroke-miterlimit:2;">
    <g id="Capa_1-2" transform="matrix(1.33872,0,0,1.33872,-28.5147,-47.1253)">
        <path d="M169.8,151.1C165.8,147 162,143.3 160.1,141.4C159.702,140.98 159.227,140.64 158.7,140.4C162.641,133.85 164.716,126.344 164.7,118.7C164.724,113.494 163.739,108.332 161.8,103.5L175.4,103.5C183,103.5 188.4,98.1 188.4,90.5L188.4,48.3C188.4,40.5 183.1,35.2 175.2,35.2L34.7,35.2C26.4,35.2 21.3,40.4 21.3,48.6L21.3,90.1C21.3,98.2 26.5,103.4 34.6,103.5L83.5,103.5C81.579,108.441 80.595,113.698 80.6,119C80.747,141.968 99.632,160.808 122.6,160.9C130.289,160.916 137.836,158.805 144.4,154.8C144.673,155.392 145.045,155.933 145.5,156.4L170.7,181.6C171.1,182 171.4,182.2 171.6,182.4C173.441,183.802 175.686,184.573 178,184.6C183.704,184.591 188.393,179.895 188.393,174.19C188.393,171.265 187.161,168.471 185,166.5C183.3,164.7 176.1,157.5 169.8,151.1Z" style="fill:rgb(144,144,144);fill-rule:nonzero;"/>
        <path d="M181,170.6C182.24,171.702 182.843,173.359 182.6,175C182.189,177.133 180.305,178.689 178.132,178.689C177.104,178.689 176.105,178.34 175.3,177.7C175.2,177.6 175,177.5 174.9,177.4L149.7,152.2C152.005,150.168 154.114,147.925 156,145.5C160.9,150.4 178.1,167.6 181,170.6Z" style="fill:rgb(237,236,236);fill-rule:nonzero;"/>
        <path d="M46.7,40.9L34.7,40.9C29.7,40.9 27.1,43.5 27.1,48.5L27.1,90C27.1,94.9 29.7,97.5 34.6,97.5L83.9,97.5C84.673,97.543 85.42,97.207 85.9,96.6C90.199,89.493 96.447,83.766 103.9,80.1C104.122,80.002 104.325,79.867 104.5,79.7C102.5,75.8 100.5,72 98.4,68L93.8,77.5C93.54,78.119 93.24,78.721 92.9,79.3C92.359,80.376 91.254,81.057 90.05,81.057C88.846,81.057 87.741,80.376 87.2,79.3C84.1,73.6 81.2,67.8 78.3,62.1C78.038,61.629 77.9,61.098 77.9,60.559C77.9,59.341 78.602,58.226 79.7,57.7C81.4,56.8 83.2,57.4 84.3,59.3C86.2,62.8 88,66.4 90,70.1C90.3,69.6 90.6,69.2 90.8,68.8C92.2,65.9 93.6,63 95,60C95.7,58.5 96.6,57.2 98.5,57.2C100.4,57.2 101.2,58.4 101.9,59.9C103.6,63.3 105.4,66.6 107.3,70.2C108.8,67 110.3,64 111.7,61C112.04,60.203 112.441,59.434 112.9,58.7C113.765,57.264 115.643,56.772 117.1,57.6C118.536,58.303 119.195,60.016 118.6,61.5C117.8,63.6 116.8,65.6 115.8,67.6C114.3,70.7 112.8,73.8 111.2,77.2C116.992,75.606 123.047,75.198 129,76C128,74.1 127.2,72.5 126.4,70.9C124.9,68 123.4,65.2 121.9,62.3C120.9,60.4 121.4,58.4 123.1,57.6C124.8,56.8 126.7,57.3 127.8,59.3C129.7,62.8 131.4,66.3 133.4,70C133.686,69.633 133.921,69.229 134.1,68.8L138.6,59.5C139.064,58.174 140.296,57.26 141.7,57.2C143.167,57.209 144.484,58.127 145,59.5C146.8,63 148.6,66.4 150.5,70.1C150.786,69.733 151.021,69.329 151.2,68.9C152.7,65.8 154.1,62.8 155.6,59.7C156.7,57.5 158.4,56.7 160.2,57.5C162,58.3 162.6,60.2 161.5,62.4C158.9,67.8 156.3,73.2 153.8,78.6C153.332,79.973 152.033,80.902 150.582,80.902C149.17,80.902 147.898,80.022 147.4,78.7C145.6,75.2 143.8,71.7 141.8,67.9C140.1,71.4 138.6,74.6 136.9,77.9C137.323,78.122 137.757,78.322 138.2,78.5C147.021,81.86 154.457,88.098 159.3,96.2C159.707,96.973 160.528,97.442 161.4,97.4C166.1,97.3 170.8,97.4 175.6,97.4C180.1,97.4 182.8,94.7 182.8,90.2L182.8,48C182.8,43.3 180.1,40.7 175.4,40.7L77.5,40.7L46.7,40.9Z" style="fill:rgb(242,247,253);fill-rule:nonzero;"/>
        <path d="M122.6,82.5C102.733,82.527 86.4,98.883 86.4,118.75C86.4,138.636 102.764,155 122.65,155C142.536,155 158.9,138.636 158.9,118.75C158.9,118.733 158.9,118.717 158.9,118.7C158.775,98.851 142.449,82.57 122.6,82.5Z" style="fill:rgb(237,236,236);fill-rule:nonzero;"/>
        <path d="M55.1,68.2L50.5,77.7C49.7,79.4 49,81.1 46.8,81.1C44.6,81.1 43.9,79.4 43.1,77.8C40.5,72.8 37.9,67.8 35.3,62.7C34.2,60.5 34.7,58.5 36.6,57.7C38.3,56.9 40,57.6 41.1,59.6C42.8,62.7 44.3,65.8 46,68.9C46.2,69.3 46.5,69.7 46.8,70.3C48.5,66.8 50.1,63.4 51.7,60.1C52.4,58.6 53.3,57.4 55.1,57.4C56.9,57.4 57.7,58.5 58.4,59.9C60.1,63.3 61.9,66.7 63.8,70.4C65.6,66.7 67.2,63.3 68.9,59.8C69.345,58.485 70.52,57.545 71.9,57.4C71.981,57.394 72.062,57.391 72.143,57.391C73.893,57.391 75.333,58.831 75.333,60.581C75.333,61.073 75.219,61.559 75,62C72.4,67.8 69.6,73.5 66.7,79.2C65.4,81.8 62.2,81.7 60.8,79.1C59.1,76 57.6,72.9 56,69.8C55.8,69.4 55.5,68.9 55.1,68.2Z" style="fill:rgb(144,144,144);fill-rule:nonzero;"/>
        <path d="M122.7,147.7C106.791,147.7 93.7,134.609 93.7,118.7C93.7,102.791 106.791,89.7 122.7,89.7C138.609,89.7 151.7,102.791 151.7,118.7C151.7,118.733 151.7,118.767 151.7,118.8C151.586,134.648 138.549,147.641 122.7,147.7ZM122.7,96.3C110.45,96.355 100.4,106.449 100.4,118.7C100.4,130.988 110.512,141.1 122.8,141.1C135.088,141.1 145.2,130.988 145.2,118.7C145.102,106.411 134.989,96.343 122.7,96.3Z" style="fill:rgb(144,144,144);fill-rule:nonzero;"/>
        <path d="M137.5,118.5C137.579,120.337 136.136,121.914 134.3,122C132.5,122.1 131.2,120.7 130.9,118.7C130.3,114.1 127.9,111.3 124,110.6C123.5,110.5 122.9,110.5 122.4,110.4C120.75,110.232 119.479,108.826 119.479,107.167C119.479,107.044 119.486,106.922 119.5,106.8C119.717,105.016 121.306,103.692 123.1,103.8C130.7,104 137.5,110.8 137.5,118.5Z" style="fill:rgb(144,144,144);fill-rule:nonzero;"/>
    </g>
</svg>
