<?xml version="1.0" encoding="UTF-8" standalone="no"?>
<!DOCTYPE svg PUBLIC "-//W3C//DTD SVG 1.1//EN" "http://www.w3.org/Graphics/SVG/1.1/DTD/svg11.dtd">
<svg width="100%" height="100%" viewBox="0 0 600 600" version="1.1" xmlns="http://www.w3.org/2000/svg" xmlns:xlink="http://www.w3.org/1999/xlink" xml:space="preserve" xmlns:serif="http://www.serif.com/" style="fill-rule:evenodd;clip-rule:evenodd;stroke-linejoin:round;stroke-miterlimit:2;">
    <g transform="matrix(0.993497,0,0,0.993497,1.95237,0.95889)">
        <g id="layer1">
            <g>
                <path id="path2991" d="M23.2,577.8L23.2,24.2L576.8,24.2L576.8,577.8L23.2,577.8ZM265.6,532.1C298.9,526.3 318.9,505.1 323.4,470.7C323.8,467.2 324.2,426.3 324.2,371.2L324.2,277.6L272.8,277.6L272.8,366.1C272.8,419.1 272.5,457.6 272,462.1C270.4,476.9 264.9,484.1 253.2,486.6C236.6,490.1 224.2,483.5 214.1,465.5C212.8,463.2 211.4,461.3 210.9,461.3C210.2,461.3 171.2,484.5 169.7,485.9C168.1,487.3 177.9,502.4 185.6,510.2C204.2,529.4 234.2,537.6 265.6,532.1ZM464.7,532.5C485.9,529.8 503.1,521.7 515.8,508.3C521,502.8 522.9,500 526.1,493.5C531.2,482.8 532.5,477.4 533,464.1C533.9,440 527.6,423 512.1,408.2C501,397.6 487.1,389.5 460.8,378.2C433.8,366.6 425.5,361.3 421.5,353.1C418.8,347.4 418.9,338.8 421.8,332.8C426.2,323.9 434.6,319.8 447,320.5C458.8,321.2 467.1,326.2 474.3,337L477.9,342.4L496,330.8C506,324.4 515,318.5 516.2,317.6L518.2,316L513.7,309.4C502.5,292.8 487.7,282.2 468.9,277.6C459.4,275.2 438.2,274.6 427.9,276.4C410.9,279.4 398.9,285.3 387.8,296.3C377.8,306.2 372.4,316.1 369.6,329.7C367.6,339.3 368.4,357.4 371.2,366.8C378.4,390.7 394.5,406.1 427.6,420.8C434.1,423.7 444.2,428.1 450,430.7C473.7,441.2 481.2,448.7 481.2,461.9C481.2,474.1 473.4,482.6 458.7,486.5C450.8,488.6 435.8,487.8 427.6,485C416.4,481.1 405.6,472.5 398.2,461.3C396.1,458.1 394.8,456.9 393.9,457.2C391.4,458.1 352.6,480.9 352.6,481.4C352.6,483.2 364.6,499.5 369.7,504.6C392.5,527.3 426.5,537.4 464.7,532.5Z" style="fill:rgb(238,217,76);fill-rule:nonzero;"/>
                <path id="path2989" d="M237.4,533.3C217.1,531.8 198.5,523.6 185.3,510.2C177.6,502.4 167.8,487.3 169.4,485.9C171,484.5 209.9,461.3 210.6,461.3C211.1,461.3 212.5,463.2 213.8,465.5C224,483.4 236.3,490.1 252.9,486.6C264.6,484.1 270.2,476.9 271.7,462.1C272.2,457.6 272.5,419.1 272.5,366.1L272.5,277.6L323.9,277.6L323.9,371.2C323.9,426.3 323.6,467.2 323.1,470.7C317.7,514.2 286.5,536.9 237.4,533.3ZM437.3,533.4C402.5,531 375.3,516.1 358.1,490C355.1,485.5 352.7,481.5 352.7,481.2C352.7,480.7 391.5,458 394,457C394.9,456.7 396.1,457.9 398.3,461.1C405.7,472.3 416.5,480.9 427.7,484.8C435.9,487.6 451,488.4 458.8,486.3C473.5,482.5 481.3,474 481.3,461.7C481.3,448.5 473.8,441 450.1,430.5C444.2,427.9 434.1,423.4 427.7,420.6C394.6,406 378.5,390.6 371.3,366.6C368.5,357.2 367.7,339.1 369.7,329.5C372.5,315.9 377.9,306 387.9,296.1C399,285.2 411,279.2 428,276.2C438.3,274.4 459.5,275 469,277.4C487.7,282.1 502.6,292.6 513.8,309.2L518.3,315.8L516.3,317.4C515.2,318.3 506.1,324.2 496.1,330.6L478,342.2L474.4,336.8C467.2,326 459,321 447.1,320.3C434.7,319.6 426.3,323.7 421.9,332.6C420,336.5 419.7,338.1 419.7,343.2C419.9,357.6 426.6,363.3 460.8,378C487.1,389.3 501.1,397.5 512.1,408C527.5,422.7 533.9,439.8 533,463.9C532.5,477.2 531.2,482.6 526.1,493.3C512.8,521.1 479.1,536.3 437.3,533.4Z" style="fill:rgb(50,51,49);fill-rule:nonzero;"/>
            </g>
        </g>
    </g>
</svg>
