<?xml version="1.0" encoding="UTF-8" standalone="no"?>
<!DOCTYPE svg PUBLIC "-//W3C//DTD SVG 1.1//EN" "http://www.w3.org/Graphics/SVG/1.1/DTD/svg11.dtd">
<svg width="100%" height="100%" viewBox="0 0 904 600" version="1.1" xmlns="http://www.w3.org/2000/svg" xmlns:xlink="http://www.w3.org/1999/xlink" xml:space="preserve" xmlns:serif="http://www.serif.com/" style="fill-rule:evenodd;clip-rule:evenodd;stroke-linejoin:round;stroke-miterlimit:2;">
    <g transform="matrix(1.56155,0,0,1.56155,-16.0653,-168.465)">
        <g>
            <g>
                <g id="XMLID_8_">
                    <g>
                        <clipPath id="_clip1">
                            <path d="M300,452.1C459.7,452.1 589.2,384 589.2,300C589.2,216 459.7,147.9 300,147.9C140.3,147.9 10.8,216 10.8,300C10.8,384 140.3,452.1 300,452.1"/>
                        </clipPath>
                        <g clip-path="url(#_clip1)">
                            <g>
                                <path id="XMLID_9_" d="M300,452.1C459.7,452.1 589.2,384 589.2,300C589.2,216 459.7,147.9 300,147.9C140.3,147.9 10.8,216 10.8,300C10.8,384 140.3,452.1 300,452.1" style="fill:rgb(35,31,32);fill-rule:nonzero;"/>
                            </g>
                            <g>
                                <path id="XMLID_10_" d="M499.2,413.6C381.9,587.4 145.8,633.4 -28,516.1C-201.8,398.8 -247.7,162.8 -130.5,-11C-13.3,-184.8 223,-230.6 396.8,-113.5C570.5,3.7 616.4,239.8 499.2,413.6" style="fill:rgb(35,31,32);fill-rule:nonzero;"/>
                            </g>
                            <g>
                                <rect id="XMLID_11_" x="10.4" y="148.8" width="579.4" height="303.9" style="fill:url(#_Radial2);"/>
                            </g>
                            <g>
                                <path id="XMLID_12_" d="M341.8,307.6C283.2,394.4 165.1,417.4 78.3,358.8C-8.5,300.2 -31.5,182.1 27.2,95.3C85.9,8.5 203.8,-14.5 290.7,44.1C377.5,102.6 400.5,220.6 341.8,307.6" style="fill:rgb(75,102,156);fill-rule:nonzero;"/>
                            </g>
                            <g>
                                <rect id="XMLID_13_" x="10.4" y="148.8" width="579.4" height="303.9" style="fill:url(#_Radial3);"/>
                            </g>
                        </g>
                    </g>
                </g>
            </g>
            <g>
                <g id="XMLID_15_">
                    <g>
                        <clipPath id="_clip4">
                            <path d="M300,452.1C459.7,452.1 589.2,384 589.2,300C589.2,216 459.7,147.9 300,147.9C140.3,147.9 10.8,216 10.8,300C10.8,384 140.3,452.1 300,452.1"/>
                        </clipPath>
                        <g clip-path="url(#_clip4)">
                            <g>
                                <path id="XMLID_16_" d="M300,440.9C453.5,440.9 577.9,377.8 577.9,300C577.9,222.2 453.5,159.1 300,159.1C146.5,159.1 22.1,222.2 22.1,300C22.1,377.8 146.5,440.9 300,440.9" style="fill:rgb(98,124,189);fill-rule:nonzero;"/>
                            </g>
                            <g>
                                <path id="XMLID_19_" d="M356.2,345.5L370,274.5C373.2,258.5 370.5,246.6 362.2,239C354.3,231.7 340.8,228.2 321,228.2L297.1,228.2L303.9,193C304.2,191.7 303.7,190.3 302.9,189.2C302.1,188.1 300.8,187.6 299.4,187.6L266.6,187.6C264.4,187.6 262.6,189.2 262.2,191.2L247.6,266.5C246.3,258.1 243,250.8 237.8,244.8C228.1,233.7 212.9,228.2 192.3,228.2L128.4,228.2C126.2,228.2 124.4,229.8 124,231.8L94.5,384.3C94.2,385.6 94.7,387 95.5,388.1C96.3,389.2 97.6,389.7 99,389.7L132.3,389.7C134.5,389.7 136.3,388.1 136.7,386.1L143.8,349.2L168.5,349.2C181.5,349.2 192.4,347.8 200.8,345.1C209.5,342.2 217.4,337.5 224.6,330.8C230.3,325.6 235.1,319.7 238.7,313.4L232.8,343.8C232.5,345.1 233,346.5 233.8,347.6C234.6,348.7 235.9,349.2 237.3,349.2L270.3,349.2C272.5,349.2 274.3,347.6 274.7,345.6L291,261.9L313.7,261.9C323.4,261.9 326.2,263.8 326.9,264.6C327.5,265.4 329.1,267.9 327.4,276.3L314.2,343.8C313.9,345.1 314.4,346.5 315.2,347.6C316,348.7 317.3,349.2 318.7,349.2L352,349.2C354,349.1 355.9,347.7 356.2,345.5ZM203.5,286.8C201.4,297.4 197.5,305 191.9,309.3C186.2,313.7 177,316 164.8,316L150.1,316L160.7,261.2L179.7,261.2C193.6,261.2 199.3,264.2 201.6,266.7C204.8,270.2 205.4,277.2 203.5,286.8" style="fill:white;fill-rule:nonzero;"/>
                            </g>
                            <g>
                                <path id="XMLID_22_" d="M497.1,244.9C487.4,233.8 472.2,228.3 451.6,228.3L387.7,228.3C385.5,228.3 383.7,229.9 383.3,231.9L353.8,384.3C353.5,385.6 354,387 354.8,388.1C355.6,389.2 356.9,389.7 358.3,389.7L391.6,389.7C393.8,389.7 395.6,388.1 396,386.1L403,349.2L427.7,349.2C440.7,349.2 451.6,347.8 460,345.1C468.7,342.2 476.6,337.5 483.8,330.8C489.7,325.4 494.6,319.4 498.2,312.7C501.8,306.2 504.5,298.8 506,291C509.9,271.5 506.9,256.1 497.1,244.9ZM462.7,286.8C460.6,297.4 456.7,305 451.1,309.3C445.4,313.7 436.2,316 424,316L409.3,316L419.9,261.2L438.9,261.2C452.8,261.2 458.5,264.2 460.8,266.7C464,270.2 464.6,277.2 462.7,286.8" style="fill:white;fill-rule:nonzero;"/>
                            </g>
                            <g>
                                <path id="XMLID_25_" d="M179.7,256.7C192.4,256.7 200.8,259.1 204.9,263.7C209.2,268.3 210.1,276.4 207.9,287.6C205.7,299.3 201.2,307.9 194.6,312.8C188.1,317.9 178.1,320.4 164.7,320.4L144.6,320.4L157,256.5L179.8,256.5L179.8,256.7L179.7,256.7ZM98.8,385.2L132,385.2L139.9,344.6L168.4,344.6C180.9,344.6 191.2,343.3 199.5,340.6C207.6,337.9 215,333.5 221.5,327.3C227,322.2 231.6,316.5 235,310.3C238.5,304.1 240.9,297.3 242.3,289.9C245.8,271.8 243.1,257.7 234.4,247.6C225.5,237.5 211.6,232.5 192.4,232.5L128.5,232.5L98.8,385.2" style="fill:rgb(10,11,14);fill-rule:nonzero;"/>
                            </g>
                            <g>
                                <path id="XMLID_26_" d="M266.7,192.3L299.7,192.3L291.8,232.9L321.1,232.9C339.6,232.9 352.3,236.1 359.3,242.6C366.3,249.1 368.5,259.6 365.6,274L351.8,345L318.4,345L331.6,277.5C333,269.9 332.6,264.7 330,261.8C327.5,258.9 321.9,257.7 313.5,257.7L287.2,257.7L270.2,345L237.2,345L266.7,192.3" style="fill:rgb(10,11,14);fill-rule:nonzero;"/>
                            </g>
                            <g>
                                <path id="XMLID_29_" d="M439,256.7C451.7,256.7 460.1,259.1 464.2,263.7C468.5,268.3 469.4,276.4 467.2,287.6C465,299.3 460.5,307.9 453.9,312.8C447.4,317.9 437.4,320.4 424,320.4L403.9,320.4L416.3,256.5L439,256.5L439,256.7ZM358,385.2L391.3,385.2L399.2,344.6L427.7,344.6C440.2,344.6 450.5,343.3 458.8,340.6C466.9,337.9 474.3,333.5 480.8,327.3C486.3,322.2 490.9,316.5 494.3,310.3C497.8,304.1 500.2,297.3 501.6,289.9C505.1,271.8 502.4,257.7 493.7,247.6C484.8,237.5 470.9,232.5 451.7,232.5L387.8,232.5L358,385.2" style="fill:rgb(10,11,14);fill-rule:nonzero;"/>
                            </g>
                        </g>
                    </g>
                </g>
            </g>
        </g>
    </g>
    <defs>
        <radialGradient id="_Radial2" cx="0" cy="0" r="1" gradientUnits="userSpaceOnUse" gradientTransform="matrix(314.815,212.317,212.317,-314.815,184.462,201.361)"><stop offset="0" style="stop-color:rgb(75,102,156);stop-opacity:1"/><stop offset="1" style="stop-color:rgb(35,31,32);stop-opacity:1"/></radialGradient>
        <radialGradient id="_Radial3" cx="0" cy="0" r="1" gradientUnits="userSpaceOnUse" gradientTransform="matrix(157.407,106.159,106.159,-157.407,184.447,201.365)"><stop offset="0" style="stop-color:white;stop-opacity:1"/><stop offset="1" style="stop-color:rgb(75,102,156);stop-opacity:1"/></radialGradient>
    </defs>
</svg>
