<?xml version="1.0" encoding="UTF-8" standalone="no"?>
<!DOCTYPE svg PUBLIC "-//W3C//DTD SVG 1.1//EN" "http://www.w3.org/Graphics/SVG/1.1/DTD/svg11.dtd">
<svg width="100%" height="100%" viewBox="0 0 604 600" version="1.1" xmlns="http://www.w3.org/2000/svg" xmlns:xlink="http://www.w3.org/1999/xlink" xml:space="preserve" xmlns:serif="http://www.serif.com/" style="fill-rule:evenodd;clip-rule:evenodd;stroke-linejoin:round;stroke-miterlimit:2;">
    <g transform="matrix(1.00527,0,0,1.00527,-23.4028,-24.8301)">
        <g>
            <g>
                <g transform="matrix(1.08401,0,0,1.08401,-1.95745,-2.07507)">
                    <path d="M298,24.7C157.5,24.7 166.3,85.6 166.3,85.6L166.5,148.7L300.6,148.7L300.6,167.7L113.2,167.7C113.2,167.7 23.3,157.5 23.3,299.3C23.3,441.1 101.8,436.1 101.8,436.1L148.6,436.1L148.6,370.3C148.6,370.3 146.1,291.8 225.8,291.8L358.8,291.8C358.8,291.8 433.5,293 433.5,219.6L433.5,98.2C433.5,98.2 444.9,24.7 298,24.7ZM224.1,67.1C237.4,67.1 248.2,77.9 248.2,91.2C248.2,104.5 237.4,115.3 224.1,115.3C210.8,115.3 200,104.5 200,91.2C199.9,77.9 210.7,67.1 224.1,67.1C224,67.1 224.1,67.1 224.1,67.1Z" style="fill:url(#_Linear1);fill-rule:nonzero;"/>
                </g>
                <g transform="matrix(1.08401,0,0,1.08401,-1.95745,-2.07507)">
                    <path d="M302,575.3C442.5,575.3 433.7,514.4 433.7,514.4L433.5,451.3L299.5,451.3L299.5,432.3L486.9,432.3C486.9,432.3 576.8,442.5 576.8,300.7C576.8,158.9 498.3,163.9 498.3,163.9L451.5,163.9L451.5,229.7C451.5,229.7 454,308.2 374.3,308.2L241.3,308.2C241.3,308.2 166.6,307 166.6,380.4L166.6,501.8C166.5,501.9 155.1,575.3 302,575.3ZM375.9,532.9C362.6,532.9 351.8,522.1 351.8,508.8C351.8,495.5 362.6,484.7 375.9,484.7C389.2,484.7 400,495.5 400,508.8C400.1,522.1 389.3,532.9 375.9,532.9C376,532.9 376,532.9 375.9,532.9Z" style="fill:url(#_Linear2);fill-rule:nonzero;"/>
                </g>
            </g>
        </g>
    </g>
    <defs>
        <linearGradient id="_Linear1" x1="0" y1="0" x2="1" y2="0" gradientUnits="userSpaceOnUse" gradientTransform="matrix(273.692,272.078,-272.078,273.692,75.0921,75.6636)"><stop offset="0" style="stop-color:rgb(58,127,186);stop-opacity:1"/><stop offset="1" style="stop-color:rgb(57,106,149);stop-opacity:1"/></linearGradient>
        <linearGradient id="_Linear2" x1="0" y1="0" x2="1" y2="0" gradientUnits="userSpaceOnUse" gradientTransform="matrix(293.849,278.935,-278.935,293.849,243.554,250.01)"><stop offset="0" style="stop-color:rgb(255,224,84);stop-opacity:1"/><stop offset="1" style="stop-color:rgb(252,194,52);stop-opacity:1"/></linearGradient>
    </defs>
</svg>
