<?xml version="1.0" encoding="UTF-8" standalone="no"?>
<!DOCTYPE svg PUBLIC "-//W3C//DTD SVG 1.1//EN" "http://www.w3.org/Graphics/SVG/1.1/DTD/svg11.dtd">
<svg width="100%" height="100%" viewBox="0 0 601 600" version="1.1" xmlns="http://www.w3.org/2000/svg" xmlns:xlink="http://www.w3.org/1999/xlink" xml:space="preserve" xmlns:serif="http://www.serif.com/" style="fill-rule:evenodd;clip-rule:evenodd;stroke-linejoin:round;stroke-miterlimit:2;">
    <g transform="matrix(1.03842,0,0,1.03842,-11.2575,-11.42)">
        <g>
            <path d="M145.5,23.2L452.6,23.2C467.5,23.2 482.1,25.6 496.1,30.6C516.5,38 534.9,50.9 548.7,67.8C562.8,84.7 572.1,105.4 575.3,127C576.6,135 576.8,143 576.8,151L576.8,450C576.8,459.5 576.4,469.2 574.4,478.5C570.1,499.9 559.9,520 545.2,536.2C530.7,552.4 511.6,564.5 491.1,571C478.5,574.9 465.5,576.6 452.3,576.6C446.5,576.6 144.6,576.6 140,576.4C117.9,575.3 96,568.2 77.6,555.9C59.6,543.8 44.9,526.9 35.4,507.5C27.2,490.9 23.1,472.3 23.1,453.7L23.1,146.3C22.7,127.9 26.6,109.8 34.6,93.3C44,73.8 58.5,56.8 76.4,44.6C94.8,32.1 116.5,24.7 138.5,23.6C140.7,23.2 143.1,23.2 145.5,23.2Z" style="fill:url(#_Linear1);fill-rule:nonzero;"/>
            <path d="M490.2,476C488.3,473 486.1,469.9 483.7,467.1C478.3,460.6 472,455 465.1,450.2C456.5,444.4 446.3,440.7 435.9,440.3C428.5,439.9 421.2,441.2 414.3,443.8C407.4,446.2 400.7,449.6 394.2,453.1C386.6,457 379.1,460.9 371.1,464.1C361.6,468 351.6,471 341.5,473.2C328.7,475.6 315.8,476.4 303,476.2C279.9,475.8 256.7,472.3 234.7,465.8C215.2,460 196.6,452 179.1,441.8C163.7,432.9 149.5,422.8 136.1,411.3C125.1,401.8 114.9,391.6 105.4,380.8C98.9,373.2 92.6,365.2 86.8,357C84.4,353.8 82.3,350.3 80.3,346.8L23.2,285.2L23.2,145.8C23.2,78.1 77.9,23.2 145.6,23.2L254.8,23.2L335.7,105.4C518.2,229.5 459.2,366.4 459.2,366.4C459.2,366.4 510.9,424.8 490.2,476Z" style="fill:url(#_Linear2);fill-rule:nonzero;"/>
            <path d="M336,105.4C518.5,229.5 459.5,366.4 459.5,366.4C459.5,366.4 511.4,425 490.4,476.2C490.4,476.2 469,440.3 433.1,440.3C398.5,440.3 378.2,476.2 308.6,476.2C153.6,476.2 80.3,346.7 80.3,346.7C220,438.6 315.3,373.5 315.3,373.5C252.3,337 118.5,162.3 118.5,162.3C235,261.5 285.4,287.7 285.4,287.7C255.4,262.8 171,141.3 171,141.3C238.5,209.6 372.5,305 372.5,305C410.6,199.5 336,105.4 336,105.4Z" style="fill:white;fill-rule:nonzero;"/>
        </g>
    </g>
    <defs>
        <linearGradient id="_Linear1" x1="0" y1="0" x2="1" y2="0" gradientUnits="userSpaceOnUse" gradientTransform="matrix(-104.567,593.029,-593.029,-104.567,352.131,3.46487)"><stop offset="0" style="stop-color:rgb(248,174,68);stop-opacity:1"/><stop offset="1" style="stop-color:rgb(232,65,52);stop-opacity:1"/></linearGradient>
        <linearGradient id="_Linear2" x1="0" y1="0" x2="1" y2="0" gradientUnits="userSpaceOnUse" gradientTransform="matrix(-76.5662,434.228,-434.228,-76.5662,305.569,32.2249)"><stop offset="0" style="stop-color:rgb(228,160,58);stop-opacity:1"/><stop offset="1" style="stop-color:rgb(212,58,42);stop-opacity:1"/></linearGradient>
    </defs>
</svg>
