<svg xmlns="http://www.w3.org/2000/svg" viewBox="0 0 605.12 479.42"><defs><style>.cls-1{isolation:isolate;}.cls-2{mix-blend-mode:multiply;}.cls-3{fill:#ededed;}.cls-4{fill:#dadada;}.cls-5{fill:#feb373;}.cls-6,.cls-7{fill:#fd973f;}.cls-7{fill-rule:evenodd;}.cls-8{fill:#626161;}.cls-9{fill:#fd7400;}.cls-10{fill:#455a64;}</style></defs><g class="cls-1"><g id="Capa_2" data-name="Capa 2"><g id="Capa_1-2" data-name="Capa 1"><g class="cls-2"><ellipse class="cls-3" cx="346.16" cy="458.59" rx="258.95" ry="20.83"/></g><path class="cls-3" d="M289.06,465.17s-34.24-46.31-113.44-39.45c0,0,80.62-61.93,33.18-125.56,0,0,101.82,30.08,103-97.18,0,0,18.51,118,114.54,84.45,0,0,6.82,93.76,73.29,76.41-32.16,31.67-63.47,59.54-57.09,100"/><path class="cls-4" d="M289.06,465.17s-.81-54-64.43-48.5c0,0,59.18-34.12,21.07-85.23,0,0,81.79,24.16,82.72-78.07,0,0,14.87,94.8,92,67.84,0,0-9.2,68.78,44.19,54.84-25.83,25.43-36.3,54.36-31.18,86.83"/><polygon class="cls-5" points="467.68 316.91 465.3 305.62 473.88 297.91 479.75 299.82 473.33 308.24 473.55 318.82 467.68 316.91"/><path class="cls-5" d="M474.64,314.15a5.2,5.2,0,1,0,3.23-9.89l9.92,1.18,0,8.33-6.23,5Z"/><path class="cls-6" d="M478.57,299.44l11,3.58,2.38,11.29L483.34,322l-11-3.58L470,307.15Zm.76,16.24a5.2,5.2,0,1,0-3.32-6.57A5.21,5.21,0,0,0,479.33,315.68Z"/><polygon class="cls-5" points="353.05 397.3 349.21 379.07 363.06 366.61 372.54 369.7 362.18 383.3 362.52 400.39 353.05 397.3"/><path class="cls-5" d="M364.29,392.84a8.39,8.39,0,1,0,5.21-16l16,1.9,0,13.45-10.06,8.06Z"/><path class="cls-6" d="M370.63,369.08l17.73,5.79,3.84,18.23-13.86,12.46-17.73-5.79-3.84-18.23Zm1.23,26.23a8.4,8.4,0,1,0-5.36-10.6A8.43,8.43,0,0,0,371.86,395.31Z"/><path class="cls-5" d="M475.13,461.29h12.93a6.14,6.14,0,0,0,6.13-6.12h0a6.14,6.14,0,0,0-6.13-6.12H475.13a6.14,6.14,0,0,0-6.13,6.12h0A6.14,6.14,0,0,0,475.13,461.29Z"/><path class="cls-6" d="M454.46,449.74c3.2-6.77,10.94-9.84,17.3-6.84s8.92,10.92,5.73,17.7-10.94,9.83-17.3,6.83S451.27,456.51,454.46,449.74Z"/><rect class="cls-5" x="464.02" y="440.71" width="3.92" height="28.92" transform="translate(693.35 1065.59) rotate(-154.76)"/><path class="cls-5" d="M139,301.19l5.66,7.13a4.32,4.32,0,0,0,6.05.69h0a4.32,4.32,0,0,0,.7-6.05l-5.67-7.13a4.31,4.31,0,0,0-6.05-.69h0A4.31,4.31,0,0,0,139,301.19Z"/><path class="cls-6" d="M136.3,284.75a9.25,9.25,0,0,1,11.33,6.54c1.13,4.81-2.11,9.69-7.24,10.9s-10.2-1.72-11.34-6.54S131.16,286,136.3,284.75Z"/><rect class="cls-5" x="136.96" y="283.29" width="2.76" height="20.35" transform="translate(-115.71 495.27) rotate(-103.22)"/><path class="cls-6" d="M190.69,189.51h0a1.58,1.58,0,0,1-1.56-1.61c.32-17.29-7.14-53.64-32.25-55.69a23.72,23.72,0,0,0-6.24.3,84.84,84.84,0,0,1-3.87,18.77c-3.53,10.42-8.4,16.2-13,15.5-4.93-.77-7.5-5.46-6.7-12.26,1.11-9.34,8.61-21.1,20.64-24.56,1.39-19.77-3.63-42.85-23.48-53.66C85.68,55.32,50,90.43,49.62,90.79a1.58,1.58,0,0,1-2.24-2.24A87.22,87.22,0,0,1,71.05,72.67c18.93-8.61,37.83-8.32,54.66.85,20.83,11.34,26.37,35.17,25.15,55.74a26.32,26.32,0,0,1,6.25-.21c11.8,1,21.43,8.87,27.83,22.86,5.67,12.38,7.5,26.74,7.33,36.05A1.58,1.58,0,0,1,190.69,189.51Zm-43.33-56.13c-10,3.47-16.23,13.49-17.18,21.52-.22,1.87-.58,8,4,8.75,2.3.36,6.23-3.69,9.51-13.39A81.12,81.12,0,0,0,147.36,133.38Z"/><path class="cls-6" d="M422.28,102.81a8.75,8.75,0,0,1-5.87-2.23c-5.54-4.84-7.27-17.33-4.31-31.08.16-.72.33-1.45.51-2.18-7.12-5.57-16.1-9.47-26-9.34-20.91.28-37.13,20.23-39.16,38.68a1.33,1.33,0,0,1-2.64-.29c2.16-19.58,19.46-40.74,41.77-41,10.07-.16,19.31,3.71,26.73,9.29,4.87-16.53,16.85-34.75,37.65-41,41.21-12.44,67.51,30.33,67.77,30.76a1.33,1.33,0,1,1-2.27,1.37c-.25-.42-25.51-41.44-64.73-29.59C431.54,32.24,420,50.31,415.59,66.42c8.48,7.11,14.22,16.41,15.59,24,1.08,5.89-.73,10.15-5,11.68A11.49,11.49,0,0,1,422.28,102.81Zm-7.4-33.6c-.06.28-.13.57-.19.85-2.72,12.64-1.3,24.37,3.46,28.53,1.93,1.68,4.34,2,7.16,1,4-1.43,3.75-6.08,3.27-8.72C427.34,84.06,422.32,75.77,414.88,69.21Z"/><path class="cls-7" d="M5.12,109.3A21.69,21.69,0,0,1,7.21,104L4.33,99.6l6.07-6.27,4.5,2.74a21.15,21.15,0,0,1,5.22-2.26l1.08-5.16,8.72-.14,1.25,5.12a21.3,21.3,0,0,1,5.29,2.09l4.41-2.88,6.27,6.06-2.74,4.51a21.15,21.15,0,0,1,2.26,5.22l5.16,1.08.14,8.72-5.12,1.25A21.3,21.3,0,0,1,44.75,125l2.89,4.41-6.07,6.27-4.51-2.74a21.24,21.24,0,0,1-5.21,2.26l-1.08,5.16-8.73.14-1.24-5.12a21.14,21.14,0,0,1-5.29-2.09l-4.42,2.88-6.26-6.06,2.73-4.51a21.53,21.53,0,0,1-2.26-5.22L.14,119.27,0,110.55l5.12-1.25Zm11.5,5a9.36,9.36,0,1,0,9.2-9.51A9.36,9.36,0,0,0,16.62,114.25Z"/><path class="cls-7" d="M521.41,64.14a15.55,15.55,0,0,1,1.54-3.9L520.82,57l4.48-4.62,3.32,2a15.54,15.54,0,0,1,3.85-1.67l.8-3.81,6.44-.1.92,3.77a16,16,0,0,1,3.9,1.55L547.79,52l4.62,4.48-2,3.32a15.38,15.38,0,0,1,1.67,3.85l3.81.8.11,6.44-3.78.92a16,16,0,0,1-1.55,3.9L552.78,79l-4.48,4.62-3.32-2a15.75,15.75,0,0,1-3.85,1.67l-.8,3.81-6.43.1L533,83.36a15.55,15.55,0,0,1-3.9-1.54L525.81,84l-4.62-4.48,2-3.32a15.92,15.92,0,0,1-1.67-3.85l-3.81-.8-.1-6.44,3.78-.92Zm8.48,3.65a6.91,6.91,0,1,0,6.79-7A6.91,6.91,0,0,0,529.89,67.79Z"/><path class="cls-8" d="M233.26,21.72C233.26,9.24,243,0,256.24,0s23,9.18,23,21.72-9.78,21.72-23,21.72S233.26,34.2,233.26,21.72Zm36.12,0c0-8-5.64-13.44-13.14-13.44S243.1,13.74,243.1,21.72s5.64,13.44,13.14,13.44S269.38,29.7,269.38,21.72Z"/><path class="cls-8" d="M283.48,26.58c0-9.72,7.5-16.62,17.76-16.62s17.7,6.9,17.7,16.62S311.5,43.2,301.24,43.2,283.48,36.3,283.48,26.58Zm26,0c0-5.58-3.54-8.94-8.22-8.94S293,21,293,26.58s3.6,8.94,8.28,8.94S309.46,32.16,309.46,26.58Z"/><path class="cls-8" d="M360.34,26.58c0,10.14-7,16.62-16.08,16.62-4,0-7.32-1.26-9.72-3.9V54.36h-9.36V10.44h8.94v3.72c2.34-2.82,5.82-4.2,10.14-4.2C353.32,10,360.34,16.44,360.34,26.58Zm-9.48,0c0-5.58-3.54-8.94-8.22-8.94s-8.22,3.36-8.22,8.94,3.54,8.94,8.22,8.94S350.86,32.16,350.86,26.58Z"/><path class="cls-8" d="M363.46,39.72,366.58,33a22.09,22.09,0,0,0,11.22,3.12c4.32,0,5.94-1.14,5.94-2.94,0-5.28-19.5.12-19.5-12.78,0-6.12,5.52-10.44,14.94-10.44,4.44,0,9.36,1,12.42,2.82l-3.12,6.66a18.54,18.54,0,0,0-9.3-2.4c-4.2,0-6,1.32-6,3,0,5.52,19.5.18,19.5,12.9,0,6-5.58,10.26-15.24,10.26C372,43.2,366.46,41.7,363.46,39.72Z"/><path class="cls-8" d="M397.06,37.74c0-3.06,2.4-5.34,5.76-5.34s5.75,2.28,5.75,5.34a5.76,5.76,0,0,1-11.51,0Zm.18-37H408.4l-1.86,27.42H399.1Z"/><path class="cls-9" d="M275.26,177.57l-15.13,3.78,4.86,19.5-28.08,7L232,188.36l-53.85,13.43L173.51,183l29.83-75,29.83-7.44-26.62,69.87,20.66-5.16L222.89,148l27.22-6.79,4.32,17.32,15.13-3.78Z"/><path class="cls-9" d="M274.91,128c0-34.65,19.5-54.6,46.35-54.6s46.2,20,46.2,54.6-19.5,54.6-46.2,54.6S274.91,162.6,274.91,128Zm62.7,0c0-22-6.9-30.3-16.35-30.3s-16.5,8.25-16.5,30.3,6.9,30.3,16.5,30.3S337.61,150,337.61,128Z"/><path class="cls-9" d="M468.64,200.53l-15.25-3.32-4.26,19.65-28.29-6.15,4.27-19.64-54.24-11.78L375,160.38l59.94-54L465,112.85l-54.8,50.88L431,168.25l3.79-17.44,27.41,5.95-3.79,17.44,15.25,3.31Z"/><path class="cls-10" d="M148.52,390c.13.51-8.32,2.14-17.14,7.63s-14.14,12.2-14.54,11.85c-.36-.16,4.47-7.66,13.67-13.26S148.53,389.59,148.52,390Z"/><path class="cls-10" d="M147.64,386c.14.45-7.76,3.12-17.38,6.72s-17.34,6.74-17.54,6.31,7.27-4.26,17-7.86S147.52,385.59,147.64,386Z"/><path class="cls-6" d="M246,465.4l-15.45-4a35.2,35.2,0,0,0-4.15-27.07,34.24,34.24,0,0,0-7.53-8.45c-1.59,10.11-8,19-16.95,22.74a25.07,25.07,0,0,1-21.22-1.31,22.2,22.2,0,0,1-11.6-15.1c-1.9-9.64,3.19-20.18,12.38-25.61a31.44,31.44,0,0,1,11.68-4c-.37-.31-.76-.62-1.15-.92-13.46-10.28-34.15-10.84-48.15-1.3l-9-13.19c19.74-13.46,47.84-12.7,66.83,1.81a47.05,47.05,0,0,1,13.88,16.66A50.49,50.49,0,0,1,246,465.4Zm-47.58-47.23a17.23,17.23,0,0,0-8.82,2.14c-3.3,1.95-5.42,5.81-4.84,8.79.45,2.26,2.58,3.62,3.48,4.1a9.25,9.25,0,0,0,7.57.65c4.83-2,8.08-8.43,7.39-14.62,0-.21-.05-.42-.08-.63A26.67,26.67,0,0,0,198.43,418.17Z"/><path class="cls-10" d="M453.86,408.16c-.09.39,6.29,1.62,13,5.77s10.69,9.22,11,8.95-3.38-5.79-10.34-10S453.85,407.86,453.86,408.16Z"/><path class="cls-10" d="M454.52,405.15c-.1.35,5.88,2.37,13.14,5.09s13.12,5.09,13.26,4.77-5.49-3.22-12.82-5.95S454.62,404.83,454.52,405.15Z"/><path class="cls-6" d="M384.75,435.25A39,39,0,0,1,403.16,420a35.63,35.63,0,0,1,10.49-12.6c14.36-11,35.6-11.54,50.53-1.36l-6.8,10c-10.58-7.22-26.23-6.79-36.4,1-.3.23-.59.46-.87.7a23.66,23.66,0,0,1,8.83,3c6.95,4.11,10.79,12.07,9.36,19.36a16.78,16.78,0,0,1-8.77,11.41,19,19,0,0,1-16,1c-6.79-2.82-11.62-9.55-12.82-17.19a26,26,0,0,0-5.69,6.38,26.63,26.63,0,0,0-3.13,20.46l-11.68,3.05A38.92,38.92,0,0,1,384.75,435.25Zm27.83-5.47-.06.48c-.52,4.68,1.94,9.53,5.59,11.05a7,7,0,0,0,5.72-.49,5,5,0,0,0,2.63-3.1c.44-2.25-1.17-5.17-3.66-6.65a13.07,13.07,0,0,0-6.67-1.61A21.18,21.18,0,0,0,412.58,429.78Z"/></g></g></g></svg>