<?xml version="1.0" encoding="UTF-8" standalone="no"?>
<!DOCTYPE svg PUBLIC "-//W3C//DTD SVG 1.1//EN" "http://www.w3.org/Graphics/SVG/1.1/DTD/svg11.dtd">
<svg width="100%" height="100%" viewBox="0 0 606 458" version="1.1" xmlns="http://www.w3.org/2000/svg" xmlns:xlink="http://www.w3.org/1999/xlink" xml:space="preserve" xmlns:serif="http://www.serif.com/" style="fill-rule:evenodd;clip-rule:evenodd;stroke-linejoin:round;stroke-miterlimit:2;">
    <g transform="matrix(0.999939,0,0,0.999939,0,-21.3907)">
        <g id="Capa_2">
            <g id="Capa_1-2">
                <g>
                    <ellipse cx="346.16" cy="458.59" rx="258.95" ry="20.83" style="fill:rgb(237,237,237);"/>
                </g>
                <path d="M289.06,465.17C289.06,465.17 254.82,418.86 175.62,425.72C175.62,425.72 256.24,363.79 208.8,300.16C208.8,300.16 310.62,330.24 311.8,202.98C311.8,202.98 330.31,320.98 426.34,287.43C426.34,287.43 433.16,381.19 499.63,363.84C467.47,395.51 436.16,423.38 442.54,463.84" style="fill:rgb(237,237,237);fill-rule:nonzero;"/>
                <path d="M289.06,465.17C289.06,465.17 288.25,411.17 224.63,416.67C224.63,416.67 283.81,382.55 245.7,331.44C245.7,331.44 327.49,355.6 328.42,253.37C328.42,253.37 343.29,348.17 420.42,321.21C420.42,321.21 411.22,389.99 464.61,376.05C438.78,401.48 428.31,430.41 433.43,462.88" style="fill:rgb(218,218,218);fill-rule:nonzero;"/>
                <path d="M467.68,316.91L465.3,305.62L473.88,297.91L479.75,299.82L473.33,308.24L473.55,318.82L467.68,316.91Z" style="fill:rgb(254,179,115);fill-rule:nonzero;"/>
                <path d="M474.64,314.15C475.161,314.32 475.706,314.407 476.255,314.407C479.109,314.407 481.457,312.059 481.457,309.205C481.457,306.96 480.004,304.957 477.87,304.26L487.79,305.44L487.79,313.77L481.56,318.77L474.64,314.15Z" style="fill:rgb(254,179,115);fill-rule:nonzero;"/>
                <path d="M478.57,299.44L489.57,303.02L491.95,314.31L483.34,322L472.34,318.42L470,307.15L478.57,299.44ZM479.33,315.68C479.852,315.851 480.399,315.938 480.948,315.938C483.801,315.938 486.148,313.591 486.148,310.738C486.148,307.886 483.801,305.538 480.948,305.538C478.71,305.538 476.711,306.984 476.01,309.11C475.121,311.823 476.619,314.786 479.33,315.68Z" style="fill:rgb(253,151,62);fill-rule:nonzero;"/>
                <path d="M353.05,397.3L349.21,379.07L363.06,366.61L372.54,369.7L362.18,383.3L362.52,400.39L353.05,397.3Z" style="fill:rgb(254,179,115);fill-rule:nonzero;"/>
                <path d="M364.29,392.84C365.131,393.114 366.01,393.253 366.895,393.253C371.51,393.253 375.308,389.455 375.308,384.84C375.308,381.207 372.955,377.965 369.5,376.84L385.5,378.74L385.5,392.19L375.44,400.25L364.29,392.84Z" style="fill:rgb(254,179,115);fill-rule:nonzero;"/>
                <path d="M370.63,369.08L388.36,374.87L392.2,393.1L378.34,405.56L360.61,399.77L356.77,381.54L370.63,369.08ZM371.86,395.31C372.706,395.588 373.591,395.729 374.481,395.729C379.089,395.729 382.881,391.938 382.881,387.329C382.881,382.721 379.089,378.929 374.481,378.929C370.861,378.929 367.629,381.27 366.5,384.71C365.081,389.087 367.494,393.859 371.86,395.31Z" style="fill:rgb(253,151,62);fill-rule:nonzero;"/>
                <path d="M475.13,461.29L488.06,461.29C491.417,461.285 494.179,458.527 494.19,455.17C494.179,451.813 491.417,449.055 488.06,449.05L475.13,449.05C471.773,449.055 469.011,451.813 469,455.17C469.011,458.527 471.773,461.285 475.13,461.29Z" style="fill:rgb(254,179,115);fill-rule:nonzero;"/>
                <path d="M454.46,449.74C457.66,442.97 465.4,439.9 471.76,442.9C478.12,445.9 480.68,453.82 477.49,460.6C474.3,467.38 466.55,470.43 460.19,467.43C453.83,464.43 451.27,456.51 454.46,449.74Z" style="fill:rgb(253,151,62);fill-rule:nonzero;"/>
                <g transform="matrix(-0.90453,-0.426411,0.426411,-0.90453,693.35,1065.59)">
                    <rect x="464.02" y="440.71" width="3.92" height="28.92" style="fill:rgb(254,179,115);"/>
                </g>
                <path d="M139,301.19L144.66,308.32C146.134,310.162 148.859,310.472 150.71,309.01C152.555,307.539 152.87,304.814 151.41,302.96L145.74,295.83C144.269,293.983 141.539,293.672 139.69,295.14C137.843,296.611 137.532,299.341 139,301.19Z" style="fill:rgb(254,179,115);fill-rule:nonzero;"/>
                <path d="M136.3,284.75C137.081,284.541 137.887,284.434 138.695,284.434C142.869,284.434 146.55,287.259 147.63,291.29C148.76,296.1 145.52,300.98 140.39,302.19C135.26,303.4 130.19,300.47 129.05,295.65C127.91,290.83 131.16,286 136.3,284.75Z" style="fill:rgb(253,151,62);fill-rule:nonzero;"/>
                <g transform="matrix(-0.228691,-0.973499,0.973499,-0.228691,-115.71,495.27)">
                    <rect x="136.96" y="283.29" width="2.76" height="20.35" style="fill:rgb(254,179,115);"/>
                </g>
                <path d="M190.69,189.51C189.831,189.499 189.13,188.789 189.13,187.93C189.13,187.92 189.13,187.91 189.13,187.9C189.45,170.61 181.99,134.26 156.88,132.21C154.796,132.034 152.698,132.135 150.64,132.51C150.063,138.893 148.765,145.19 146.77,151.28C143.24,161.7 138.37,167.48 133.77,166.78C128.84,166.01 126.27,161.32 127.07,154.52C128.18,145.18 135.68,133.42 147.71,129.96C149.1,110.19 144.08,87.11 124.23,76.3C85.68,55.32 50,90.43 49.62,90.79C49.323,91.087 48.92,91.254 48.5,91.254C47.631,91.254 46.916,90.539 46.916,89.67C46.916,89.25 47.083,88.847 47.38,88.55C54.346,81.995 62.343,76.63 71.05,72.67C89.98,64.06 108.88,64.35 125.71,73.52C146.54,84.86 152.08,108.69 150.86,129.26C152.928,128.942 155.026,128.871 157.11,129.05C168.91,130.05 178.54,137.92 184.94,151.91C190.61,164.29 192.44,178.65 192.27,187.96C192.254,188.815 191.546,189.51 190.69,189.51ZM147.36,133.38C137.36,136.85 131.13,146.87 130.18,154.9C129.96,156.77 129.6,162.9 134.18,163.65C136.48,164.01 140.41,159.96 143.69,150.26C145.511,144.78 146.741,139.121 147.36,133.38Z" style="fill:rgb(253,151,62);fill-rule:nonzero;"/>
                <path d="M422.28,102.81C420.115,102.819 418.023,102.024 416.41,100.58C410.87,95.74 409.14,83.25 412.1,69.5C412.26,68.78 412.43,68.05 412.61,67.32C405.49,61.75 396.51,57.85 386.61,57.98C365.7,58.26 349.48,78.21 347.45,96.66C347.344,97.299 346.786,97.771 346.138,97.771C345.408,97.771 344.808,97.171 344.808,96.441C344.808,96.418 344.809,96.394 344.81,96.37C346.97,76.79 364.27,55.63 386.58,55.37C396.65,55.21 405.89,59.08 413.31,64.66C418.18,48.13 430.16,29.91 450.96,23.66C492.17,11.22 518.47,53.99 518.73,54.42C518.893,54.646 518.98,54.918 518.98,55.197C518.98,55.926 518.38,56.527 517.65,56.527C517.147,56.527 516.685,56.241 516.46,55.79C516.21,55.37 490.95,14.35 451.73,26.2C431.54,32.24 420,50.31 415.59,66.42C424.07,73.53 429.81,82.83 431.18,90.42C432.26,96.31 430.45,100.57 426.18,102.1C424.931,102.561 423.611,102.801 422.28,102.81ZM414.88,69.21C414.82,69.49 414.75,69.78 414.69,70.06C411.97,82.7 413.39,94.43 418.15,98.59C420.08,100.27 422.49,100.59 425.31,99.59C429.31,98.16 429.06,93.51 428.58,90.87C427.34,84.06 422.32,75.77 414.88,69.21Z" style="fill:rgb(253,151,62);fill-rule:nonzero;"/>
                <path d="M5.12,109.3C5.581,107.449 6.283,105.667 7.21,104L4.33,99.6L10.4,93.33L14.9,96.07C16.53,95.085 18.286,94.325 20.12,93.81L21.2,88.65L29.92,88.51L31.17,93.63C33.019,94.087 34.798,94.79 36.46,95.72L40.87,92.84L47.14,98.9L44.4,103.41C45.385,105.04 46.145,106.796 46.66,108.63L51.82,109.71L51.96,118.43L46.84,119.68C46.386,121.539 45.683,123.329 44.75,125L47.64,129.41L41.57,135.68L37.06,132.94C35.432,133.923 33.68,134.683 31.85,135.2L30.77,140.36L22.04,140.5L20.8,135.38C18.951,134.925 17.171,134.222 15.51,133.29L11.09,136.17L4.83,130.11L7.56,125.6C6.579,123.968 5.819,122.212 5.3,120.38L0.14,119.27L0,110.55L5.12,109.3ZM16.62,114.3C16.702,119.377 20.901,123.509 25.979,123.509C31.114,123.509 35.339,119.283 35.339,114.149C35.339,109.014 31.114,104.789 25.979,104.789C25.926,104.789 25.873,104.789 25.82,104.79C20.708,104.877 16.565,109.138 16.62,114.25L16.62,114.3Z" style="fill:rgb(253,151,62);"/>
                <path d="M521.41,64.14C521.745,62.776 522.263,61.465 522.95,60.24L520.82,57L525.3,52.38L528.62,54.38C529.822,53.652 531.117,53.09 532.47,52.71L533.27,48.9L539.71,48.8L540.63,52.57C541.992,52.913 543.304,53.434 544.53,54.12L547.79,52L552.41,56.48L550.41,59.8C551.14,61.001 551.702,62.296 552.08,63.65L555.89,64.45L556,70.89L552.22,71.81C551.877,73.172 551.356,74.484 550.67,75.71L552.78,79L548.3,83.62L544.98,81.62C543.777,82.346 542.482,82.908 541.13,83.29L540.33,87.1L533.9,87.2L533,83.36C531.636,83.025 530.325,82.507 529.1,81.82L525.81,84L521.19,79.52L523.19,76.2C522.466,74.996 521.904,73.701 521.52,72.35L517.71,71.55L517.61,65.11L521.39,64.19L521.41,64.14ZM529.89,67.79C529.939,71.546 533.043,74.609 536.799,74.609C540.59,74.609 543.709,71.49 543.709,67.699C543.709,63.908 540.59,60.789 536.799,60.789C536.76,60.789 536.72,60.789 536.68,60.79C532.901,60.855 529.84,64.01 529.89,67.79Z" style="fill:rgb(253,151,62);"/>
                <path d="M275.26,177.57L260.13,181.35L264.99,200.85L236.91,207.85L232,188.36L178.15,201.79L173.51,183L203.34,108L233.17,100.56L206.55,170.43L227.21,165.27L222.89,148L250.11,141.21L254.43,158.53L269.56,154.75L275.26,177.57Z" style="fill:rgb(253,116,0);fill-rule:nonzero;"/>
                <path d="M274.91,128C274.91,93.35 294.41,73.4 321.26,73.4C348.11,73.4 367.46,93.4 367.46,128C367.46,162.6 347.96,182.6 321.26,182.6C294.56,182.6 274.91,162.6 274.91,128ZM337.61,128C337.61,106 330.71,97.7 321.26,97.7C311.81,97.7 304.76,105.95 304.76,128C304.76,150.05 311.66,158.3 321.26,158.3C330.86,158.3 337.61,150 337.61,128Z" style="fill:rgb(253,116,0);fill-rule:nonzero;"/>
                <path d="M468.64,200.53L453.39,197.21L449.13,216.86L420.84,210.71L425.11,191.07L370.87,179.29L375,160.38L434.94,106.38L465,112.85L410.2,163.73L431,168.25L434.79,150.81L462.2,156.76L458.41,174.2L473.66,177.51L468.64,200.53Z" style="fill:rgb(253,116,0);fill-rule:nonzero;"/>
                <path d="M148.52,390C148.65,390.51 140.2,392.14 131.38,397.63C122.56,403.12 117.24,409.83 116.84,409.48C116.48,409.32 121.31,401.82 130.51,396.22C139.71,390.62 148.53,389.59 148.52,390Z" style="fill:rgb(69,90,100);fill-rule:nonzero;"/>
                <path d="M147.64,386C147.78,386.45 139.88,389.12 130.26,392.72C120.64,396.32 112.92,399.46 112.72,399.03C112.52,398.6 119.99,394.77 129.72,391.17C139.45,387.57 147.52,385.59 147.64,386Z" style="fill:rgb(69,90,100);fill-rule:nonzero;"/>
                <path d="M246,465.4L230.55,461.4C232.876,452.19 231.379,442.42 226.4,434.33C224.376,431.115 221.831,428.259 218.87,425.88C217.28,435.99 210.87,444.88 201.92,448.62C195.007,451.351 187.225,450.871 180.7,447.31C174.765,444.277 170.501,438.726 169.1,432.21C167.2,422.57 172.29,412.03 181.48,406.6C185.071,404.508 189.041,403.148 193.16,402.6C192.79,402.29 192.4,401.98 192.01,401.68C178.55,391.4 157.86,390.84 143.86,400.38L134.86,387.19C154.6,373.73 182.7,374.49 201.69,389C207.55,393.397 212.304,399.102 215.57,405.66C239.264,414.949 252.418,440.773 246,465.4ZM198.42,418.17C195.342,418.082 192.296,418.821 189.6,420.31C186.3,422.26 184.18,426.12 184.76,429.1C185.21,431.36 187.34,432.72 188.24,433.2C190.553,434.49 193.311,434.727 195.81,433.85C200.64,431.85 203.89,425.42 203.2,419.23C203.2,419.02 203.15,418.81 203.12,418.6C201.572,418.319 200.003,418.175 198.43,418.17L198.42,418.17Z" style="fill:rgb(253,151,62);fill-rule:nonzero;"/>
                <path d="M453.86,408.16C453.77,408.55 460.15,409.78 466.86,413.93C473.57,418.08 477.55,423.15 477.86,422.88C478.17,422.61 474.48,417.09 467.52,412.88C460.56,408.67 453.85,407.86 453.86,408.16Z" style="fill:rgb(69,90,100);fill-rule:nonzero;"/>
                <path d="M454.52,405.15C454.42,405.5 460.4,407.52 467.66,410.24C474.92,412.96 480.78,415.33 480.92,415.01C481.06,414.69 475.43,411.79 468.1,409.06C460.77,406.33 454.62,404.83 454.52,405.15Z" style="fill:rgb(69,90,100);fill-rule:nonzero;"/>
                <path d="M384.75,435.25C389.138,428.366 395.579,423.03 403.16,420C405.63,415.042 409.222,410.727 413.65,407.4C428.01,396.4 449.25,395.86 464.18,406.04L457.38,416.04C446.8,408.82 431.15,409.25 420.98,417.04C420.68,417.27 420.39,417.5 420.11,417.74C423.223,418.144 426.225,419.164 428.94,420.74C435.89,424.85 439.73,432.81 438.3,440.1C437.239,445.024 434.016,449.218 429.53,451.51C424.608,454.186 418.747,454.552 413.53,452.51C406.74,449.69 401.91,442.96 400.71,435.32C398.474,437.118 396.552,439.274 395.02,441.7C391.262,447.816 390.133,455.2 391.89,462.16L380.21,465.21C377.615,455.024 379.254,444.21 384.75,435.25ZM412.58,429.78L412.52,430.26C412,434.94 414.46,439.79 418.11,441.31C419.998,441.972 422.082,441.793 423.83,440.82C425.106,440.206 426.062,439.079 426.46,437.72C426.9,435.47 425.29,432.55 422.8,431.07C420.76,429.949 418.457,429.393 416.13,429.46C414.94,429.467 413.752,429.574 412.58,429.78Z" style="fill:rgb(253,151,62);fill-rule:nonzero;"/>
            </g>
        </g>
    </g>
</svg>
