<?xml version="1.0" encoding="UTF-8" standalone="no"?>
<!DOCTYPE svg PUBLIC "-//W3C//DTD SVG 1.1//EN" "http://www.w3.org/Graphics/SVG/1.1/DTD/svg11.dtd">
<svg width="100%" height="100%" viewBox="0 0 1069 200" version="1.1" xmlns="http://www.w3.org/2000/svg" xmlns:xlink="http://www.w3.org/1999/xlink" xml:space="preserve" xmlns:serif="http://www.serif.com/" style="fill-rule:evenodd;clip-rule:evenodd;stroke-linejoin:round;stroke-miterlimit:2;">
    <g transform="matrix(1,0,0,1,-5.85559,-0.00999306)">
        <g transform="matrix(1.13452,0,0,1.13452,-72.6434,-78.4732)">
            <path d="M376.47,127.23C376.47,127.23 376.47,127.23 376.47,127.23C376.47,129.704 374.434,131.74 371.96,131.74C371.957,131.74 371.953,131.74 371.95,131.74L341.87,131.74C327.843,131.74 316.3,143.283 316.3,157.31C316.3,171.337 327.843,182.88 341.87,182.88L356.87,182.88C356.97,182.873 357.07,182.87 357.17,182.87C359.644,182.87 361.68,184.906 361.68,187.38C361.68,189.854 359.644,191.89 357.17,191.89C357.07,191.89 356.97,191.887 356.87,191.88L341.87,191.88C322.894,191.88 307.28,176.266 307.28,157.29C307.28,138.314 322.894,122.7 341.87,122.7L372,122.7C374.467,122.722 376.481,124.763 376.47,127.23Z" style="fill:rgb(253,116,0);fill-rule:nonzero;"/>
        </g>
        <g transform="matrix(1.13452,0,0,1.13452,-72.6434,-78.4732)">
            <path d="M449.16,127.23C449.16,129.704 447.124,131.74 444.65,131.74L414.57,131.74C400.543,131.74 389,143.283 389,157.31C389,171.337 400.543,182.88 414.57,182.88L429.57,182.88C431.926,183.037 433.78,185.019 433.78,187.38C433.78,189.741 431.926,191.723 429.57,191.88L414.57,191.88C395.594,191.88 379.98,176.266 379.98,157.29C379.98,138.314 395.594,122.7 414.57,122.7L444.65,122.7C447.124,122.7 449.16,124.736 449.16,127.21C449.16,127.217 449.16,127.223 449.16,127.23Z" style="fill:rgb(253,116,0);fill-rule:nonzero;"/>
        </g>
        <g transform="matrix(1.13452,0,0,1.13452,-72.6434,-78.4732)">
            <path d="M521.86,172.29C521.849,183.014 513.024,191.835 502.3,191.84L457.19,191.84C457.09,191.847 456.99,191.85 456.89,191.85C454.416,191.85 452.38,189.814 452.38,187.34C452.38,184.866 454.416,182.83 456.89,182.83C456.99,182.83 457.09,182.833 457.19,182.84L502.3,182.84C508.077,182.84 512.83,178.087 512.83,172.31C512.83,166.533 508.077,161.78 502.3,161.78L472.23,161.78C461.505,161.78 452.68,152.955 452.68,142.23C452.68,131.505 461.505,122.68 472.23,122.68L502.3,122.68C502.4,122.673 502.5,122.67 502.6,122.67C505.074,122.67 507.11,124.706 507.11,127.18C507.11,129.654 505.074,131.69 502.6,131.69C502.5,131.69 502.4,131.687 502.3,131.68L472.23,131.68C466.453,131.68 461.7,136.433 461.7,142.21C461.7,147.987 466.453,152.74 472.23,152.74L502.3,152.74C513.024,152.745 521.849,161.566 521.86,172.29Z" style="fill:rgb(253,116,0);fill-rule:nonzero;"/>
        </g>
        <g transform="matrix(1.13452,0,0,1.13452,-72.6434,-78.4732)">
            <path d="M553.21,127.17L553.21,187.33C553.217,187.43 553.22,187.53 553.22,187.63C553.22,190.104 551.184,192.14 548.71,192.14C546.236,192.14 544.2,190.104 544.2,187.63C544.2,187.53 544.203,187.43 544.21,187.33L544.21,131.68L518.62,131.68C518.52,131.687 518.42,131.69 518.32,131.69C515.846,131.69 513.81,129.654 513.81,127.18C513.81,124.706 515.846,122.67 518.32,122.67C518.42,122.67 518.52,122.673 518.62,122.68L548.7,122.68C551.167,122.68 553.199,124.703 553.21,127.17ZM583.29,127.17C583.29,129.644 581.254,131.68 578.78,131.68L565.14,131.68C565.04,131.687 564.94,131.69 564.84,131.69C562.366,131.69 560.33,129.654 560.33,127.18C560.33,124.706 562.366,122.67 564.84,122.67C564.94,122.67 565.04,122.673 565.14,122.68L578.78,122.68C581.247,122.68 583.279,124.703 583.29,127.17Z" style="fill:rgb(51,51,51);fill-rule:nonzero;"/>
        </g>
        <g transform="matrix(1.13452,0,0,1.13452,-72.6434,-78.4732)">
            <path d="M588.34,127.81C588.34,127.807 588.34,127.803 588.34,127.8C588.34,125.331 590.371,123.3 592.84,123.3C592.843,123.3 592.847,123.3 592.85,123.3L653,123.3C653.1,123.293 653.2,123.29 653.3,123.29C655.774,123.29 657.81,125.326 657.81,127.8C657.81,130.274 655.774,132.31 653.3,132.31C653.2,132.31 653.1,132.307 653,132.3L592.85,132.3C590.383,132.3 588.351,130.277 588.34,127.81ZM657.53,188C657.53,188 657.53,188 657.53,188C657.53,190.474 655.494,192.51 653.02,192.51C653.017,192.51 653.013,192.51 653.01,192.51L592.85,192.51C590.376,192.51 588.34,190.474 588.34,188L588.34,168.11C588.351,160.028 594.998,153.381 603.08,153.37L622.93,153.37C623.071,153.357 623.213,153.35 623.355,153.35C625.834,153.35 627.875,155.39 627.875,157.87C627.875,160.35 625.834,162.39 623.355,162.39C623.213,162.39 623.071,162.383 622.93,162.37L603.08,162.37C599.948,162.37 597.37,164.948 597.37,168.08L597.37,183.42L653,183.42C653.003,183.42 653.007,183.42 653.01,183.42C655.49,183.42 657.53,185.46 657.53,187.94C657.53,187.96 657.53,187.98 657.53,188Z" style="fill:rgb(51,51,51);fill-rule:nonzero;"/>
        </g>
        <g transform="matrix(1.13452,0,0,1.13452,-72.6434,-78.4732)">
            <path d="M730.22,127.23C730.22,129.704 728.184,131.74 725.71,131.74L695.63,131.74C681.603,131.74 670.06,143.283 670.06,157.31C670.06,171.337 681.603,182.88 695.63,182.88L710.63,182.88C712.986,183.037 714.84,185.019 714.84,187.38C714.84,189.741 712.986,191.723 710.63,191.88L695.63,191.88C676.654,191.88 661.04,176.266 661.04,157.29C661.04,138.314 676.654,122.7 695.63,122.7L725.71,122.7C728.184,122.7 730.22,124.736 730.22,127.21C730.22,127.217 730.22,127.223 730.22,127.23Z" style="fill:rgb(51,51,51);fill-rule:nonzero;"/>
        </g>
        <g transform="matrix(1.13452,0,0,1.13452,-72.6434,-78.4732)">
            <path d="M787.88,157.31C787.88,159.784 785.844,161.82 783.37,161.82L755.37,161.82C748.442,161.831 742.745,167.532 742.74,174.46L742.74,187.39C742.522,189.699 740.56,191.485 738.24,191.485C735.92,191.485 733.958,189.699 733.74,187.39L733.74,125.39C733.727,125.249 733.72,125.107 733.72,124.965C733.72,122.486 735.76,120.445 738.24,120.445C740.72,120.445 742.76,122.486 742.76,124.965C742.76,125.107 742.753,125.249 742.74,125.39L742.74,156.84C746.416,154.187 750.837,152.759 755.37,152.76L783.37,152.76C785.844,152.76 787.88,154.796 787.88,157.27C787.88,157.283 787.88,157.297 787.88,157.31ZM802.88,126.78L802.88,187.39C802.662,189.699 800.7,191.485 798.38,191.485C796.06,191.485 794.098,189.699 793.88,187.39L793.88,126.78C794.098,124.471 796.06,122.685 798.38,122.685C800.7,122.685 802.662,124.471 802.88,126.78Z" style="fill:rgb(51,51,51);fill-rule:nonzero;"/>
        </g>
        <g transform="matrix(1.13452,0,0,1.13452,-72.6434,-78.4732)">
            <path d="M813.14,191.9C812.451,191.906 811.769,191.763 811.14,191.48C810.533,191.215 809.975,190.85 809.49,190.4C809.012,189.946 808.627,189.403 808.36,188.8C808.074,188.144 807.931,187.435 807.94,186.72C807.935,186.031 808.078,185.349 808.36,184.72C808.908,183.48 809.9,182.488 811.14,181.94C811.769,181.657 812.451,181.514 813.14,181.52C813.855,181.511 814.564,181.654 815.22,181.94C815.831,182.214 816.386,182.597 816.86,183.07C817.33,183.542 817.7,184.103 817.95,184.72C818.201,185.357 818.327,186.036 818.32,186.72C818.33,187.431 818.205,188.137 817.95,188.8C817.704,189.405 817.333,189.95 816.86,190.4C816.376,190.848 815.822,191.213 815.22,191.48C814.564,191.766 813.855,191.909 813.14,191.9Z" style="fill:rgb(51,51,51);fill-rule:nonzero;"/>
        </g>
        <g transform="matrix(1.13452,0,0,1.13452,-72.6434,-78.4732)">
            <path d="M900,182.88L888,182.88L888,126.78C888,124.306 885.964,122.27 883.49,122.27L867.49,122.27C865.012,122.272 862.974,124.312 862.974,126.79C862.974,126.867 862.976,126.943 862.98,127.02C863.199,129.462 865.298,131.342 867.75,131.29L879,131.29L879,182.88L867.09,182.88C866.99,182.873 866.89,182.87 866.79,182.87C864.316,182.87 862.28,184.906 862.28,187.38C862.28,189.854 864.316,191.89 866.79,191.89C866.89,191.89 866.99,191.887 867.09,191.88L900,191.88C902.356,191.723 904.21,189.741 904.21,187.38C904.21,185.019 902.356,183.037 900,182.88Z" style="fill:rgb(51,51,51);fill-rule:nonzero;"/>
        </g>
        <g transform="matrix(1.13452,0,0,1.13452,-72.6434,-78.4732)">
            <path d="M895.83,131.29L900,131.29C902.356,131.133 904.21,129.151 904.21,126.79C904.21,124.429 902.356,122.447 900,122.29L895.51,122.29C895.509,122.29 895.507,122.29 895.506,122.29C893.031,122.29 890.996,124.326 890.996,126.8C890.996,126.867 890.997,126.933 891,127C891.215,129.471 893.351,131.368 895.83,131.29Z" style="fill:rgb(51,51,51);fill-rule:nonzero;"/>
        </g>
        <g transform="matrix(1.13452,0,0,1.13452,-72.6434,-78.4732)">
            <path d="M978.65,139.26L978.65,175.36C978.639,184.429 971.179,191.889 962.11,191.9L926,191.9C916.931,191.889 909.471,184.429 909.46,175.36L909.46,139.26C909.471,130.191 916.931,122.731 926,122.72L962.1,122.72C971.173,122.725 978.639,130.187 978.65,139.26ZM969.65,139.26C969.639,135.139 966.251,131.751 962.13,131.74L926,131.74C921.879,131.751 918.491,135.139 918.48,139.26L918.48,175.36C918.491,179.481 921.879,182.869 926,182.88L962.1,182.88C966.221,182.869 969.609,179.481 969.62,175.36L969.65,139.26Z" style="fill:rgb(51,51,51);fill-rule:nonzero;"/>
        </g>
        <g transform="matrix(1.13452,0,0,1.13452,-72.6434,-78.4732)">
            <path d="M856.67,216.87L836.32,216.87C833.078,216.87 830.41,214.202 830.41,210.96L830.41,102.96C830.41,102.943 830.41,102.927 830.41,102.91C830.41,99.668 833.078,97 836.32,97L856.67,97C859.818,97.13 862.337,99.755 862.337,102.905C862.337,106.055 859.818,108.68 856.67,108.81L842.22,108.81L842.22,205.02L856.67,205.02C859.912,205.02 862.58,207.688 862.58,210.93C862.58,214.172 859.912,216.84 856.67,216.84L856.67,216.87Z" style="fill:rgb(253,116,0);fill-rule:nonzero;"/>
        </g>
        <g transform="matrix(1.13452,0,0,1.13452,-72.6434,-78.4732)">
            <path d="M984.56,97L1004.91,97C1008.15,97.005 1010.82,99.67 1010.82,102.91L1010.82,211C1010.82,214.24 1008.15,216.905 1004.91,216.91L984.56,216.91C981.318,216.91 978.65,214.242 978.65,211C978.65,207.758 981.318,205.09 984.56,205.09L999,205.09L999,108.84L984.56,108.84C984.479,108.843 984.398,108.845 984.317,108.845C981.075,108.845 978.407,106.177 978.407,102.935C978.407,99.693 981.075,97.025 984.317,97.025C984.398,97.025 984.479,97.027 984.56,97.03L984.56,97Z" style="fill:rgb(253,116,0);fill-rule:nonzero;"/>
        </g>
        <g transform="matrix(1.13452,0,0,1.13452,-72.6434,-78.4732)">
            <path d="M281.19,166.43L281.04,165.69C276.62,146.69 259.52,132.53 240.65,131.36C239.968,97.039 211.547,69.179 177.22,69.18L175.37,69.18C175.086,69.179 174.802,69.199 174.52,69.24C150.268,70.289 128.653,85.157 119,107.43C117.123,111.756 115.744,116.282 114.89,120.92C107.846,121.505 101.005,123.578 94.82,127C79.039,135.641 69.191,152.259 69.191,170.251C69.191,186.348 77.073,201.464 90.27,210.68C98.642,216.597 108.638,219.789 118.89,219.82C124.561,219.814 130.185,218.798 135.5,216.82C136.58,216.43 137.65,215.99 138.69,215.53C143.787,217.935 149.354,219.185 154.99,219.19C163.922,219.242 172.585,216.102 179.41,210.34C179.83,210.47 180.25,210.62 180.66,210.71C182.599,211.172 184.588,211.387 186.58,211.35C186.777,211.36 186.973,211.36 187.17,211.35L188.09,211.35C188.103,211.35 188.116,211.35 188.129,211.35C194.602,211.35 199.929,216.677 199.929,223.15C199.929,224.514 199.692,225.867 199.23,227.15C198.081,230.358 195.538,232.879 192.32,234C189.996,234.851 188.441,237.075 188.441,239.55C188.441,242.781 191.09,245.443 194.32,245.46C195.003,245.46 195.68,245.338 196.32,245.1C205.509,241.682 211.64,232.86 211.64,223.056C211.64,210.153 201.022,199.536 188.12,199.536C187.973,199.536 187.826,199.537 187.68,199.54L187.57,199.54C187.07,199.54 186.57,199.54 186.06,199.62C185.137,199.632 184.216,199.524 183.32,199.3C182.402,199.067 181.513,198.731 180.67,198.3C177.406,196.675 175.126,193.562 174.56,189.96C173.862,186.367 174.918,182.65 177.4,179.96C178.413,178.868 178.976,177.432 178.976,175.942C178.976,172.7 176.308,170.032 173.066,170.032C171.496,170.032 169.988,170.658 168.88,171.77C163.795,177.201 161.606,184.752 163,192.06C163.775,196.372 165.727,200.387 168.64,203.66C164.526,206.145 159.806,207.449 155,207.43C147.989,207.528 141.244,204.7 136.4,199.63L136.24,199.45L133.11,195.45C130.735,191.703 129.358,187.41 129.11,182.98C129.068,182.294 129.068,181.606 129.11,180.92C129.391,168.245 138.979,157.564 151.55,155.92C152.283,155.824 152.994,155.6 153.65,155.26C155.52,154.218 156.683,152.238 156.683,150.097C156.683,146.855 154.015,144.187 150.773,144.187C150.464,144.187 150.155,144.212 149.85,144.26C131.665,146.723 117.808,162.156 117.31,180.5C117.241,181.576 117.241,182.654 117.31,183.73C117.681,190.273 119.749,196.608 123.31,202.11C123.41,202.25 123.51,202.4 123.61,202.53L126.98,206.85L127.14,207.05C124.37,207.7 121.535,208.036 118.69,208.05L118.07,208.05C110.531,207.852 103.219,205.415 97.07,201.05C87.019,194.044 81.014,182.539 81.014,170.286C81.014,156.593 88.514,143.947 100.53,137.38C106.289,134.181 112.783,132.537 119.37,132.61C119.603,132.625 119.837,132.625 120.07,132.61C126.71,132.841 133.168,134.847 138.77,138.42C139.716,139.018 140.811,139.335 141.93,139.335C145.175,139.335 147.845,136.665 147.845,133.42C147.845,131.393 146.803,129.503 145.09,128.42C139.535,124.892 133.33,122.511 126.84,121.42C127.536,118.24 128.541,115.135 129.84,112.15C137.749,93.825 155.602,81.658 175.55,81L177.22,81C177.235,81 177.249,81 177.264,81C205.56,81 228.844,104.284 228.844,132.58C228.844,133.992 228.786,135.403 228.67,136.81C228.655,136.98 228.648,137.15 228.648,137.32C228.648,140.557 231.311,143.22 234.548,143.22C234.552,143.22 234.556,143.22 234.56,143.22L235.12,143.22C235.29,143.23 235.46,143.23 235.63,143.22C251.06,141.91 265.94,152.93 269.51,168.28L269.64,168.93C271.687,178.488 269.237,188.474 263,196C257.097,203.283 248.215,207.529 238.84,207.55L238.22,207.55C235.05,207.651 232.498,210.286 232.498,213.457C232.498,216.591 234.99,219.207 238.12,219.36L238.85,219.36C251.758,219.346 263.994,213.511 272.13,203.49C280.663,193.184 284.006,179.51 281.19,166.43Z" style="fill:rgb(253,116,0);fill-rule:nonzero;"/>
        </g>
    </g>
</svg>
