<?xml version="1.0" encoding="UTF-8" standalone="no"?>
<!DOCTYPE svg PUBLIC "-//W3C//DTD SVG 1.1//EN" "http://www.w3.org/Graphics/SVG/1.1/DTD/svg11.dtd">
<svg width="100%" height="100%" viewBox="0 0 1000 277" version="1.1" xmlns="http://www.w3.org/2000/svg" xmlns:xlink="http://www.w3.org/1999/xlink" xml:space="preserve" xmlns:serif="http://www.serif.com/" style="fill-rule:evenodd;clip-rule:evenodd;stroke-linejoin:round;stroke-miterlimit:2;">
    <g id="Trazado_1100" transform="matrix(0.602204,0,0,0.602204,74.5439,0.0055047)">
        <path d="M1506.13,394.966C1459.79,431.958 1404.8,380.802 1376.35,357.78C1364.01,347.789 1258.81,241.764 1195.4,203.69C1144.65,173.219 1091.34,156.13 1035.64,156.13C962.05,156.13 897.651,166.25 839.415,196.957C778.853,228.89 633.325,318.081 557,359C429.92,427.13 305.636,462.439 200.91,458.51C134,456 66.42,439.17 0,408.59C-72.395,375.259 -120.05,327.288 -123.231,297.815C-131.582,220.443 -43.517,202.111 0,230.73C56.67,268 127.5,299.6 206.85,302.62C286.581,305.654 379.77,277.01 483.29,221.5C494.057,215.727 711.88,88.36 780.45,58.41C865.949,21.066 975.632,0.494 1035.08,0C1137.92,-0.855 1260.22,58.427 1320.06,100.35C1371.28,136.233 1473.93,222.86 1510.03,268.31C1534.64,299.289 1556.72,354.593 1506.13,394.966Z" style="fill:rgb(237,236,236);fill-rule:nonzero;"/>
    </g>
</svg>
