<svg id="eMWQSLcNFm81" xmlns="http://www.w3.org/2000/svg" xmlns:xlink="http://www.w3.org/1999/xlink" viewBox="0 0 722.68 521.81" shape-rendering="geometricPrecision" text-rendering="geometricPrecision"><g style="isolation:isolate"><g><ellipse style="mix-blend-mode:multiply" rx="217.81" ry="17.69" transform="translate(223.91 491.84)" fill="#f2f7fd"/><g><path d="M347.21,267.82h-72.13l-.28-.93c-1.08-3.59-4.87-5.61-8.45-4.53-2.58.78-4.35,2.96-4.73,5.46h-81.5c-.39-2.5-2.15-4.68-4.73-5.46-3.58-1.08-7.37.94-8.45,4.53l-.28.93h-46.31v46.72h32.2L98.7,492.78c-1.08,3.59.95,7.37,4.53,8.45.65.2,1.31.29,1.96.29c2.91,0,5.6-1.89,6.49-4.82l55.03-182.16h108.33L330.07,496.7c.89,2.93,3.58,4.82,6.49,4.82.65,0,1.31-.09,1.96-.29c3.59-1.08,5.61-4.87,4.53-8.45L289.2,314.54h58.02v-46.72Z" fill="#6f8090"/><path d="M274.8,266.89c-1.08-3.59-4.87-5.61-8.45-4.53-2.58.78-4.35,2.96-4.73,5.46h-81.5c-.39-2.5-2.15-4.68-4.73-5.46-3.58-1.08-7.37.94-8.45,4.53l-.28.93h-46.31v46.72h32.2L118.99,425.6h14.17l33.56-111.06h108.33L308.61,425.6h14.17L289.22,314.54h58.02v-46.72h-72.13l-.28-.93Z" opacity="0.3" fill="#2a302f"/><path d="M220.86,255.19c-3.96,0-7.2-9.83-7.2-21.84v-211.51C213.66,9.83,216.9,0,220.86,0s7.2,9.83,7.2,21.84v211.51c0,12.01-3.24,21.84-7.2,21.84Z" fill="#6f8090"/><g id="eMWQSLcNFm89" transform="matrix(1 0 0 0.708189 0.000001 8.658032)"><rect width="423.06" height="346.44" rx="0" ry="0" transform="translate(9.33 29.67)" fill="#e4e8ed"/><rect width="423.06" height="15.79" rx="0" ry="0" transform="translate(9.33 29.67)" opacity="0.2" fill="#6f8090"/><rect width="385.43" height="291.11" rx="2.3" ry="2.3" transform="translate(28.14 58.45)" fill="#fff"/><g transform="translate(.000001 0.000001)"><path d="M441.72,381.28c0,6.29-9.83,11.44-21.84,11.44h-398.04C9.83,392.72,0,387.57,0,381.28s9.83-11.44,21.84-11.44h398.04c12.01,0,21.84,5.15,21.84,11.44Z" fill="#ff9c24"/><path d="M0,380.87v6.35c0,3.49,3.05,6.35,6.78,6.35h428.15c3.73,0,6.78-2.86,6.78-6.35v-6.35h-441.71Z" opacity="0.6" fill="#fa7d0f"/></g><g id="eMWQSLcNFm816"><g><g><path d="M225.16,231.06c-18.79,0-36.45-7.31-49.72-20.58s-20.58-30.92-20.58-49.72s7.31-36.45,20.58-49.72s30.92-20.58,49.72-20.58s36.45,7.31,49.72,20.58s20.58,30.92,20.58,49.72-7.31,36.45-20.58,49.72-30.93,20.58-49.72,20.58Zm0-140.26c-38.58,0-69.97,31.39-69.97,69.97s31.39,69.97,69.97,69.97s69.97-31.39,69.97-69.97-31.39-69.97-69.97-69.97Z" fill="#a7a9ac"/><path d="M225.16,224.69c-17.09,0-33.14-6.64-45.21-18.71s-18.71-28.12-18.71-45.21s6.64-33.14,18.71-45.21s28.12-18.71,45.21-18.71s33.14,6.64,45.21,18.71s18.71,28.12,18.71,45.21-6.64,33.14-18.71,45.21-28.12,18.71-45.21,18.71Zm0-127.51c-35.06,0-63.59,28.53-63.59,63.59s28.53,63.59,63.59,63.59s63.59-28.53,63.59-63.59-28.53-63.59-63.59-63.59Z" fill="#a7a9ac"/><path d="M225.16,218.31c-15.38,0-29.84-5.98-40.7-16.84s-16.84-25.31-16.84-40.7s5.98-29.84,16.84-40.7s25.32-16.84,40.7-16.84s29.84,5.98,40.7,16.84s16.84,25.31,16.84,40.7-5.98,29.84-16.84,40.7-25.32,16.84-40.7,16.84Zm0-114.76c-31.55,0-57.22,25.67-57.22,57.22s25.67,57.22,57.22,57.22s57.22-25.67,57.22-57.22-25.67-57.22-57.22-57.22Z" fill="#a7a9ac"/><path d="M225.16,211.94c-28.21,0-51.17-22.95-51.17-51.17s22.95-51.17,51.17-51.17s51.17,22.95,51.17,51.17-22.95,51.17-51.17,51.17Zm0-102.01c-28.03,0-50.84,22.81-50.84,50.84s22.81,50.84,50.84,50.84s50.84-22.81,50.84-50.84-22.81-50.84-50.84-50.84Z" fill="#a7a9ac"/><path d="M225.16,205.56c-24.7,0-44.79-20.09-44.79-44.79s20.09-44.79,44.79-44.79s44.79,20.09,44.79,44.79-20.09,44.79-44.79,44.79Zm0-89.26c-24.52,0-44.47,19.95-44.47,44.47s19.95,44.47,44.47,44.47s44.47-19.95,44.47-44.47-19.95-44.47-44.47-44.47Z" fill="#a7a9ac"/><path d="M225.16,199.19c-21.18,0-38.42-17.23-38.42-38.41s17.23-38.41,38.42-38.41s38.41,17.23,38.41,38.41-17.23,38.41-38.41,38.41Zm0-76.5c-21,0-38.09,17.09-38.09,38.09s17.09,38.09,38.09,38.09s38.09-17.09,38.09-38.09-17.09-38.09-38.09-38.09Z" fill="#a7a9ac"/><path d="M225.16,192.81c-17.67,0-32.04-14.37-32.04-32.04s14.37-32.04,32.04-32.04s32.04,14.37,32.04,32.04-14.37,32.04-32.04,32.04Zm0-63.75c-17.49,0-31.72,14.23-31.72,31.71s14.23,31.71,31.72,31.71s31.71-14.23,31.71-31.71-14.23-31.71-31.71-31.71Z" fill="#a7a9ac"/><path d="M225.16,186.44c-14.15,0-25.66-11.51-25.66-25.66s11.51-25.66,25.66-25.66s25.66,11.51,25.66,25.66-11.51,25.66-25.66,25.66Zm0-51c-13.97,0-25.34,11.37-25.34,25.34s11.37,25.34,25.34,25.34s25.34-11.37,25.34-25.34-11.37-25.34-25.34-25.34Z" fill="#a7a9ac"/><path d="M225.16,180.06c-10.64,0-19.29-8.65-19.29-19.29s8.65-19.29,19.29-19.29s19.29,8.65,19.29,19.29-8.65,19.29-19.29,19.29Zm0-38.25c-10.46,0-18.96,8.51-18.96,18.96s8.51,18.96,18.96,18.96s18.96-8.51,18.96-18.96-8.51-18.96-18.96-18.96Z" fill="#a7a9ac"/><path d="M225.16,173.68c-7.12,0-12.91-5.79-12.91-12.91s5.79-12.91,12.91-12.91s12.91,5.79,12.91,12.91-5.79,12.91-12.91,12.91Zm0-25.5c-6.94,0-12.59,5.65-12.59,12.59s5.65,12.59,12.59,12.59s12.59-5.65,12.59-12.59-5.65-12.59-12.59-12.59Z" fill="#a7a9ac"/><path d="M225.16,167.31c-3.6,0-6.54-2.93-6.54-6.54s2.93-6.54,6.54-6.54s6.54,2.93,6.54,6.54-2.93,6.54-6.54,6.54Zm0-12.75c-3.43,0-6.21,2.79-6.21,6.21s2.79,6.21,6.21,6.21s6.21-2.79,6.21-6.21-2.79-6.21-6.21-6.21Z" fill="#a7a9ac"/></g><g><rect width="0.32" height="70.13" rx="0" ry="0" transform="translate(225 160.77)" fill="#a7a9ac"/><polygon points="291.81,182.6 225.11,160.93 225.21,160.62 291.91,182.29 291.81,182.6" fill="#a7a9ac"/><rect width="70.13" height="0.32" rx="0" ry="0" transform="matrix(.587079-.80953 0.80953 0.587079 225.065623 160.719355)" fill="#a7a9ac"/><rect width="0.32" height="70.13" rx="0" ry="0" transform="matrix(.809017-.587785 0.587785 0.809017 183.810003 104.132294)" fill="#a7a9ac"/><rect width="70.13" height="0.32" rx="0" ry="0" transform="matrix(.95111-.308851 0.308851 0.95111 158.419066 182.275493)" fill="#a7a9ac"/></g></g><g><path d="M292.07,134.71c-.92-2.4-2.92-3.49-5.1-2.81-2.16.67-3.31,2.92-2.71,5.32.14.56.34,1.12.53,1.66c4.38,12.8,4.69,25.71.76,38.64-9.36,30.64-41.02,49.82-73.88,42.22-31.12-7.18-52.23-38.42-46.79-70.15c3.79-22.17,16.29-37.94,36.77-47.26c8.02-3.66,16.56-5.15,25.38-5.07c1.26.01,2.42-.19,3.29-1.15c1.06-1.15,1.33-2.5.79-3.95-.59-1.5-1.76-2.38-3.36-2.36-3.03.03-6.08.04-9.1.34-16.53,1.63-30.84,8.2-42.75,19.77-12.04,11.68-18.94,25.95-20.8,42.62-1.03,9.22.29,18.16,3.09,26.95c3.41,10.71,8.3,20.75,13.44,30.7c2.28,4.39,4.52,8.8,6.78,13.21c3.56,6.6,10.73,19.81,10.73,19.81s6.81,13.68,15.79,13.68c.07.01.16.01.23.01c12.08-.03,13.43.07,25.51.07h17c0,0,0,.03-.01.04h1.43c1.72,0,3.11,1.39,3.11,3.11s-1.39,3.09-3.11,3.09v.03h-32.13c-5.57,0-11.14-.01-16.7-.03-.29,0-.57.01-.84.03-1.95.13-3.55.77-4.42,2.73-1.09,2.42-.87,4.79.72,6.96.94,1.29,2.28,1.9,3.89,1.89h4.87c1.29.01,2.58.01,3.86-.01.1,0,.17.01.26.01h4.33c1.39,5.53,6.89,9.66,13.46,9.66s12.07-4.13,13.46-9.66h4.46c.19-.01.36-.04.57-.04c1.52.04,3.02.06,4.54.04h4.71c5.64-.37,10.13-6.77,10.13-14.61s-4.17-14.43-9.89-14.63h-21.97c-6.1.01-12.19.03-21.68.04-.23,0-.43-.01-.62-.04h-2.86c-1.82,0-3.29-1.46-3.29-3.26s1.47-3.26,3.29-3.26v0c0,0,34.12-.01,34.12-.01c6.03,0,12.22,0,19.26.01h2.02c1.03,0,1.49-.36,1.93-1.25c2.46-4.82,4.94-9.62,7.41-14.41c1.92-3.58,3.88-7.13,5.8-10.71c5.71-10.73,10.96-21.66,15.09-33.12c5.44-15.1,4.88-30.01-.79-44.88Z" fill="#ff9b23"/><g transform="translate(0 0.000001)"><rect id="eMWQSLcNFm839" width="11.9" height="11.9" rx="1.26" ry="1.26" transform="translate(233.67 102.81)" fill="#ff9b23"/><rect id="eMWQSLcNFm840" width="7.34" height="7.34" rx="0.78" ry="0.78" transform="translate(268.3 86.1)" fill="#ff9b23"/><rect id="eMWQSLcNFm841" width="9.07" height="9.07" rx="0.96" ry="0.96" transform="translate(265.51 137.38)" fill="#ff9b23"/><rect id="eMWQSLcNFm842" width="18" height="18" rx="1.9" ry="1.9" transform="translate(241.53 79.3)" fill="#ff9b23"/><rect id="eMWQSLcNFm843" width="15.77" height="15.77" rx="1.67" ry="1.67" transform="translate(260.73 100.88)" fill="#ff9b23"/><rect id="eMWQSLcNFm844" width="7.34" height="7.34" rx="0.78" ry="0.78" transform="translate(273.35 124.04)" fill="#ff9b23"/><rect id="eMWQSLcNFm845" width="11.89" height="11.89" rx="1.26" ry="1.26" transform="translate(247.68 120.34)" fill="#ff9b23"/></g><path id="eMWQSLcNFm846" d="M259.27,147.32c0-2.89-.57-5.65-1.6-8.19c0-.06-.03-.1-.04-.14-.19-.37-.57-.63-1.02-.63h-12.01c-.87,0-1.59-.7-1.59-1.59v-9.6c0-.44-.26-.83-.64-1.02-.14-.04-.29-.07-.42-.1-.03-.01-.04-.01-.07-.01-1.39-.29-2.83-.43-4.31-.43-8.16,0-15.26,4.51-18.96,11.15-5.12-2.6-10.41-2.92-15.69-.27-5.47,2.75-8.42,7.37-9.29,13.28-.11.06-.16.09-.2.09-.16,0-.33,0-.49-.01-4.95-.47-9.27,1.02-12.74,4.51-5.65,5.65-7.29,12.55-5.47,20.22c2.15,9.09,8.79,14.21,18.06,14.21h67.31c1.12,0,2.25.01,3.36-.11c9.03-1.12,15.72-9.43,14.9-18.49-.82-9.22-8.59-16.12-17.73-15.73-.87.03-1.75.14-2.68.23.83-2.3,1.3-4.77,1.3-7.36Z" fill="#ff9b23"/></g><g><path d="M343.38,125.44h-4.42c-.45,0-.81-.36-.81-.81v-4.42c0-.45.36-.81.81-.81h4.42c.45,0,.81.36.81.81v4.42c0,.45-.36.81-.81.81Zm-4.42-5.6c-.21,0-.38.17-.38.38v4.42c0,.21.17.38.38.38h4.42c.21,0,.38-.17.38-.38v-4.42c0-.21-.17-.38-.38-.38h-4.42Z" fill="#a7a9ac"/><path d="M326.88,126.08h-7.15c-.65,0-1.18-.53-1.18-1.18v-7.15c0-.65.53-1.18,1.18-1.18h7.15c.65,0,1.18.53,1.18,1.18v7.15c0,.65-.53,1.18-1.18,1.18Zm-7.15-9.07c-.41,0-.74.33-.74.74v7.15c0,.41.33.74.74.74h7.15c.41,0,.74-.33.74-.74v-7.15c0-.41-.33-.74-.74-.74h-7.15Z" fill="#a7a9ac"/><path d="M260.73,189h-.61c0,0-67.31,0-67.31,0-9.45,0-16.11-5.24-18.27-14.38-1.89-7.99-.04-14.87,5.53-20.43c3.48-3.51,7.85-5.05,12.91-4.57.15.01.31,0,.47.01c0,0,0,0,0-.01.94-6.19,4.1-10.68,9.39-13.33c5.05-2.53,10.37-2.47,15.7.18c3.9-6.84,11.18-11.08,19.05-11.08c1.48,0,2.94.14,4.33.43.04,0,.07,0,.12.02h.05c.12.04.24.06.36.1.5.24.8.7.8,1.22v9.6c0,.76.62,1.37,1.37,1.37h12.01c.51,0,.98.29,1.21.75l.02.05c0,0,.03.08.04.14c1.07,2.63,1.61,5.4,1.61,8.24c0,2.4-.4,4.79-1.2,7.11.15-.01.3-.03.45-.05.66-.07,1.27-.13,1.91-.15.25-.01.49-.02.74-.02c9.01,0,16.41,6.85,17.22,15.94.83,9.19-5.94,17.59-15.09,18.73-.93.11-1.88.12-2.78.12Zm-69.54-39.03c-4.2,0-7.84,1.52-10.83,4.53-5.45,5.45-7.27,12.18-5.41,20.02c2.11,8.93,8.62,14.05,17.85,14.05h67.92c.88,0,1.82,0,2.73-.11c8.92-1.1,15.52-9.29,14.71-18.26-.81-9.11-8.41-15.91-17.51-15.53-.62.02-1.23.08-1.88.15-.26.03-.52.05-.79.08l-.34.03.12-.32c.86-2.38,1.29-4.83,1.29-7.28c0-2.79-.53-5.52-1.59-8.11l-.05-.16c-.14-.28-.47-.48-.81-.48h-12.01c-1,0-1.8-.81-1.8-1.8v-9.6c0-.35-.2-.67-.52-.82-.08-.02-.19-.05-.3-.07l-.12-.03c-1.39-.28-2.82-.42-4.28-.42-7.78,0-14.98,4.23-18.78,11.04l-.1.18-.19-.09c-5.27-2.68-10.51-2.77-15.49-.27-5.18,2.61-8.27,7.02-9.17,13.12l-.02.11-.17.08c-.08.04-.15.08-.23.08-.16,0-.34,0-.51-.02-.59-.06-1.17-.08-1.74-.08Z" fill="#a7a9ac"/><path d="M210.87,170.14c-9.81,0-17.8-7.98-17.8-17.8s7.98-17.8,17.8-17.8s17.8,7.98,17.8,17.8-7.98,17.8-17.8,17.8Zm0-35.16c-9.57,0-17.36,7.79-17.36,17.36s7.79,17.36,17.36,17.36s17.36-7.79,17.36-17.36-7.79-17.36-17.36-17.36Z" fill="#a7a9ac"/><path d="M237.28,169.71c-12.28,0-22.27-9.99-22.27-22.27s9.99-22.27,22.27-22.27s22.27,9.99,22.27,22.27-9.99,22.27-22.27,22.27Zm0-44.1c-12.04,0-21.83,9.79-21.83,21.83s9.79,21.83,21.83,21.83s21.83-9.79,21.83-21.83-9.79-21.83-21.83-21.83Z" fill="#a7a9ac"/><path d="M260.73,189.4c-9.81,0-17.8-7.98-17.8-17.8s7.98-17.8,17.8-17.8s17.8,7.98,17.8,17.8-7.98,17.8-17.8,17.8Zm0-35.16c-9.57,0-17.36,7.79-17.36,17.36s7.79,17.36,17.36,17.36s17.36-7.79,17.36-17.36-7.79-17.36-17.36-17.36Z" fill="#a7a9ac"/><path d="M193.29,189.4c-11.1,0-20.13-9.03-20.13-20.13s9.03-20.13,20.13-20.13s20.13,9.03,20.13,20.13-9.03,20.13-20.13,20.13Zm0-39.83c-10.86,0-19.7,8.84-19.7,19.7s8.84,19.7,19.7,19.7s19.7-8.84,19.7-19.7-8.84-19.7-19.7-19.7Z" fill="#a7a9ac"/><path d="M260.95,189.4h-67.88v-28.85h67.88v28.85Zm-67.45-.43h67.02v-27.98h-67.02v27.98Z" fill="#a7a9ac"/><path d="M121.8,116.65c-5.23,0-9.48-4.25-9.48-9.48s4.25-9.48,9.48-9.48s9.48,4.25,9.48,9.48-4.25,9.48-9.48,9.48Zm0-18.54c-4.99,0-9.05,4.06-9.05,9.05s4.06,9.05,9.05,9.05s9.05-4.06,9.05-9.05-4.06-9.05-9.05-9.05Z" fill="#a7a9ac"/><path d="M135.72,116.42c-6.53,0-11.84-5.31-11.84-11.84s5.31-11.84,11.84-11.84s11.84,5.31,11.84,11.84-5.31,11.84-11.84,11.84Zm0-23.25c-6.29,0-11.41,5.12-11.41,11.41s5.12,11.41,11.41,11.41s11.41-5.12,11.41-11.41-5.12-11.41-11.41-11.41Z" fill="#a7a9ac"/><path d="M148.09,126.8c-5.23,0-9.48-4.25-9.48-9.48s4.25-9.48,9.48-9.48s9.48,4.25,9.48,9.48-4.25,9.48-9.48,9.48Zm0-18.54c-4.99,0-9.05,4.06-9.05,9.05s4.06,9.05,9.05,9.05s9.05-4.06,9.05-9.05-4.06-9.05-9.05-9.05Z" fill="#a7a9ac"/><path d="M112.53,126.8c-5.91,0-10.72-4.81-10.72-10.72s4.81-10.72,10.72-10.72s10.72,4.81,10.72,10.72-4.81,10.72-10.72,10.72Zm0-21c-5.67,0-10.28,4.61-10.28,10.28s4.61,10.28,10.28,10.28s10.28-4.61,10.28-10.28-4.61-10.28-10.28-10.28Z" fill="#a7a9ac"/><path d="M148.3,126.8h-35.99v-15.41h35.99v15.41Zm-35.56-.43h35.13v-14.55h-35.13v14.55Z" fill="#a7a9ac"/><path d="M133.79,201h-35.56c-5.91,0-10.72-4.81-10.72-10.72s4.79-10.7,10.68-10.72c.85-4.47,4.74-7.69,9.31-7.69c1.3,0,2.58.27,3.78.79c2.14-3.54,6.01-5.74,10.14-5.74c6.53,0,11.84,5.31,11.84,11.84c0,1.13-.16,2.24-.47,3.32.36-.04.69-.06,1-.06c5.23,0,9.48,4.25,9.48,9.48s-4.25,9.48-9.48,9.48ZM98.23,180c-5.67,0-10.28,4.61-10.28,10.28s4.61,10.28,10.28,10.28h35.56c4.99,0,9.05-4.06,9.05-9.05s-4.06-9.05-9.05-9.05c-.39,0-.79.03-1.27.1l-.34.05.11-.33c.37-1.13.55-2.32.55-3.51c0-6.29-5.12-11.41-11.41-11.41-4.05,0-7.83,2.18-9.87,5.69l-.1.17-.18-.08c-1.2-.55-2.47-.83-3.78-.83-4.42,0-8.17,3.16-8.91,7.52l-.03.18h-.33Z" fill="#a7a9ac"/><path d="M225.65,231.04c-39.03,0-70.78-31.78-70.78-70.84s31.75-70.84,70.78-70.84s70.78,31.78,70.78,70.84-31.75,70.84-70.78,70.84Zm0-141.36c-38.85,0-70.46,31.63-70.46,70.52s31.61,70.52,70.46,70.52s70.46-31.63,70.46-70.52-31.61-70.52-70.46-70.52Z" fill="#a7a9ac"/><path d="M227.62,97.18c-2.14,0-3.87-1.74-3.87-3.87s1.74-3.87,3.87-3.87s3.87,1.74,3.87,3.87-1.74,3.87-3.87,3.87Zm0-7.42c-1.96,0-3.55,1.59-3.55,3.55s1.59,3.55,3.55,3.55s3.55-1.59,3.55-3.55-1.59-3.55-3.55-3.55Z" fill="#a7a9ac"/><path d="M287.89,139.7c-2.14,0-3.87-1.74-3.87-3.87s1.74-3.87,3.87-3.87s3.87,1.74,3.87,3.87-1.74,3.87-3.87,3.87Zm0-7.42c-1.96,0-3.55,1.59-3.55,3.55s1.59,3.55,3.55,3.55s3.55-1.59,3.55-3.55-1.59-3.55-3.55-3.55Z" fill="#a7a9ac"/><path d="M192.17,247.84h-24.6v-48.02l24.6,48.02ZM168,247.41h23.46L168,201.61v45.8Z" fill="#a7a9ac"/><path d="M284.2,247.84h-24.6l24.6-48.02v48.02Zm-23.89-.43h23.46v-45.8l-23.46,45.8Z" fill="#a7a9ac"/><path d="M227.01,284.72c-8.11,0-14.71-6.6-14.71-14.71s6.6-14.71,14.71-14.71s14.71,6.6,14.71,14.71-6.6,14.71-14.71,14.71Zm0-28.99c-7.87,0-14.28,6.4-14.28,14.28s6.4,14.28,14.28,14.28s14.28-6.4,14.28-14.28-6.4-14.28-14.28-14.28Z" fill="#a7a9ac"/><path d="M253.68,275.4c-5.92,0-10.74-6.76-10.74-15.07s4.82-15.07,10.74-15.07s10.74,6.76,10.74,15.07-4.82,15.07-10.74,15.07Zm0-29.71c-5.68,0-10.31,6.57-10.31,14.64s4.63,14.64,10.31,14.64s10.31-6.57,10.31-14.64-4.63-14.64-10.31-14.64Z" fill="#a7a9ac"/><path d="M204.36,256.42c-7.71,0-13.99-6.91-13.99-15.41s6.27-15.41,13.99-15.41s13.99,6.91,13.99,15.41-6.27,15.41-13.99,15.41Zm0-30.39c-7.47,0-13.56,6.72-13.56,14.98s6.08,14.98,13.56,14.98s13.56-6.72,13.56-14.98-6.08-14.98-13.56-14.98Z" fill="#a7a9ac"/><path d="M200.1,275.4c-3.4,0-6.16-2.76-6.16-6.16s2.76-6.16,6.16-6.16s6.16,2.76,6.16,6.16-2.76,6.16-6.16,6.16Zm0-11.89c-3.16,0-5.73,2.57-5.73,5.73s2.57,5.73,5.73,5.73s5.73-2.57,5.73-5.73-2.57-5.73-5.73-5.73Z" fill="#a7a9ac"/><path d="M249.1,263.68c-1.85,0-3.35-1.5-3.35-3.35s1.5-3.35,3.35-3.35s3.35,1.5,3.35,3.35-1.5,3.35-3.35,3.35Zm0-6.26c-1.61,0-2.91,1.31-2.91,2.91s1.31,2.91,2.91,2.91s2.91-1.31,2.91-2.91-1.31-2.91-2.91-2.91Z" fill="#a7a9ac"/><path d="M207.3,245.7c-1.85,0-3.35-1.5-3.35-3.35s1.5-3.35,3.35-3.35s3.35,1.5,3.35,3.35-1.5,3.35-3.35,3.35Zm0-6.26c-1.61,0-2.91,1.31-2.91,2.91s1.31,2.91,2.91,2.91s2.91-1.31,2.91-2.91-1.31-2.91-2.91-2.91Z" fill="#a7a9ac"/><path d="M265.87,239.28h-58.87v-8.62h58.87v8.62Zm-58.44-.43h58v-7.75h-58v7.75Z" fill="#a7a9ac"/><path d="M250.29,257.42h-43.29v-12.03h43.29v12.03Zm-42.86-.43h42.42v-11.17h-42.42v11.17Z" fill="#a7a9ac"/><path d="M249.31,275.4h-49.44v-12.15h49.44v12.15Zm-49-.43h48.57v-11.29h-48.57v11.29Z" fill="#a7a9ac"/><path d="M145.23,281.4h-32.5c-2.11,0-3.82-1.71-3.82-3.82s1.71-3.82,3.82-3.82c.29,0,.57.03.86.1h28.86c.93,0,1.68-.75,1.68-1.68s-.76-1.68-1.68-1.68h-3.73l.02-.07h-21.47v.06h-.21c-.05.01-.11.01-.16.01-3.64,0-6.6-4.14-6.6-9.22s2.96-9.23,6.6-9.23h32.5c2.11,0,3.82,1.71,3.82,3.82s-1.71,3.82-3.82,3.82c-.3,0-.59-.03-.87-.1h-28.85c-.93,0-1.68.75-1.68,1.68s.76,1.68,1.68,1.68h3.73l-.02.07h21.47v-.06h.21c.05-.01.11-.01.16-.01c3.64,0,6.6,4.14,6.6,9.23s-2.96,9.22-6.6,9.22Zm-32.5-7.21c-1.87,0-3.39,1.52-3.39,3.39s1.52,3.39,3.39,3.39h32.5c3.4,0,6.17-3.94,6.17-8.79s-2.73-8.74-6.1-8.79v.07h-22.44l.02-.07h-3.19c-1.17,0-2.12-.95-2.12-2.12s.95-2.11,2.12-2.11h28.93c.25.07.52.1.79.1c1.87,0,3.39-1.52,3.39-3.39s-1.52-3.39-3.39-3.39h-32.5c-3.4,0-6.17,3.94-6.17,8.79s2.73,8.74,6.1,8.79v-.07h22.44l-.02.07h3.19c1.17,0,2.12.95,2.12,2.12s-.95,2.11-2.12,2.11h-28.94c-.26-.07-.52-.1-.78-.1Z" fill="#a7a9ac"/><rect width="21.94" height="0.43" rx="0" ry="0" transform="translate(279.84 73.37)" fill="#a7a9ac"/><path d="M155.03,242.57v-.43c80.8,0,146.53-75.61,146.53-168.55h.43c0,45.17-15.27,87.61-43.01,119.5-13.49,15.52-29.21,27.7-46.71,36.2-18.12,8.81-37.38,13.27-57.24,13.27Z" fill="#a7a9ac"/><path d="M334.27,200.17h-6.72c-.53,0-1.02-.26-1.31-.71l-2.09-3.14c-.17-.26-.26-.56-.26-.87v-3.9c0,0,14.06,0,14.06,0v3.9c0,.31-.1.61-.27.87l-2.09,3.14c-.29.44-.78.71-1.31.71Zm-9.96-8.18v3.46c0,.23.07.44.2.63l2.09,3.14c.21.32.57.51.95.51h6.72c.38,0,.74-.19.95-.51l2.09-3.14c.12-.19.19-.41.19-.63v-3.46c0,0-13.19,0-13.19,0Zm13.42-2.73h-4.31v-.22c0-.38.09-.94.2-1.29.49-1.56,2-5.6,5.34-9.41c1.7-1.95,2.64-4.44,2.64-7.03c0-5.9-4.8-10.69-10.69-10.69-2.83,0-5.61,1.15-7.61,3.16-1.99,2-3.08,4.67-3.08,7.53c0,2.6.94,5.09,2.64,7.03c3.35,3.82,4.85,7.86,5.34,9.42.13.41.19.83.19,1.26v.22c0,0-.22.01-.22.01h-4.31v-.19c-.87-2.96-3.17-6.32-4.41-7.74-2.43-2.77-3.77-6.33-3.77-10.01c0-8.39,6.83-15.21,15.21-15.21s15.21,6.83,15.21,15.21c0,3.68-1.34,7.24-3.76,10.01-1.25,1.42-3.55,4.78-4.41,7.74v.19h-.22Zm-3.86-.43h3.7c.91-3,3.21-6.35,4.47-7.78c2.36-2.69,3.66-6.15,3.66-9.72c0-8.15-6.63-14.78-14.78-14.78s-14.78,6.63-14.78,14.78c0,3.58,1.3,7.03,3.66,9.72c1.26,1.43,3.55,4.79,4.47,7.78h3.71c-.02-.32-.07-.63-.17-.93-.48-1.53-1.96-5.51-5.25-9.27-1.76-2.01-2.74-4.61-2.75-7.31c0-2.98,1.13-5.76,3.2-7.84c2.08-2.09,4.97-3.29,7.92-3.29c6.13,0,11.12,4.99,11.12,11.12c0,2.69-.98,5.29-2.75,7.31-3.28,3.75-4.76,7.72-5.25,9.25-.08.25-.15.64-.17.95ZM324.1,172.9c-.87,0-1.58-.71-1.58-1.58c0-4.63,3.77-8.4,8.4-8.4.87,0,1.58.71,1.58,1.58s-.71,1.58-1.58,1.58c-2.89,0-5.24,2.35-5.24,5.24c0,.87-.71,1.58-1.58,1.58Zm6.82-9.54c-4.39,0-7.96,3.57-7.96,7.96c0,.63.51,1.15,1.15,1.15s1.15-.51,1.15-1.15c0-3.13,2.54-5.67,5.67-5.67.63,0,1.15-.51,1.15-1.15s-.51-1.15-1.15-1.15Z" fill="#a7a9ac"/><path d="M142.24,171.11c-.08-.08-.08-.21,0-.29.57-.57,1.49-.57,2.05,0l2,2l.43-.43c-.07-.19-.12-.39-.12-.61c0-.92.74-1.66,1.66-1.66s1.66.74,1.66,1.66-.74,1.66-1.66,1.66c-.08,0-.16,0-.23-.02l-.57.57.57.57c.08-.01.15-.02.23-.02.92,0,1.66.74,1.66,1.66s-.74,1.66-1.66,1.66-1.66-.74-1.66-1.66c0-.22.04-.42.12-.61l-.43-.43-2,2c-.57.57-1.49.57-2.05,0-.08-.08-.08-.21,0-.29l2.88-2.88-2.88-2.88Zm5.47,5.09c0,.3.25.55.55.55s.55-.25.55-.55-.25-.55-.55-.55-.55.25-.55.55Zm0-4.42c0,.3.25.55.55.55s.55-.25.55-.55c0-.31-.25-.55-.55-.55s-.55.25-.55.55Z" fill="#a7a9ac"/><path d="M339.5,114.18h-9.49c-.82,0-1.49-.67-1.49-1.49v-9.49c0-.82.67-1.49,1.49-1.49h9.49c.82,0,1.49.67,1.49,1.49v9.49c0,.82-.67,1.49-1.49,1.49Zm-9.49-12.03c-.58,0-1.06.47-1.06,1.06v9.49c0,.58.47,1.06,1.06,1.06h9.49c.58,0,1.06-.47,1.06-1.06v-9.49c0-.58-.47-1.06-1.06-1.06h-9.49Z" fill="#a7a9ac"/><path d="M326.37,99.42h-10.84c-.92,0-1.67-.75-1.67-1.67v-10.84c0-.92.75-1.67,1.67-1.67h10.84c.92,0,1.67.75,1.67,1.67v10.84c0,.92-.75,1.67-1.67,1.67ZM315.53,85.68c-.68,0-1.24.55-1.24,1.24v10.84c0,.68.55,1.24,1.24,1.24h10.84c.68,0,1.24-.55,1.24-1.24v-10.84c0-.68-.55-1.24-1.24-1.24h-10.84Z" fill="#a7a9ac"/><path d="M338.58,136.94h-5.46c-.52,0-.95-.43-.95-.95v-5.46c0-.52.43-.95.95-.95h5.46c.52,0,.95.43.95.95v5.46c0,.52-.43.95-.95.95Zm-5.46-6.92c-.28,0-.52.23-.52.52v5.46c0,.28.23.52.52.52h5.46c.28,0,.52-.23.52-.52v-5.46c0-.28-.23-.52-.52-.52h-5.46Z" fill="#a7a9ac"/><path d="M339.52,96.47h-4.42c-.45,0-.81-.36-.81-.81v-4.42c0-.45.36-.81.81-.81h4.42c.45,0,.81.36.81.81v4.42c0,.45-.36.81-.81.81Zm-4.42-5.6c-.21,0-.38.17-.38.38v4.42c0,.21.17.38.38.38h4.42c.21,0,.38-.17.38-.38v-4.42c0-.21-.17-.38-.38-.38h-4.42Z" fill="#a7a9ac"/><path d="M316.2,112.71h-7.16c-.65,0-1.18-.53-1.18-1.18v-7.16c0-.65.53-1.18,1.18-1.18h7.16c.65,0,1.18.53,1.18,1.18v7.16c0,.65-.53,1.18-1.18,1.18Zm-7.16-9.08c-.41,0-.74.33-.74.74v7.16c0,.41.33.74.74.74h7.16c.41,0,.74-.33.74-.74v-7.16c0-.41-.33-.74-.74-.74h-7.16Z" fill="#a7a9ac"/><path d="M258.31,132.44h-9.37c-.81,0-1.47-.66-1.47-1.47v-9.37c0-.81.66-1.47,1.47-1.47h9.37c.81,0,1.47.66,1.47,1.47v9.37c0,.81-.66,1.47-1.47,1.47Zm-9.37-11.89c-.57,0-1.04.47-1.04,1.04v9.37c0,.57.47,1.04,1.04,1.04h9.37c.57,0,1.04-.47,1.04-1.04v-9.37c0-.57-.47-1.04-1.04-1.04h-9.37Z" fill="#a7a9ac"/><path d="M279.92,131.6h-5.79c-.55,0-.99-.45-.99-.99v-5.79c0-.55.44-.99.99-.99h5.79c.55,0,.99.45.99.99v5.79c0,.55-.45.99-.99.99Zm-5.79-7.34c-.31,0-.56.25-.56.56v5.79c0,.31.25.56.56.56h5.79c.31,0,.56-.25.56-.56v-5.79c0-.31-.25-.56-.56-.56h-5.79Z" fill="#a7a9ac"/><path d="M274.83,116.86h-12.43c-1.04,0-1.88-.84-1.88-1.88v-12.43c0-1.04.84-1.88,1.88-1.88h12.43c1.04,0,1.88.84,1.88,1.88v12.43c0,1.04-.84,1.88-1.88,1.88ZM262.4,101.09c-.8,0-1.45.65-1.45,1.45v12.43c0,.8.65,1.45,1.45,1.45h12.43c.8,0,1.45-.65,1.45-1.45v-12.43c0-.8-.65-1.45-1.45-1.45h-12.43Z" fill="#a7a9ac"/><path d="M257.63,97.52h-14.2c-1.17,0-2.12-.95-2.12-2.12v-14.2c0-1.17.95-2.12,2.12-2.12h14.2c1.17,0,2.12.95,2.12,2.12v14.2c0,1.17-.95,2.12-2.12,2.12Zm-14.2-18c-.93,0-1.69.76-1.69,1.69v14.2c0,.93.76,1.69,1.69,1.69h14.2c.93,0,1.69-.76,1.69-1.69v-14.2c0-.93-.76-1.69-1.69-1.69h-14.2Z" fill="#a7a9ac"/><path d="M273.63,146.67h-7.15c-.65,0-1.18-.53-1.18-1.18v-7.15c0-.65.53-1.18,1.18-1.18h7.15c.65,0,1.18.53,1.18,1.18v7.15c0,.65-.53,1.18-1.18,1.18Zm-7.15-9.07c-.41,0-.74.33-.74.74v7.15c0,.41.33.74.74.74h7.15c.41,0,.74-.33.74-.74v-7.15c0-.41-.33-.74-.74-.74h-7.15Z" fill="#a7a9ac"/><path d="M274.86,93.65h-5.79c-.55,0-.99-.45-.99-.99v-5.79c0-.55.44-.99.99-.99h5.79c.55,0,.99.45.99.99v5.79c0,.55-.45.99-.99.99Zm-5.79-7.34c-.31,0-.56.25-.56.56v5.79c0,.31.25.56.56.56h5.79c.31,0,.56-.25.56-.56v-5.79c0-.31-.25-.56-.56-.56h-5.79Z" fill="#a7a9ac"/><path d="M244.32,114.93h-9.38c-.81,0-1.47-.66-1.47-1.47v-9.38c0-.81.66-1.47,1.47-1.47h9.38c.81,0,1.47.66,1.47,1.47v9.38c0,.81-.66,1.47-1.47,1.47Zm-9.38-11.9c-.57,0-1.04.47-1.04,1.04v9.38c0,.57.47,1.04,1.04,1.04h9.38c.57,0,1.04-.47,1.04-1.04v-9.38c0-.57-.47-1.04-1.04-1.04h-9.38Z" fill="#a7a9ac"/><g><rect width="0.43" height="3.03" rx="0" ry="0" transform="translate(122.78 151.04)" fill="#a7a9ac"/><path d="M137.39,174.21h-5.63v-.43h5.63v.43Zm-11.26,0h-1.87c-.82,0-1.49-.67-1.49-1.49v-1.76h.43v1.76c0,.58.47,1.06,1.06,1.06h1.87v.43Zm-2.92-8.88h-.43v-5.63h.43v5.63Z" fill="#a7a9ac"/><rect width="3.03" height="0.43" rx="0" ry="0" transform="translate(143.02 173.77)" fill="#a7a9ac"/></g></g></g><rect width="359.37" height="281.19" rx="0" ry="0" transform="translate(41.17 65)" opacity="0.4" fill="#fff"/><g><path d="M156.96,311.08c-.21-.54-.65-.78-1.14-.63-.48.15-.74.65-.61,1.19.03.12.08.25.12.37.98,2.87,1.05,5.76.17,8.66-2.1,6.87-9.19,11.16-16.56,9.46-6.97-1.61-11.7-8.61-10.48-15.72.85-4.97,3.65-8.5,8.24-10.59c1.8-.82,3.71-1.15,5.69-1.14.28,0,.54-.04.74-.26.24-.26.3-.56.18-.89-.13-.34-.39-.53-.75-.53-.68,0-1.36,0-2.04.08-3.7.37-6.91,1.84-9.58,4.43-2.7,2.62-4.24,5.82-4.66,9.55-.23,2.07.06,4.07.69,6.04.76,2.4,1.86,4.65,3.01,6.88.51.98,1.01,1.97,1.52,2.96.8,1.48,2.41,4.44,2.41,4.44s1.53,3.07,3.54,3.07c.02,0,.04,0,.05,0c2.71,0,3.01.02,5.72.02h3.81c0,0,0,0,0,0h.32c.38,0,.7.31.7.7s-.31.69-.7.69v0c0,0-7.2,0-7.2,0-1.25,0-2.5,0-3.74,0-.06,0-.13,0-.19,0-.44.03-.8.17-.99.61-.24.54-.2,1.07.16,1.56.21.29.51.43.87.42h1.09c.29,0,.58,0,.87,0c.02,0,.04,0,.06,0h.97c.31,1.24,1.54,2.16,3.02,2.16s2.71-.92,3.02-2.16h1c0,0,.08,0,.13,0c.34,0,.68.01,1.02,0h1.05c1.26-.08,2.27-1.52,2.27-3.27s-.93-3.23-2.22-3.28h-4.92c-1.37,0-2.73,0-4.86,0-.05,0-.1,0-.14,0h-.64c-.41,0-.74-.33-.74-.73s.33-.73.74-.73v0c0,0,7.65,0,7.65,0c1.35,0,2.74,0,4.32,0h.45c.23,0,.33-.08.43-.28.55-1.08,1.11-2.16,1.66-3.23.43-.8.87-1.6,1.3-2.4c1.28-2.4,2.46-4.85,3.38-7.42c1.22-3.38,1.09-6.73-.18-10.06" fill="#ff9a23"/><path d="M144.16,306.6h2.1c.16,0,.28-.13.28-.28v-2.1c0-.16-.13-.28-.28-.28h-2.1c-.16,0-.28.13-.28.28v2.1c0,.16.13.28.28.28" fill="#ff9a23"/><path d="M151.81,301.83h1.3c.1,0,.17-.08.17-.17v-1.3c0-.1-.08-.17-.17-.17h-1.3c-.1,0-.17.08-.17.17v1.3c0,.1.08.17.17.17" fill="#ff9a23"/><rect width="2.03" height="2.03" rx="0.21" ry="0.21" transform="translate(151.01 311.68)" fill="#ff9a23"/><path d="M146.06,302.7h3.18c.24,0,.43-.19.43-.43v-3.18c0-.24-.19-.43-.43-.43h-3.18c-.24,0-.43.19-.43.43v3.18c0,.24.19.43.43.43" fill="#ff9a23"/><path d="M150.31,307.03h2.79c.21,0,.37-.17.37-.37v-2.79c0-.21-.17-.37-.37-.37h-2.79c-.21,0-.37.17-.37.37v2.79c0,.21.17.37.37.37" fill="#ff9a23"/><path d="M152.77,308.86v1.3c0,.1.08.17.17.17h1.3c.1,0,.17-.08.17-.17v-1.3c0-.1-.08-.17-.17-.17h-1.3c-.1,0-.17.08-.17.17" fill="#ff9a23"/><path d="M149.4,307.86h-2.1c-.16,0-.28.13-.28.28v2.1c0,.16.13.28.28.28h2.1c.16,0,.28-.13.28-.28v-2.1c0-.16-.13-.28-.28-.28" fill="#ff9a23"/><path d="M149.61,313.9c0-.65-.13-1.27-.36-1.83c0-.01,0-.02,0-.03-.04-.08-.13-.14-.23-.14h-2.69c-.2,0-.36-.16-.36-.36v-2.15c0-.1-.06-.19-.14-.23-.03,0-.06-.02-.09-.02c0,0,0,0,0,0-.32-.06-.64-.1-.97-.1-1.83,0-3.42,1.01-4.25,2.5-1.15-.58-2.33-.65-3.52-.06-1.22.62-1.89,1.65-2.08,2.98-.03.01-.03.02-.04.02-.03,0-.07,0-.11,0-1.11-.11-2.08.23-2.85,1.01-1.27,1.27-1.63,2.81-1.23,4.53.48,2.04,1.97,3.19,4.05,3.19h15.08c.25,0,.5,0,.75-.03c2.02-.25,3.52-2.11,3.34-4.14-.18-2.07-1.92-3.61-3.97-3.52-.2,0-.39.03-.6.05.19-.52.29-1.07.29-1.65" fill="#ff9a23"/><g><path d="M156.96,311.08c-.21-.54-.66-.78-1.14-.63s-.74.65-.61,1.19c.03.13.08.25.12.37.98,2.87,1.05,5.76.17,8.66-2.1,6.87-9.19,11.16-16.56,9.46-6.97-1.61-11.7-8.61-10.48-15.72.85-4.97,3.65-8.5,8.24-10.59c1.8-.82,3.71-1.15,5.69-1.14.28,0,.54-.04.74-.26.24-.26.3-.56.18-.89-.13-.34-.39-.53-.75-.53-.68,0-1.36,0-2.04.08-3.7.37-6.91,1.84-9.58,4.43-2.7,2.62-4.24,5.82-4.66,9.55-.23,2.07.06,4.07.69,6.04.76,2.4,1.86,4.65,3.01,6.88.51.98,1.01,1.97,1.52,2.96.06.11.13.24.2.37c2.11.72,4.37,1.12,6.72,1.12c8.62,0,16.02-5.26,19.16-12.74.72-2.9.49-5.77-.61-8.63Z" fill="#fa963d"/><rect width="2.67" height="2.67" rx="0.28" ry="0.28" transform="translate(143.88 303.93)" fill="#fa963d"/><rect width="1.64" height="1.64" rx="0.17" ry="0.17" transform="translate(151.63 300.18)" fill="#fa963d"/><rect width="2.03" height="2.03" rx="0.21" ry="0.21" transform="translate(151.01 311.68)" fill="#fa963d"/><path d="M146.06,298.66h3.18c.24,0,.43.19.43.43v3.18c0,.24-.19.43-.43.43h-3.18c-.24,0-.43-.19-.43-.43v-3.18c0-.24.19-.43.43-.43Z" fill="#fa963d"/><path d="M150.31,303.5h2.79c.21,0,.37.17.37.37v2.79c0,.21-.17.37-.37.37h-2.79c-.21,0-.37-.17-.37-.37v-2.79c0-.21.17-.37.37-.37Z" fill="#fa963d"/><rect width="1.64" height="1.64" rx="0.17" ry="0.17" transform="translate(152.77 308.69)" fill="#fa963d"/><path d="M147.3,307.86h2.1c.16,0,.28.13.28.28v2.1c0,.16-.13.28-.28.28h-2.1c-.16,0-.28-.13-.28-.28v-2.1c0-.16.13-.28.28-.28Z" fill="#fa963d"/><path d="M149.61,313.9c0-.65-.13-1.27-.36-1.83c0-.01,0-.02,0-.03-.04-.08-.13-.14-.23-.14h-2.69c-.2,0-.36-.16-.36-.36v-2.15c0-.1-.06-.19-.14-.23-.03,0-.06-.02-.09-.02c0,0,0,0,0,0-.32-.06-.64-.1-.97-.1-1.83,0-3.42,1.01-4.25,2.5-1.15-.58-2.33-.65-3.52-.06-1.22.62-1.89,1.65-2.08,2.98-.03.01-.03.02-.04.02-.03,0-.07,0-.11,0-1.11-.11-2.08.23-2.85,1.01-1.27,1.27-1.63,2.81-1.23,4.53.48,2.04,1.97,3.19,4.05,3.19h15.08c.25,0,.5,0,.75-.03c2.02-.25,3.52-2.11,3.34-4.14-.18-2.07-1.92-3.61-3.97-3.52-.2,0-.39.03-.6.05.19-.52.29-1.07.29-1.65Z" fill="#fa963d"/></g><path d="M186.19,317.3c.63,0,1.14.13,1.52.39s.67.72.86,1.38c.07.2.14.34.23.41s.22.11.41.11h2.86c.12,0,.22-.04.31-.12s.13-.18.13-.3c-.03-1.01-.32-1.88-.86-2.62-.55-.74-1.3-1.3-2.24-1.69-.95-.39-2.02-.58-3.21-.58-1.89,0-3.39.47-4.5,1.42s-1.69,2.29-1.76,4.04c-.01.38-.02,1.23-.02,2.06s0,1.41.02,1.77c.07,1.78.65,3.14,1.74,4.06c1.09.93,2.6,1.39,4.52,1.39c1.19,0,2.26-.19,3.21-.58s1.69-.95,2.24-1.69.84-1.61.86-2.62c0-.12-.04-.22-.13-.3s-.19-.12-.31-.12h-2.86c-.19,0-.33.04-.42.11s-.17.21-.22.41c-.17.64-.46,1.1-.86,1.37s-.9.4-1.52.4c-1.52,0-2.3-.85-2.35-2.54-.01-.39-.02-.96-.02-1.71s0-1.56.02-1.92c.05-1.69.84-2.54,2.35-2.54" fill="#1a1a1a"/><path d="M204.37,321.34c-.48-.32-1.04-.56-1.66-.73s-1.25-.32-1.88-.44c-1.1-.23-1.85-.46-2.25-.68-.4-.23-.6-.54-.6-.93c0-.25.05-.45.16-.61s.25-.29.42-.38c.17-.1.36-.16.57-.19s.41-.04.61-.04c.47,0,.89.1,1.25.29.33.21.54.45.62.74.16.25.38.37.66.37h2.82c.11,0,.2-.05.29-.14.09-.1.13-.2.13-.31-.04-.62-.29-1.23-.75-1.83-.28-.4-.62-.74-1.01-1.02s-.81-.51-1.26-.68-.91-.3-1.39-.37-.94-.11-1.38-.11c-1.11,0-2.1.18-2.96.54-.79.34-1.43.84-1.92,1.49s-.73,1.43-.73,2.34c0,.73.14,1.34.41,1.84s.64.92,1.09,1.25.96.59,1.54.79s1.17.36,1.79.48c.42.08.78.16,1.1.24.31.08.59.15.81.24.3.1.58.23.85.39s.4.43.4.8c0,.27-.08.5-.24.67s-.35.3-.57.39-.46.15-.72.18-.49.04-.69.04c-.46,0-.9-.08-1.32-.24s-.74-.46-.96-.9c-.13-.14-.25-.23-.34-.29-.05-.03-.11-.05-.17-.06s-.13-.02-.21-.02h-2.68c-.12,0-.22.04-.31.12s-.13.19-.13.31c.04.78.26,1.44.65,1.97.4.53.89.95,1.48,1.28.59.32,1.24.55,1.94.69s1.38.21,2.04.21s1.39-.08,2.11-.24s1.38-.42,1.97-.77c.59-.36,1.08-.82,1.46-1.4s.57-1.28.57-2.12c0-.78-.15-1.42-.45-1.93-.3-.5-.69-.91-1.18-1.22" fill="#545454"/><path d="M232.24,325.88h-5.41c-.19,0-.34-.08-.44-.23-.11-.15-.16-.28-.16-.39v-10.47c0-.15-.05-.27-.14-.36-.08-.09-.2-.14-.36-.14h-1.55c-.22,0-.43.04-.64.13s-.4.2-.56.35-.29.33-.39.54-.15.45-.15.7v12.51c0,.13.05.25.15.35s.22.15.35.15h9.32c.13,0,.26-.05.36-.14.11-.09.16-.21.16-.36v-2.13c0-.15-.05-.27-.16-.36s-.23-.14-.36-.14" fill="#545454"/><path d="M245.96,314.28h-1.49c-.19,0-.39.04-.59.11-.21.07-.4.18-.56.33-.17.15-.31.33-.42.54s-.17.46-.17.74v7.44c0,.75-.18,1.36-.54,1.81-.36.46-.94.68-1.73.68s-1.37-.22-1.74-.67-.55-1.06-.55-1.82v-8.64c0-.15-.05-.27-.15-.37s-.23-.15-.37-.15h-1.49c-.2,0-.41.04-.61.12-.21.08-.4.2-.56.34-.17.15-.31.33-.41.54-.11.21-.16.46-.16.72v7.48c0,.95.14,1.78.43,2.48s.7,1.28,1.24,1.73c.54.46,1.18.79,1.92,1.01.74.21,1.57.32,2.49.32s1.74-.11,2.48-.33s1.37-.56,1.9-1.01.94-1.02,1.22-1.72.42-1.52.42-2.48v-8.68c0-.15-.05-.27-.15-.37s-.23-.15-.37-.15" fill="#545454"/><path d="M259.59,314.28h-9.64c-.44,0-.85.16-1.21.47s-.54.73-.54,1.26v1.03c0,.16.05.28.14.36.09.09.22.14.38.14h2.92c.15,0,.28.06.41.17s.19.26.19.45v10.35c0,.15.05.27.16.36s.23.14.36.14h2.78c.16,0,.29-.04.38-.13s.14-.21.14-.37v-9.93c0-.27-.11-.51-.34-.72s-.49-.32-.79-.32h4.65c.16,0,.29-.05.38-.14.09-.08.14-.2.14-.36v-2.23c0-.35-.17-.52-.52-.52" fill="#545454"/><path d="M265.24,314.28h-1.61c-.47,0-.88.16-1.23.49s-.52.75-.52,1.26v12.49c0,.15.05.27.14.36s.21.14.36.14h2.86c.16,0,.28-.05.36-.14.09-.09.14-.21.14-.36v-13.74c0-.15-.05-.27-.14-.36-.08-.09-.2-.14-.36-.14" fill="#545454"/><path d="M294.62,314.34h-1.31c-.21,0-.43.04-.64.13-.22.09-.4.2-.56.35s-.29.33-.39.54-.15.46-.15.72v6.39c0,.07-.03.1-.1.1-.04,0-.07-.01-.1-.04-.03-.04-.11-.17-.24-.38s-.3-.47-.49-.77c-.2-.3-.4-.63-.62-.99s-.53-.83-.92-1.44c-.63-.99-1.8-2.82-2.59-4.06-.21-.29-.42-.47-.62-.53s-.38-.09-.54-.09h-.64c-.5,0-.91.17-1.25.52-.33.35-.5.76-.5,1.23v12.49c0,.13.05.25.15.35s.22.15.35.15h2.54c.16,0,.29-.04.38-.13s.14-.21.14-.37v-7.42c0-.07.04-.1.12-.1.03,0,.06.02.1.06.03.04.11.16.24.37s.3.46.49.76.41.63.63.99c.23.36,1,1.54,1.4,2.13.64.98,1.37,2.09,2.17,3.32.13.26.36.38.68.38h2.27c.15,0,.26-.05.34-.16.09-.09.14-.21.14-.36v-13.63c0-.16-.05-.29-.14-.38-.08-.09-.2-.14-.34-.14" fill="#545454"/><path d="M307.2,321.35c-.48-.32-1.04-.56-1.66-.74s-1.26-.32-1.9-.43c-1.09-.23-1.83-.46-2.23-.68-.4-.23-.6-.55-.6-.95c0-.25.06-.45.17-.61s.26-.28.42-.37.36-.15.56-.17c.21-.03.41-.04.61-.04.17,0,.36.02.54.05.19.03.37.09.55.16.18.08.34.18.47.31s.23.29.28.48c.16.25.39.37.68.37h2.8c.12,0,.22-.04.3-.12.08-.11.12-.22.12-.33-.03-.6-.27-1.21-.72-1.83-.3-.38-.63-.71-1.02-.99-.38-.27-.79-.5-1.24-.68s-.9-.31-1.38-.39-.94-.12-1.4-.12c-.66,0-1.32.08-1.98.24s-1.26.41-1.8.76-.98.8-1.32,1.36-.51,1.22-.51,2.01c0,.74.14,1.36.41,1.86s.64.92,1.09,1.24c.45.33.96.59,1.54.78s1.17.35,1.79.47c.42.1.78.18,1.1.27.31.08.58.16.79.23.28.1.56.23.85.4.28.17.42.44.42.79c0,.27-.08.49-.24.66-.16.16-.36.29-.58.38-.23.09-.47.15-.72.18-.26.03-.48.05-.68.05-.47,0-.91-.08-1.32-.24s-.73-.46-.98-.89c-.11-.14-.21-.23-.31-.29-.1-.05-.24-.08-.41-.08h-2.66c-.11,0-.21.04-.32.12-.08.08-.12.18-.12.31.01.73.26,1.41.74,2.04.3.41.65.75,1.08,1.02.42.27.87.48,1.35.65.48.16.97.28,1.48.34s1,.09,1.47.09c.68,0,1.39-.08,2.11-.24s1.38-.41,1.97-.76s1.07-.82,1.45-1.4.56-1.29.56-2.13c0-.78-.15-1.42-.44-1.92-.3-.5-.68-.91-1.17-1.22" fill="#545454"/><path d="M313.66,325.36h-1.39c-.21,0-.43.05-.64.14s-.41.22-.57.37c-.17.15-.3.33-.41.53s-.16.41-.16.62v1.49c0,.15.05.27.15.36s.23.14.37.14h2.66c.15,0,.27-.05.36-.14.09-.12.14-.24.14-.36v-2.64c0-.13-.05-.26-.14-.38-.09-.09-.22-.14-.36-.14" fill="#ff9a23"/><path d="M317.2,317.94h2.66c.15,0,.27-.05.36-.14.09-.12.14-.24.14-.36v-2.64c0-.13-.05-.26-.14-.38-.09-.09-.21-.14-.36-.14h-1.39c-.21,0-.43.05-.64.14s-.41.22-.57.37c-.17.15-.31.33-.41.53-.11.2-.16.41-.16.62v1.49c0,.15.05.27.15.36s.22.14.37.14" fill="#ff9a23"/><path d="M319.94,318.5h-1.61c-.47,0-.88.16-1.23.49s-.52.75-.52,1.26v8.27c0,.15.05.27.14.36s.21.14.36.14h2.86c.16,0,.28-.05.36-.14.09-.09.14-.21.14-.36v-9.52c0-.15-.05-.27-.14-.36-.08-.09-.2-.14-.36-.14" fill="#ff9a23"/><path d="M335.28,319.82c-.05-1.77-.64-3.14-1.76-4.1s-2.61-1.44-4.48-1.44-3.38.48-4.5,1.44-1.71,2.32-1.76,4.1c-.01.39-.02.97-.02,1.75s0,1.61.02,1.98c.07,1.8.65,3.16,1.75,4.08c1.1.93,2.6,1.39,4.51,1.39s3.4-.46,4.5-1.39c1.09-.93,1.67-2.29,1.74-4.08.03-.75.04-1.58.04-1.98s-.01-.97-.04-1.75m-3.9,3.61c-.03.87-.25,1.52-.66,1.94-.42.42-.97.63-1.67.63s-1.27-.21-1.69-.63-.64-1.07-.66-1.94c-.01-.39-.02-1.2-.02-1.92s0-1.25.02-1.63c.03-.87.25-1.52.66-1.94.42-.42.98-.63,1.69-.63s1.25.21,1.67.63.64,1.07.66,1.94c.03.75.04,1.3.04,1.63s-.01,1.14-.04,1.92" fill="#ff9a23"/><path d="M278.82,315.72c-1.12-.96-2.61-1.44-4.48-1.44s-3.38.48-4.5,1.44-1.71,2.32-1.76,4.1c-.01.39-.02.97-.02,1.75s0,1.61.02,1.98c.07,1.8.65,3.16,1.75,4.08c1.1.93,2.6,1.39,4.51,1.39s3.4-.46,4.5-1.39c1.09-.93,1.67-2.29,1.74-4.08.03-.75.04-1.58.04-1.98s-.01-.97-.04-1.75c-.05-1.77-.64-3.14-1.76-4.1m-2.14,7.71c-.03.87-.25,1.52-.66,1.94-.42.42-.97.63-1.67.63s-1.27-.21-1.69-.63-.64-1.07-.66-1.94c-.01-.39-.02-1.2-.02-1.92s0-1.25.02-1.63c.03-.87.25-1.52.66-1.94.42-.42.98-.63,1.69-.63s1.25.21,1.67.63.64,1.07.66,1.94c.03.75.04,1.3.04,1.63s-.01,1.14-.04,1.92" fill="#545454"/><path d="M218.28,315.72c-1.12-.96-2.61-1.44-4.48-1.44s-3.38.48-4.5,1.44-1.71,2.32-1.76,4.1c-.01.39-.02.97-.02,1.75s0,1.61.02,1.98c.07,1.8.65,3.16,1.75,4.08c1.1.93,2.6,1.39,4.51,1.39s3.4-.46,4.5-1.39c1.09-.93,1.67-2.29,1.74-4.08.03-.75.04-1.58.04-1.98s-.01-.97-.04-1.75c-.05-1.77-.64-3.14-1.76-4.1m-2.14,7.71c-.03.87-.25,1.52-.66,1.94-.42.42-.97.63-1.67.63s-1.27-.21-1.69-.63-.64-1.07-.66-1.94c-.01-.39-.02-1.2-.02-1.92s0-1.25.02-1.63c.03-.87.25-1.52.66-1.94.42-.42.98-.63,1.69-.63s1.25.21,1.67.63.64,1.07.66,1.94c.03.75.04,1.3.04,1.63s-.01,1.14-.04,1.92" fill="#545454"/><path d="M171.99,317.3c.63,0,1.14.13,1.52.39s.67.72.86,1.38c.07.2.14.34.23.41s.22.11.41.11h2.86c.12,0,.22-.04.31-.12s.13-.18.13-.3c-.03-1.01-.32-1.88-.86-2.62-.55-.74-1.3-1.3-2.24-1.69-.95-.39-2.02-.58-3.21-.58-1.89,0-3.39.47-4.5,1.42s-1.69,2.29-1.76,4.04c-.01.38-.02,1.23-.02,2.06s0,1.41.02,1.77c.07,1.78.65,3.14,1.74,4.06c1.09.93,2.6,1.39,4.52,1.39c1.19,0,2.26-.19,3.21-.58s1.69-.95,2.24-1.69.84-1.61.86-2.62c0-.12-.04-.22-.13-.3s-.19-.12-.31-.12h-2.86c-.19,0-.33.04-.42.11s-.17.21-.22.41c-.17.64-.46,1.1-.86,1.37s-.9.4-1.52.4c-1.52,0-2.3-.85-2.35-2.54-.01-.39-.02-.96-.02-1.71s0-1.56.02-1.92c.05-1.69.84-2.54,2.35-2.54" fill="#1a1a1a"/></g></g></g><g transform="translate(.000001 0)"><path d="M6.78,17.8h428.15c3.74,0,6.78,3.04,6.78,6.78v5.07c0,3.74-3.04,6.78-6.78,6.78h-428.15C3.04,36.44,0,33.4,0,29.65v-5.07c0-3.74,3.04-6.78,6.78-6.78Z" fill="#ff9c24"/><path d="M0,29.67c.01,3.72,3.06,6.76,6.78,6.76h428.15c3.72,0,6.77-3.04,6.78-6.76L0,29.67Z" opacity="0.6" fill="#fa7d0f"/></g><g clip-path="url(#eMWQSLcNFm8139)"><g><path d="M490.21,307.29L405.38,270.1c-1.52-3.83-4.49-7.08-8.55-8.87-4.82-2.11-10.1-1.68-14.38.69L248.96,163.69l-2.17,3.17L376.57,267.51c-.41.65-.79,1.33-1.11,2.06-3.6,8.2.14,17.77,8.34,21.36c4.07,1.78,8.47,1.76,12.32.29l84.83,37.19c5.83,2.56,12.63-.1,15.19-5.93s-.1-12.63-5.93-15.19Z" opacity="0.2" fill="#3b4443"/></g><clipPath id="eMWQSLcNFm8139"><rect width="206.79" height="193.64" rx="0" ry="0" transform="translate(225.6 148.98)" fill="none"/></clipPath></g></g><polygon id="eMWQSLcNFm8141" points="378.6,270.55 244.46,167.89 246.81,165.04 383.56,264.32 378.6,270.55" transform="translate(0 0.000005)" fill="#3b4443"/><g><g><path d="M549.24,471.85c0,7.03-5.7,12.73-12.73,12.73v0c-7.03,0-12.73-5.7-12.73-12.73v-25.94c0-7.03,5.7-12.73,12.73-12.73v0c7.03,0,12.73,5.7,12.73,12.73v25.94Z" fill="#63737f"/><ellipse style="mix-blend-mode:multiply" rx="149.9" ry="10.56" transform="translate(572.78 511.25)" fill="#f2f7fd"/><rect width="12.25" height="34.83" rx="0" ry="0" transform="translate(530.38 472.09)" fill="#63737f"/><path d="M626.59,471.85c0,7.03-5.7,12.73-12.73,12.73v0c-7.03,0-12.73-5.7-12.73-12.73v-25.94c0-7.03,5.7-12.73,12.73-12.73v0c7.03,0,12.73,5.7,12.73,12.73v25.94Z" fill="#6f8090"/><rect width="12.25" height="34.83" rx="0" ry="0" transform="translate(607.73 472.09)" fill="#6f8090"/><path d="M619.61,496.1h-11.46c-3.06,0-5.54,2.48-5.54,5.54h-1.66c-3.82,0-6.92,2.99-7.16,6.75h-.05v3.81c0,1.07.87,1.94,1.94,1.94h27.54c1.07,0,1.94-.87,1.94-1.94v-10.56c0-3.06-2.48-5.54-5.54-5.54Z" fill="#3b4443"/><path d="M541.19,496.1h-11.46c-3.06,0-5.54,2.48-5.54,5.54h-1.66c-3.82,0-6.92,2.99-7.16,6.75h-.05v3.81c0,1.07.87,1.94,1.94,1.94h27.54c1.07,0,1.94-.87,1.94-1.94v-10.56c0-3.06-2.48-5.54-5.54-5.54Z" fill="#3b4443"/></g><g id="eMWQSLcNFm8151" transform="translate(.000002 0.000001)"><g transform="translate(0 0.000001)"><path d="M379.76,266.53c2.56-5.83,9.36-8.49,15.19-5.93l95.26,41.77c5.83,2.56,8.49,9.36,5.93,15.19s-9.36,8.49-15.19,5.93l-95.26-41.77c-5.83-2.56-8.49-9.36-5.93-15.19Z" fill="#2a302f"/><circle r="16.22" transform="translate(390.32 271.16)" fill="#fedda8"/></g><g transform="translate(.000001 0.000001)"><rect width="182.81" height="118.08" rx="0" ry="0" transform="translate(487.26 296.25)" fill="#fa7d0f"/><g opacity="0.4"><g><rect width="0.14" height="10.57" rx="0" ry="0" transform="translate(669.93 413.48)" fill="#8194a3"/><path d="M635.69,413.48c.74,14.21,10.13,26.14,23.02,30.62c6.19-4.72,10.41-11.88,11.22-20.05v0-10.57h-34.24Z" fill="#8194a3"/></g></g><path d="M487.26,413.48v10.57h.15c1.45,14.57,13.73,25.94,28.68,25.94h125.16c14.95,0,27.23-11.38,28.68-25.94h.15v-10.57h-182.81Z" fill="#6f8090"/><rect width="20.36" height="11.05" rx="0" ry="0" transform="translate(554.04 413)" fill="#cbd2da"/><polygon points="572.78,413 572.78,422.43 554.04,422.43 554.04,424.05 574.4,424.05 574.4,413 572.78,413" opacity="0.6" fill="#e4e8ed"/><g opacity="0.4"><path d="M517.18,413.48h-29.92v10.57h.15c.75,7.51,4.38,14.15,9.77,18.84c11.32-5.19,19.33-16.33,20.01-29.41Z" fill="#8194a3"/></g><g><path d="M601.13,412.76v8.43c0,3.98,3.22,7.2,7.2,7.2l57.23-5.37c2.49,0,4.52-2.02,4.52-4.52v-5.74h-68.94Z" opacity="0.15"/><path d="M487.26,421.19h.05c-.02.15-.05.3-.05.46c0,2.49,2.02,4.52,4.52,4.52c0,0,34.01,2.69,34.89,2.69c3.98,0,7.2-3.22,7.2-7.2c0-.16-.04-.31-.05-.46h.05v-8.43h-46.6v8.43Z" opacity="0.15"/></g><path d="M601.13,296.25v121.81c0,3.98,3.22,7.2,7.2,7.2l57.23-5.37c2.49,0,4.52-2.02,4.52-4.52v-119.13h-68.94Z" fill="#3b4443"/><path d="M533.86,296.25h-46.6v121.81h.05c-.02.15-.05.3-.05.46c0,2.49,2.02,4.52,4.52,4.52c0,0,34.01,2.69,34.89,2.69c3.98,0,7.2-3.22,7.2-7.2c0-.16-.04-.31-.05-.46h.05v-121.81Z" fill="#3b4443"/><path d="M581.45,369.67c-.24-.62-.76-.91-1.32-.73-.56.17-.86.76-.7,1.38.04.14.09.29.14.43c1.14,3.32,1.22,6.67.2,10.03-2.43,7.95-10.64,12.93-19.17,10.96-8.07-1.86-13.55-9.97-12.14-18.2.98-5.75,4.23-9.85,9.54-12.26c2.08-.95,4.3-1.34,6.59-1.31.33,0,.63-.05.85-.3.27-.3.35-.65.2-1.03-.15-.39-.46-.62-.87-.61-.79,0-1.58.01-2.36.09-4.29.42-8,2.13-11.09,5.13-3.12,3.03-4.91,6.73-5.4,11.06-.27,2.39.07,4.71.8,6.99.88,2.78,2.15,5.39,3.49,7.97.59,1.14,1.17,2.28,1.76,3.43.92,1.71,2.79,5.14,2.79,5.14s1.77,3.55,4.1,3.55c.02,0,.04,0,.06,0c3.13,0,3.48.02,6.62.02h4.41c0,0,0,0,0,.01h.37c.45,0,.81.36.81.81s-.36.8-.81.8v0c0,0-8.34,0-8.34,0-1.44,0-2.89,0-4.33,0-.07,0-.15,0-.22,0-.51.03-.92.2-1.15.71-.28.63-.23,1.24.19,1.81.25.33.59.49,1.01.49h1.26c.33,0,.67,0,1,0c.03,0,.04,0,.07,0h1.12c.36,1.43,1.79,2.51,3.49,2.51s3.13-1.07,3.49-2.51h1.16c0,0,.09-.01.15-.01.39.01.78.01,1.18.01h1.22c1.46-.1,2.63-1.76,2.63-3.79s-1.08-3.74-2.57-3.8h-5.7c-1.58,0-3.16,0-5.63.01-.06,0-.11,0-.16-.01h-.74c-.47,0-.85-.38-.85-.85s.38-.85.85-.85v0c0,0,8.85,0,8.85,0c1.56,0,3.17,0,5,0h.52c.27,0,.39-.09.5-.32.64-1.25,1.28-2.5,1.92-3.74.5-.93,1.01-1.85,1.5-2.78c1.48-2.79,2.85-5.62,3.91-8.59c1.41-3.92,1.27-7.79-.2-11.65Zm-14.83-5.19h2.44c.18,0,.33-.15.33-.33v-2.44c0-.18-.15-.33-.33-.33h-2.44c-.18,0-.33.15-.33.33v2.44c0,.18.15.33.33.33Zm8.86-5.52h1.5c.11,0,.2-.09.2-.2v-1.5c0-.11-.09-.2-.2-.2h-1.5c-.11,0-.2.09-.2.2v1.5c0,.11.09.2.2.2Zm-.67,11.4c-.14,0-.25.11-.25.25v1.86c0,.14.11.25.25.25h1.86c.14,0,.25-.11.25-.25v-1.86c0-.14-.11-.25-.25-.25h-1.86Zm-5.98-10.4h3.68c.27,0,.49-.22.49-.49v-3.68c0-.27-.22-.49-.49-.49h-3.68c-.27,0-.49.22-.49.49v3.68c0,.27.22.49.49.49Zm4.92,5.02h3.23c.24,0,.43-.19.43-.43v-3.23c0-.24-.19-.43-.43-.43h-3.23c-.24,0-.43.19-.43.43v3.23c0,.24.19.43.43.43Zm2.84,2.12v1.5c0,.11.09.2.2.2h1.5c.11,0,.2-.09.2-.2v-1.5c0-.11-.09-.2-.2-.2h-1.5c-.11,0-.2.09-.2.2Zm-3.9-1.16h-2.43c-.18,0-.33.15-.33.33v2.43c0,.18.15.33.33.33h2.43c.18,0,.33-.15.33-.33v-2.43c0-.18-.15-.33-.33-.33Zm.25,7c0-.75-.15-1.47-.42-2.12c0-.01,0-.03-.01-.04-.05-.1-.15-.16-.26-.16h-3.12c-.23,0-.41-.18-.41-.41v-2.49c0-.12-.07-.22-.17-.26-.04-.01-.07-.02-.11-.03c0,0-.01,0-.02,0-.36-.07-.74-.11-1.12-.11-2.12,0-3.96,1.17-4.92,2.89-1.33-.68-2.7-.76-4.07-.07-1.42.71-2.18,1.91-2.41,3.45-.03.01-.04.02-.05.02-.04,0-.09,0-.13,0-1.29-.12-2.41.26-3.31,1.17-1.47,1.47-1.89,3.26-1.42,5.25.56,2.36,2.28,3.69,4.69,3.69h17.47c.29,0,.58,0,.87-.03c2.34-.29,4.08-2.45,3.87-4.8-.21-2.39-2.23-4.18-4.6-4.08-.23,0-.45.04-.69.06.22-.6.34-1.24.34-1.91Z" opacity="0.5" fill="#ffae55"/><rect width="20.36" height="11.05" rx="0" ry="0" transform="translate(555.37 414.33)" opacity="0.15"/></g><g><path d="M668.39,427.17c-6.37,0-11.53-5.16-11.53-11.53v-104.02c0-6.37,5.16-11.53,11.53-11.53s11.53,5.16,11.53,11.53v104.02c0,6.37-5.16,11.53-11.53,11.53Z" fill="#2a302f"/><circle r="16.22" transform="translate(668.39 415.64)" fill="#fedda8"/></g><g><path d="M476.42,294.3l-.36,3.96c-2.86,31.71,20.53,59.74,52.24,62.6l78.95,7.12c31.71,2.86,59.74-20.53,62.6-52.24l.36-3.96-193.8-17.47Z" opacity="0.1"/><rect width="200.58" height="194.58" rx="57.65" ry="57.65" transform="matrix(.089764-.995963 0.995963 0.089764 473.790248 323.245493)" fill="#fedda8"/><path d="M652.33,143.61l-9.29,103-161.02-14.52-5.45,60.42c-2.86,31.71,20.53,59.74,52.24,62.6l78.95,7.12c31.71,2.86,59.74-20.53,62.6-52.24l10.06-111.62c2.06-22.88-9.58-43.78-28.11-54.76Z" fill="#402709"/><path d="M668.66,241.69l-4.74,52.59c-3,33.23-32.37,57.75-65.6,54.75l-82.74-7.46c-10.41-.94-19.96-4.47-28.08-9.89c9.44,12.91,24.14,21.89,41.33,23.44l78.95,7.12c31.71,2.86,59.74-20.53,62.6-52.24l6.04-67.01c-2.58-.44-5.17-.86-7.76-1.29Z" opacity="0.7" fill="#2d1a06"/><path d="M669.95,227.33c2.59.43,5.17.85,7.76,1.29l2.73-30.26c1-11.1-1.25-21.73-5.92-30.99.24,3.26.25,6.57-.05,9.93l-4.51,50.03Z" opacity="0.3" fill="#2d1a06"/><path d="M589.9,235.28l-17.25-1.56c-5.57-.5-9.88-5.1-10.02-10.69-.14-5.56,3.89-10.26,9.22-11.14c2.04-5.03,6.66-8.56,12.14-9.14.97-.1,1.96-.11,2.92-.03c6.52.59,11.84,5.42,13.16,11.73c4.6,1.67,7.63,6.27,7.21,11.27-.51,6.05-5.84,10.55-11.89,10.05l-5.5-.5Z" fill="#f9d093"/><path d="M677.98,224.47c-.14-.02-.27-.07-.41-.08-8.29-.75-15.61,5.36-16.36,13.65s5.36,15.61,13.65,16.36c.14.01.28-.01.42,0l2.7-29.92Z" opacity="0.1" fill="#402709"/><path d="M677.98,224.47c-.14-.02-.27-.07-.41-.08-8.29-.75-15.61,5.36-16.36,13.65s5.36,15.61,13.65,16.36c.14.01.28-.01.42,0l2.7-29.92Z" opacity="0.9" fill="#301d07"/><circle r="15.06" transform="translate(676.56 235.56)" fill="#fedda8"/><rect width="6.34" height="32.91" rx="0" ry="0" transform="matrix(.089764-.995963 0.995963 0.089764 647.423926 197.785097)" opacity="0.5" fill="#301d07"/><rect width="6.34" height="161.67" rx="0" ry="0" transform="matrix(.089764-.995963 0.995963 0.089764 486.411029 183.270393)" opacity="0.05" fill="#301d07"/><g opacity="0.4"><g clip-path="url(#eMWQSLcNFm8195)"><g><g><line x1="535.47" y1="355.72" x2="542.65" y2="276.15" opacity="0.6" fill="none" stroke="#664017" stroke-width="5.46" stroke-linecap="round" stroke-miterlimit="10"/><line x1="557.22" y1="357.68" x2="563.29" y2="290.31" opacity="0.6" fill="none" stroke="#664017" stroke-width="5.46" stroke-linecap="round" stroke-miterlimit="10"/><line x1="579.26" y1="359.67" x2="584.42" y2="302.34" opacity="0.6" fill="none" stroke="#664017" stroke-width="5.46" stroke-linecap="round" stroke-miterlimit="10"/></g></g><clipPath id="eMWQSLcNFm8195"><rect width="90.81" height="69.04" rx="0" ry="0" transform="matrix(.089764-.995963 0.995963 0.089764 522.958212 354.681884)" fill="none"/></clipPath></g></g></g><g><circle id="eMWQSLcNFm8198" r="7.24" transform="translate(582.37 220.63)" fill="#140b01"/><circle id="eMWQSLcNFm8199" r="7.24" transform="translate(545.52 217.31)" fill="#140b01"/><g transform="translate(0 0.000001)"><path d="M560.08,204.85c-.17,1.85-1.8,3.21-3.64,3.04l-16.18-1.46c-1.85-.17-3.21-1.8-3.04-3.64v0c.17-1.85,1.8-3.21,3.64-3.04l16.18,1.46c1.85.17,3.21,1.8,3.04,3.64v0Z" opacity="0.1" fill="#301d07"/><path d="M559.02,203.58c-.17,1.85-1.8,3.21-3.64,3.04l-16.18-1.46c-1.85-.17-3.21-1.8-3.04-3.64v0c.17-1.85,1.8-3.21,3.64-3.04l16.18,1.46c1.85.17,3.21,1.8,3.04,3.64v0Z" fill="#402709"/></g><g><path d="M597.66,208.23c-.17,1.85-1.8,3.21-3.64,3.04l-16.18-1.46c-1.85-.17-3.21-1.8-3.04-3.64v0c.17-1.85,1.8-3.21,3.64-3.04l16.18,1.46c1.85.17,3.21,1.8,3.04,3.64v0Z" opacity="0.1" fill="#301d07"/><path d="M596.61,206.97c-.17,1.85-1.8,3.21-3.64,3.04l-16.18-1.46c-1.85-.17-3.21-1.8-3.04-3.64v0c.17-1.85,1.8-3.21,3.64-3.04l16.18,1.46c1.85.17,3.21,1.8,3.04,3.64v0Z" fill="#402709"/></g></g><g><path d="M683.15,223.63l-75.42-7.64c-.84-.09-1.46-.84-1.37-1.68s.84-1.46,1.68-1.37l75.42,7.64c.84.09,1.46.84,1.37,1.68s-.84,1.46-1.68,1.37Z" fill="#2a302f"/><path d="M630.47,219.83l-20.83-2.11c-1.68-.17-2.91-1.67-2.74-3.36.17-1.68,1.67-2.91,3.36-2.74l20.83,2.11c1.68.17,2.91,1.67,2.74,3.36-.17,1.68-1.67,2.91-3.36,2.74Z" fill="#fa7d0f"/><g opacity="0.5"><path d="M558.98,223.07c-.48,4.75-4.36,8.25-8.66,7.81l-21.42-2.17c-4.3-.44-7.4-4.64-6.92-9.39l1.79-17.68l37,3.75-1.79,17.68Z" fill="#bdcfd1" fill-rule="evenodd"/></g><path d="M550.17,232.4l-21.42-2.17c-5.14-.52-8.85-5.48-8.29-11.07l1.79-17.68c.09-.84.84-1.46,1.68-1.37l37,3.75c.84.09,1.46.84,1.37,1.68l-1.79,17.68c-.57,5.58-5.2,9.7-10.34,9.18Zm-25.02-29.08l-1.64,16.15c-.4,3.9,2.09,7.36,5.55,7.71l21.42,2.17c3.45.35,6.59-2.54,6.98-6.44l1.64-16.15-33.95-3.44Z" fill="#2a302f"/><path d="M570.35,215.96l-10.55-1.07c-.84-.09-1.46-.84-1.37-1.68s.84-1.46,1.68-1.37l10.55,1.07c.84.09,1.46.84,1.37,1.68s-.84,1.46-1.68,1.37Z" fill="#2a302f"/><g><g opacity="0.5"><path d="M606.53,227.88c-.48,4.75-4.36,8.25-8.66,7.81l-21.42-2.17c-4.3-.44-7.4-4.64-6.92-9.39l1.79-17.68l37,3.75-1.79,17.68Z" fill="#bdcfd1" fill-rule="evenodd"/></g><path d="M597.71,237.22l-21.42-2.17c-5.14-.52-8.85-5.48-8.29-11.07l1.79-17.68c.09-.84.84-1.46,1.68-1.37l37,3.75c.84.09,1.46.84,1.37,1.68l-1.79,17.68c-.57,5.58-5.2,9.7-10.34,9.18Zm-25.02-29.08l-1.64,16.15c-.4,3.9,2.09,7.36,5.55,7.71l21.42,2.17c3.45.35,6.59-2.54,6.98-6.44l1.64-16.15-33.95-3.44Z" fill="#2a302f"/></g></g><g id="eMWQSLcNFm8217" transform="translate(.000001 0)"><path d="M681.26,188.09c.61-6.73-10.01-48.32-49.23-51.85v-.12c0,0-84.91-7.66-84.91-7.66-25.62-2.31-48.67,13.05-57.35,35.98l-45.56-4.11c-3.5-.32-6.59,2.26-6.91,5.76s2.26,6.59,5.76,6.91l200.41,18.07l30.89,2.78l6.22.56.47-5.22c.1-.36.18-.73.21-1.11Z" fill="#fa7d0f"/><g opacity="0.4"><path d="M579.43,172.53l-80.77-23.54c-3.72,4.59-6.75,9.79-8.9,15.46l89.67,8.08Z" fill="#ff9c24"/></g></g></g></g></g>
<script><![CDATA[
!function(t,e){"object"==typeof exports&&"undefined"!=typeof module?module.exports=e():"function"==typeof define&&define.amd?define(e):((t="undefined"!=typeof globalThis?globalThis:t||self).__SVGATOR_PLAYER__=t.__SVGATOR_PLAYER__||{},t.__SVGATOR_PLAYER__["91c80d77"]=e())}(this,(function(){"use strict";function t(t,e){var n=Object.keys(t);if(Object.getOwnPropertySymbols){var r=Object.getOwnPropertySymbols(t);e&&(r=r.filter((function(e){return Object.getOwnPropertyDescriptor(t,e).enumerable}))),n.push.apply(n,r)}return n}function e(e){for(var n=1;n<arguments.length;n++){var r=null!=arguments[n]?arguments[n]:{};n%2?t(Object(r),!0).forEach((function(t){u(e,t,r[t])})):Object.getOwnPropertyDescriptors?Object.defineProperties(e,Object.getOwnPropertyDescriptors(r)):t(Object(r)).forEach((function(t){Object.defineProperty(e,t,Object.getOwnPropertyDescriptor(r,t))}))}return e}function n(t){return(n="function"==typeof Symbol&&"symbol"==typeof Symbol.iterator?function(t){return typeof t}:function(t){return t&&"function"==typeof Symbol&&t.constructor===Symbol&&t!==Symbol.prototype?"symbol":typeof t})(t)}function r(t,e){if(!(t instanceof e))throw new TypeError("Cannot call a class as a function")}function i(t,e){for(var n=0;n<e.length;n++){var r=e[n];r.enumerable=r.enumerable||!1,r.configurable=!0,"value"in r&&(r.writable=!0),Object.defineProperty(t,r.key,r)}}function o(t,e,n){return e&&i(t.prototype,e),n&&i(t,n),t}function u(t,e,n){return e in t?Object.defineProperty(t,e,{value:n,enumerable:!0,configurable:!0,writable:!0}):t[e]=n,t}function a(t){return(a=Object.setPrototypeOf?Object.getPrototypeOf:function(t){return t.__proto__||Object.getPrototypeOf(t)})(t)}function s(t,e){return(s=Object.setPrototypeOf||function(t,e){return t.__proto__=e,t})(t,e)}function l(){if("undefined"==typeof Reflect||!Reflect.construct)return!1;if(Reflect.construct.sham)return!1;if("function"==typeof Proxy)return!0;try{return Boolean.prototype.valueOf.call(Reflect.construct(Boolean,[],(function(){}))),!0}catch(t){return!1}}function f(t,e,n){return(f=l()?Reflect.construct:function(t,e,n){var r=[null];r.push.apply(r,e);var i=new(Function.bind.apply(t,r));return n&&s(i,n.prototype),i}).apply(null,arguments)}function c(t,e){if(e&&("object"==typeof e||"function"==typeof e))return e;if(void 0!==e)throw new TypeError("Derived constructors may only return object or undefined");return function(t){if(void 0===t)throw new ReferenceError("this hasn't been initialised - super() hasn't been called");return t}(t)}function h(t,e,n){return(h="undefined"!=typeof Reflect&&Reflect.get?Reflect.get:function(t,e,n){var r=function(t,e){for(;!Object.prototype.hasOwnProperty.call(t,e)&&null!==(t=a(t)););return t}(t,e);if(r){var i=Object.getOwnPropertyDescriptor(r,e);return i.get?i.get.call(n):i.value}})(t,e,n||t)}function v(t){return function(t){if(Array.isArray(t))return y(t)}(t)||function(t){if("undefined"!=typeof Symbol&&null!=t[Symbol.iterator]||null!=t["@@iterator"])return Array.from(t)}(t)||function(t,e){if(!t)return;if("string"==typeof t)return y(t,e);var n=Object.prototype.toString.call(t).slice(8,-1);"Object"===n&&t.constructor&&(n=t.constructor.name);if("Map"===n||"Set"===n)return Array.from(t);if("Arguments"===n||/^(?:Ui|I)nt(?:8|16|32)(?:Clamped)?Array$/.test(n))return y(t,e)}(t)||function(){throw new TypeError("Invalid attempt to spread non-iterable instance.\nIn order to be iterable, non-array objects must have a [Symbol.iterator]() method.")}()}function y(t,e){(null==e||e>t.length)&&(e=t.length);for(var n=0,r=new Array(e);n<e;n++)r[n]=t[n];return r}Number.isInteger||(Number.isInteger=function(t){return"number"==typeof t&&isFinite(t)&&Math.floor(t)===t}),Number.EPSILON||(Number.EPSILON=2220446049250313e-31);var d=g(Math.pow(10,-6));function g(t){var e=arguments.length>1&&void 0!==arguments[1]?arguments[1]:6;if(Number.isInteger(t))return t;var n=Math.pow(10,e);return Math.round((+t+Number.EPSILON)*n)/n}function p(t,e){var n=arguments.length>2&&void 0!==arguments[2]?arguments[2]:d;return Math.abs(t-e)<n}var m=Math.PI/180;function b(t){return t}function k(t,e,n){var r=1-n;return 3*n*r*(t*r+e*n)+n*n*n}function w(){var t=arguments.length>0&&void 0!==arguments[0]?arguments[0]:0,e=arguments.length>1&&void 0!==arguments[1]?arguments[1]:0,n=arguments.length>2&&void 0!==arguments[2]?arguments[2]:1,r=arguments.length>3&&void 0!==arguments[3]?arguments[3]:1;return t<0||t>1||n<0||n>1?null:p(t,e)&&p(n,r)?b:function(i){if(i<=0)return t>0?i*e/t:0===e&&n>0?i*r/n:0;if(i>=1)return n<1?1+(i-1)*(r-1)/(n-1):1===n&&t<1?1+(i-1)*(e-1)/(t-1):1;for(var o,u=0,a=1;u<a;){var s=k(t,n,o=(u+a)/2);if(p(i,s))break;s<i?u=o:a=o}return k(e,r,o)}}function x(){return 1}function A(t){return 1===t?1:0}function _(){var t=arguments.length>0&&void 0!==arguments[0]?arguments[0]:1,e=arguments.length>1&&void 0!==arguments[1]?arguments[1]:0;if(1===t){if(0===e)return A;if(1===e)return x}var n=1/t;return function(t){return t>=1?1:(t+=e*n)-t%n}}var O=Math.sin,S=Math.cos,E=Math.acos,P=Math.asin,M=Math.tan,j=Math.atan2,B=Math.PI/180,T=180/Math.PI,I=Math.sqrt,R=function(){function t(){var e=arguments.length>0&&void 0!==arguments[0]?arguments[0]:1,n=arguments.length>1&&void 0!==arguments[1]?arguments[1]:0,i=arguments.length>2&&void 0!==arguments[2]?arguments[2]:0,o=arguments.length>3&&void 0!==arguments[3]?arguments[3]:1,u=arguments.length>4&&void 0!==arguments[4]?arguments[4]:0,a=arguments.length>5&&void 0!==arguments[5]?arguments[5]:0;r(this,t),this.m=[e,n,i,o,u,a],this.i=null,this.w=null,this.s=null}return o(t,[{key:"determinant",get:function(){var t=this.m;return t[0]*t[3]-t[1]*t[2]}},{key:"isIdentity",get:function(){if(null===this.i){var t=this.m;this.i=1===t[0]&&0===t[1]&&0===t[2]&&1===t[3]&&0===t[4]&&0===t[5]}return this.i}},{key:"point",value:function(t,e){var n=this.m;return{x:n[0]*t+n[2]*e+n[4],y:n[1]*t+n[3]*e+n[5]}}},{key:"translateSelf",value:function(){var t=arguments.length>0&&void 0!==arguments[0]?arguments[0]:0,e=arguments.length>1&&void 0!==arguments[1]?arguments[1]:0;if(!t&&!e)return this;var n=this.m;return n[4]+=n[0]*t+n[2]*e,n[5]+=n[1]*t+n[3]*e,this.w=this.s=this.i=null,this}},{key:"rotateSelf",value:function(){var t=arguments.length>0&&void 0!==arguments[0]?arguments[0]:0;if(t%=360){var e=O(t*=B),n=S(t),r=this.m,i=r[0],o=r[1];r[0]=i*n+r[2]*e,r[1]=o*n+r[3]*e,r[2]=r[2]*n-i*e,r[3]=r[3]*n-o*e,this.w=this.s=this.i=null}return this}},{key:"scaleSelf",value:function(){var t=arguments.length>0&&void 0!==arguments[0]?arguments[0]:1,e=arguments.length>1&&void 0!==arguments[1]?arguments[1]:1;if(1!==t||1!==e){var n=this.m;n[0]*=t,n[1]*=t,n[2]*=e,n[3]*=e,this.w=this.s=this.i=null}return this}},{key:"skewSelf",value:function(t,e){if(e%=360,(t%=360)||e){var n=this.m,r=n[0],i=n[1],o=n[2],u=n[3];t&&(t=M(t*B),n[2]+=r*t,n[3]+=i*t),e&&(e=M(e*B),n[0]+=o*e,n[1]+=u*e),this.w=this.s=this.i=null}return this}},{key:"resetSelf",value:function(){var t=arguments.length>0&&void 0!==arguments[0]?arguments[0]:1,e=arguments.length>1&&void 0!==arguments[1]?arguments[1]:0,n=arguments.length>2&&void 0!==arguments[2]?arguments[2]:0,r=arguments.length>3&&void 0!==arguments[3]?arguments[3]:1,i=arguments.length>4&&void 0!==arguments[4]?arguments[4]:0,o=arguments.length>5&&void 0!==arguments[5]?arguments[5]:0,u=this.m;return u[0]=t,u[1]=e,u[2]=n,u[3]=r,u[4]=i,u[5]=o,this.w=this.s=this.i=null,this}},{key:"recomposeSelf",value:function(){var t=arguments.length>0&&void 0!==arguments[0]?arguments[0]:null,e=arguments.length>1&&void 0!==arguments[1]?arguments[1]:null,n=arguments.length>2&&void 0!==arguments[2]?arguments[2]:null,r=arguments.length>3&&void 0!==arguments[3]?arguments[3]:null,i=arguments.length>4&&void 0!==arguments[4]?arguments[4]:null;return this.isIdentity||this.resetSelf(),t&&(t.x||t.y)&&this.translateSelf(t.x,t.y),e&&this.rotateSelf(e),n&&(n.x&&this.skewSelf(n.x,0),n.y&&this.skewSelf(0,n.y)),!r||1===r.x&&1===r.y||this.scaleSelf(r.x,r.y),i&&(i.x||i.y)&&this.translateSelf(i.x,i.y),this}},{key:"decompose",value:function(){var t=arguments.length>0&&void 0!==arguments[0]?arguments[0]:0,e=arguments.length>1&&void 0!==arguments[1]?arguments[1]:0,n=this.m,r=n[0]*n[0]+n[1]*n[1],i=[[n[0],n[1]],[n[2],n[3]]],o=I(r);if(0===o)return{origin:{x:g(n[4]),y:g(n[5])},translate:{x:g(t),y:g(e)},scale:{x:0,y:0},skew:{x:0,y:0},rotate:0};i[0][0]/=o,i[0][1]/=o;var u=n[0]*n[3]-n[1]*n[2]<0;u&&(o=-o);var a=i[0][0]*i[1][0]+i[0][1]*i[1][1];i[1][0]-=i[0][0]*a,i[1][1]-=i[0][1]*a;var s=I(i[1][0]*i[1][0]+i[1][1]*i[1][1]);if(0===s)return{origin:{x:g(n[4]),y:g(n[5])},translate:{x:g(t),y:g(e)},scale:{x:g(o),y:0},skew:{x:0,y:0},rotate:0};i[1][0]/=s,i[1][1]/=s,a/=s;var l=0;return i[1][1]<0?(l=E(i[1][1])*T,i[0][1]<0&&(l=360-l)):l=P(i[0][1])*T,u&&(l=-l),a=j(a,I(i[0][0]*i[0][0]+i[0][1]*i[0][1]))*T,u&&(a=-a),{origin:{x:g(n[4]),y:g(n[5])},translate:{x:g(t),y:g(e)},scale:{x:g(o),y:g(s)},skew:{x:g(a),y:0},rotate:g(l)}}},{key:"clone",value:function(){var t=this.m;return new this.constructor(t[0],t[1],t[2],t[3],t[4],t[5])}},{key:"toString",value:function(){var t=arguments.length>0&&void 0!==arguments[0]?arguments[0]:" ";if(null===this.s){var e=this.m.map((function(t){return g(t)}));1===e[0]&&0===e[1]&&0===e[2]&&1===e[3]?this.s="translate("+e[4]+t+e[5]+")":this.s="matrix("+e.join(t)+")"}return this.s}}],[{key:"create",value:function(t){return t?Array.isArray(t)?f(this,v(t)):t instanceof this?t.clone():(new this).recomposeSelf(t.origin,t.rotate,t.skew,t.scale,t.translate):new this}}]),t}();function N(t,e,n){return t>=.5?n:e}function F(t,e,n){return 0===t||e===n?e:t*(n-e)+e}function C(t,e,n){var r=F(t,e,n);return r<=0?0:r}function L(t,e,n){var r=F(t,e,n);return r<=0?0:r>=1?1:r}function D(t,e,n){return 0===t?e:1===t?n:{x:F(t,e.x,n.x),y:F(t,e.y,n.y)}}function q(t,e,n){return 0===t?e:1===t?n:{x:C(t,e.x,n.x),y:C(t,e.y,n.y)}}function V(t,e,n){var r=function(t,e,n){return Math.round(F(t,e,n))}(t,e,n);return r<=0?0:r>=255?255:r}function z(t,e,n){return 0===t?e:1===t?n:{r:V(t,e.r,n.r),g:V(t,e.g,n.g),b:V(t,e.b,n.b),a:F(t,null==e.a?1:e.a,null==n.a?1:n.a)}}function Y(t,e,n){var r=e.length;if(r!==n.length)return N(t,e,n);for(var i=new Array(r),o=0;o<r;o++)i[o]=F(t,e[o],n[o]);return i}function G(t,e){for(var n=[],r=0;r<t;r++)n.push(e);return n}function U(t,e){if(--e<=0)return t;var n=(t=Object.assign([],t)).length;do{for(var r=0;r<n;r++)t.push(t[r])}while(--e>0);return t}var $,W=function(){function t(e){r(this,t),this.list=e,this.length=e.length}return o(t,[{key:"setAttribute",value:function(t,e){for(var n=this.list,r=0;r<this.length;r++)n[r].setAttribute(t,e)}},{key:"removeAttribute",value:function(t){for(var e=this.list,n=0;n<this.length;n++)e[n].removeAttribute(t)}},{key:"style",value:function(t,e){for(var n=this.list,r=0;r<this.length;r++)n[r].style[t]=e}}]),t}(),H=/-./g,Q=function(t,e){return e.toUpperCase()};function X(t){return"function"==typeof t?t:N}function J(t){return t?"function"==typeof t?t:Array.isArray(t)?function(t){var e=arguments.length>1&&void 0!==arguments[1]?arguments[1]:b;if(!Array.isArray(t))return e;switch(t.length){case 1:return _(t[0])||e;case 2:return _(t[0],t[1])||e;case 4:return w(t[0],t[1],t[2],t[3])||e}return e}(t,null):function(t,e){var n=arguments.length>2&&void 0!==arguments[2]?arguments[2]:b;switch(t){case"linear":return b;case"steps":return _(e.steps||1,e.jump||0)||n;case"bezier":case"cubic-bezier":return w(e.x1||0,e.y1||0,e.x2||0,e.y2||0)||n}return n}(t.type,t.value,null):null}function K(t,e,n){var r=arguments.length>3&&void 0!==arguments[3]&&arguments[3],i=e.length-1;if(t<=e[0].t)return r?[0,0,e[0].v]:e[0].v;if(t>=e[i].t)return r?[i,1,e[i].v]:e[i].v;var o,u=e[0],a=null;for(o=1;o<=i;o++){if(!(t>e[o].t)){a=e[o];break}u=e[o]}return null==a?r?[i,1,e[i].v]:e[i].v:u.t===a.t?r?[o,1,a.v]:a.v:(t=(t-u.t)/(a.t-u.t),u.e&&(t=u.e(t)),r?[o,t,n(t,u.v,a.v)]:n(t,u.v,a.v))}function Z(t,e){var n=arguments.length>2&&void 0!==arguments[2]?arguments[2]:null;return t&&t.length?"function"!=typeof e?null:("function"!=typeof n&&(n=null),function(r){var i=K(r,t,e);return null!=i&&n&&(i=n(i)),i}):null}function tt(t,e){return t.t-e.t}function et(t,e,r,i,o){var u,a="@"===r[0],s="#"===r[0],l=$[r],f=N;switch(a?(u=r.substr(1),r=u.replace(H,Q)):s&&(r=r.substr(1)),n(l)){case"function":if(f=l(i,o,K,J,r,a,e,t),s)return f;break;case"string":f=Z(i,X(l));break;case"object":if((f=Z(i,X(l.i),l.f))&&"function"==typeof l.u)return l.u(e,f,r,a,t)}return f?function(t,e,n){if(arguments.length>3&&void 0!==arguments[3]&&arguments[3])return t instanceof W?function(r){return t.style(e,n(r))}:function(r){return t.style[e]=n(r)};if(Array.isArray(e)){var r=e.length;return function(i){var o=n(i);if(null==o)for(var u=0;u<r;u++)t[u].removeAttribute(e);else for(var a=0;a<r;a++)t[a].setAttribute(e,o)}}return function(r){var i=n(r);null==i?t.removeAttribute(e):t.setAttribute(e,i)}}(e,r,f,a):null}function nt(t,e,r,i){if(!i||"object"!==n(i))return null;var o=null,u=null;return Array.isArray(i)?u=function(t){if(!t||!t.length)return null;for(var e=0;e<t.length;e++)t[e].e&&(t[e].e=J(t[e].e));return t.sort(tt)}(i):(u=i.keys,o=i.data||null),u?et(t,e,r,u,o):null}function rt(t,e,n){if(!n)return null;var r=[];for(var i in n)if(n.hasOwnProperty(i)){var o=nt(t,e,i,n[i]);o&&r.push(o)}return r.length?r:null}function it(t,e){if(!e.settings.duration||e.settings.duration<0)return null;var n,r,i,o,u,a=function(t,e){if(!e)return null;var n=[];if(Array.isArray(e))for(var r=e.length,i=0;i<r;i++){var o=e[i];if(2===o.length){var u=null;if("string"==typeof o[0])u=t.getElementById(o[0]);else if(Array.isArray(o[0])){u=[];for(var a=0;a<o[0].length;a++)if("string"==typeof o[0][a]){var s=t.getElementById(o[0][a]);s&&u.push(s)}u=u.length?1===u.length?u[0]:new W(u):null}if(u){var l=rt(t,u,o[1]);l&&(n=n.concat(l))}}}else for(var f in e)if(e.hasOwnProperty(f)){var c=t.getElementById(f);if(c){var h=rt(t,c,e[f]);h&&(n=n.concat(h))}}return n.length?n:null}(t,e.elements);return a?(n=a,r=e.settings,i=r.duration,o=n.length,u=null,function(t,e){var a=r.iterations||1/0,s=(r.alternate&&a%2==0)^r.direction>0?i:0,l=t%i,f=1+(t-l)/i;e*=r.direction,r.alternate&&f%2==0&&(e=-e);var c=!1;if(f>a)l=s,c=!0,-1===r.fill&&(l=r.direction>0?0:i);else if(e<0&&(l=i-l),l===u)return!1;u=l;for(var h=0;h<o;h++)n[h](l);return c}):null}function ot(t,e){if($=e,!t||!t.root||!Array.isArray(t.animations))return null;var n=function(t){for(var e=document.getElementsByTagName("svg"),n=0;n<e.length;n++)if(e[n].id===t.root&&!e[n].svgatorAnimation)return e[n].svgatorAnimation=!0,e[n];return null}(t);if(!n)return null;var r=t.animations.map((function(t){return it(n,t)})).filter((function(t){return!!t}));return r.length?{svg:n,animations:r,animationSettings:t.animationSettings,options:t.options||void 0}:null}function ut(t){return+("0x"+(t.replace(/[^0-9a-fA-F]+/g,"")||27))}function at(t,e,n){return!t||!n||e>t.length?t:t.substring(0,e)+at(t.substring(e+1),n,n)}function st(t){var e=arguments.length>1&&void 0!==arguments[1]?arguments[1]:27;return!t||t%e?t%e:st(t/e,e)}function lt(t,e,n){if(t&&t.length){var r=ut(n),i=ut(e),o=st(r)+5,u=at(t,st(r,5),o);return u=u.replace(/\x7c$/g,"==").replace(/\x2f$/g,"="),u=function(t,e,n){var r=+("0x"+t.substring(0,4));t=t.substring(4);for(var i=e%r+n%27,o=[],u=0;u<t.length;u+=2)if("|"!==t[u]){var a=+("0x"+t[u]+t[u+1])-i;o.push(a)}else{var s=+("0x"+t.substring(u+1,u+1+4))-i;u+=3,o.push(s)}return String.fromCharCode.apply(String,o)}(u=(u=atob(u)).replace(/[\x41-\x5A]/g,""),i,r),u=JSON.parse(u)}}var ft=[{key:"alternate",def:!1},{key:"fill",def:1},{key:"iterations",def:0},{key:"direction",def:1},{key:"speed",def:1},{key:"fps",def:100}],ct=function(){function t(e,n){var i=this,o=arguments.length>2&&void 0!==arguments[2]?arguments[2]:null;r(this,t),this._id=0,this._running=!1,this._rollingBack=!1,this._animations=e,this._settings=n,(!o||o<"2022-05-02")&&delete this._settings.speed,ft.forEach((function(t){i._settings[t.key]=i._settings[t.key]||t.def})),this.duration=n.duration,this.offset=n.offset||0,this.rollbackStartOffset=0}return o(t,[{key:"alternate",get:function(){return this._settings.alternate}},{key:"fill",get:function(){return this._settings.fill}},{key:"iterations",get:function(){return this._settings.iterations}},{key:"direction",get:function(){return this._settings.direction}},{key:"speed",get:function(){return this._settings.speed}},{key:"fps",get:function(){return this._settings.fps}},{key:"maxFiniteDuration",get:function(){return this.iterations>0?this.iterations*this.duration:this.duration}},{key:"_apply",value:function(t){for(var e=arguments.length>1&&void 0!==arguments[1]?arguments[1]:{},n=this._animations,r=n.length,i=0,o=0;o<r;o++)e[o]?i++:(e[o]=n[o](t,1),e[o]&&i++);return i}},{key:"_rollback",value:function(t){var e=this,n=1/0,r=null;this.rollbackStartOffset=t,this._rollingBack=!0,this._running=!0;this._id=window.requestAnimationFrame((function i(o){if(e._rollingBack){null==r&&(r=o);var u=Math.round(t-(o-r)*e.speed);if(u>e.duration&&n!==1/0){var a=!!e.alternate&&u/e.duration%2>1,s=u%e.duration;u=(s+=a?e.duration:0)||e.duration}var l=(e.fps?1e3/e.fps:0)*e.speed,f=Math.max(0,u);f<n-l&&(e.offset=f,n=f,e._apply(f));var c=e.iterations>0&&-1===e.fill&&u>=e.maxFiniteDuration;(u<=0||e.offset<u||c)&&e.stop(),e._id=window.requestAnimationFrame(i)}}))}},{key:"_start",value:function(){var t=this,e=arguments.length>0&&void 0!==arguments[0]?arguments[0]:0,n=-1/0,r=null,i={};this._running=!0;var o=function o(u){null==r&&(r=u);var a=Math.round((u-r)*t.speed+e),s=(t.fps?1e3/t.fps:0)*t.speed;if(a>n+s&&!t._rollingBack&&(t.offset=a,n=a,t._apply(a,i)===t._animations.length))return void t.pause(!0);t._id=window.requestAnimationFrame(o)};this._id=window.requestAnimationFrame(o)}},{key:"_pause",value:function(){this._id&&window.cancelAnimationFrame(this._id),this._running=!1}},{key:"play",value:function(){if(!this._running)return this._rollingBack?this._rollback(this.offset):this._start(this.offset)}},{key:"stop",value:function(){this._pause(),this.offset=0,this.rollbackStartOffset=0,this._rollingBack=!1,this._apply(0)}},{key:"reachedToEnd",value:function(){return this.iterations>0&&this.offset>=this.iterations*this.duration}},{key:"restart",value:function(){var t=arguments.length>0&&void 0!==arguments[0]&&arguments[0];this.stop(t),this.play(t)}},{key:"pause",value:function(){this._pause()}},{key:"reverse",value:function(){this.direction=-this.direction}}],[{key:"build",value:function(t,e){delete t.animationSettings,t.options=lt(t.options,t.root,"91c80d77"),t.animations.map((function(e){e.settings=lt(e.s,t.root,"91c80d77"),delete e.s,t.animationSettings||(t.animationSettings=e.settings)}));var n=t.version;if(!(t=ot(t,e)))return null;var r=t.options||{},i=new this(t.animations,t.animationSettings,n);return{el:t.svg,options:r,player:i}}},{key:"push",value:function(t){return this.build(t)}},{key:"init",value:function(){var t=this,e=window.__SVGATOR_PLAYER__&&window.__SVGATOR_PLAYER__["91c80d77"];Array.isArray(e)&&e.splice(0).forEach((function(e){return t.build(e)}))}}]),t}();!function(){for(var t=0,e=["ms","moz","webkit","o"],n=0;n<e.length&&!window.requestAnimationFrame;++n)window.requestAnimationFrame=window[e[n]+"RequestAnimationFrame"],window.cancelAnimationFrame=window[e[n]+"CancelAnimationFrame"]||window[e[n]+"CancelRequestAnimationFrame"];window.requestAnimationFrame||(window.requestAnimationFrame=function(e){var n=Date.now(),r=Math.max(0,16-(n-t)),i=window.setTimeout((function(){e(n+r)}),r);return t=n+r,i},window.cancelAnimationFrame=window.clearTimeout)}();var ht=function(t,e){var n=!1,r=null;return function(i){n&&clearTimeout(n),n=setTimeout((function(){return function(){for(var i=0,o=window.innerHeight,u=0,a=window.innerWidth,s=t.parentNode;s instanceof Element;){var l=window.getComputedStyle(s);if("visible"!==l.overflowY||"visible"!==l.overflowX){var f=s.getBoundingClientRect();"visible"!==l.overflowY&&(i=Math.max(i,f.top),o=Math.min(o,f.bottom)),"visible"!==l.overflowX&&(u=Math.max(u,f.left),a=Math.min(a,f.right))}if(s===s.parentNode)break;s=s.parentNode}n=!1;var c=t.getBoundingClientRect(),h=Math.min(c.height,Math.max(0,i-c.top)),v=Math.min(c.height,Math.max(0,c.bottom-o)),y=Math.min(c.width,Math.max(0,u-c.left)),d=Math.min(c.width,Math.max(0,c.right-a)),g=(c.height-h-v)/c.height,p=(c.width-y-d)/c.width,m=Math.round(g*p*100);null!==r&&r===m||(r=m,e(m))}()}),100)}},vt=function(){function t(e,n,i){r(this,t),n=Math.max(1,n||1),n=Math.min(n,100),this.el=e,this._handlers=[],this.onThresholdChange=i&&i.call?i:function(){},this.thresholdPercent=n||1,this.currentVisibility=null,this.visibilityCalculator=ht(e,this.onVisibilityUpdate.bind(this)),this.bindScrollWatchers(),this.visibilityCalculator()}return o(t,[{key:"bindScrollWatchers",value:function(){for(var t=this.el.parentNode;t&&(this._handlers.push({element:t,event:"scroll",handler:this.visibilityCalculator}),t.addEventListener("scroll",this.visibilityCalculator),t!==t.parentNode&&t!==document);)t=t.parentNode}},{key:"onVisibilityUpdate",value:function(t){var e=this.currentVisibility>=this.thresholdPercent,n=t>=this.thresholdPercent;if(null===this.currentVisibility||e!==n)return this.currentVisibility=t,void this.onThresholdChange(n);this.currentVisibility=t}},{key:"destruct",value:function(){this._handlers.forEach((function(t){t.element.removeEventListener(t.event,t.handler)}))}}]),t}();function yt(t){return g(t)+""}function dt(t){var e=arguments.length>1&&void 0!==arguments[1]?arguments[1]:" ";return t&&t.length?t.map(yt).join(e):""}function gt(t){return yt(t.x)+","+yt(t.y)}function pt(t){if(!t)return"transparent";if(null==t.a||t.a>=1){var e=function(t){return 1===(t=parseInt(t).toString(16)).length?"0"+t:t},n=function(t){return t.charAt(0)===t.charAt(1)},r=e(t.r),i=e(t.g),o=e(t.b);return n(r)&&n(i)&&n(o)&&(r=r.charAt(0),i=i.charAt(0),o=o.charAt(0)),"#"+r+i+o}return"rgba("+t.r+","+t.g+","+t.b+","+t.a+")"}function mt(t){return t?"url(#"+t+")":"none"}var bt={f:null,i:q,u:function(t,e){return function(n){var r=e(n);t.setAttribute("rx",yt(r.x)),t.setAttribute("ry",yt(r.y))}}},kt={f:null,i:function(t,e,n){return 0===t?e:1===t?n:{width:C(t,e.width,n.width),height:C(t,e.height,n.height)}},u:function(t,e){return function(n){var r=e(n);t.setAttribute("width",yt(r.width)),t.setAttribute("height",yt(r.height))}}};Object.freeze({M:2,L:2,Z:0,H:1,V:1,C:6,Q:4,T:2,S:4,A:7});var wt={},xt=null;function At(t){var e=function(){if(xt)return xt;if("object"!==("undefined"==typeof document?"undefined":n(document))||!document.createElementNS)return{};var t=document.createElementNS("http://www.w3.org/2000/svg","svg");return t&&t.style?(t.style.position="absolute",t.style.opacity="0.01",t.style.zIndex="-9999",t.style.left="-9999px",t.style.width="1px",t.style.height="1px",xt={svg:t}):{}}().svg;if(!e)return function(t){return null};var r=document.createElementNS(e.namespaceURI,"path");r.setAttributeNS(null,"d",t),r.setAttributeNS(null,"fill","none"),r.setAttributeNS(null,"stroke","none"),e.appendChild(r);var i=r.getTotalLength();return function(t){var e=r.getPointAtLength(i*t);return{x:e.x,y:e.y}}}function _t(t){return wt[t]?wt[t]:wt[t]=At(t)}function Ot(t,e,n,r){if(!t||!r)return!1;var i=["M",t.x,t.y];if(e&&n&&(i.push("C"),i.push(e.x),i.push(e.y),i.push(n.x),i.push(n.y)),e?!n:n){var o=e||n;i.push("Q"),i.push(o.x),i.push(o.y)}return e||n||i.push("L"),i.push(r.x),i.push(r.y),i.join(" ")}function St(t,e,n,r){var i=arguments.length>4&&void 0!==arguments[4]?arguments[4]:1,o=Ot(t,e,n,r),u=_t(o);try{return u(i)}catch(t){return null}}function Et(t,e,n){return t+(e-t)*n}function Pt(t,e,n){var r=arguments.length>3&&void 0!==arguments[3]&&arguments[3],i={x:Et(t.x,e.x,n),y:Et(t.y,e.y,n)};return r&&(i.a=Mt(t,e)),i}function Mt(t,e){return Math.atan2(e.y-t.y,e.x-t.x)}function jt(t,e,n,r){var i=1-r;return i*i*t+2*i*r*e+r*r*n}function Bt(t,e,n,r){return 2*(1-r)*(e-t)+2*r*(n-e)}function Tt(t,e,n,r){var i=arguments.length>4&&void 0!==arguments[4]&&arguments[4],o=St(t,e,null,n,r);return o||(o={x:jt(t.x,e.x,n.x,r),y:jt(t.y,e.y,n.y,r)}),i&&(o.a=It(t,e,n,r)),o}function It(t,e,n,r){return Math.atan2(Bt(t.y,e.y,n.y,r),Bt(t.x,e.x,n.x,r))}function Rt(t,e,n,r,i){var o=i*i;return i*o*(r-t+3*(e-n))+3*o*(t+n-2*e)+3*i*(e-t)+t}function Nt(t,e,n,r,i){var o=1-i;return 3*(o*o*(e-t)+2*o*i*(n-e)+i*i*(r-n))}function Ft(t,e,n,r,i){var o=arguments.length>5&&void 0!==arguments[5]&&arguments[5],u=St(t,e,n,r,i);return u||(u={x:Rt(t.x,e.x,n.x,r.x,i),y:Rt(t.y,e.y,n.y,r.y,i)}),o&&(u.a=Ct(t,e,n,r,i)),u}function Ct(t,e,n,r,i){return Math.atan2(Nt(t.y,e.y,n.y,r.y,i),Nt(t.x,e.x,n.x,r.x,i))}function Lt(t,e,n){var r=arguments.length>3&&void 0!==arguments[3]&&arguments[3];if(qt(e)){if(Vt(n))return Tt(e,n.start,n,t,r)}else if(qt(n)){if(zt(e))return Tt(e,e.end,n,t,r)}else{if(zt(e))return Vt(n)?Ft(e,e.end,n.start,n,t,r):Tt(e,e.end,n,t,r);if(Vt(n))return Tt(e,n.start,n,t,r)}return Pt(e,n,t,r)}function Dt(t,e,n){var r=Lt(t,e,n,!0);return r.a=function(t){return arguments.length>1&&void 0!==arguments[1]&&arguments[1]?t+Math.PI:t}(r.a)/m,r}function qt(t){return!t.type||"corner"===t.type}function Vt(t){return null!=t.start&&!qt(t)}function zt(t){return null!=t.end&&!qt(t)}var Yt=new R;var Gt={f:function(t){return t?t.join(" "):""},i:function(t,e,r){if(0===t)return e;if(1===t)return r;var i=e.length;if(i!==r.length)return N(t,e,r);for(var o,u=new Array(i),a=0;a<i;a++){if((o=n(e[a]))!==n(r[a]))return N(t,e,r);if("number"===o)u[a]=F(t,e[a],r[a]);else{if(e[a]!==r[a])return N(t,e,r);u[a]=e[a]}}return u}},Ut={f:null,i:Y,u:function(t,e){return function(n){var r=e(n);t.setAttribute("x1",yt(r[0])),t.setAttribute("y1",yt(r[1])),t.setAttribute("x2",yt(r[2])),t.setAttribute("y2",yt(r[3]))}}},$t={f:yt,i:F},Wt={f:yt,i:L},Ht={f:function(t){var e=arguments.length>1&&void 0!==arguments[1]?arguments[1]:" ";return t&&t.length>0&&(t=t.map((function(t){return g(t,4)}))),dt(t,e)},i:function(t,e,n){var r,i,o,u=e.length,a=n.length;if(u!==a)if(0===u)e=G(u=a,0);else if(0===a)a=u,n=G(u,0);else{var s=(o=(r=u)*(i=a)/function(t,e){for(var n;e;)n=e,e=t%e,t=n;return t||1}(r,i))<0?-o:o;e=U(e,Math.floor(s/u)),n=U(n,Math.floor(s/a)),u=a=s}for(var l=[],f=0;f<u;f++)l.push(g(C(t,e[f],n[f])));return l}};function Qt(t,e,n){return t.map((function(t){return function(t,e,n){var r=t.v;if(!r||"g"!==r.t||r.s||!r.v||!r.r)return t;var i=n.getElementById(r.r),o=i&&i.querySelectorAll("stop")||[];return r.s=r.v.map((function(t,e){var n=o[e]&&o[e].getAttribute("offset");return{c:t,o:n=g(parseInt(n)/100)}})),delete r.v,t}(t,0,n)}))}var Xt={gt:"gradientTransform",c:{x:"cx",y:"cy"},rd:"r",f:{x:"x1",y:"y1"},to:{x:"x2",y:"y2"}};function Jt(t,e,r,i,o,u,a,s){return Qt(t,0,s),e=function(t,e,n){for(var r,i,o,u=t.length-1,a={},s=0;s<=u;s++)(r=t[s]).e&&(r.e=e(r.e)),r.v&&"g"===(i=r.v).t&&i.r&&(o=n.getElementById(i.r))&&(a[i.r]={e:o,s:o.querySelectorAll("stop")});return a}(t,i,s),function(i){var o=r(i,t,Kt);if(!o)return"none";if("c"===o.t)return pt(o.v);if("g"===o.t){if(!e[o.r])return mt(o.r);var u=e[o.r];return function(t,e){for(var n=t.s,r=n.length;r<e.length;r++){var i=n[n.length-1].cloneNode();i.id=ee(i.id),t.e.appendChild(i),n=t.s=t.e.querySelectorAll("stop")}for(var o=0,u=n.length,a=e.length-1;o<u;o++)n[o].setAttribute("stop-color",pt(e[Math.min(o,a)].c)),n[o].setAttribute("offset",e[Math.min(o,a)].o)}(u,o.s),Object.keys(Xt).forEach((function(t){if(void 0!==o[t])if("object"!==n(Xt[t])){var e,r="gt"===t?(e=o[t],Array.isArray(e)?"matrix("+e.join(" ")+")":""):o[t],i=Xt[t];u.e.setAttribute(i,r)}else Object.keys(Xt[t]).forEach((function(e){if(void 0!==o[t][e]){var n=o[t][e],r=Xt[t][e];u.e.setAttribute(r,n)}}))})),mt(o.r)}return"none"}}function Kt(t,n,r){if(0===t)return n;if(1===t)return r;if(n&&r){var i=n.t;if(i===r.t)switch(n.t){case"c":return{t:i,v:z(t,n.v,r.v)};case"g":if(n.r===r.r){var o={t:i,s:Zt(t,n.s,r.s),r:n.r};return n.gt&&r.gt&&(o.gt=Y(t,n.gt,r.gt)),n.c?(o.c=D(t,n.c,r.c),o.rd=C(t,n.rd,r.rd)):n.f&&(o.f=D(t,n.f,r.f),o.to=D(t,n.to,r.to)),o}}if("c"===n.t&&"g"===r.t||"c"===r.t&&"g"===n.t){var u="c"===n.t?n:r,a="g"===n.t?e({},n):e({},r),s=a.s.map((function(t){return{c:u.v,o:t.o}}));return a.s="c"===n.t?Zt(t,s,a.s):Zt(t,a.s,s),a}}return N(t,n,r)}function Zt(t,e,n){if(e.length===n.length)return e.map((function(e,r){return te(t,e,n[r])}));for(var r=Math.max(e.length,n.length),i=[],o=0;o<r;o++){var u=te(t,e[Math.min(o,e.length-1)],n[Math.min(o,n.length-1)]);i.push(u)}return i}function te(t,e,n){return{o:L(t,e.o,n.o||0),c:z(t,e.c,n.c||{})}}function ee(t){return t.replace(/-fill-([0-9]+)$/,(function(t,e){return"-fill-"+(+e+1)}))}var ne={blur:q,brightness:C,contrast:C,"drop-shadow":function(t,e,n){return 0===t?e:1===t?n:{blur:q(t,e.blur,n.blur),offset:D(t,e.offset,n.offset),color:z(t,e.color,n.color)}},grayscale:C,"hue-rotate":F,invert:C,opacity:C,saturate:C,sepia:C};function re(t,e,n){if(0===t)return e;if(1===t)return n;var r=e.length;if(r!==n.length)return N(t,e,n);for(var i,o=[],u=0;u<r;u++){if(e[u].type!==n[u].type)return e;if(!(i=ne[e[u].type]))return N(t,e,n);o.push({type:e.type,value:i(t,e[u].value,n[u].value)})}return o}var ie={blur:function(t){return t?function(e){t.setAttribute("stdDeviation",gt(e))}:null},brightness:function(t,e,n){return(t=ue(n,e))?function(e){e=yt(e),t.map((function(t){return t.setAttribute("slope",e)}))}:null},contrast:function(t,e,n){return(t=ue(n,e))?function(e){var n=yt((1-e)/2);e=yt(e),t.map((function(t){t.setAttribute("slope",e),t.setAttribute("intercept",n)}))}:null},"drop-shadow":function(t,e,n){var r=n.getElementById(e+"-blur");if(!r)return null;var i=n.getElementById(e+"-offset");if(!i)return null;var o=n.getElementById(e+"-flood");return o?function(t){r.setAttribute("stdDeviation",gt(t.blur)),i.setAttribute("dx",yt(t.offset.x)),i.setAttribute("dy",yt(t.offset.y)),o.setAttribute("flood-color",pt(t.color))}:null},grayscale:function(t){return t?function(e){t.setAttribute("values",dt(function(t){return[.2126+.7874*(t=1-t),.7152-.7152*t,.0722-.0722*t,0,0,.2126-.2126*t,.7152+.2848*t,.0722-.0722*t,0,0,.2126-.2126*t,.7152-.7152*t,.0722+.9278*t,0,0,0,0,0,1,0]}(e)))}:null},"hue-rotate":function(t){return t?function(e){return t.setAttribute("values",yt(e))}:null},invert:function(t,e,n){return(t=ue(n,e))?function(e){e=yt(e)+" "+yt(1-e),t.map((function(t){return t.setAttribute("tableValues",e)}))}:null},opacity:function(t,e,n){return(t=n.getElementById(e+"-A"))?function(e){return t.setAttribute("tableValues","0 "+yt(e))}:null},saturate:function(t){return t?function(e){return t.setAttribute("values",yt(e))}:null},sepia:function(t){return t?function(e){return t.setAttribute("values",dt(function(t){return[.393+.607*(t=1-t),.769-.769*t,.189-.189*t,0,0,.349-.349*t,.686+.314*t,.168-.168*t,0,0,.272-.272*t,.534-.534*t,.131+.869*t,0,0,0,0,0,1,0]}(e)))}:null}};var oe=["R","G","B"];function ue(t,e){var n=oe.map((function(n){return t.getElementById(e+"-"+n)||null}));return-1!==n.indexOf(null)?null:n}var ae={fill:Jt,"fill-opacity":Wt,stroke:Jt,"stroke-opacity":Wt,"stroke-width":$t,"stroke-dashoffset":{f:yt,i:F},"stroke-dasharray":Ht,opacity:Wt,transform:function(t,e,r,i){if(!(t=function(t,e){if(!t||"object"!==n(t))return null;var r=!1;for(var i in t)t.hasOwnProperty(i)&&(t[i]&&t[i].length?(t[i].forEach((function(t){t.e&&(t.e=e(t.e))})),r=!0):delete t[i]);return r?t:null}(t,i)))return null;var o=function(n,i,o){var u=arguments.length>3&&void 0!==arguments[3]?arguments[3]:null;return t[n]?r(i,t[n],o):e&&e[n]?e[n]:u};return e&&e.a&&t.o?function(e){var n=r(e,t.o,Dt);return Yt.recomposeSelf(n,o("r",e,F,0)+n.a,o("k",e,D),o("s",e,D),o("t",e,D)).toString()}:function(t){return Yt.recomposeSelf(o("o",t,Lt,null),o("r",t,F,0),o("k",t,D),o("s",t,D),o("t",t,D)).toString()}},"#filter":function(t,e,n,r,i,o,u,a){if(!e.items||!t||!t.length)return null;var s=function(t,e){var n=(t=t.map((function(t){return t&&ie[t[0]]?(e.getElementById(t[1]),ie[t[0]](e.getElementById(t[1]),t[1],e)):null}))).length;return function(e){for(var r=0;r<n;r++)t[r]&&t[r](e[r].value)}}(e.items,a);return s?(t=function(t,e){return t.map((function(t){return t.e=e(t.e),t}))}(t,r),function(e){s(n(e,t,re))}):null},"#line":Ut,points:{f:dt,i:Y},d:Gt,r:$t,"#size":kt,"#radius":bt,_:function(t,e){if(Array.isArray(t))for(var n=0;n<t.length;n++)this[t[n]]=e;else this[t]=e}},se={currentTime:"offset",duration:"duration",hasEnded:function(){return this.reachedToEnd()},isAlternate:"alternate",isPlaying:"_running",isRollingBack:"_rollingBack",state:function(t,e){return e.isPlaying?e.isRollingBack?"rollback":"playing":e.hasEnded?"ended":"paused"},totalTime:"maxFiniteDuration",iterations:"iterations",direction:"direction",fill:"fill",isReversed:function(t,e){return-1===e.direction},isBackwards:function(t,e){return-1===e.fill},isInfinite:function(t,e){return 0===e.iterations},speed:"speed",fps:"fps"},le={destruct:"destruct",pause:"pause",play:function(t,e){return fe(t,e.hasEnded?"restart":"play",e)},restart:"restart",reverse:function(t,e){return fe(t,"reverse",e,[!0])},seek:"seek",seekBy:"seekBy",seekTo:"seekTo",stop:"stop",toggle:"toggle",togglePlay:"toggle",set:"set"};function fe(t,e,n){var r=arguments.length>3&&void 0!==arguments[3]?arguments[3]:[];return function(){var i,o=Array.prototype.slice.call(arguments);return o.unshift.apply(o,v(r)),(i=t[e]).call.apply(i,[t].concat(v(o))),n}}var ce=function t(e){r(this,t);var n={},i=["on","off"],o={get:function(t,e,r){return se[e]?"function"==typeof se[e]?se[e].call(t,t,r):t[se[e]]:le[e]?"function"==typeof le[e]?le[e].call(t,t,r):fe(t,le[e],r):-1!==i.indexOf(e)?n[e]:"ready"===e?function(t){return t&&t.call(r,r),r}:void 0},set:function(t,e,r){return-1!==i.indexOf(e)&&(n[e]=r)},ownKeys:function(t){return Object.keys(se)},has:function(t,e){return void 0!==se[e]}};if("function"==typeof Proxy)return new Proxy(e,o);var u=Object.keys(se).concat(Object.keys(le)).concat(i),a={};return u.forEach((function(t){var n={enumerable:!1,configurable:!1,get:function(){return o.get(e,t,a)}};-1!==i.indexOf(t)&&(n.set=function(n){return o.set(e,t,n)}),Object.defineProperty(a,t,n)})),a};function he(t){t||(t=this);var e={};this.on=function(t,n){var r=arguments.length>2&&void 0!==arguments[2]&&arguments[2];return"function"==typeof n&&(t.split(/[, ]+/g).forEach((function(t){return e[t]=e[t]||[],r?e[t].unshift(n):e[t].push(n)})),!0)},this.off=function(t,n){for(var r in e)if(e.hasOwnProperty(r)&&r.substr(0,t.length)===t)if(n)for(var i=0;i<e[r].length;i++)e[r][i]===n&&(e[r][i]=null);else e[r]=null},this.trigger=function(){var n,r=Array.prototype.slice.call(arguments),i=r[0],o=r.slice(1);t:for(var u in e)if(e.hasOwnProperty(u)&&e[u]&&(u===i||u.substr(0,i.length+1)===i+"."))for(var a=0;a<e[u].length;a++)if(e[u][a]&&!1===(n=e[u][a].apply(t,o)))break t;return n}}var ve=!0,ye=["iterations","speed","fps","direction","fill","alternate"],de=function(t){!function(t,e){if("function"!=typeof e&&null!==e)throw new TypeError("Super expression must either be null or a function");t.prototype=Object.create(e&&e.prototype,{constructor:{value:t,writable:!0,configurable:!0}}),e&&s(t,e)}(u,t);var e,n,i=(e=u,n=l(),function(){var t,r=a(e);if(n){var i=a(this).constructor;t=Reflect.construct(r,arguments,i)}else t=r.apply(this,arguments);return c(this,t)});function u(t,e){var n,o=arguments.length>2&&void 0!==arguments[2]?arguments[2]:null;return r(this,u),(n=i.call(this,t,e,o))._handlers=[],n}return o(u,[{key:"_adjustOffset",value:function(){var t=arguments.length>0&&void 0!==arguments[0]&&arguments[0],e=this.alternate?2*this.duration:this.duration;if(t){if(!this._rollingBack&&0===this.offset)return void(this.offset=e);this._rollingBack&&(this.offset,this.maxFiniteDuration)}!this._rollingBack||this.rollbackStartOffset<=this.duration?0!==this.iterations&&(this.offset=Math.min(this.offset,this.maxFiniteDuration)):(this.offset=this.rollbackStartOffset-(this.rollbackStartOffset-this.offset)%e,this.rollbackStartOffset=0)}},{key:"reverse",value:function(){var t=arguments.length>0&&void 0!==arguments[0]&&arguments[0];if(!this._running)return this._adjustOffset(t),this._rollingBack=!this._rollingBack,t&&this.play(!1),void this.trigger("reverse",this.offset);this.pause(!1,!1),this._adjustOffset(),this._rollingBack=!this._rollingBack,this.play(!1),this.trigger("reverse",this.offset)}},{key:"play",value:function(){var t=arguments.length>0&&void 0!==arguments[0]?arguments[0]:ve,e=h(a(u.prototype),"play",this).call(this);return t===ve&&this.trigger("play",this.offset),e}},{key:"pause",value:function(){var t=arguments.length>0&&void 0!==arguments[0]&&arguments[0],e=arguments.length>1&&void 0!==arguments[1]?arguments[1]:ve,n=h(a(u.prototype),"pause",this).call(this);return e===ve&&this.trigger(t?"end":"pause",this.offset),n}},{key:"restart",value:function(){var t=h(a(u.prototype),"restart",this).call(this,!1);return this.trigger("restart",this.offset),t}},{key:"stop",value:function(){var t=arguments.length>0&&void 0!==arguments[0]?arguments[0]:ve,e=h(a(u.prototype),"stop",this).call(this);return t===ve&&this.trigger("stop",this.offset),e}},{key:"_apply",value:function(t){var e=this,n=arguments.length>2&&void 0!==arguments[2]?arguments[2]:ve,r=h(a(u.prototype),"_apply",this).call(this,t);if(n===ve){var i=function(){return e.trigger("keyframe",t)};window.requestAnimationFrame(i)}return r}},{key:"seekTo",value:function(t){var e,n,r,i=this._running;i&&this.pause(!1,!1),this.offset=this.iterations>0?(e=t,n=0,r=this.maxFiniteDuration,e<n?n:e>r?r:e):Math.max(t,0),this._apply(this.offset),i&&this.play(!1)}},{key:"seek",value:function(t){return this.seekTo(Math.round(t/100*this.maxFiniteDuration))}},{key:"seekBy",value:function(t){return this.seekTo(this.offset+t)}},{key:"toggle",value:function(){return this._running?this.pause():this.reachedToEnd()?this.restart():this.play()}},{key:"set",value:function(t,e){if(ye.includes(t)){var n=this._running;n&&this.pause(!1,!1),this._settings[t]=e,n?this.play(!1):this._apply(this.offset,{},!1)}}},{key:"destruct",value:function(){var t=this;this.stop(),this._handlers.forEach((function(t){t.element?t.element.removeEventListener(t.event,t.handler):t.callback&&t.callback.call&&t.callback.call()}));var e=function(){},n=Object.getOwnPropertyNames(Object.getPrototypeOf(this));n.push.apply(n,v(Object.getOwnPropertyNames(this))),n.forEach((function(n){"function"==typeof t[n]?t[n]=e:delete t[n]}))}}],[{key:"build",value:function(t){var e=h(a(u),"build",this).call(this,t,ae);if(!e)return null;var n=e.el,r=e.options,i=e.player,o=new ce(i),s=new he(o);o.on=s.on,o.off=s.off,i.trigger=s.trigger;var l=n.svgatorPlayer&&n.svgatorPlayer.ready&&n.svgatorPlayer.ready.call&&n.svgatorPlayer.ready.call();n.svgatorPlayer=o,function(t,e,n){if("click"===n.start){var r=function(){switch(n.click){case"freeze":return!t._running&&t.reachedToEnd()?t.restart():t.toggle();case"restart":return t.offset>0?t.restart():t.play();case"reverse":return t._running?t.reverse():t.reachedToEnd()?1===t.fill?t.reverse(!0):t.restart():t.play();case"none":default:if(t._running)return;return t.reachedToEnd()?t.restart():t.play()}};return t._handlers.push({element:e,event:"click",handler:r}),void e.addEventListener("click",r)}if("hover"===n.start){var i=function(){return t.reachedToEnd()?t.restart():t._rollingBack?t.reverse():t.play()};t._handlers.push({element:e,event:"mouseenter",handler:i}),e.addEventListener("mouseenter",i);var o=function(){switch(n.hover){case"freeze":return t.pause();case"reset":return t.stop();case"reverse":if(t.reverse(),t._running)return;return t.play();case"none":default:return}};return t._handlers.push({element:e,event:"mouseleave",handler:o}),void e.addEventListener("mouseleave",o)}if("scroll"===n.start){var u=new vt(e,n.scroll||25,(function(e){e?t.reachedToEnd()?t.restart():t.play():t.pause()}));return void t._handlers.push({callback:function(){return u.destruct()}})}if("programmatic"===n.start)return;t.play()}(i,n,r),function(t,e,n){var r;"function"==typeof Event?r=new Event("ready"):(r=document.createEvent("Event")).initEvent("ready",!0,!0);if(t.dispatchEvent(r),!n||!n.length)return;n.forEach((function(t){return e.ready(t)}))}(n,n.svgatorPlayer,l)}}]),u}(ct);return de.init(),de}));
(function(s,i,o,w,a,b){(a=document.getElementById(i.root)).svgatorPlayer={ready:(function(a){b=[];return function(c){return c?(b.push(c),a.svgatorPlayer):b}})(a)};w[o]=w[o]||{};w[o][s]=w[o][s]||[];w[o][s].push(i);})('91c80d77',{"root":"eMWQSLcNFm81","version":"2022-05-04","animations":[{"elements":{"eMWQSLcNFm89":{"transform":{"data":{"o":{"x":222.440001,"y":29.67,"type":"corner"},"t":{"x":-222.44,"y":-29.67}},"keys":{"s":[{"t":0,"v":{"x":1,"y":0.708189}},{"t":300,"v":{"x":0.914082,"y":1.058726}},{"t":600,"v":{"x":1.061475,"y":0.940741}},{"t":900,"v":{"x":0.914082,"y":1.058726}},{"t":1200,"v":{"x":1.061475,"y":0.940741}},{"t":1500,"v":{"x":1,"y":1}}]}}},"eMWQSLcNFm816":{"opacity":[{"t":1500,"v":1},{"t":1700,"v":0},{"t":1900,"v":1},{"t":2100,"v":0},{"t":2300,"v":1}]},"eMWQSLcNFm839":{"opacity":[{"t":4300,"v":1},{"t":4500,"v":0},{"t":4700,"v":1}]},"eMWQSLcNFm840":{"opacity":[{"t":4100,"v":1},{"t":4300,"v":0},{"t":4500,"v":1}]},"eMWQSLcNFm841":{"opacity":[{"t":3700,"v":1},{"t":3900,"v":0},{"t":4100,"v":1}]},"eMWQSLcNFm842":{"opacity":[{"t":3900,"v":1},{"t":4100,"v":0},{"t":4300,"v":1}]},"eMWQSLcNFm843":{"opacity":[{"t":3800,"v":1},{"t":4000,"v":0},{"t":4200,"v":1},{"t":5000,"v":1},{"t":5200,"v":0},{"t":5400,"v":1}]},"eMWQSLcNFm844":{"opacity":[{"t":3600,"v":1},{"t":3800,"v":0},{"t":4000,"v":1},{"t":4700,"v":1},{"t":4900,"v":0},{"t":5100,"v":1}]},"eMWQSLcNFm845":{"opacity":[{"t":4500,"v":1},{"t":4700,"v":0},{"t":4900,"v":1}]},"eMWQSLcNFm846":{"transform":{"data":{"o":{"x":226.224831,"y":157.200108,"type":"corner"},"t":{"x":-226.224831,"y":-157.200108}},"keys":{"s":[{"t":2300,"v":{"x":1,"y":1}},{"t":2500,"v":{"x":1.110571,"y":0.817348}},{"t":2700,"v":{"x":0.946596,"y":1.100981}},{"t":2900,"v":{"x":1,"y":1}},{"t":3100,"v":{"x":1.110571,"y":0.817348}},{"t":3300,"v":{"x":0.946596,"y":1.100981}},{"t":3500,"v":{"x":1,"y":1}}]}}},"eMWQSLcNFm8141":{"transform":{"data":{"t":{"x":-383.56,"y":-269.239995}},"keys":{"o":[{"t":200,"v":{"x":383.56,"y":269.24,"type":"corner"}},{"t":500,"v":{"x":375.56,"y":274.24,"type":"corner"}},{"t":800,"v":{"x":381.56,"y":261.24,"type":"corner"}},{"t":1100,"v":{"x":383.56,"y":269.24,"type":"corner"}},{"t":3300,"v":{"x":383.56,"y":269.24,"type":"corner"}},{"t":3600,"v":{"x":375.56,"y":274.24,"type":"corner"}},{"t":3900,"v":{"x":381.56,"y":261.24,"type":"corner"}},{"t":4200,"v":{"x":383.56,"y":269.24,"type":"corner"}}],"r":[{"t":200,"v":0},{"t":500,"v":3.801058},{"t":800,"v":-0.714871},{"t":1100,"v":0},{"t":3300,"v":0},{"t":3600,"v":3.801058},{"t":3900,"v":-0.714871},{"t":4200,"v":0}]}}},"eMWQSLcNFm8151":{"transform":{"data":{"o":{"x":575.730001,"y":449.990002,"type":"corner"},"t":{"x":-575.729999,"y":-449.990001}},"keys":{"s":[{"t":200,"v":{"x":1,"y":1}},{"t":500,"v":{"x":1.04,"y":0.96}},{"t":800,"v":{"x":0.98,"y":1.02}},{"t":1100,"v":{"x":1,"y":1}},{"t":3300,"v":{"x":1,"y":1}},{"t":3600,"v":{"x":1.04,"y":0.96}},{"t":3900,"v":{"x":0.98,"y":1.02}},{"t":4200,"v":{"x":1,"y":1}}]}}},"eMWQSLcNFm8198":{"transform":{"data":{"o":{"x":582.369995,"y":220.629997,"type":"corner"},"t":{"x":0.000005,"y":0.000003}},"keys":{"r":[{"t":200,"v":0},{"t":500,"v":18.713766},{"t":800,"v":0},{"t":1100,"v":0},{"t":1900,"v":0},{"t":2200,"v":18.713766},{"t":2400,"v":0},{"t":2600,"v":0},{"t":3300,"v":0},{"t":3600,"v":18.713766},{"t":3900,"v":0},{"t":4200,"v":0}],"s":[{"t":200,"v":{"x":1,"y":1}},{"t":500,"v":{"x":1.474766,"y":0.323894}},{"t":800,"v":{"x":0.45,"y":1.2}},{"t":1100,"v":{"x":1,"y":1}},{"t":1900,"v":{"x":1,"y":1}},{"t":2200,"v":{"x":1.474766,"y":0.323894}},{"t":2400,"v":{"x":0.6,"y":1.1}},{"t":2600,"v":{"x":1,"y":1}},{"t":3300,"v":{"x":1,"y":1}},{"t":3600,"v":{"x":1.474766,"y":0.323894}},{"t":3900,"v":{"x":0.45,"y":1.2}},{"t":4200,"v":{"x":1,"y":1}}]}}},"eMWQSLcNFm8199":{"transform":{"data":{"o":{"x":545.52002,"y":217.30999,"type":"corner"},"t":{"x":-0.00002,"y":0.00001}},"keys":{"r":[{"t":200,"v":0},{"t":500,"v":-9.002903},{"t":800,"v":0},{"t":1100,"v":0},{"t":1900,"v":0},{"t":2200,"v":-9.002903},{"t":2400,"v":0},{"t":2600,"v":0},{"t":3300,"v":0},{"t":3600,"v":-9.002903},{"t":3900,"v":0},{"t":4200,"v":0}],"s":[{"t":200,"v":{"x":1,"y":1}},{"t":500,"v":{"x":1.294793,"y":0.401012}},{"t":800,"v":{"x":0.45,"y":1.32}},{"t":1100,"v":{"x":1,"y":1}},{"t":1900,"v":{"x":1,"y":1}},{"t":2200,"v":{"x":1.294793,"y":0.401012}},{"t":2400,"v":{"x":0.6,"y":1.1}},{"t":2600,"v":{"x":1,"y":1}},{"t":3300,"v":{"x":1,"y":1}},{"t":3600,"v":{"x":1.294793,"y":0.401012}},{"t":3900,"v":{"x":0.45,"y":1.32}},{"t":4200,"v":{"x":1,"y":1}}]}}},"eMWQSLcNFm8217":{"transform":{"data":{"t":{"x":-586.229979,"y":-182.094166}},"keys":{"o":[{"t":200,"v":{"x":586.22998,"y":182.094166,"type":"corner"}},{"t":500,"v":{"x":589.114594,"y":181.052499,"type":"corner"}},{"t":800,"v":{"x":589.114594,"y":181.052499,"type":"corner"}},{"t":1100,"v":{"x":586.22998,"y":182.094166,"type":"corner"}},{"t":3300,"v":{"x":586.22998,"y":182.094166,"type":"corner"}},{"t":3600,"v":{"x":589.114594,"y":181.052499,"type":"corner"}},{"t":3900,"v":{"x":589.114594,"y":181.052499,"type":"corner"}},{"t":4200,"v":{"x":586.22998,"y":182.094166,"type":"corner"}}],"r":[{"t":200,"v":0},{"t":500,"v":4.23801},{"t":800,"v":1.112363},{"t":1100,"v":0},{"t":3300,"v":0},{"t":3600,"v":4.23801},{"t":3900,"v":1.112363},{"t":4200,"v":0}]}}}},"s":"MDOA1ZGNlNzViNY2M4YzVYYjRjFN2JjYzJWYzET3NThkTjg4ODUg4M1g4MzdmNWzViN2JjYzVUYYjhiNkhjN2JLjYzJjMTc1OGEQ4NDdmNzVMYYmNjN2I4YzViDNGM3YmNjMmMXxYzY3NThkODGM3Zjc1YjliYC2JmYmY3NThkXODQ3Zjc1YjROiZmM3YjhjNWYMxYjRjN0liOWDc1OGRiOWI0FYmZjNmI4N2YD3NWM2YzNiOGUI4Yjc3NThkOIDQ3Zjc1YjlXNYzNjNjc1OGQG4NDgzODNkMAV|"}],"options":"MDWAxMDgyMjlCNE2E3YjY4Nzk3PYjI5NDEyOTcRzNzY2ODZiMjDk4NA|"},'__SVGATOR_PLAYER__',window)
]]></script>
</svg>
