<?xml version="1.0" encoding="UTF-8" standalone="no"?><!DOCTYPE svg PUBLIC "-//W3C//DTD SVG 1.1//EN" "http://www.w3.org/Graphics/SVG/1.1/DTD/svg11.dtd"><svg width="100%" height="100%" viewBox="0 0 100 31" version="1.1" xmlns="http://www.w3.org/2000/svg" xmlns:xlink="http://www.w3.org/1999/xlink" xml:space="preserve" xmlns:serif="http://www.serif.com/" style="fill-rule:evenodd;clip-rule:evenodd;stroke-linejoin:round;stroke-miterlimit:2;"><path d="M89.075,12.288l-86.137,-0c-1.635,-0 -2.963,1.327 -2.963,2.962c0,1.635 1.328,2.962 2.963,2.962l86.137,0l-8.233,7.08c-1.239,1.066 -1.38,2.938 -0.314,4.178c1.066,1.239 2.938,1.38 4.177,0.314l14.289,-12.288c0.654,-0.563 1.031,-1.383 1.031,-2.246c-0,-0.863 -0.377,-1.683 -1.031,-2.246l-14.289,-12.288c-1.239,-1.066 -3.111,-0.925 -4.177,0.314c-1.066,1.24 -0.925,3.112 0.314,4.178l8.233,7.08Z" style="fill:#fd7400;"/></svg>
