<svg xmlns="http://www.w3.org/2000/svg" viewBox="0 0 720.17 530.7"><defs><style>.cls-1{isolation:isolate;}.cls-2{fill:#fd973f;}.cls-3{fill:#fd7400;}.cls-17,.cls-4{fill:#fff;}.cls-5{fill:#455a64;}.cls-6{fill:#b5b1ae;}.cls-7{fill:#49505b;}.cls-8{fill:#888583;}.cls-9{fill:#ededed;mix-blend-mode:multiply;}.cls-10{fill:#25282e;}.cls-11{fill:#db6500;}.cls-12{fill:#fd9033;}.cls-13{fill:#d96300;}.cls-14{fill:#fec799;}.cls-15{fill:#e1e0df;}.cls-16{fill:#edecec;}.cls-17{opacity:0.45;}.cls-18{fill:#fed3ad;}.cls-19{fill:#fda65c;}</style></defs><g class="cls-1"><g id="Capa_2" data-name="Capa 2"><g id="Capa_5" data-name="Capa 5"><path class="cls-2" d="M596.27,5.09H318.8C247.64,9.82,248,88.22,248,88.22h0V462.85H525.77V88.22S527.08,9.56,596.27,5.09Z"/><rect class="cls-2" x="228.59" y="92.96" width="3.21" height="288.34"/><path class="cls-3" d="M712,247.32H542.54V153.09H712Zm-166.27-3.2H708.81V156.3H545.74Z"/><path class="cls-4" d="M585.18,0C516,4.47,514.67,83.13,514.67,83.13V457.77H236.86V83.13S236.54,4.74,307.71,0Z"/><rect class="cls-2" x="273.34" y="97.87" width="190.82" height="16.84"/><rect class="cls-2" x="273.34" y="136.8" width="162.94" height="11.93"/><rect class="cls-2" x="273.34" y="168.29" width="81.91" height="17.71"/><rect class="cls-2" x="379.45" y="168.29" width="84.71" height="17.71"/><rect class="cls-2" x="273.34" y="202.4" width="130.49" height="12.63"/><rect class="cls-2" x="273.34" y="233.97" width="147.02" height="7.02"/><rect class="cls-2" x="273.34" y="265.54" width="176.79" height="7.02"/><path class="cls-3" d="M355.85,336.3H272.74V296.51h83.11Zm-81.91-1.2h80.7V297.71h-80.7Z"/><rect class="cls-2" x="375.77" y="297.11" width="74.37" height="9.12"/><rect class="cls-2" x="375.77" y="316.4" width="52.71" height="9.12"/><rect class="cls-2" x="273.34" y="360.25" width="158.99" height="7.02"/><rect class="cls-2" x="273.34" y="391.82" width="83.75" height="7.02"/><path class="cls-5" d="M586.23,211.19,578,197.77a2.33,2.33,0,1,1,4-2.43l5.79,9.48,15.41-9.11a2.33,2.33,0,0,1,2.37,4Z"/><path class="cls-5" d="M591.73,231.87A29.47,29.47,0,1,1,621.2,202.4,29.49,29.49,0,0,1,591.73,231.87Zm0-54.73A25.26,25.26,0,1,0,617,202.4,25.28,25.28,0,0,0,591.73,177.14Z"/><rect class="cls-5" x="633.41" y="185.13" width="47.56" height="9.47"/><rect class="cls-5" x="633.41" y="205.82" width="53.36" height="9.47"/><polygon class="cls-5" points="586.78 309.94 535.37 309.94 535.37 306.73 583.58 306.73 583.58 249.41 586.78 249.41 586.78 309.94"/><path class="cls-2" d="M535.4,139.87h-3.2V101.73c-.05-.64-4.11-73.81,57.63-84.46l.54,3.16c-58.93,10.16-55,80.48-55,81.19Z"/><polygon class="cls-3" points="720.17 213.18 716.96 213.18 716.96 148.49 647.53 148.49 647.53 145.28 720.17 145.28 720.17 213.18"/><polygon class="cls-2" points="536.97 473.88 476.96 473.88 476.96 470.68 533.77 470.68 533.77 379.67 536.97 379.67 536.97 473.88"/><path class="cls-3" d="M491,410.31H438.78V358.06H491Zm-47.44-4.81h42.64V362.87H443.59Z"/><polygon class="cls-3" points="465.73 395.03 447.38 377.73 452.88 371.9 466.1 384.36 494.94 360.66 500.03 366.86 465.73 395.03"/><path class="cls-6" d="M24.18,433.63l-10.52-.91c.53-6.1,1.08-12.4,2.81-18.61,2.08-7.41,5.65-13.44,10.32-17.44,6.45-5.51,14.63-7,21.05-7.72,12.9-1.4,29.66.08,43.75,3.86L88.86,403C76.14,399.6,60.48,398.2,49,399.45c-5.21.57-11.1,1.63-15.32,5.24-3.89,3.34-6,8.52-7,12.27C25.17,422.22,24.67,428,24.18,433.63Z"/><path class="cls-7" d="M73.46,400.78l-1.54-.18a18.89,18.89,0,0,1,3-11.8l1.69.23A17,17,0,0,0,73.46,400.78Z"/><path class="cls-7" d="M56.41,399.77c-.51,0-1,0-1.53,0a18.79,18.79,0,0,1,2.4-12.11c.27,0,.55,0,.83,0h1A17.06,17.06,0,0,0,56.41,399.77Z"/><path class="cls-7" d="M41.43,401.58c-.48.13-1,.28-1.44.45a18.62,18.62,0,0,1,0-12.54c.59-.15,1.18-.27,1.77-.39A17,17,0,0,0,41.43,401.58Z"/><path class="cls-7" d="M31.59,408.05a12.89,12.89,0,0,0-.86,1.27,18.5,18.5,0,0,1-5.2-12.52c.24-.25.51-.47.77-.7l.77-.62A16.88,16.88,0,0,0,31.59,408.05Z"/><path class="cls-7" d="M26.61,420.36c-.1.48-.21,1-.28,1.48a18.49,18.49,0,0,1-10.41-8.48c.19-.69.42-1.37.65-2A16.92,16.92,0,0,0,26.61,420.36Z"/><path class="cls-8" d="M25.26,423.65c-.5,3.29-.79,6.67-1.08,10l-10.53-.92c.25-2.7.47-5.45.83-8.21a18.51,18.51,0,0,1,6.63-1.36A15.32,15.32,0,0,1,25.26,423.65Z"/><path class="cls-6" d="M.63,455.78A31.46,31.46,0,0,1,0,450.1C-.23,436,9.24,424.4,21.11,424.21c10.58-.18,20.32,11,22.26,23.28l-11.09-.71c-1.09-6.93-5.82-12.1-11-12-5.95.1-10.86,7-10.73,15.15C10.58,451.18.63,455.78.63,455.78Z"/><ellipse class="cls-9" cx="154.27" cy="520.23" rx="92.05" ry="10.47"/><path class="cls-3" d="M241.24,236.82c-59.45-7.82-116.94-7.93-172.4,0A13.45,13.45,0,0,0,58.34,245C47.88,270,44.06,295.27,47.07,320.75c0,0,0,.09,0,.13l.18,1.42a153.42,153.42,0,0,0,4.24,20.95c.25.92.51,1.84.78,2.77.15.52.32,1.07.48,1.61q2.4,7.9,5.69,15.83a13.57,13.57,0,0,0,10.32,8.14q13,2.19,26,3.79c40.78,5.05,81,5.58,120.6.6q13.2-1.67,26.33-4.16A13.55,13.55,0,0,0,252,363.14a182.71,182.71,0,0,0,5.91-19.89,170.81,170.81,0,0,0,3.79-22.37q3.82-37.62-9.5-75.24A13.48,13.48,0,0,0,241.24,236.82Z"/><path class="cls-6" d="M164.83,500.84c1.06,0,2.12-.08,3.19-.13C167,500.77,165.89,500.81,164.83,500.84Z"/><path class="cls-6" d="M160.87,501c1.32,0,2.64-.08,4-.13l-.72,0Z"/><path class="cls-6" d="M172.6,500.44c-1.52.1-3,.19-4.58.27C169.55,500.63,171.07,500.55,172.6,500.44Z"/><path class="cls-7" d="M214.86,505.91a7.71,7.71,0,0,1-5.9,7.43c-36,8.26-72.13,7.69-108.38-.08a7.57,7.57,0,0,1-6-7.39v-.24C135.32,512.37,175.05,513.33,214.86,505.91Z"/><path class="cls-10" d="M105.9,506.58l-1.49-.21a20.36,20.36,0,0,0,.52,8.54l1.66.33A18.69,18.69,0,0,1,105.9,506.58Z"/><path class="cls-10" d="M139,509.84l-1.51-.08a20,20,0,0,0,.29,9.61l1.58.11A18.66,18.66,0,0,1,139,509.84Z"/><path class="cls-10" d="M171.74,510.1l-1.55,0a20.33,20.33,0,0,0,.43,9.46l1.53-.11A18.62,18.62,0,0,1,171.74,510.1Z"/><path class="cls-10" d="M204.29,507l-1.53.22a20.27,20.27,0,0,0,.73,8L205,515A18.81,18.81,0,0,1,204.29,507Z"/><path class="cls-6" d="M117.51,497.58l-3.25-.57Z"/><path class="cls-6" d="M123,498.45c-1.82-.27-3.64-.57-5.46-.87C119.33,497.88,121.15,498.18,123,498.45Z"/><path class="cls-6" d="M114.08,497l-.57-.11.75.14Z"/><path class="cls-6" d="M94.89,492.85a192.34,192.34,0,0,1-8.75-39.56h.18A192.44,192.44,0,0,0,95,492.85q9.28,2.34,18.48,4Q104.23,495.19,94.89,492.85Z"/><path class="cls-6" d="M215.05,492.85a202,202,0,0,1-42.45,7.59A203.21,203.21,0,0,0,197.92,497c5.62-1.11,11.22-2.5,16.8-4.13a217.63,217.63,0,0,0,7.53-39.53v0h.36v0A215.18,215.18,0,0,1,215.05,492.85Z"/><path class="cls-6" d="M247.15,478.55c0,1.07-.18,2.12-.18,3.15,0,18.74-28.28,23.47-32.71,24.32-39.66,7.42-79.22,6.35-119.81-.39-4.47-.74-32.73-5.19-32.73-23.85,0-13.4,7.06-27.75,24.33-28.49h.27A190.81,190.81,0,0,0,93,486.47a11.5,11.5,0,0,0,8.46,7.94q6.31,1.44,12.59,2.57a244.81,244.81,0,0,0,35.34,3.88q7.35.25,14.68,0a201.65,201.65,0,0,0,33.8-3.89c1-.19,2-.4,3-.61A22.65,22.65,0,0,0,218.22,479a211.93,211.93,0,0,0,4-25.72v0A25.22,25.22,0,0,1,247.15,478.55Z"/><path class="cls-8" d="M224.65,453.41c0,.53-.09,1.06-.14,1.59v0a218.11,218.11,0,0,1-5.18,30.85A16.76,16.76,0,0,1,207,498.27c-34,8.15-68.86,7.32-104.25-.38A16.68,16.68,0,0,1,90.29,486a195,195,0,0,1-6.05-31c-.06-.52-.1-1-.16-1.56.65-.07,1.29-.12,2-.15a.27.27,0,0,1,.09,0,188.74,188.74,0,0,0,6.55,32.5,12.64,12.64,0,0,0,9.36,8.77q10.49,2.35,20.92,3.89c1.34.19,2.68.39,4,.54s2.53.33,3.8.47c.95.12,1.88.21,2.82.3l.62.07,3.65.34c1.18.1,2.35.19,3.53.27q9.75.68,19.45.53c3.92-.06,7.82-.25,11.73-.53A203,203,0,0,0,207.05,495a13.93,13.93,0,0,0,10.14-10.12,213.19,213.19,0,0,0,5.42-31.57v0Q223.66,453.32,224.65,453.41Z"/><path class="cls-7" d="M246.31,469.57q-4.77.45-9.55.45a105.87,105.87,0,0,1-17.29-1.43c.1-.5.19-1,.26-1.51a104.62,104.62,0,0,0,26,1C245.92,468.59,246.12,469.07,246.31,469.57Z"/><path class="cls-7" d="M247.67,482.12c-.07.52-.15,1-.26,1.54a104.89,104.89,0,0,1-30.71-1.4c.12-.48.24-1,.33-1.46A106.7,106.7,0,0,0,247.67,482.12Z"/><path class="cls-7" d="M89.63,469.62q-4.53.4-9,.4a104,104,0,0,1-17.84-1.54c.2-.48.41-1,.62-1.43a104.63,104.63,0,0,0,26,1.07C89.43,468.62,89.52,469.12,89.63,469.62Z"/><path class="cls-7" d="M93,483.47A104.72,104.72,0,0,1,61,482.35c0-.15,0-.32-.06-.48,0-.37-.07-.71-.09-1.07A105.86,105.86,0,0,0,92.55,482C92.69,482.48,92.81,483,93,483.47Z"/><path class="cls-11" d="M216.47,380.14c-.37.06-.75.11-1.13.15-39.58,5-79.82,4.45-120.6-.6l-1.33-.17c.43-1.37.88-2.76,1.33-4.13,40.78,5.05,81,5.58,120.6.6C215.73,377.36,216.11,378.75,216.47,380.14Z"/><path class="cls-12" d="M58,343.63a2.94,2.94,0,0,1-2.83-2.2,188.65,188.65,0,0,1-2.92-29A180.81,180.81,0,0,1,58.09,263c.58-2.21,1.21-4.49,1.95-7a3.05,3.05,0,0,1,3.67-1.78,2.58,2.58,0,0,1,2.18,3.12c-.72,2.41-1.34,4.63-1.9,6.79a176.22,176.22,0,0,0-5.68,48.25,184.94,184.94,0,0,0,2.86,28.36,2.6,2.6,0,0,1-2.54,2.85A4,4,0,0,1,58,343.63Z"/><path class="cls-12" d="M66.88,250c4.86,0,4.86-7.55,0-7.55S62,250,66.88,250Z"/><path class="cls-12" d="M67,367.18a3,3,0,0,1-2.46-1.27c-2.94-4.13-4.82-8.73-6.65-13.18a3,3,0,0,1,5.59-2.28c1.69,4.13,3.44,8.4,6,12a3,3,0,0,1-.7,4.21A3.06,3.06,0,0,1,67,367.18Z"/><path class="cls-13" d="M56.09,346.58c4.07.86,8.15,1.67,12.17,2.41A1.49,1.49,0,0,0,70,347.77c.82-4.66,2-11.23,2.63-15a1.51,1.51,0,0,0-1.21-1.74c-6.16-1.14-12.23-2.39-18.13-3.73A1.51,1.51,0,0,0,51.47,329a159.05,159.05,0,0,0,3.46,16.47A1.51,1.51,0,0,0,56.09,346.58Z"/><path class="cls-13" d="M75.32,350.25c8.77,1.49,17.57,2.73,26.23,3.71a1.52,1.52,0,0,0,1.67-1.35q.78-7.58,1.58-15.14a1.49,1.49,0,0,0-1.32-1.65c-8.29-.93-16.7-2.12-25-3.54a1.51,1.51,0,0,0-1.74,1.23q-1.31,7.51-2.62,15A1.5,1.5,0,0,0,75.32,350.25Z"/><path class="cls-13" d="M108.69,354.71c8.81.86,17.66,1.48,26.35,1.86a1.53,1.53,0,0,0,1.58-1.47l.53-15.21a1.5,1.5,0,0,0-1.44-1.55c-8.38-.36-16.82-1-25.16-1.77a1.5,1.5,0,0,0-1.64,1.33q-.8,7.58-1.58,15.14A1.51,1.51,0,0,0,108.69,354.71Z"/><path class="cls-13" d="M141.28,340l-.53,15.21a1.51,1.51,0,0,0,1.46,1.57c8.77.24,17.64.24,26.41,0a1.52,1.52,0,0,0,1.47-1.57q-.27-7.61-.52-15.21a1.5,1.5,0,0,0-1.54-1.45c-8.37.23-16.83.23-25.21,0A1.5,1.5,0,0,0,141.28,340Z"/><path class="cls-13" d="M173.7,339.89q.26,7.62.52,15.22a1.52,1.52,0,0,0,1.57,1.46c8.78-.38,17.63-1,26.36-1.85a1.51,1.51,0,0,0,1.36-1.66l-1.58-15.14a1.49,1.49,0,0,0-1.63-1.34c-8.26.81-16.7,1.4-25.16,1.76A1.5,1.5,0,0,0,173.7,339.89Z"/><path class="cls-13" d="M233.87,332.06c-8.85,1.52-17.76,2.79-26.5,3.78a1.49,1.49,0,0,0-1.33,1.64l1.58,15.14a1.5,1.5,0,0,0,1.67,1.35c8.66-1,17.47-2.22,26.23-3.7a1.51,1.51,0,0,0,1.24-1.75c-.9-5.17-2.22-12.67-2.82-16.1Z"/><path class="cls-13" d="M257.26,345.12c.71-3.6,2.25-11.58,3-16.45a1.5,1.5,0,0,0-1.83-1.69c-5.64,1.31-12.35,2.82-19,4.09a1.5,1.5,0,0,0-1.21,1.73l2.63,15a1.5,1.5,0,0,0,1.76,1.21c4.58-.85,9.11-1.76,13.51-2.7A1.5,1.5,0,0,0,257.26,345.12Z"/><path class="cls-14" d="M54.58,345.08c4.07.86,8.15,1.66,12.17,2.4a1.49,1.49,0,0,0,1.75-1.22c.82-4.66,2-11.23,2.63-15a1.5,1.5,0,0,0-1.21-1.73c-6.15-1.15-12.23-2.4-18.13-3.74A1.5,1.5,0,0,0,50,327.5,156.4,156.4,0,0,0,53.42,344,1.54,1.54,0,0,0,54.58,345.08Z"/><path class="cls-14" d="M73.81,348.75c8.77,1.48,17.57,2.72,26.23,3.7a1.52,1.52,0,0,0,1.67-1.35c.53-5.05,1.05-10.09,1.59-15.14a1.51,1.51,0,0,0-1.33-1.65c-8.29-.93-16.69-2.12-25-3.54A1.51,1.51,0,0,0,75.19,332q-1.31,7.51-2.62,15A1.52,1.52,0,0,0,73.81,348.75Z"/><path class="cls-14" d="M107.18,353.2c8.82.86,17.66,1.48,26.36,1.86a1.52,1.52,0,0,0,1.57-1.46l.53-15.22a1.5,1.5,0,0,0-1.43-1.55c-8.39-.36-16.83-1-25.16-1.77a1.5,1.5,0,0,0-1.65,1.34q-.8,7.56-1.58,15.13A1.51,1.51,0,0,0,107.18,353.2Z"/><path class="cls-14" d="M139.77,338.53l-.53,15.21a1.51,1.51,0,0,0,1.47,1.57c8.77.24,17.63.24,26.4,0a1.51,1.51,0,0,0,1.47-1.57c-.18-5.07-.35-10.13-.52-15.21a1.5,1.5,0,0,0-1.54-1.45c-8.37.23-16.83.23-25.21,0A1.5,1.5,0,0,0,139.77,338.53Z"/><path class="cls-14" d="M172.19,338.38q.26,7.62.52,15.22a1.52,1.52,0,0,0,1.58,1.46c8.77-.38,17.62-1,26.36-1.85a1.51,1.51,0,0,0,1.35-1.66l-1.57-15.14a1.51,1.51,0,0,0-1.64-1.34c-8.26.81-16.7,1.4-25.16,1.76A1.5,1.5,0,0,0,172.19,338.38Z"/><path class="cls-14" d="M232.37,330.55c-8.86,1.52-17.77,2.79-26.51,3.78a1.5,1.5,0,0,0-1.33,1.64l1.58,15.14a1.5,1.5,0,0,0,1.67,1.35c8.66-1,17.47-2.22,26.23-3.7a1.5,1.5,0,0,0,1.24-1.74c-.9-5.18-2.22-12.68-2.82-16.11Z"/><path class="cls-14" d="M255.75,343.61c.71-3.6,2.25-11.58,3-16.45a1.5,1.5,0,0,0-1.83-1.69c-5.64,1.32-12.34,2.82-19,4.09a1.5,1.5,0,0,0-1.21,1.73l2.63,15a1.51,1.51,0,0,0,1.76,1.22c4.58-.86,9.11-1.76,13.51-2.71A1.5,1.5,0,0,0,255.75,343.61Z"/><circle class="cls-13" cx="120.35" cy="284.45" r="18.23"/><circle class="cls-15" cx="119.44" cy="283.37" r="18.23"/><circle class="cls-16" cx="114.57" cy="280.12" r="12.47"/><circle class="cls-13" cx="189.67" cy="285.11" r="22.57"/><circle class="cls-15" cx="188.55" cy="283.78" r="22.57"/><circle class="cls-16" cx="182.51" cy="279.76" r="15.44"/><path class="cls-5" d="M222.51,335.89a11.37,11.37,0,0,1-7.22,1.05l-10.84-18-1.08-1.79,3.78-2.47,1.57,2.16Z"/><path class="cls-5" d="M250,380.86a5.45,5.45,0,0,1-1.26,1.07l-.43.26a4.91,4.91,0,0,1-6.78-1.67l-20.28-33.68a20.56,20.56,0,0,0,7.38-2.46l18.22,25.19,2.32,3.21,1.1,1.52.2.29A5.33,5.33,0,0,1,250,380.86Z"/><ellipse class="cls-17" cx="189.33" cy="284.29" rx="33.53" ry="34.14" transform="translate(-152.22 281.51) rotate(-55.87)"/><path class="cls-5" d="M157.88,263C146.32,280,151,303.4,168.4,315.17s40.82,7.49,52.38-9.57,6.85-40.42-10.52-52.19S169.44,245.92,157.88,263Zm4.62,3.13c9.86-14.55,29.87-18.2,44.69-8.16s18.83,30,9,44.53-29.87,18.21-44.69,8.16S152.64,280.65,162.5,266.1Z"/><path class="cls-4" d="M215.85,307.73h0a.17.17,0,0,1,0-.23c.58-.65,1.15-1.35,1.68-2.05a.14.14,0,0,1,.22,0,.16.16,0,0,1,0,.22c-.54.71-1.11,1.41-1.69,2.07A.17.17,0,0,1,215.85,307.73Zm5.64-8.78a.18.18,0,0,1-.06-.2,33.78,33.78,0,0,0,2.21-6.87h0a35.07,35.07,0,0,0-14.91-36.22A35.53,35.53,0,0,0,190,249.52a.16.16,0,0,1,0-.31,35.86,35.86,0,0,1,18.86,6.19,35.41,35.41,0,0,1,15,36.54h0a33.64,33.64,0,0,1-2.23,6.94.17.17,0,0,1-.21.08Z"/><path class="cls-4" d="M244.11,381a.14.14,0,0,1-.07-.17.16.16,0,0,1,.19-.11c2,.55,3.53.21,4.44-1a3.69,3.69,0,0,0,0-4.3L243.61,368a.16.16,0,0,1,0-.22.16.16,0,0,1,.22,0l5.06,7.34a4,4,0,0,1,0,4.67c-1,1.34-2.6,1.72-4.78,1.13Z"/><path class="cls-6" d="M226.12,421.23A34.86,34.86,0,0,1,214,419.08L217.77,409a24.05,24.05,0,0,0,30.47-13.1c3.27-7.64,2.61-17.59-1.81-27.28-4.23-9.29-11.18-17.45-17.89-25.35l8.21-7c7.2,8.46,14.64,17.2,19.5,27.86,5.67,12.44,6.36,25.56,1.91,36a34.76,34.76,0,0,1-32,21.12Z"/><path class="cls-8" d="M230,344.75c-2.07-2.61-4.35-5.12-6.58-7.59l7.85-7.08c1.81,2,3.66,4.05,5.44,6.2a18.44,18.44,0,0,1-3.52,5.77A15.54,15.54,0,0,1,230,344.75Z"/><path class="cls-5" d="M228.64,344.38a20.56,20.56,0,0,1-7.38,2.46l-6-9.9a11.37,11.37,0,0,0,7.22-1.05Z"/><path class="cls-6" d="M215.29,336.94l6,9.9a30.89,30.89,0,0,1-21-5.08l8.07-7.64A17.5,17.5,0,0,0,215.29,336.94Z"/><path class="cls-6" d="M236,335.42a17.37,17.37,0,0,1-1.13,2.44,17.89,17.89,0,0,1-2.45,3.47,15.66,15.66,0,0,1-3.07,2.61l-.14.09-.57.35-6.13-8.49a7.93,7.93,0,0,0,2.06-1.63c4-4.42,2.25-12.74-3.78-18.17-.94-.85,2.47-11.27,2.47-11.27a30.33,30.33,0,0,1,4.59,3.41C236.23,315.78,239.21,326.8,236,335.42Z"/><path class="cls-7" d="M240.23,359.67l.81,1.78.27-.13q-.52-.84-1.08-1.65Z"/><path class="cls-7" d="M250.72,353a44.27,44.27,0,0,1-10.49,6.71q.56.81,1.08,1.65A46.42,46.42,0,0,0,252,354.45Z"/><path class="cls-7" d="M259.46,369.68a27.92,27.92,0,0,1-12.35,3.23c.22.64.43,1.29.62,1.93A29.69,29.69,0,0,0,260,371.59C259.86,371,259.66,370.32,259.46,369.68Z"/><path class="cls-7" d="M249.12,388.53c-.08.74-.19,1.48-.34,2.19a24.84,24.84,0,0,0,12.1,4.25c.16-.64.3-1.29.42-1.94A22.73,22.73,0,0,1,249.12,388.53Z"/><path class="cls-7" d="M242.19,402.94c-.47.45-.95.89-1.45,1.31a21.65,21.65,0,0,0,11.54,6.59c.52-.56,1-1.13,1.52-1.72A19.69,19.69,0,0,1,242.19,402.94Z"/><path class="cls-7" d="M226.57,409.46a28.28,28.28,0,0,0,4.25,12.43c.72-.1,1.42-.21,2.13-.34a26.2,26.2,0,0,1-4.42-12.2C227.88,409.41,227.22,409.45,226.57,409.46Z"/><path class="cls-3" d="M222.94,453.28v0a214.29,214.29,0,0,1-5.82,33.15A11.29,11.29,0,0,1,209,494.6c-35,9-71.62,8.09-108.13-.24a11.34,11.34,0,0,1-8.35-7.81,188,188,0,0,1-6.39-33.26c-2.53-22.93-.29-45.68,6-68.22.89-3.23,1.89-6.45,3-9.68,40.78,5.05,81,5.58,120.6.6.92,3.23,1.75,6.47,2.52,9.7A206.49,206.49,0,0,1,222.94,453.28Z"/><path class="cls-13" d="M216.39,378.6l-1.38.18c-39.59,5-79.83,4.45-120.6-.6l-.23,0c.29-.92.59-1.84.89-2.76,40.78,5.05,81,5.58,120.6.6C215.91,376.85,216.15,377.73,216.39,378.6Z"/><path class="cls-12" d="M98.67,482.5a3,3,0,0,1-3-2.2,219.51,219.51,0,0,1-4.58-31.16,210.53,210.53,0,0,1,3-53.72c.44-2.42,1-4.91,1.54-7.62a3,3,0,0,1,3.56-2.15,2.77,2.77,0,0,1,2.36,3.23c-.58,2.65-1.08,5.09-1.51,7.45a205.55,205.55,0,0,0-2.89,52.44,213.49,213.49,0,0,0,4.48,30.44,2.77,2.77,0,0,1-2.36,3.24A4.28,4.28,0,0,1,98.67,482.5Z"/><path class="cls-14" d="M186,440.9l0-.22a13.42,13.42,0,0,0-12-10.21A18.86,18.86,0,0,0,155.09,412h-.55l-.26,0A18.68,18.68,0,0,0,143.52,416a18.92,18.92,0,0,0-7,11.42,14.88,14.88,0,0,0-6,1.82,14.66,14.66,0,0,0-1.35,24.87,14.83,14.83,0,0,0,8.51,2.72,14,14,0,0,0,4.94-.89c.32-.11.64-.24.95-.38a11.32,11.32,0,0,0,4.84,1.09h0a11.15,11.15,0,0,0,7.25-2.63l.38.11a6.93,6.93,0,0,0,1.76.19h.45a3.51,3.51,0,0,1,3.31,4.7,3.38,3.38,0,0,1-2.06,2,1.75,1.75,0,0,0,.6,3.4,1.8,1.8,0,0,0,.6-.1,7,7,0,0,0-2.57-13.55h0l-.45,0a3.1,3.1,0,0,1-.81-.1,3.47,3.47,0,0,1-.79-.29,3.34,3.34,0,0,1-1.81-2.48,3.42,3.42,0,0,1,.84-3,1.75,1.75,0,0,0-2.53-2.43,6.93,6.93,0,0,0-1.77,6,7,7,0,0,0,1.68,3.44,7.69,7.69,0,0,1-4,1.13h0a7.5,7.5,0,0,1-5.52-2.32l-.05,0-.93-1.2a7.63,7.63,0,0,1-1.18-3.7,4.09,4.09,0,0,1,0-.62,7.67,7.67,0,0,1,6.67-7.43,1.66,1.66,0,0,0,.62-.19A1.76,1.76,0,0,0,147,434.3a11.17,11.17,0,0,0-9.67,10.77,7.78,7.78,0,0,0,0,1,11.19,11.19,0,0,0,1.78,5.46l.09.13,1,1.28.05.06a11.13,11.13,0,0,1-2.52.29h-.18a11.33,11.33,0,0,1-6.25-2.07,11.15,11.15,0,0,1,1-18.93,11.27,11.27,0,0,1,5.6-1.42h.21a11.1,11.1,0,0,1,5.56,1.73,1.76,1.76,0,0,0,1.88-3,14.85,14.85,0,0,0-5.42-2.09,14.92,14.92,0,0,1,.88-2.75,15.37,15.37,0,0,1,4.68-6,15.2,15.2,0,0,1,8.91-3.22h.5a15.34,15.34,0,0,1,15.29,16.6,1.76,1.76,0,0,0,1.75,1.9h.32a9.74,9.74,0,0,1,10.07,7.45l0,.2a9.51,9.51,0,0,1-2,8.06,9.3,9.3,0,0,1-7.18,3.43h-.19a1.76,1.76,0,0,0,0,3.51h.22a12.76,12.76,0,0,0,9.89-4.71A13,13,0,0,0,186,440.9Z"/><rect class="cls-7" x="152.65" y="200.97" width="5.53" height="29.95"/><circle class="cls-3" cx="155.42" cy="192.74" r="13.04"/><ellipse class="cls-12" cx="154.94" cy="191.23" rx="11.76" ry="11.54"/><path class="cls-18" d="M162.61,189.3a9.2,9.2,0,0,1-18.39.53,11,11,0,0,1,4.26-8.29,9.1,9.1,0,0,1,4.93-1.44A9.2,9.2,0,0,1,162.61,189.3Z"/><path class="cls-12" d="M191.45,480.32v7.56a2,2,0,0,1-2,2,9.23,9.23,0,0,1-3.16-.24,1.65,1.65,0,0,1-1.16-1.72v-7.56a2,2,0,0,1,2-2c1.05,0,2.68-.17,3.61.45A1.64,1.64,0,0,1,191.45,480.32Z"/><path class="cls-13" d="M191.89,480.53v7.56a2,2,0,0,1-2,2c-1.05,0-2.67.17-3.6-.45a9.23,9.23,0,0,0,3.16.24,2,2,0,0,0,2-2v-7.56a1.64,1.64,0,0,0-.71-1.51A1.66,1.66,0,0,1,191.89,480.53Z"/><path class="cls-19" d="M187.28,487.94h0v-7.68h0a.49.49,0,0,0,0-1c-.81,0-1.44.86-1.44,2V487c0,1.09.63,2,1.44,2a.49.49,0,0,0,.49-.49A.48.48,0,0,0,187.28,487.94Z"/><path class="cls-12" d="M200.53,480.32v7.56a2,2,0,0,1-2,2,9.31,9.31,0,0,1-3.17-.24,1.66,1.66,0,0,1-1.15-1.72v-7.56a2,2,0,0,1,2-2c1,0,2.67-.17,3.6.45A1.67,1.67,0,0,1,200.53,480.32Z"/><path class="cls-13" d="M201,480.53v7.56a2,2,0,0,1-2,2c-1,0-2.67.17-3.6-.45a9.31,9.31,0,0,0,3.17.24,2,2,0,0,0,2-2v-7.56a1.67,1.67,0,0,0-.72-1.51A1.66,1.66,0,0,1,201,480.53Z"/><path class="cls-19" d="M196.35,487.94h0v-7.68h0a.49.49,0,1,0,0-1c-.8,0-1.43.86-1.43,2V487c0,1.09.63,2,1.43,2a.49.49,0,0,0,.49-.49A.48.48,0,0,0,196.35,487.94Z"/><path class="cls-12" d="M209.6,480.32v7.56a2,2,0,0,1-2,2,9.23,9.23,0,0,1-3.16-.24,1.65,1.65,0,0,1-1.15-1.72v-7.56a2,2,0,0,1,2-2c1,0,2.67-.17,3.6.45A1.64,1.64,0,0,1,209.6,480.32Z"/><path class="cls-13" d="M210,480.53v7.56a2,2,0,0,1-2,2c-1,0-2.67.17-3.6-.45a9.23,9.23,0,0,0,3.16.24,2,2,0,0,0,2-2v-7.56a1.64,1.64,0,0,0-.71-1.51A1.65,1.65,0,0,1,210,480.53Z"/><path class="cls-19" d="M205.43,487.94h0v-7.68h0a.49.49,0,1,0,0-1c-.81,0-1.44.86-1.44,2V487c0,1.09.63,2,1.44,2a.49.49,0,0,0,.49-.49A.48.48,0,0,0,205.43,487.94Z"/></g></g></g></svg>