<?xml version="1.0" encoding="UTF-8" standalone="no"?>
<!DOCTYPE svg PUBLIC "-//W3C//DTD SVG 1.1//EN" "http://www.w3.org/Graphics/SVG/1.1/DTD/svg11.dtd">
<svg width="100%" height="100%" viewBox="0 0 400 350" version="1.1" xmlns="http://www.w3.org/2000/svg" xmlns:xlink="http://www.w3.org/1999/xlink" xml:space="preserve" xmlns:serif="http://www.serif.com/" style="fill-rule:evenodd;clip-rule:evenodd;stroke-linejoin:round;stroke-miterlimit:2;">
    <g id="Capa_2" transform="matrix(1.08938,0,0,1.08938,0,0)">
        <g id="Capa_1">
            <path id="Trazado_1261" d="M191.59,181.15C194.947,174.592 199.164,168.512 204.13,163.07L197.13,143.9L225.51,125.63L240.07,139.92C247.086,137.652 254.374,136.334 261.74,136L270.36,117.52L303.36,124.67L303.55,145.05C310.108,148.41 316.189,152.631 321.63,157.6L340.8,150.6L359.05,179L344.76,193.56C347.029,200.566 348.35,207.844 348.69,215.2L367.18,223.82L360.03,256.82L339.64,257.01C336.283,263.568 332.066,269.648 327.1,275.09L334.1,294.26L305.7,312.51L291.14,298.22C284.13,300.485 276.849,301.807 269.49,302.15L260.87,320.63L227.87,313.48L227.68,293.09C221.117,289.737 215.033,285.52 209.59,280.55L190.43,287.55L172.16,259.17L186.45,244.61C184.176,237.602 182.854,230.32 182.52,222.96L164.03,214.35L171.18,181.35L191.57,181.16L191.59,181.15ZM230.59,209.9C239.833,209.889 247.432,202.281 247.432,193.038C247.432,183.788 239.82,176.176 230.57,176.176C221.32,176.176 213.708,183.788 213.708,193.038C213.708,202.281 221.307,209.889 230.55,209.9L230.59,209.9Z" style="fill:rgb(255,224,199);"/>
            <path id="Trazado_1262" d="M138.18,30.89C139.812,27.709 141.86,24.76 144.27,22.12L140.88,12.81L154.66,3.94L161.72,10.88C165.124,9.79 168.659,9.158 172.23,9L176.41,0L192.41,3.47L192.5,13.37C195.683,14.998 198.632,17.047 201.27,19.46L210.58,16.07L219.45,29.84L212.51,36.91C213.612,40.313 214.254,43.847 214.42,47.42L223.42,51.6L219.95,67.6L210.05,67.69C208.435,70.877 206.4,73.833 204,76.48L207.38,85.78L193.61,94.65L186.54,87.71C183.129,88.819 179.583,89.462 176,89.62L171.82,98.62L155.82,95.15L155.73,85.26C152.546,83.628 149.594,81.58 146.95,79.17L137.65,82.56L128.78,68.78L135.72,61.71C134.614,58.312 133.972,54.78 133.81,51.21L124.81,47.03L128.28,31.03L138.17,30.93L138.18,30.89ZM157.1,44.89C157.111,51.388 162.46,56.728 168.958,56.728C175.463,56.728 180.816,51.375 180.816,44.87C180.816,38.365 175.463,33.012 168.958,33.012C162.46,33.012 157.111,38.352 157.1,44.85L157.1,44.89Z" style="fill:rgb(224,224,224);"/>
            <path id="Trazado_1263" d="M17.82,138.77C19.903,134.692 22.523,130.912 25.61,127.53L21.27,115.61L38.92,104.25L47.92,113.14C52.276,111.723 56.804,110.898 61.38,110.69L66.78,99.2L87.29,103.65L87.41,116.32C91.488,118.406 95.269,121.029 98.65,124.12L110.57,119.78L121.93,137.42L113,146.47C114.414,150.827 115.235,155.354 115.44,159.93L126.94,165.29L122.49,185.8L109.82,185.92C107.729,189.995 105.106,193.775 102.02,197.16L106.36,209.07L88.76,220.43L79.7,211.55C75.342,212.962 70.816,213.786 66.24,214L60.89,225.49L40.38,221L40.26,208.32C36.176,206.249 32.389,203.639 29,200.56L17.1,204.9L5.75,187.26L14.63,178.26C13.221,173.902 12.4,169.375 12.19,164.8L0.7,159.39L5.14,138.89L17.82,138.77ZM42,156.64C41.66,158.207 41.489,159.805 41.489,161.409C41.489,173.757 51.65,183.919 63.999,183.919C76.348,183.919 86.509,173.757 86.509,161.409C86.509,150.854 79.085,141.647 68.77,139.41C67.202,139.07 65.603,138.899 63.999,138.899C53.443,138.899 44.236,146.324 42,156.64Z" style="fill:rgb(218,218,218);fill-rule:nonzero;"/>
            <path id="Trazado_1264" d="M42,156.64C41.92,156.64 42,156.13 42.14,155.19C42.407,153.808 42.844,152.465 43.44,151.19C45.603,146.405 49.386,142.533 54.12,140.26C61.293,136.778 69.774,137.216 76.55,141.42C83.467,145.705 87.688,153.285 87.688,161.422C87.688,173.201 78.843,183.257 67.16,184.76C59.253,185.783 51.352,182.675 46.26,176.54C42.892,172.507 41.05,167.414 41.06,162.16C41.042,160.759 41.2,159.362 41.53,158C41.76,157.08 41.92,156.6 42,156.62C42.23,156.62 41.77,158.62 42,162.13C42.334,167.056 44.286,171.736 47.55,175.44C51.627,180.118 57.538,182.808 63.744,182.808C75.527,182.808 85.224,173.111 85.224,161.328C85.224,149.544 75.527,139.848 63.744,139.848C60.672,139.848 57.635,140.507 54.84,141.78C50.333,143.801 46.619,147.259 44.28,151.61C42.66,154.73 42.27,156.7 42,156.64Z" style="fill:rgb(218,218,218);fill-rule:nonzero;"/>
            <path id="Trazado_1265" d="M17.82,138.77C16.772,138.91 15.717,138.98 14.66,138.98L5.14,139.27L5.51,138.97C4.41,144.3 3,151.2 1.29,159.52L1,158.85L12.53,164.12L12.91,164.29L12.91,164.72C13.142,169.236 13.969,173.701 15.37,178L15.52,178.44L15.19,178.79L6.35,187.88L6.46,186.88L17.89,204.48L16.78,204L28.69,199.62L29.24,199.42L29.68,199.82C32.996,202.83 36.694,205.389 40.68,207.43L41.23,207.71L41.23,208.33C41.28,212.26 41.33,216.59 41.38,221.01L40.55,220.01L61.06,224.41L59.82,225.02C61.49,221.44 63.31,217.51 65.16,213.52L65.45,212.9L66.13,212.9C70.604,212.686 75.03,211.875 79.29,210.49L79.95,210.28L80.45,210.77L89.51,219.64L88.07,219.49L105.7,208.12L105.23,209.52C103.86,205.75 102.37,201.69 100.88,197.6L100.64,196.93L101.12,196.4C104.135,193.088 106.694,189.389 108.73,185.4C110.82,184.11 109.31,185.05 109.73,184.76L116.18,184.76L122.5,184.7L121.35,185.63C122.857,178.71 124.343,171.877 125.81,165.13L126.46,166.45L115,161L114.36,160.7L114.36,160C114.162,155.525 113.369,151.096 112,146.83L111.78,146.16L112.27,145.67L121.17,136.67L121,138L109.68,120.34L110.97,120.78L99,125.12L98.4,125.34L97.92,124.91C94.615,121.87 90.915,119.29 86.92,117.24L86.36,116.95L86.36,116.33C86.36,111.98 86.36,107.77 86.28,103.66L87.06,104.66L66.57,100.14L67.57,99.64L62.2,111.05L61.98,111.52L61.47,111.52C56.966,111.712 52.508,112.499 48.21,113.86L47.75,114L47.42,113.67L38.42,104.73L39.29,104.82L21.56,116.06L21.77,115.43L25.97,127.43L26.05,127.65L25.9,127.82C19.71,134.63 18.04,138.95 17.82,138.82C17.888,138.542 17.989,138.274 18.12,138.02C18.36,137.51 18.73,136.75 19.29,135.75C20.983,132.733 22.994,129.907 25.29,127.32L25.21,127.71C23.98,124.43 22.51,120.55 20.73,115.84L20.58,115.45L20.95,115.21L38.5,103.71L38.96,103.41L39.37,103.8L48.48,112.63L47.69,112.44C52.11,110.989 56.704,110.131 61.35,109.89L60.61,110.38C62.3,106.71 64.05,102.91 65.92,98.87L66.22,98.21L66.94,98.36L87.46,102.73L88.23,102.89L88.23,103.69C88.277,107.803 88.33,112.027 88.39,116.36L87.83,115.46C91.998,117.572 95.863,120.236 99.32,123.38L98.24,123.17L110.14,118.8L110.96,118.5L111.44,119.24L122.83,136.86L123.32,137.62L122.68,138.27L113.81,147.33L114.09,146.17C115.534,150.625 116.378,155.252 116.6,159.93L115.93,158.93L127.42,164.27L128.28,164.67L128.08,165.59L123.64,186.1L123.44,187.02L122.49,187.02L116.17,187.08L109.82,187.08L110.82,186.44C108.673,190.607 105.983,194.471 102.82,197.93L103.05,196.72L107.39,208.64L107.71,209.53L106.92,210.04L89.39,221.41L88.6,221.91L87.94,221.26L78.94,212.37L80.1,212.64C75.643,214.071 71.016,214.905 66.34,215.12L67.34,214.47C65.48,218.47 63.64,222.37 61.96,225.95L61.59,226.75L60.72,226.56L40.23,222.07L39.4,221.89L39.4,221.05C39.4,216.63 39.34,212.3 39.32,208.37L39.88,209.27C35.726,207.127 31.878,204.436 28.44,201.27L29.44,201.47L17.51,205.76L16.8,206.02L16.4,205.39L5,187.72L4.64,187.15L5.11,186.67L14.04,177.67L13.86,178.46C12.452,174.031 11.644,169.434 11.46,164.79L11.86,165.39L0.44,159.94L0,159.73L0.11,159.27C2,151 3.56,144.12 4.77,138.81L4.84,138.5L5.14,138.5L14.51,138.61L16.95,138.68C17.243,138.672 17.535,138.703 17.82,138.77Z" style="fill:rgb(218,218,218);fill-rule:nonzero;"/>
            <path id="Trazado_1266" d="M191.59,181.15C194.947,174.592 199.164,168.512 204.13,163.07L197.13,143.9L225.51,125.63L240.07,139.92C247.086,137.652 254.374,136.334 261.74,136L270.36,117.52L303.36,124.67L303.55,145.05C310.108,148.41 316.189,152.631 321.63,157.6L340.8,150.6L359.05,179L344.76,193.56C347.029,200.566 348.35,207.844 348.69,215.2L367.18,223.82L360.03,256.82L339.64,257.01C336.283,263.568 332.066,269.648 327.1,275.09L334.1,294.26L305.7,312.51L291.14,298.22C284.13,300.485 276.849,301.807 269.49,302.15L260.87,320.63L227.87,313.48L227.68,293.09C221.117,289.737 215.033,285.52 209.59,280.55L190.43,287.55L172.16,259.17L186.45,244.61C184.176,237.602 182.854,230.32 182.52,222.96L164.03,214.35L171.18,181.35L191.57,181.16L191.59,181.15ZM230.59,209.9C239.833,209.889 247.432,202.281 247.432,193.038C247.432,183.788 239.82,176.176 230.57,176.176C221.32,176.176 213.708,183.788 213.708,193.038C213.708,202.281 221.307,209.889 230.55,209.9L230.59,209.9Z" style="fill:rgb(237,238,240);"/>
        </g>
    </g>
</svg>
