<svg xmlns="http://www.w3.org/2000/svg" viewBox="0 0 259.45 330"><defs><style>.cls-1{fill:#f2f7fd;}.cls-2{fill:#edecec;}.cls-3{fill:#909090;}</style></defs><g id="Capa_2" data-name="Capa 2"><g id="Capa_1-2" data-name="Capa 1"><rect class="cls-1" x="68.64" y="157.63" width="121.61" height="27.51" rx="3.44"/><path class="cls-2" d="M129.11,317.22a8.68,8.68,0,1,1,8.68-8.67A8.68,8.68,0,0,1,129.11,317.22Z"/><rect class="cls-2" x="68.64" y="219.76" width="121.61" height="27.51" rx="3.44"/><path class="cls-2" d="M202.43,156.81a16.22,16.22,0,0,0-15.63-12H72.08a16.24,16.24,0,0,0-16.22,16.22V162a6.06,6.06,0,0,0-1.48-.18,41.61,41.61,0,0,1,0-83.21,43,43,0,0,1,6.09.44,6.38,6.38,0,0,0,7.22-5.27A73,73,0,0,1,208.61,61.51a6.4,6.4,0,0,0,4.27,4,46.56,46.56,0,0,1-10.45,91.28Z"/><rect class="cls-1" x="68.64" y="95.51" width="121.61" height="27.51" rx="3.44"/><path class="cls-3" d="M259.45,110.32a59.61,59.61,0,0,0-39.92-56.09A85.83,85.83,0,0,0,56.26,65.83c-.63,0-1.25,0-1.88,0a54.38,54.38,0,0,0,0,108.76,6.58,6.58,0,0,0,1.48-.17v7.32a16.24,16.24,0,0,0,16.22,16.22H186.8A16.24,16.24,0,0,0,203,181.7V169.58A59.41,59.41,0,0,0,259.45,110.32ZM190.24,181.7a3.44,3.44,0,0,1-3.44,3.44H72.08a3.44,3.44,0,0,1-3.44-3.44V161.07a3.45,3.45,0,0,1,3.44-3.44H186.8a3.45,3.45,0,0,1,3.44,3.44Zm12.19-24.89a16.22,16.22,0,0,0-15.63-12H72.08a16.24,16.24,0,0,0-16.22,16.22V162a6.06,6.06,0,0,0-1.48-.18,41.61,41.61,0,0,1,0-83.21,43,43,0,0,1,6.09.44,6.38,6.38,0,0,0,7.22-5.27A73,73,0,0,1,208.61,61.51a6.4,6.4,0,0,0,4.27,4,46.56,46.56,0,0,1-10.45,91.28Z"/><path class="cls-3" d="M186.8,82.73H72.08A16.24,16.24,0,0,0,55.86,99v20.63A16.24,16.24,0,0,0,72.08,135.8H186.8A16.24,16.24,0,0,0,203,119.58V99A16.24,16.24,0,0,0,186.8,82.73Zm3.44,36.85A3.45,3.45,0,0,1,186.8,123H72.08a3.45,3.45,0,0,1-3.44-3.44V99a3.44,3.44,0,0,1,3.44-3.44H186.8A3.44,3.44,0,0,1,190.24,99Z"/><path class="cls-3" d="M134,102.87H82a6.39,6.39,0,0,0,0,12.78h52a6.39,6.39,0,1,0,0-12.78Z"/><path class="cls-3" d="M155,102.87h-2.47a6.39,6.39,0,1,0,0,12.78H155a6.39,6.39,0,0,0,0-12.78Z"/><path class="cls-3" d="M174.65,102.87h-2.47a6.39,6.39,0,0,0,0,12.78h2.47a6.39,6.39,0,0,0,0-12.78Z"/><path class="cls-3" d="M134,165H82a6.39,6.39,0,1,0,0,12.78h52A6.39,6.39,0,1,0,134,165Z"/><path class="cls-3" d="M155,165h-2.47a6.39,6.39,0,1,0,0,12.78H155A6.39,6.39,0,0,0,155,165Z"/><path class="cls-3" d="M174.65,165h-2.47a6.39,6.39,0,0,0,0,12.78h2.47a6.39,6.39,0,0,0,0-12.78Z"/><path class="cls-3" d="M186.8,207H72.08A16.23,16.23,0,0,0,55.86,223.2v20.63A16.23,16.23,0,0,0,72.08,260h50.64v28a21.46,21.46,0,1,0,12.78,0V260h51.3A16.23,16.23,0,0,0,203,243.83V223.2A16.23,16.23,0,0,0,186.8,207ZM129.11,317.22a8.68,8.68,0,1,1,8.68-8.67A8.68,8.68,0,0,1,129.11,317.22Zm61.13-73.39a3.45,3.45,0,0,1-3.44,3.44H72.08a3.45,3.45,0,0,1-3.44-3.44V223.2a3.44,3.44,0,0,1,3.44-3.44H186.8a3.44,3.44,0,0,1,3.44,3.44Z"/><path class="cls-3" d="M134,227.12H82a6.39,6.39,0,1,0,0,12.78h52a6.39,6.39,0,1,0,0-12.78Z"/><path class="cls-3" d="M155,227.12h-2.47a6.39,6.39,0,1,0,0,12.78H155a6.39,6.39,0,0,0,0-12.78Z"/><path class="cls-3" d="M174.65,227.12h-2.47a6.39,6.39,0,1,0,0,12.78h2.47a6.39,6.39,0,1,0,0-12.78Z"/></g></g></svg>