<svg xmlns="http://www.w3.org/2000/svg" viewBox="0 0 376.61 415.7"><defs><style>.cls-1{fill:#909090;}.cls-2{fill:#edecec;}.cls-3{fill:#fff;}</style></defs><g id="Capa_2" data-name="Capa 2"><g id="Capa_1-2" data-name="Capa 1"><path class="cls-1" d="M158.87,1.11a2.65,2.65,0,0,1,1.24.29l21.52,10.77a10.63,10.63,0,0,0,5,1.13,10.67,10.67,0,0,0,5-1.33L212.68.34A2.64,2.64,0,0,1,213.9,0,2.72,2.72,0,0,1,216,.94a2.52,2.52,0,0,1,.6,2.11L213,26.85a10.75,10.75,0,0,0,3.28,9.43l17.57,16.44a2.59,2.59,0,0,1,.72,2.7,2.56,2.56,0,0,1-2.1,1.84L208.71,61.2a10.72,10.72,0,0,0-8,6L190.55,89a2.65,2.65,0,0,1-4.75.1L174.72,67.76a10.7,10.7,0,0,0-8.19-5.7l-23.88-3a2.65,2.65,0,0,1-1.56-4.49L158,37.45a10.69,10.69,0,0,0,2.89-9.55L156.33,4.27a2.52,2.52,0,0,1,.51-2.14A2.77,2.77,0,0,1,158.87,1.11Z"/><path class="cls-1" d="M54.7,56.9a2,2,0,0,1,.94.22L72.1,65.35a8.15,8.15,0,0,0,7.62-.15l16.11-8.89a1.93,1.93,0,0,1,.94-.26,2.08,2.08,0,0,1,1.58.71,2,2,0,0,1,.46,1.62l-2.74,18.2a8.16,8.16,0,0,0,2.5,7.2L112,96.35a2,2,0,0,1-1,3.48l-18.15,3a8.2,8.2,0,0,0-6.08,4.6L78.91,124.1a2,2,0,0,1-3.62.08l-8.48-16.33a8.17,8.17,0,0,0-6.26-4.36L42.3,101.21a2,2,0,0,1-1.19-3.43L54,84.68a8.2,8.2,0,0,0,2.21-7.3L52.75,59.31a2,2,0,0,1,.4-1.63A2,2,0,0,1,54.7,56.9Z"/><path class="cls-1" d="M8.87,140.25a1.2,1.2,0,0,1,.6.14l10.29,5.15a5.12,5.12,0,0,0,4.77-.1l10.08-5.56a1.27,1.27,0,0,1,.59-.16,1.31,1.31,0,0,1,1,.44,1.24,1.24,0,0,1,.29,1l-1.72,11.38a5.11,5.11,0,0,0,1.57,4.51l8.4,7.87a1.23,1.23,0,0,1,.35,1.29,1.25,1.25,0,0,1-1,.88L32.72,169a5.11,5.11,0,0,0-3.81,2.88L24,182.3a1.23,1.23,0,0,1-1.12.73,1.21,1.21,0,0,1-1.15-.68l-5.31-10.22a5.11,5.11,0,0,0-3.91-2.73L1.11,168a1.27,1.27,0,0,1-.74-2.15l8.08-8.2a5.12,5.12,0,0,0,1.38-4.56L7.66,141.76a1.19,1.19,0,0,1,.24-1A1.28,1.28,0,0,1,8.87,140.25Z"/><path class="cls-1" d="M321.86,56.84a1.92,1.92,0,0,0-.95.22L304.46,65.3a8.15,8.15,0,0,1-7.62-.15l-16.12-8.88a1.87,1.87,0,0,0-.93-.26,2,2,0,0,0-1.58.71,1.91,1.91,0,0,0-.46,1.62l2.75,18.19a8.21,8.21,0,0,1-2.5,7.21L264.58,96.32a2,2,0,0,0-.56,2.06,2,2,0,0,0,1.61,1.41l18.15,3a8.21,8.21,0,0,1,6.08,4.61l7.82,16.65a2,2,0,0,0,3.62.07l8.47-16.33a8.19,8.19,0,0,1,6.26-4.36l18.25-2.29a2,2,0,0,0,1.19-3.42l-12.92-13.1a8.2,8.2,0,0,1-2.21-7.3l3.47-18.07a2,2,0,0,0-.4-1.64A2.09,2.09,0,0,0,321.86,56.84Z"/><circle class="cls-1" cx="190.33" cy="266.2" r="149.5"/><circle class="cls-2" cx="190.33" cy="266.2" r="135.5"/><path class="cls-1" d="M367.72,140.16a1.29,1.29,0,0,0-.59.15l-10.29,5.15a5.11,5.11,0,0,1-2.4.54,5,5,0,0,1-2.37-.63L342,139.81a1.16,1.16,0,0,0-.58-.16,1.31,1.31,0,0,0-1,.44,1.24,1.24,0,0,0-.29,1l1.72,11.38a5.13,5.13,0,0,1-1.56,4.51l-8.4,7.87a1.23,1.23,0,0,0-.35,1.29,1.22,1.22,0,0,0,1,.88l11.35,1.88a5.16,5.16,0,0,1,3.81,2.88l4.89,10.43a1.26,1.26,0,0,0,2.27,0l5.3-10.22a5.11,5.11,0,0,1,3.91-2.73l11.43-1.43a1.27,1.27,0,0,0,.74-2.14l-8.08-8.2a5.11,5.11,0,0,1-1.39-4.57l2.17-11.3a1.21,1.21,0,0,0-.25-1A1.3,1.3,0,0,0,367.72,140.16Z"/><path class="cls-1" d="M190.46,262.22a48.36,48.36,0,1,1,48.35-48.36A48.42,48.42,0,0,1,190.46,262.22Z"/><path class="cls-3" d="M190.46,179.5a34.36,34.36,0,1,0,34.35,34.36A34.39,34.39,0,0,0,190.46,179.5Z"/><path class="cls-1" d="M244.57,366.9H136.08a20.64,20.64,0,0,1-20.58-20.41v-.59a74.83,74.83,0,1,1,149.66-.14v.67A20.65,20.65,0,0,1,244.57,366.9Z"/><path class="cls-3" d="M190.33,285.07h-.48A61,61,0,0,0,129.5,345.9v.49a6.6,6.6,0,0,0,6.58,6.51H244.57a6.61,6.61,0,0,0,6.58-6.56v-.57a60.69,60.69,0,0,0-60.83-60.7Z"/></g></g></svg>