<svg xmlns="http://www.w3.org/2000/svg" viewBox="0 0 402.27 330"><defs><style>.cls-1{fill:#909090;}.cls-2{fill:#edecec;}.cls-3{fill:#f2f7fd;}</style></defs><g id="Capa_2" data-name="Capa 2"><g id="Capa_1-2" data-name="Capa 1"><path class="cls-1" d="M269.58,88.88H136.8a21.56,21.56,0,0,1-21.53-21.53V21.52A21.55,21.55,0,0,1,136.8,0H269.58A21.55,21.55,0,0,1,291.1,21.52V67.35A21.55,21.55,0,0,1,269.58,88.88ZM136.8,14.35a7.18,7.18,0,0,0-7.18,7.17V67.35a7.19,7.19,0,0,0,7.18,7.18H269.58a7.18,7.18,0,0,0,7.17-7.18V21.52a7.18,7.18,0,0,0-7.17-7.17Z"/><path class="cls-1" d="M269.58,209.44H136.8a21.56,21.56,0,0,1-21.53-21.53V142.09a21.56,21.56,0,0,1,21.53-21.53H269.58a21.55,21.55,0,0,1,21.52,21.53v45.82A21.55,21.55,0,0,1,269.58,209.44ZM136.8,134.91a7.19,7.19,0,0,0-7.18,7.18v45.82a7.19,7.19,0,0,0,7.18,7.18H269.58a7.18,7.18,0,0,0,7.17-7.18V142.09a7.18,7.18,0,0,0-7.17-7.18Z"/><path class="cls-1" d="M269.58,330H136.8a21.55,21.55,0,0,1-21.53-21.52V262.65a21.56,21.56,0,0,1,21.53-21.53H269.58a21.55,21.55,0,0,1,21.52,21.53v45.83A21.55,21.55,0,0,1,269.58,330ZM136.8,255.47a7.19,7.19,0,0,0-7.18,7.18v45.83a7.18,7.18,0,0,0,7.18,7.17H269.58a7.18,7.18,0,0,0,7.17-7.17V262.65a7.18,7.18,0,0,0-7.17-7.18Z"/><path class="cls-1" d="M67.4,7.06a7.3,7.3,0,1,0-9.94,10.7l21,19.5H7.17a7.18,7.18,0,0,0,0,14.35H78.46l-21,19.52a7.27,7.27,0,0,0-.56,10.11l1.81-1.56a.19.19,0,0,0,.25,0l-1.87,1.74a7.3,7.3,0,0,0,10.31.38l34.45-32a7.31,7.31,0,0,0,0-10.7Z"/><path class="cls-1" d="M399.94,280.22l-34.45-32a7.3,7.3,0,0,0-12.27,5.61,7.23,7.23,0,0,0,2.33,5.08l21,19.51H305.26a7.18,7.18,0,0,0,0,14.35h71.29l-21,19.52a7.27,7.27,0,0,0-.56,10.11l1.81-1.56a.2.2,0,0,0,.25,0h0l-1.88,1.74a7.32,7.32,0,0,0,10.32.37l34.45-32a7.3,7.3,0,0,0,0-10.69Z"/><path class="cls-1" d="M371.8,176.56H304.75a7.18,7.18,0,1,1,0-14.35H371.8a6.16,6.16,0,0,0,6.15-6.15V54.11A6.16,6.16,0,0,0,371.8,48H304.75a7.18,7.18,0,1,1,0-14.35H371.8a20.53,20.53,0,0,1,20.5,20.5v102A20.53,20.53,0,0,1,371.8,176.56Z"/><path class="cls-1" d="M101.62,301.61H34.57a20.53,20.53,0,0,1-20.5-20.5v-102a20.52,20.52,0,0,1,20.5-20.5h67.05a7.18,7.18,0,1,1,0,14.35H34.57a6.16,6.16,0,0,0-6.15,6.15v102a6.16,6.16,0,0,0,6.15,6.15h67.05a7.18,7.18,0,1,1,0,14.35Z"/><rect class="cls-2" x="129.62" y="14.35" width="147.13" height="60.18" rx="7.17"/><rect class="cls-3" x="129.62" y="134.91" width="147.13" height="60.18" rx="7.17"/><rect class="cls-2" x="129.62" y="255.47" width="147.13" height="60.18" rx="7.17"/></g></g></svg>