<svg xmlns="http://www.w3.org/2000/svg" viewBox="0 0 333.01 330"><defs><style>.cls-1{fill:#edecec;}.cls-2{fill:#909090;}.cls-3{fill:#f2f7fd;}</style></defs><g id="Capa_2" data-name="Capa 2"><g id="Capa_1-2" data-name="Capa 1"><path class="cls-1" d="M147,229.65a11.54,11.54,0,0,0-9.32,4.73l-5.85,8a5.29,5.29,0,0,1-3.59,2.16,5.48,5.48,0,0,1-4.19-1.11l-21-16a6,6,0,0,1-1.24-8.09l5.85-8A12,12,0,0,0,109,199.62l-7.66-17.84a12,12,0,0,0-9.4-7.15l-9.83-1.27a5.94,5.94,0,0,1-5-6.47l2.84-26.19A5.44,5.44,0,0,1,82,136.9a5.28,5.28,0,0,1,4-1.11l9.84,1.27a11.56,11.56,0,0,0,10.78-4.64L117.92,117a12,12,0,0,0,1.29-11.74l-4-9.27a5.84,5.84,0,0,1-.1-4.42,5.4,5.4,0,0,1,2.94-3.08L141.85,78.3a5.39,5.39,0,0,1,4.26,0,5.78,5.78,0,0,1,3.14,3.12l4,9.26a11.94,11.94,0,0,0,9.4,7.15l19,2.45a11.56,11.56,0,0,0,10.76-4.64l5.85-8a5.34,5.34,0,0,1,3.59-2.17A5.47,5.47,0,0,1,206,86.57l20.95,16a6,6,0,0,1,1.24,8.09l-5.85,8A12,12,0,0,0,221,130.38l7.66,17.84a12,12,0,0,0,9.4,7.15l9.83,1.27a5.94,5.94,0,0,1,5,6.47l-2.84,26.19a5.42,5.42,0,0,1-2.08,3.8,5.24,5.24,0,0,1-4,1.11l-9.86-1.27a11.57,11.57,0,0,0-10.76,4.64L212.08,213a12,12,0,0,0-1.29,11.74l4,9.27a5.86,5.86,0,0,1,.1,4.43,5.38,5.38,0,0,1-2.94,3.07L188.15,251.7a5.43,5.43,0,0,1-4.26,0,5.88,5.88,0,0,1-3.14-3.12l-4-9.27a12,12,0,0,0-9.4-7.15l-19-2.44A11.6,11.6,0,0,0,147,229.65Z"/><path class="cls-2" d="M167.51,254.28A20.17,20.17,0,0,0,178.4,265a19.8,19.8,0,0,0,15.43-.09l23.79-10.22a19.73,19.73,0,0,0,10.69-11.12,20.12,20.12,0,0,0-.3-15.3l-3.43-8L234,207.46l8.14,1a19.88,19.88,0,0,0,22.3-17.66l2.84-26.18a20.35,20.35,0,0,0-17.5-22.32l-8.37-1.08L234.81,126l5-6.81a20.37,20.37,0,0,0-4.13-28.06l-20.95-16a19.89,19.89,0,0,0-15-3.91,19.65,19.65,0,0,0-13.15,7.92l-4.85,6.63-15.79-2-3.43-8A20.15,20.15,0,0,0,151.6,65a19.68,19.68,0,0,0-15.43.09L112.38,75.27A19.72,19.72,0,0,0,101.69,86.4a20.12,20.12,0,0,0,.3,15.3l3.43,8L96,122.55l-8.14-1a19.87,19.87,0,0,0-22.3,17.65l-2.84,26.19a20.36,20.36,0,0,0,17.5,22.32l8.37,1.08L95.19,204l-5,6.82a20.37,20.37,0,0,0,4.13,28.06l21,16a19.88,19.88,0,0,0,28.15-4l4.85-6.63,15.79,2ZM147,229.65a11.54,11.54,0,0,0-9.32,4.73l-5.85,8a5.29,5.29,0,0,1-3.59,2.16,5.48,5.48,0,0,1-4.19-1.11l-21-16a6,6,0,0,1-1.24-8.09l5.85-8A12,12,0,0,0,109,199.62l-7.66-17.84a12,12,0,0,0-9.4-7.15l-9.83-1.27a5.94,5.94,0,0,1-5-6.47l2.84-26.19A5.44,5.44,0,0,1,82,136.9a5.28,5.28,0,0,1,4-1.11l9.84,1.27a11.56,11.56,0,0,0,10.78-4.64L117.92,117a12,12,0,0,0,1.29-11.74l-4-9.27a5.84,5.84,0,0,1-.1-4.42,5.4,5.4,0,0,1,2.94-3.08L141.85,78.3a5.39,5.39,0,0,1,4.26,0,5.78,5.78,0,0,1,3.14,3.12l4,9.26a11.94,11.94,0,0,0,9.4,7.15l19,2.45a11.56,11.56,0,0,0,10.76-4.64l5.85-8a5.34,5.34,0,0,1,3.59-2.17A5.47,5.47,0,0,1,206,86.57l20.95,16a6,6,0,0,1,1.24,8.09l-5.85,8A12,12,0,0,0,221,130.38l7.66,17.84a12,12,0,0,0,9.4,7.15l9.83,1.27a5.94,5.94,0,0,1,5,6.47l-2.84,26.19a5.42,5.42,0,0,1-2.08,3.8,5.24,5.24,0,0,1-4,1.11l-9.86-1.27a11.57,11.57,0,0,0-10.76,4.64L212.08,213a12,12,0,0,0-1.29,11.74l4,9.27a5.86,5.86,0,0,1,.1,4.43,5.38,5.38,0,0,1-2.94,3.07L188.15,251.7a5.43,5.43,0,0,1-4.26,0,5.88,5.88,0,0,1-3.14-3.12l-4-9.27a12,12,0,0,0-9.4-7.15l-19-2.44A11.6,11.6,0,0,0,147,229.65Z"/><path class="cls-2" d="M208.89,183a48.75,48.75,0,0,0-26.76-62.31,46.74,46.74,0,0,0-17.88-3.58,46.26,46.26,0,0,0-43.14,29.79,48.22,48.22,0,0,0,.77,36.57,48.88,48.88,0,0,0,10,14.9,47.3,47.3,0,0,0,33.81,14.44A46.34,46.34,0,0,0,208.89,183Zm-66.76,5.29a34.6,34.6,0,0,1-7-10.51,33.83,33.83,0,0,1-.56-25.69,31.8,31.8,0,0,1,17.2-18,31.36,31.36,0,0,1,12.49-2.58,32.16,32.16,0,0,1,12.38,2.49,34.31,34.31,0,0,1,18.81,43.79,31.8,31.8,0,0,1-17.2,18A32.41,32.41,0,0,1,142.13,188.33Z"/><path class="cls-2" d="M60.48,241.94a7.89,7.89,0,0,0-10-4.78,7.87,7.87,0,0,0-4.79,10.06l6,17A149.82,149.82,0,0,1,14.41,165C14.41,82,82,14.41,165,14.41A7.21,7.21,0,0,0,165,0C74,0,0,74,0,165A164.18,164.18,0,0,0,47,280.36l-25.36-2.43a7.87,7.87,0,0,0-8.6,7.08h0a7.86,7.86,0,0,0,3,7,8,8,0,0,0,4.09,1.63l48.41,4.65.75,0a7.86,7.86,0,0,0,7.41-10.5Z"/><path class="cls-2" d="M330.79,60.68A7.93,7.93,0,0,0,327,58.49L279.69,47.12a7.88,7.88,0,0,0-9.55,9.23l9.7,47.66a7.89,7.89,0,0,0,7.72,6.29,8.22,8.22,0,0,0,1.55-.15,7.87,7.87,0,0,0,6.15-9.29L291.77,83.7A150.09,150.09,0,0,1,315.59,165c0,83-67.56,150.59-150.59,150.59A7.21,7.21,0,1,0,165,330c91,0,165-74,165-165a164.44,164.44,0,0,0-31.65-97.2l24.94,6a7.87,7.87,0,0,0,9.5-5.82h0A7.82,7.82,0,0,0,330.79,60.68Z"/><path class="cls-3" d="M142.13,188.33a34.6,34.6,0,0,1-7-10.51,33.83,33.83,0,0,1-.56-25.69,31.8,31.8,0,0,1,17.2-18,31.36,31.36,0,0,1,12.49-2.58,32.16,32.16,0,0,1,12.38,2.49,34.31,34.31,0,0,1,18.81,43.79,31.8,31.8,0,0,1-17.2,18A32.41,32.41,0,0,1,142.13,188.33Z"/></g></g></svg>